<svg xmlns="http://www.w3.org/2000/svg" viewBox="0 0 960 640" xml:space="preserve"><path fill="#0033A0" d="M813.91 598.176V610h-2.957v-11.824h-3.422v-2.938h9.802v2.938h-3.423zM829.933 610v-8.713l-2.49 5.428h-2.612l-2.49-5.427V610h-2.956v-14.762h2.956l3.797 7.883 3.795-7.883h2.957V610h-2.957z"/><g fill="#0033A0"><path d="M447.65 222.968h-40.145l-15.56 15.587v98.568l15.56 15.587h40.144l15.56-15.587v-98.568l-15.56-15.587zm-12.498 101.686h-15.147v-73.631h15.147v73.631zM358.238 158.645h-40.144l-15.56 15.59V272.8l15.56 15.589h40.144l15.56-15.59v-98.565l-15.56-15.589zm-12.5 101.688h-15.146V186.7h15.146v73.633zM768.104 480.256v44.877l-16.712-44.877h-26.495V610h28.06v-42.486L769.744 610h26.422V480.256h-28.06zM595.583 351.614h-28.06v129.738h71.265V453.3h-43.205V351.614zM524.838 287.29l-17.522 26.386V287.29h-28.06v129.744h28.06v-41.967l16.8 41.967h28.848l-30.707-76.837 32.267-52.907h-29.686zM682.873 442.04l-9.052-26.108h-28.693l23.716 67.345v62.4h28.058v-62.4l23.716-67.344h-28.696l-9.049 26.106zM274.859 169.215l12.025-12.046V109.91l-15.563-15.588h-55.704v129.742h28.058v-51.308h3.69l12.56 51.308h28.362l-13.428-54.85zm-16.038-24.513h-15.146V122.38h15.146v22.323zM198.378 45.59 182.818 30H127.11v129.743h55.708l15.56-15.588V99.947l-5.066-5.075 5.066-5.077V45.59zm-28.06 34.789H155.17V58.055h15.146V80.38zm0 51.308H155.17v-23.253h15.146v23.253z"/></g><g fill="#C8102E"><path d="m320.218 163.769-12.563 12.584v94.328l12.563 12.584h35.896l12.56-12.584v-94.328l-12.56-12.584h-35.896zm30.644 101.687h-25.391v-83.878h25.391v83.878zM409.63 228.09l-12.564 12.586v94.329l12.563 12.58h35.896l12.564-12.58v-94.33l-12.564-12.585H409.63zm30.643 101.686H414.88V245.9h25.392v83.876zM773.228 485.38v68.19l-25.391-68.19H730.02v119.496h17.816v-64.271l25.391 64.271h17.813V485.38zM590.46 356.733h-17.816v119.5h61.023v-17.81H590.46zM527.583 292.413l-25.388 38.239v-38.24h-17.816V411.91h17.815V363.25l3.57-5.847 21.82 54.506h17.815l-28.85-72.19 28.85-47.307zM682.873 457.673l-12.697-36.617h-17.815l21.604 61.345v58.151h17.813v-58.15l21.605-61.346h-17.816zM220.74 99.446v119.498h17.814v-51.31h12.828l12.563 51.31h17.815l-12.563-51.31 12.563-12.584v-43.02l-12.563-12.584h-48.456zm43.205 50.379h-25.391v-32.57h25.39v32.57zM132.234 35.124V154.62h48.46l12.56-12.584v-39.969l-7.182-7.195 7.182-7.196V47.708l-12.56-12.584h-48.46zm43.207 101.685H150.05v-33.498h25.391v33.498zm0-51.306H150.05v-32.57h25.391v32.57z"/></g></svg>