<svg xmlns="http://www.w3.org/2000/svg" viewBox="0 0 960 640" xml:space="preserve"><path fill="#010101" d="M706.57 587.439v11.824h-2.958V587.44h-3.422v-2.938h9.802v2.938h-3.423zm16.022 11.824v-8.712l-2.49 5.427h-2.612l-2.49-5.427v8.712h-2.956v-14.762H715l3.796 7.884 3.796-7.884h2.956v14.762h-2.956zM475.09 640c-67.072 0-140.401-27.698-197.87-75.066-49.393-40.717-109.158-113.758-113.358-230.523-4.111-114.286 45.347-215.167 135.692-276.781C345.425 26.342 399.59 6.949 456.192 1.547 514.741-4.048 574.692 5.6 629.58 29.43c57.394 24.924 89.582 57.563 108.82 77.064 11.244 11.4 18.689 18.913 23.545 17.11 15.891-6.008 17.72-14.807 17.74-14.895l1.145.21-1.144-.21c.42-2.269 2.58-6.57 7.762-6.61h.183c2.987 0 4.972.582 6.232 1.835 1.599 1.585 1.599 3.8 1.599 5.94 0 3.496.907 185.174.914 187.01-.007.541-.19 12.809-5.073 17.266-3.19 2.912-7.363 4.734-11.4 6.496-6.286 2.75-11.72 5.12-12.18 10.797-.541 6.57 5.799 14.543 11.929 22.245 4.498 5.656 8.745 10.993 10.662 16.04 4.633 12.22 8.718 38.15.982 59.494-15.166 41.773-36.558 89.941-80.2 130.434-53.58 49.713-130.103 76.692-227.432 80.188-2.841.1-5.703.155-8.572.155z"/><path fill="#FFF" d="M777.829 355.145c-6.415-8.06-13.047-16.4-12.437-23.891.583-7.065 7.187-9.95 13.575-12.741 3.867-1.687 7.857-3.435 10.763-6.083 3.434-3.136 4.28-12.288 4.315-15.553-.007-1.815-.915-183.506-.915-186.981 0-1.836 0-3.407-.907-4.308-.8-.78-2.344-1.2-4.762-1.159-4.525.041-5.446 4.498-5.487 4.708-.108.59-2.12 10.188-19.203 16.65-6.293 2.35-13.71-5.162-26.038-17.652-19.116-19.387-51.108-51.82-108.089-76.564C584.195 12.266 536.39 2.332 488.73 2.332c-10.794 0-21.578.512-32.314 1.535-56.212 5.368-109.999 24.626-155.552 55.687-89.667 61.16-138.753 161.309-134.671 274.775 4.169 115.899 63.486 188.39 112.511 228.803 59.49 49.042 136 76.794 204.878 74.382 232.64-8.352 283.713-149.022 305.518-209.091 7.526-20.741 3.543-45.973-.969-57.868-1.788-4.708-5.927-9.91-10.302-15.41zm-1.04 72.58c-3.509 11.712-22.875 99.438-136.03 162.516-72.946 40.662-250.644 67.994-365.387-45.134-51.68-50.945-96.09-115.77-100.153-210.75-3.706-86.555 28.822-155.37 55.747-190.857C338.028 2.445 478.258 5.5 537.213 15.626c51.074 8.772 107.282 27.17 139.945 51.27 35.667 26.316 52.208 54.265 63.327 61.872 14.807 10.133 24.219 5.385 30.75 3.434 6.53-1.95 10.725-11.502 10.725-11.502l2.046.271v171.863s2.72 18.513-17.35 15.593c-25-3.644-53.916-29.574-72.327-51.467-14.422-17.158-68.123-105.63-146.004-128.66-36.06-10.662-87.347-22.827-186.338 33.95-7.617 4.369-102.629 74.24-104.085 161.58-1.047 62.711 67.846 128.7 96.071 150.485 78.28 60.428 162.983 46.955 214.233 29.629C639.164 479.97 675.42 385.62 735.849 373.143c7.254-1.504 30.403-3.333 38.603 9.55 8.202 12.891 5.846 33.328 2.337 45.033zM621.372 320.018c.657 2.953.985 5.25-.33 7.878-1.303 2.628-1.303 6.57-1.631 8.54-.329 1.965.657 5.9.657 10.833 0 4.924-2.629 18.058-6.232 23.308-3.6 5.25-2.615 7.552-4.586 9.848-1.961 2.297-.318 1.315-4.907 4.275-4.59 2.953-4.59 6.563-6.232 10.838-1.633 4.254 0 5.568-1.961 8.196-1.962 2.628-5.247 4.931-10.154 6.57-4.914 1.64-7.309 4.66-7.309 4.66s-2.195 2.562-5.141 3.55c-2.947.983-6.232 2.297-6.232 2.297s-3.275 1.307-7.204-.983c-3.932-2.302-1.965-1.313-4.586-.331s-2.621.982-3.603 3.935c-.979 2.953-1.965 7.227-2.95 8.873-.976 1.633-.657 1.3-3.929 1.965-3.279.65-5.568-.982-6.882.65-1.308 1.646-1.643 3.942-1.643 3.942s1.314 4.268-.975 7.886c-2.293 3.616-3.94 4.599-6.229 6.231-2.29 1.646 0 2.303-4.25 3.292-4.268.982-7.868.325-9.836.65-1.964.332-1.964 0-2.947 1.314-.984 1.315 0 3.28-1.635 4.593-1.64 1.314-2.954 1.314-4.261 2.303-1.31.983-1.314 1.314-2.293 2.629-.985 1.313-2.624 2.628-3.275 3.61-.657.982 0 5.582-.982 7.877-.99 2.297-2.95 3.61-2.95 3.61s-2.625 1.647-3.604 2.297c-.985.664-2.946 1.646-2.946 1.646s-1.971 1.314-3.279 2.296c-1.31.99.681.76-3.25 2.398-3.933 1.653-7.428 1.111-9.068.786-1.635-.331-3.082-2.851-4.39-4.166-1.313-1.314-1.642-.982-5.574-4.274-3.925-3.278-2.29-2.296-5.236-5.242-2.95-2.96-7.21-8.543-8.847-9.525-1.639-.989-6.55-3.292-8.192-2.303-1.639.99-6.55 2.303-8.19 2.954-1.639.664-7.86 3.292-9.5 3.617-1.639.325-6.225.989-10.157 0-3.929-.989-15.397-4.931-15.397-4.931l-17.69-5.907s-11.138-4.268-14.413-5.581c-3.28-1.315-7.21-2.29-8.522-3.943-1.307-1.632-4.254-8.203-4.254-8.203s-.328-3.285-3.607-3.285c-3.275 0-2.95 1.314-6.55.332-3.607-.983-9.504.657-9.504-10.506s-1.635-215.377-1.635-215.377-1.311-6.564.653-7.546l89.437-2.303s4.915.331 6.883 2.628c1.964 2.296 6.22 6.57 10.156 7.22 3.933.664 8.515 0 10.154.99 1.636.982 1.636.657 6.225 6.895 4.583 6.232 6.554 9.192 9.5 9.849s5.24 2.628 12.45-1.64c7.208-4.273 13.105-7.227 17.361-7.884 4.261-.65 26.208-1.314 29.493-1.64 3.275-.324 7.53-2.952 14.083-6.238 6.55-3.285 7.536-1.646 10.482-3.942 2.947-2.296 3.276-2.296 4.918-3.935 1.632-1.64.322-.657 3.6-2.303 3.275-1.64 5.893-3.28 9.175-4.594 3.269-1.313 4.257-.988 6.554-1.97 2.29-.982 2.618-.982 4.25-1.315 1.643-.331.328.657 2.957-.331 2.618-.982 6.218-2.628 9.175-4.268 2.946-1.64 2.29-1.314 5.236-1.64s3.285-.324 5.246-.981c1.961-.657 3.275-.982 3.275-.982s1.633-1.646 3.922-2.629c2.3-.989 5.9-3.285 8.2-3.285 2.29 0 5.893-1.314 5.893-1.314s.986.657.986 2.628.328 112.938.328 112.938.976 2.628-2.3 5.256c-3.275 2.622-3.932 3.279-3.932 5.582 0 2.297 3.276 7.872 3.933 10.832z"/><path fill="#C8102E" d="M774.854 154.565c-.004-.766.046-1.524.142-2.284.364-2.86 1.05-10.477-2.14-9.417-3.901 1.3-18.895 4.552-33.235-2.602-14.346-7.16-29.012-30.095-43.538-44.252-28.395-27.657-70.168-46.434-92.444-54.59-168.862-61.87-302.792 30.57-339.834 76.07-28.846 35.432-69.742 87.177-77.562 166.551-7.82 79.375 13.943 178.773 86.943 245.778 73 67.013 144.467 90.307 254.597 82.768 124.62-8.521 183.165-88.471 217.704-138.57 34.54-50.099 29.33-83.926 20.213-90.443-9.13-6.502-37.817-5.845-71.71 25.382-33.892 31.227-68.431 78.074-104.931 94.98-36.504 16.921-126.723 50.83-226.178-13.662-89.298-57.902-115.384-131.505-115.895-172.987-.732-58.958 65.129-145.195 149.211-184.882 57.797-27.277 106.818-25.977 136.152-19.474 29.334 6.51 77.566 27.332 112.108 65.062 34.55 37.729 59.968 87.177 93.86 107.349 33.893 20.166 38.455 14.306 37.808-1.3-.617-14.67-1.202-117.077-1.27-129.477z"/><path fill="#FFF" d="M347.166 213.974h-5.896s-2.297-.332-2.947 2.629c-.658 2.953.325 27.243.325 27.243l1.964 184.841s0 3.617 1.964 5.582c1.968 1.964 5.244 2.296 7.537 1.64 2.292-.658 3.935-1.972 5.9-.326 1.963 1.639 3.278 5.256 3.603 8.21.325 2.953 1.31 3.278 6.879 6.57 5.571 3.279 45.54 16.406 46.847 16.732 1.31.331 3.603 1.977 13.107-1.315 9.5-3.279 19.654-6.231 20.64-6.564.985-.331 1.964-2.296 5.896 1.646 3.932 3.936 11.468 14.449 13.104 16.088 1.642 1.646 1.642 0 3.603 2.629 1.965 2.62 1.636 4.598 5.24 5.906 3.607 1.314 6.224.657 10.157-1.972 3.932-2.628 8.52-4.592 8.843-7.22.329-2.628-1.307-5.257 0-7.221 1.31-1.978 3.939-3.292 5.903-4.931 1.961-1.64 7.53-6.232 8.186-8.535.657-2.296-1.636-3.61.986-5.243 2.618-1.646 3.604-2.628 6.55-1.646s7.208 3.61 11.143-.982c3.929-4.606 4.582-6.245 4.911-9.856.328-3.61-.007-7.552 2.618-7.878 2.625-.331 3.932 1.64 7.207-.331 3.275-1.972 4.59-4.593 5.903-7.878 1.308-3.278 1.308-6.564 4.261-7.878 2.947-1.314 7.356-.291 11.279.088 8.098.765 6.553-.603 13.69-5.033 4.053-2.513 8.182-2.96 10.8-6.564 2.618-3.617 3.217-7.857 3.217-7.857l3.276-7.56 8.182-7.877 5.903-10.831s4.258-12.153 4.915-15.106c.657-2.954 0-6.896-.329-11.82-.328-4.918.677-10.276.677-10.276l1.612-10.736s-5.57-8.542-4.585-12.145c.985-3.617 5.571-6.564 6.229-8.21.646-1.64 0-90.944 0-90.944V196.24s1.632-4.924-3.604-3.61c-5.243 1.315-6.885 2.297-6.885 2.297s-6.551.657-8.84 1.971c-2.3 1.314-5.904 3.61-5.904 3.61l-11.136 1.97s-11.796 2.961-17.036 7.229c-5.239 4.267-5.568 4.917-12.446 7.878-6.88 2.953-8.522 3.935-8.522 3.935s-8.193 6.239-11.793 6.896c-3.603.657-17.042.657-21.293 1.314-4.26.657-5.9-.989-11.793.325-5.903 1.314-12.453 5.914-17.364 8.21-4.918 2.303-11.797 2.953-16.05 1.314-4.262-1.64-8.194-5.907-10.815-9.849-2.621-3.942.325-3.942-3.275-5.581-3.607-1.64-2.293-.651-7.864-1.64-5.572-.989-11.465-2.953-14.415-6.57-2.95-3.61-2.292-3.943-5.239-3.943-2.954 0-75.026 1.978-75.026 1.978z"/><path fill="#C8102E" d="M606.077 317.747c-2.336-7.03-2.608-5.567-1.35-11.406 1.547-7.147 5.594-4.559 5.594-12.755 0-8.196-.583-91.615-.583-91.615s-3.576-.61-11.759 2.9c-8.182 3.522-2.353 1.435-12.883 4.944-10.513 3.516-4.67-1.463-16.43 5.5-6.472 3.82-2.702 7.147-19.484 12.559-8.467 2.736-8.403 5.398-16.585 6.57-8.183 1.172-12.722.19-22.303 1.138-9.592.955-12.857 0-22.211 4.688-9.345 4.687-9.1 6.353-16.816 6.543-11.681.298-13.615-1.084-17.547-5.026-5.29-5.297-4.667-10.743-10.892-11.732-10.645-1.68-15.146 1.104-19.33-4.593-7.013-3.515.313-3.942-16.05-3.942-16.365 0-60.936 1.314-60.936 1.314l1.315 204.498 14.089.583s2.059.136 3.858 3.279c1.243 2.18.345 6.94 2.895 9.672 5.144 5.509 16.644 9.134 16.644 9.134.719.256 8.872 3.06 15.831 5.447 3.1 1.496 8.18 3.084 10.015 3.42 12.857 2.343 2.508 1.86 14.21-.416 6.942-1.354 14.973-6.774 21.98-5.608 7.02 1.178 9.998 1.503 13.504 6.19 3.509 4.675 2.268 5.954 6.943 9.463 4.677 3.516 2.459 3.834 7.136 7.35 4.677 3.508 5.785 4.443 7.904.583 2.527-4.593.572-5.4 4.085-8.915 3.51-3.509 1.03-3.59 6.53-5.581 6.211-2.263 2.817-2.615 6.323-7.302 3.51-4.688 4.79-10.662 11.803-11.834 7.011-1.172 10.788 2.377 11.956-3.482 1.169-5.86-.44-9.828 5.399-13.337 5.849-3.516 7.495-.542 10.994-4.064 3.509-3.51.521-9.619 6.367-13.128 5.845-3.522 7.088-4.47 11.762-3.292 4.67 1.172 5.345 1.179 11.184-1.165 5.845-2.344 7.722-4.051 10.8-6.178 3.09-2.126 2.788-13.025 10.615-17.015 4.654-2.37 13.155-17.87 14.316-30.753 1.176-12.883 1.108-10.134 1.108-18.343 0-8.196 2.336-7.268 0-14.293z"/><path fill="#FFF" d="M551.006 391.587c-.106-.593-.204-3.494-.14-4.14.198-2.02.24-4.03.268-5.914.03-1.988-.099-7.523-.211-12.408-.081-3.53-.158-6.864-.144-7.554.043-1.941-.002-3.675-.141-5.302l-.027-.313c-.632-7.53-1.307-12.185-2.062-14.233-1.258-3.405-3.375-5.922-5.478-8.136-.273-.287-.537-.582-.801-.876-.755-.838-1.536-1.704-2.525-2.488-1.186-.938-2.56-1.742-4.198-2.456-2.816-1.23-5.876-2.185-9.093-2.837-1.157-.235-2.321-.432-3.484-.63l-.722-.123c.83-.82 3.052-3.26 5.259-5.692l1.144-1.259a135.095 135.095 0 0 0 3.559-4.02 75.19 75.19 0 0 0 6.303-8.637l.335-.53c.783-1.238 1.593-2.517 2.255-3.941.674-1.452 2.835-7.929 3.367-9.794.774-2.708.372-11.39.302-12.291a21.509 21.509 0 0 0-3.498-10.14c-1.878-2.847-4.439-5.397-8.058-8.025-3.068-2.228-6.756-4.66-10.849-5.794-4.573-1.267-8.736-.167-12.408.803a119.905 119.905 0 0 0-11.707 3.737c-7.894 2.986-15.308 6.729-22.033 11.126-7.656 5.006-13.322 10.844-16.84 17.353-3.692 6.828-5.576 15.195-5.598 24.867-.007 2.95.141 5.91.285 8.772.065 1.286.129 2.571.18 3.857.07 1.768.028 3.516-.016 5.367-.055 2.305-.112 4.688.067 7.104.265 3.612.043 18.128-.106 24.592-.042 1.828-.107 3.948-.345 5.982-.122 1.042-.315 2.083-.52 3.185a65.454 65.454 0 0 0-.475 2.792c-.441 3.122-1.705 6.224-3.976 9.763-1.624 2.53-3.74 4.938-6.454 7.345.23-.52.448-1.038.663-1.55.396-.94.77-1.826 1.19-2.685.717-1.469 3.736-13.428 4.016-16.316.471-4.854.6-10.087.422-16.968-.068-2.657.052-13.463.12-16.409.08-3.494-.047-7.006-.17-10.403-.073-2.024-.149-4.119-.179-6.165-.076-5.25.074-10.622.446-15.967l.076-1.127c.145-2.23.282-4.335.723-6.346.43-1.96 1.185-4.008 2.242-6.083.52-1.018 2.825-5.091 3.485-6.245 1.035-1.806 2.39-3.655 4.026-5.496 1.463-1.645 8.453-7.922 10.246-9.2 1.83-1.305 4.673-3.776 7.242-6.293 4.404-4.317 5.269-5.806 4.404-7.59-.49-1.012-1.713-1.819-3.344-1.346-1.693.492-3.913 1.296-6.06 2.072-2.215.8-4.505 1.629-6.138 2.09-2.76.779-5.784 1.236-8.707 1.678l-1.769.27c-3.702.578-6.705.855-9.45.872-3.21.02-6.447-.411-9.164-.838-3.139-.491-6.133-1.164-8.9-2-.627-.19-1.25-.385-1.87-.581-2.4-.758-4.884-1.541-7.58-1.899-3.769-.5-7.228-.4-10.277.301-3.513.806-6.611 2.72-8.918 4.297-2.625 1.794-4.968 3.83-6.966 6.049-.09.099-8.169 10.702-4.784 14.114l1.27 1.281 1.616-.802c1.507-.748 2.727-1.736 3.907-2.692.482-.39.963-.781 1.461-1.146 1.635-1.197 3.018-1.993 4.352-2.505 1.325-.508 2.665-.74 3.98-.693.734.026 1.465.019 2.195.01 1.162-.014 2.26-.027 3.306.123 2.493.357 4.938 1.116 7.526 1.92 1.155.359 2.309.717 3.464 1.039 4.672 1.3 8.538 2.099 12.168 2.514 2.22.254 4.315.178 6.444.067-1.517 1.344-2.719 2.898-3.82 4.377-4.397 5.902-7.247 12.33-8.472 19.102-1.276 7.06-1.274 13.902-1.146 21.473.003.182.003.34 0 .477-.139-.04-.298-.087-.482-.148-6.643-2.188-13.048.503-15.46 1.517l-.197.082c-4.264 1.785-7.793 4.638-11.206 7.395l-.59.477c-.475.384-1.299 1.361-1.54 1.651-.904 1.088-2.028 2.443-1.082 4.075l1.147 1.852 1.995-.776c7.981-3.108 11.039-3.382 12.865-3.546.274-.026.525-.048.761-.074 8.099-.939 11.653 5.223 12.8 7.91 2.074 4.862 2.288 6.083 2.6 8.897.328 2.96.321 5.961-.02 8.94-1.655-.133-3.285-.13-4.871-.12-.71.003-1.42.007-2.128-.004-2.624-.026-4.95.441-7.502 1.552-2.258.983-8.649 5.937-10.084 7.518-1.173 1.295-1.234 3.654-.129 5.049.933 1.175 2.509 1.482 3.835.748 2.42-1.343 6.174-2.986 10.39-3.224 1.539.284 7.154 4.565 9.167 7.538.088.392.205 1.592-.094 5.165l-.027.333c-.123.905-1.602 4.85-2.11 5.76-2.103 3.75-4.403 7.706-7.35 11.241-2.7 3.24-5.78 6.564-9.153 9.878-.697.686-1.516 1.305-2.384 1.96-.772.583-1.57 1.187-2.34 1.881-1.707 1.54-3.079 3.349-4.406 5.098l-.176.232c-2.93 3.862-5.089 8.578-6.246 13.64-1.195 5.227.28 10.206 4.265 14.395l.375.395.505.203c2.048.822 3.641 1.267 5.035 1.267 2.408 0 4.22-1.327 6.753-4.319l.393-.465.136-.592c.497-2.172.863-4.567.183-7.351-.317-1.299-.81-2.43-1.286-3.525-.345-.793-.67-1.542-.894-2.282-.748-2.482.017-5.136 2.276-7.89.986-1.201 4.444-4.837 5.159-5.381 1.598-1.215 3.537-2.262 5.413-3.274l.324-.175c3.983-2.153 8.884-2.606 13.623-3.043l.748-.07c9.975-.932 20.204 1.869 30.097 4.58l.787.214c2.327.638 4.733 1.296 7.025 2.064 1.45.486 2.842 1.098 4.315 1.747.829.365 1.659.73 2.504 1.074 2.596 1.06 5.003 1.269 7.155.623 2.108-.633 3.593-1.932 4.903-3.08.357-.311.714-.626 1.086-.924 1.64-1.312 3.51-2.391 5.443-3.471 1.028-.576 2.05-1.165 3.07-1.752 1.161-.67 2.323-1.34 3.494-1.987 2.375-1.312 4.762-2.524 6.988-3.64.613-.307 1.225-.623 1.838-.939 1.738-.897 3.379-1.744 5.075-2.418 1.11-.44 2.235-.84 3.36-1.24 1.147-.408 2.293-.816 3.493-1.29 2.293-.903 4.458-1.758 6.706-2.365 1.527-.413 8.693-2.076 9.822-2.136.814-.002 1.629-.01 2.443-.02l1.924-.019.565-.32c3.436-1.95 4.975-5.228 4.225-8.984zm-66.632-95.331c.323-4.728.88-10.197 2.55-14.917 1.003-2.83 3.27-5.239 7.075-7.548.382-.19 1.985-.68 2.58-.817.525-.121 2.422-.067 3.081.014.519.171 2.138.75 2.558.954 1.013.494 2.03 1.215 3.108 2.202 2.11 1.936 3.83 4.271 5.65 6.744l.295.401c.304.43 1.333 2.44 1.498 2.91.188.646.4 1.28.615 1.914.297.88.577 1.712.77 2.541.611 2.636.861 5.487.743 8.473-.13 3.263-.561 6.232-1.282 8.826-.78 2.801-2.031 5.47-3.247 7.964-1.198 2.458-3.104 4.412-5.118 6.361-2.417 2.342-4.947 4.506-6.883 6.131l-.685.577c-2.14 1.801-4.353 3.662-6.601 5.337-1.322.985-2.67 1.935-4.018 2.884-.601.424-1.202.849-1.803 1.277-.019-2.048-.206-4.07-.388-6.024-.103-1.121-.208-2.242-.28-3.365-.171-2.735-.593-27.356-.218-32.84zm33.76 93.388-.003.106c-.019.482-.014.992-.008 1.515.013 1.164.026 2.369-.296 3.083-.159.35-.503.537-1.604.996-.216.09-.434.18-.652.276-1.41.622-2.756 1.334-4.06 2.023-.483.256-.967.511-1.452.761-1.675.864-2.736 1.253-3.878 1.01-.847-.183-1.77-.704-2.748-1.256-.683-.385-1.388-.782-2.154-1.119-4.008-1.763-16.014-4.483-18.262-4.678-1.152-.098-12.35-.234-19.162-.234-.792 0-1.524.002-2.175.006 3.715-2.613 7.612-5.476 8.478-6.207l1.017-.854c1.306-1.09 2.656-2.218 3.931-3.456.801-.776 1.71-1.656 2.377-2.851.15-.242.823-1.102 1.268-1.671 1.124-1.437 1.506-1.94 1.726-2.408.426-.909.757-1.815 1.077-2.69l.118-.322c.486-1.327 2.592-11.07 2.908-12.67.251-1.267.508-4.966.587-6.25.62-.86 2.795-2.662 6.477-5.364.82-.602 1.225-.9 1.48-1.12 1.411-1.212 5.39-4.05 7.767-5.746a138.839 138.839 0 0 0 2.188-1.576c.608-.459 1.163-.94 1.7-1.403a29.86 29.86 0 0 1 1.449-1.204c.412-.25 1.99-.84 2.418-.927.614-.105 1.46.21 2.287.561 2.747 1.167 4.645 3.245 6.338 6.923.458 1.194.412 6.956.393 9.417-.013 1.62-.023 2.9.023 3.681.138 2.322.313 11.863.204 14.156-.133 2.778.022 5.512.17 8.156.094 1.65.19 3.359.21 5.02.027 2.085-.056 4.237-.136 6.316z"/><path fill="#010101" d="M538.836 299.043c-.683 1.47-1.578 2.826-2.44 4.195a73.149 73.149 0 0 1-6.095 8.353 132.89 132.89 0 0 1-3.492 3.946c-1.11 1.213-5.27 5.832-6.338 6.882-.52.511-1.06.988-1.682 1.375-.583.362-1.312.763-1.127 1.588.22.983 2.72 1.008 3.476 1.141 1.607.281 3.22.533 4.819.857 2.918.592 5.857 1.484 8.59 2.677 1.293.565 2.538 1.25 3.647 2.127 1.153.913 2.057 2.064 3.065 3.125 2.076 2.186 3.887 4.418 4.944 7.28 1.058 2.867 1.795 12.154 1.944 13.893.142 1.674.17 3.355.133 5.033-.037 1.716.405 16.546.354 19.98-.028 1.898-.072 3.818-.257 5.707-.083.852.019 4.083.176 4.869.549 2.746-.598 4.958-3.007 6.325-1.234.01-2.469.03-3.704.034-1.293.003-9.206 1.88-10.469 2.222-2.404.65-4.723 1.567-7.036 2.48-2.246.885-4.549 1.615-6.791 2.505-2.44.969-4.766 2.27-7.111 3.446-2.378 1.192-4.748 2.4-7.077 3.686-2.207 1.22-4.373 2.514-6.575 3.745-1.998 1.117-3.994 2.268-5.786 3.703-1.651 1.322-3.05 2.931-5.144 3.56-1.845.554-3.749.169-5.493-.543-2.338-.954-4.564-2.07-6.969-2.876-2.402-.805-4.848-1.473-7.292-2.141-10.175-2.786-20.987-5.832-31.644-4.836-5.173.483-10.671.887-15.327 3.402-2.042 1.104-4.211 2.252-6.061 3.658-1.02.776-4.648 4.651-5.579 5.786-2.38 2.901-3.868 6.448-2.737 10.197.587 1.946 1.659 3.687 2.145 5.678.53 2.168.297 4.065-.192 6.2-3.302 3.903-4.374 4.184-8.948 2.347-3.259-3.425-4.7-7.478-3.64-12.116 1.03-4.506 3.007-9.002 5.801-12.685 1.302-1.717 2.66-3.538 4.264-4.984 1.536-1.385 3.325-2.463 4.803-3.915 3.243-3.187 6.41-6.568 9.322-10.06 3-3.6 5.324-7.546 7.608-11.62.614-1.096 2.33-5.598 2.42-6.754.095-1.215.55-5.816-.171-6.935-2.137-3.31-9.038-8.955-11.413-8.83-.968.05-5.625.25-11.553 3.538-.895.496-1.193-1.323-.642-1.93 1.216-1.341 7.355-6.09 9.229-6.906 2.165-.943 4.104-1.378 6.47-1.345 2.558.036 5.126-.092 7.675.197.835.095 1.544-.071 1.697-1.151.499-3.521.558-7.101.166-10.636-.356-3.214-.685-4.681-2.785-9.604-1.197-2.805-5.507-10.538-15.382-9.413-1.922.219-4.875.125-14.25 3.775-.498.193 1.569-2.214 1.958-2.528 3.485-2.81 7.02-5.765 11.19-7.51 2.132-.892 7.977-3.487 13.909-1.532 3.017.995 3.816.353 3.764-2.744-.12-7.039-.151-14.03 1.106-20.986 1.192-6.59 4.021-12.691 8.016-18.054 1.08-1.448 2.214-2.906 3.581-4.094.67-.581 1.38-1.115 2.07-1.672.574-.462 1.71-1.172 1.32-2.065-.31-.706-1.474-.589-2.085-.604a40.555 40.555 0 0 0-3.105.063c-2.063.11-4.067.186-6.125-.05-3.99-.456-7.915-1.363-11.781-2.438-3.742-1.041-7.448-2.472-11.306-3.025-1.933-.277-3.833-.086-5.763-.157-1.7-.063-3.384.25-4.969.858-1.776.682-3.403 1.702-4.933 2.822-1.654 1.212-3.15 2.696-5.002 3.615-.984-.993 2.81-8.394 4.868-10.68 1.93-2.145 4.138-4.031 6.518-5.659 2.454-1.677 5.143-3.252 8.066-3.923 3.03-.696 6.322-.667 9.39-.26 3.144.418 6.04 1.485 9.057 2.396 3.023.913 6.115 1.587 9.234 2.076 3.156.495 6.369.888 9.568.868 3.285-.02 6.576-.395 9.82-.901 3.568-.557 7.29-1.032 10.769-2.013 3.34-.942 8.886-3.199 12.217-4.167 2.417-.703-6.425 7.92-10.452 10.793-2.01 1.433-9.095 7.81-10.663 9.574-1.608 1.81-3.122 3.812-4.326 5.914-.584 1.02-2.972 5.23-3.544 6.353-1.08 2.12-1.946 4.355-2.456 6.683-.561 2.56-.67 5.227-.851 7.835a193.01 193.01 0 0 0-.452 16.176c.08 5.493.475 10.98.349 16.475-.064 2.758-.19 13.774-.12 16.53.145 5.548.125 11.136-.41 16.663-.268 2.764-3.222 14.329-3.775 15.459-1.088 2.227-1.872 4.592-3.084 6.754-1.359 2.423-2.995 4.68-4.226 7.176.693-.333 3.62-2.114 4.364-2.679 1.505-1.144 2.994-2.312 4.426-3.546 2.849-2.456 5.435-5.194 7.472-8.367 2.141-3.335 3.79-6.82 4.347-10.763.286-2.021.766-4.008 1.003-6.035.241-2.063.314-4.142.361-6.216.096-4.148.405-20.687.1-24.833-.306-4.142.117-8.244-.047-12.386-.164-4.176-.472-8.343-.462-12.524.019-8.163 1.375-16.431 5.296-23.685 3.71-6.862 9.544-12.221 16.01-16.45 6.723-4.395 14.039-8.04 21.55-10.88a116.996 116.996 0 0 1 11.461-3.657c3.716-.983 7.293-1.867 11.1-.811 3.63 1.006 7.028 3.214 10.049 5.407 2.832 2.057 5.5 4.44 7.44 7.38a18.94 18.94 0 0 1 3.092 8.957c.149 1.905.35 9.442-.213 11.41-.535 1.875-2.66 8.2-3.23 9.425zm-42.821-28.505c-.626.144-2.709.752-3.251 1.081-3.52 2.133-6.782 4.896-8.195 8.885-1.734 4.896-2.336 10.429-2.689 15.581-.385 5.634.046 30.439.218 33.167.196 3.097.636 6.176.662 9.277.007.948-.253 2.719.38 3.531.53.68 1.403.03 1.922-.351 2.485-1.82 5.042-3.54 7.512-5.38 2.547-1.898 4.97-3.963 7.402-6.005 2.398-2.015 4.763-4.07 7.014-6.25 2.204-2.134 4.269-4.28 5.625-7.061 1.323-2.715 2.597-5.472 3.409-8.39.843-3.034 1.247-6.254 1.371-9.397.122-3.065-.111-6.146-.805-9.136-.366-1.574-.972-3.047-1.421-4.59-.179-.614-1.436-3.086-1.88-3.689-1.935-2.624-3.859-5.295-6.273-7.509-1.115-1.022-2.338-1.942-3.702-2.607-.666-.324-2.77-1.057-3.062-1.142-.337-.096-3.108-.276-4.237-.015zm-13.322 81.7c-.05.972-.337 5.132-.565 6.28-.44 2.218-2.437 11.295-2.804 12.295-.347.946-.683 1.898-1.111 2.811-.232.494-2.532 3.24-2.896 3.892-.5.894-1.22 1.597-1.95 2.306-1.53 1.484-3.195 2.82-4.822 4.194-1.47 1.242-12.844 9.432-14.931 10.473 1.797.255 3.644.454 5.452.188.734-.108 21.641-.005 23.736.175 1.97.17 13.76 2.843 17.47 4.475 1.786.786 3.463 2.117 5.381 2.53 2.042.441 3.771-.314 5.55-1.23 1.786-.92 3.538-1.908 5.377-2.719 1.413-.622 2.837-1.01 3.524-2.53.738-1.632.458-3.786.525-5.53.084-2.183.17-4.367.143-6.551-.054-4.358-.593-8.657-.385-13.026.115-2.396-.062-12.01-.204-14.422-.143-2.412.33-11.885-.631-13.973-1.632-3.548-3.75-6.547-7.642-8.202-1.15-.488-2.411-.938-3.679-.726-.686.116-2.885.936-3.429 1.341-1.115.83-2.118 1.823-3.23 2.665-1.13.854-7.98 5.618-10.077 7.42-.938.806-8.708 6.054-8.802 7.864z"/><g fill="#010101"><path d="M690.062 508.454c-1.7-4.85-4.458-7.634-7.574-7.634-2.113 0-10.756 2.805-20.199 5.934a488.187 488.187 0 0 1-4.789 1.572c-3.664 1.158-13.838 3.773-19.325 5.161 1.287-1.097 3.272-2.838 6.367-5.574 4.904-4.336 11.624-10.276 12.43-10.595.406 0 .793-.088 1.165-.176.84-.19 1.693-.386 3 .332 1.979 1.098 2.67 1.768 2.676 1.775l.414.413 7.593-7.573-8.826-10.086-.115-.129-2.053-.596-1.578.684-7.214 6.937.203.392c.332.617.678 1.342.901 1.884-1.01-.407-2.242-.82-2.31-.847l-.183-.027c-.122 0-1.205.04-2.52 1.348-.9.894-17.198 13.805-25.679 20.49-.223.163-5.466 4.03-4.43 7.871.143.549.264 1.07.386 1.565.09.387.18.765.274 1.134l-.07-.118c-.36-.569-.603-1.192-.84-1.795-.515-1.32-1.05-2.682-2.703-2.682-1.93 0-22.807 11.542-26.905 13.825-.082.034-.509.223-.739.813-.298.731-.156 1.747.427 3.014 1.185 2.601 2.012 3.218 2.283 3.367.359.128 3.515 1.219 5.114.42.406-.204.874-.542 1.416-.928 1.232-.874 2.892-2.1 3.786-1.457 1.064.759 5.365 9.863 8.007 15.824-.088-.014-.19-.027-.312-.048-.752-.142-10.533-3.895-18.397-6.91-13.575-5.208-16.217-6.19-16.59-6.19-.135 0-.44-.088-.738-.176-.867-.258-2.16-.624-3.617-.278-.21.054-.575.142-1.043.25-11.915 2.764-14.458 4.153-14.614 5.386-.349 2.804.521 4.958 2.587 6.408 2.182 1.51 7.303-.055 9.101-.671l7.837 23.464-6.306 2.825-.23.183c-.238.318-2.303 3.17-1.206 5.087.129.223.25.447.366.663.697 1.321 1.422 2.69 3.434 2.69.162 0 .325-.014.501-.027 2.391-.238 25.618-8.786 26.607-9.145l.17-.06.101-.15c.055-.074 1.3-1.863 1.037-3.475-.258-1.524-1.91-3.671-1.978-3.766l-.122-.115c-.075-.061-1.89-1.321-3.787-.786-1.639.46-5.615 1.626-5.615 1.626l-.014.007c-.169-.116-.718-.617-1.632-2.717-1.273-2.905-3.299-9.483-4.091-12.124 12.463 4.673 32.134 12.01 32.818 12.01.122 0 .366.08.603.162.705.237 1.761.603 2.94.007 1.355-.67 8.108-4.877 8.874-5.352.277-.094 1.056-.42 1.28-1.124.101-.318.115-.82-.366-1.416-1.07-1.34-12.72-23.755-12.985-24.968a12.251 12.251 0 0 0-.203-.92c-.25-.997-.427-1.715.304-2.589.515-.616 1.653-1.381 2.757-2.12 1.335-.9 2.486-1.673 2.92-2.39l.17-.279c.252-.406.404-.72.464-1.03.618 1.183 1.59 2.141 3.37 2.73 2.919.956 8.818-.656 18.58-3.359 2.506-.698 5.235-1.45 8.196-2.242 10.573-2.811 18.96-4.58 22.387-5.27-.088.122-.183.244-.285.38-1.361 1.815-18.54 15.81-20.023 16.608-.406.048-.759.332-1.158.65-.61.488-1.369.983-2.25.922-.406-.054-.636-.332-1.015-.813-.711-.921-1.687-2.167-4.796-.962-4.254 1.646-9.537 5.981-9.76 6.17l-.428.353.332.44c0 .007.691.928 1.152 1.606.06.101.23.366.467.758 5.473 8.854 6.394 9.558 7.038 9.558 1.01 0 2.48-.25 3.42-.48.983-.245 5.596-3.869 6.984-4.973l.488-.386-.413-.46c-1.206-1.328-2.283-2.798-2.58-3.455.182.047.399.115.595.176 1.179.366 2.98.942 4.83.19 1.01-.407 3.116-.664 3.136-.67l.183-.021.136-.122c.21-.183 21.106-18.723 25.266-22.184l.928-.765c3.84-3.164 7.464-6.15 5.805-10.859z"/><path d="M557.473 554.34c-1.196-1.66-5.047-4.823-7.055-5.575-1.748-.65-3.908-1.213-7.742-.969-.373.027-37.185 2.594-41.093 6.239 0 0-5.32 4.938-5.795 7.315-.027.136-.054.265-.081.393-.718-3.258-3.13-8.338-11.12-9.564-7.17-1.09-44.923-4.87-48.669-4.87-2.096 0-3.285.318-3.742.995a1.03 1.03 0 0 0-.183.684c-.139.691-.837 4.16-.837 5.69 0 1.402 1.497 1.524 2.7 1.626.843.068 1.798.149 2.086.576.501.751.298 2.154.04 3.922-.138.948-.294 2.018-.375 3.19-.288 4.308-1.738 14.435-2.622 15.803-12.904-.786-17.69-2.743-17.754-3.875-.128-2.269-5.625-34.681-5.859-36.056l-.03-.183-.133-.136c-.054-.054-.572-.548-2.228-1.49-1.578-.9-15.932-7.532-16.264-7.64-.61-.19-1.395-.068-2.313.386-.6.298-4.047 2.215-8.816 4.87-8.89 4.945-25.442 14.15-26.614 14.462-1.118.203-1.944-.075-1.978-.075-1.036-.677-2.022-1.49-2.364-1.93.193-.054.427-.108.688-.176 1.652-.4 4.423-1.07 5.463-3.563 1.198-2.865 1.263-4.87.247-7.668a11.522 11.522 0 0 0-1.602-2.906c1.236.203 2.892.203 4.572-.569.339-.156.691-.305 1.05-.46 2.815-1.226 6.317-2.75 6.547-7.045.227-4.295-.552-6.672-2.977-9.097-1.27-1.267-4.586-3.326-8.098-5.514-2.446-1.517-4.976-3.089-6.727-4.355-2.56-1.843-7.63-6.354-11.332-9.646-2.455-2.188-4.4-3.909-5.06-4.383-1.582-1.117-9.676-9.199-9.724-9.246-.345-.406-2.126-2.438-3.444-2.493-.413-.034-.684.109-.925.353-.91.907-5.3 4.599-5.293 4.599-.085.054-.816.569-.945 1.456-.085.59.112 1.179.582 1.741.315.38.874.921 1.524 1.551 1.08 1.043 3.614 3.502 3.418 4.22l-14.75 15.661-.108.095-.034.162c-.004.014-.034.102-.166.17-.156.088-.556.183-1.426-.115-1.917-.637-4.383-3.753-4.41-3.78l-.206-.17c-.955-.447-2.798-.887-3.573.387-.532.894-2.45 2.614-3.218 3.285-.416.521-.962 1.87-.03 3.258 1.012 1.517 14.4 13.636 17.889 16.704 3.922 3.455 18.773 14.76 24.443 18.059 1.612.941 5.162 3.109 9.273 5.615 13.815 8.433 25.385 15.437 27.017 15.756 1.84.386 2.3.21 2.93-.271.115-.081.244-.183.437-.278 1.023-.515 2.5-4.152 3.065-5.636.074-.149.65-1.476-1.873-2.872-1.826-1.016-5.477-3.298-6.344-3.84-.03-.224.004-.711.613-1.321.949-.942 2.554-2.222 3.069-2.628.457.013 1.636.094 2.662.44 1.51.501 23.633 10.52 25.181 11.4 1.653.942 2.127 1.294 2.296 1.971.14.549.132 3.177.092 5.1l-3.75-.907-.182.088c-.044.014-1.047.481-1.602 1.599-.468.928-.729 3.468-.783 4.057-.105.264-.298.928.03 1.64.333.704 1.064 1.198 2.178 1.47.265.06.945.29 2.002.643 4.986 1.666 18.228 6.096 35.02 9.171 12.538 2.303 20.856 3.441 24.907 3.292l.247-.006c1.01 0 1.521-1.531 1.518-4.491.101-.922-.163-2.737-1.9-2.974-1.596-.23-6.009-1.158-6.032-1.165l-2.31-.57c.18-1.476.508-4.409.423-5.357 1.277-.711 9.897-.224 17.866.69 3.573 10.256 6.083 13.663 6.984 16.061l.138.373 21.104.46c.013 0 .112.02.257.02.454 0 1.382-.21 1.846-1.835.437-1.504.312-4.03.268-4.708.291.23.721.61 1.341 1.226 3.275 3.265 5.002 4.119 8.8 4.37.179.013.402.02.67.02 5.188-.007 26.326-2.202 31.304-3.062 5.396-.935 12.291-2.357 14.506-3.827 2.066-1.375 5.71-4.47 6.984-6.747 1.158-2.1 2.174-6.164 2.174-8.697 0-2.323-.928-9.199-1.686-10.973-.735-1.734-3.133-5.995-4.274-7.6zm-215.276-16.806c-.41 2.676-2.404 3.76-4.277 3.489-1.2-.13-4.22-2.127-6.425-3.577-1.453-.962-2.598-1.714-3.245-1.992-1.144-.487-9.503-7.207-14.95-11.67-.294-.15-1.347-.813-1.124-1.362.356-.894 2.256-3.407 2.957-4.301l.095-.176c.007-.014.538-1.49 1.334-1.49.034 0 .071 0 .105.006 1.142.339 11.004 8.095 15.742 11.827 2.06 1.619 3.546 2.79 3.993 3.11.268.189.617.412 1.013.67 1.914 1.232 5.118 3.285 4.782 5.466zm5.352-10.54c-2.727-.447-4.518-1.124-5.805-2.201-1.403-1.159-17.592-13.73-18.374-14.327-.254-.128-.8-.508-.874-.853-.017-.075-.017-.19.125-.366.827-1.036 3.777-3.99 4.322-4.532.329-.122 1.423-.447 2.188 0 .83.488 13.083 10.242 21.164 16.718.475.738 1.494 2.77.8 3.725-.098.136-.193.278-.292.427-.626.948-1.168 1.795-3.254 1.41zm50.132 25.178c.04.38-.01 1.002-.213 1.192-.028.027-.075.088-.282.047-.985-.162-9.564-3.562-15.027-5.777-.603-.34-1.22-.827-1.379-1.084 1.392-1.226 13.096-6.199 15.22-7.08.887 1.775 2.141 10.277 1.688 12.526l-.017.088.01.088zm74.47 18.377c-.542-.047-2.384-.156-4.806-.291-5.798-.332-15.502-.888-17.473-1.328-2.096-.467-2.753-1.22-2.892-1.415-.21-1.315-.532-4.634.264-5.812.742-1.09 2.774-1.098 3.54-1.01 0 0 26.681 1.321 28.175 1.938.603.243.928.914 1.094 1.436.508 1.591.247 3.955-.58 5.27-1.144 1.808-5.601 1.388-7.322 1.212zm19.603 16.745c-.606-.095-1.575-.02-2.807.06-2.087.13-6.412.387-6.778-.683-.558-1.667-2.235-5.365-2.966-6.95 1.615-.183 5.293-.67 8.2-1.578 2.17-.678 3.735-2.202 4.717-3.475.335 3.786 2.49 9.815 3.194 11.705-.86.433-2.381 1.076-3.56.92zm59.253-7.73c-1.822 1.857-5.618 1.89-6.19 1.89h-.069c-12.094 1.586-30.85 3.7-32.998 3.056-2.645-.813-3.089-3.394-3.109-3.53-.024-.101-2.056-10.153-.501-13.92 1.446-3.522 6.445-4.707 6.818-4.788.928-.109 23.504-2.798 29.164-2.798 5.297 0 6.408 4.715 6.445 4.884.014.068 1.175 7.275 1.406 12.552.047 1.083-.268 1.95-.966 2.655zM733.285 192.488c-1.186-4.715-6.34-15.058-24.169-37.52-25.395-32.026-33.99-37.486-34.234-37.621-.576-.576-2.134-1.267-3.828.264-1.361 1.246-3.915 3.814-4.023 3.922-.054.061-.583.603-.583 1.368 0 .332.102.82.583 1.3.19.19.555.53 1.023.956 1.144 1.063 4.646 4.288 4.816 4.938-.034.163-.061.291-.088.4-.068.338-.068.338-.908 1.172-.928.92-9.388 8.602-12.477 11.4a2.78 2.78 0 0 1-.237-.549l-.434-35c.014-.162.285-3.99-2.804-5.446-.99-.46-13.534-8.988-21.764-14.63-.156-.184-.556-.556-1.111-.563-.298 0-.732.115-1.138.65-.677.921-3.577 5.135-3.698 5.31l-.082.19c-.013.055-.305 1.254.617 2.168.704.698 4.965 3.82 5.473 4.193.156.101.569.454.643.853.041.204-.02.414-.176.637-.575.779-12.83 15.952-13.974 17.368-.42.183-1.24.413-1.68.183-.738-.366-7.038-4.424-9.415-5.961-.014-.014-1.572-1.016-1.572-2.263 0-1.591 1.341-34.77 1.341-34.77-.108-.473-.521-2.065-1.3-2.573-.291-.176-15.753-7.656-17.273-7.885-.242-.036-2.35-.745-3.705.054-1.179.705-23.674 22.096-26.265 24.562-.02.013-.44.42-1.05.284-1.616-.372-4.129-1.293-4.786-1.537-.132-.197-.376-.63-.376-1.138 0-.712.288-4.132.444-5.866.013-.285.085-2.764-1.514-3.082-1.162-.237-6.445-.834-6.564-.834-.694-.264-1.88-.067-2.36 1.348-.468 1.41-1.169 5.514-1.2 5.69l-.016.095.017.102c.003 0 .034.284-.109.433-.125.143-.423.19-.836.136-1.799-.23-12.301-2.202-12.416-2.222-.2-.034-1.196-.291-1.135-.725.274-1.896 2.682-19.434 3.143-22.787l6.516.59c.949.162 3.2.393 3.573-.847.522-1.781.502-7.163.502-7.394l-.048-.226c-.142-.329-.907-1.965-2.147-1.965-.217 0-.877-.156-1.714-.349-2.232-.518-6.384-1.487-13.29-2.31-9.805-1.171-16.01-.91-16.036-.91-.566 0-1.7.338-1.958 1.618-.237 1.186-.464 6.98-.474 7.241-.007.573.49 1.67 2.408 1.741 4.023.153 7.783.6 8.4.678.158.078.599.332.514.67-.237.928-2.37 19.034-2.615 21.094l-.006.08.01.075c.027.183.013.502-.098.637-.017.02-.065.075-.248.075-1.13 0-13.107-.576-13.378-.576 0 0-.63.101-1.03-.264-.297-.278-.42-.773-.365-1.477.132-1.74.193-5.52.186-5.575.014-.074.136-.738-.301-1.273-.214-.264-.634-.576-1.423-.576-1.358 0-7.986-.23-8.02-.23-.142 0-1.368-.102-2.134.596-.376.345-.572.813-.572 1.368 0 .143.013.413.03.766.295 5.791-.396 6.441-.613 6.502-1.117.319-13.022.36-20.89.305-.213-.176-.41-.393-.437-.454 0-.86-.057-1.957-.118-3.095-.105-2.012-.285-5.379.115-5.86.505-.379 3.031-.257 4.559-.183 1.277.062 2.252.075 3.268.102 1.89.095 3.85.156 4.765-1.212.972-1.45.637-4.945.56-5.609a1.67 1.67 0 0 0-.292-1.118c-.322-.46-.857-.745-1.592-.846-1.64-.224-10.54-.13-10.977-.13-.27.021-.579.008-.748-.033l-.01-4.904c0-.004-.03-.227.088-.4.101-.146.298-.244.589-.291 1.097-.183 15.288-.39 20.656-.454 0 0 .14.02.234.132.156.183.2.552.125 1.036-.155.97.458 4.095.58 4.712l.121.257c.126.149 1.254 1.463 2.639 1.463 1.158 0 7.166-.44 7.448-.46.101-.014 2.52-.312 2.814-2.351.234-1.595-.386-11.688-.45-12.71.04-.269.094-1.027-.41-1.657-.427-.525-1.108-.793-2.022-.793-3.136 0-38.753.98-48.96 2.07-12.972 1.392-39.732 8.694-40.03 8.778a6.27 6.27 0 0 1-.552.13c-.935.192-2.35.483-2.604 1.686-.298 1.446.626 5.984.806 6.838-.014.244.006.779.4 1.246.385.454.992.684 1.805.684.789 0 2.56-.406 4.61-.873 2.031-.454 5.377-1.233 6.163-1.084.109.196.207.311.302.386-.004.122-.173.63-.407 1.334-.694 2.066-8.933 28.606-9.402 28.148-.325-.318-7.281-3.938-12.961-8.565-5.141-4.186-10.97-8.934-11.651-9.727-.037-.04-.068-.108-.064-.129.003-.027.08-.135.348-.27.891-.44 2.818-1.193 4.681-1.918 1.694-.657 3.296-1.28 3.976-1.619 1.477-.738.742-3.407-.291-6.557a28.816 28.816 0 0 1-.332-1.036c-.532-1.856-1.43-2.486-3.556-2.486-2.923 0-27.596 12.206-35.091 15.946-17.273 8.622-33.124 19.724-39.091 24.392l-1.335 1.036c-2.377 1.843-3.18 2.466-3.83 3.543-.898 1.497.301 2.689 1.96 4.349l.925.927c1.71 1.728 2.744 2.77 3.929 2.182.84-.42 1.68-1.118 2.747-1.998.82-.685 1.75-1.45 2.95-2.337 1.097-.8 1.86-.44 2.07-.305.836 1.138 10.824 14.733 11.91 16.473.824 1.314.397 2.473.258 2.778-.8.684-6.794 5.791-8.518 6.753-.86.454-1.903-.854-1.95-.921 0 0-2.002-2.148-3.411-3.557-.732-.731-1.893-.352-2.52-.135-.972.332-7.55 6.862-7.61 6.923-1.216 1.266.07 3.42.22 3.664l.115.129c.02.02 2.29 1.978 3.397 3.306.17.203.363.5.315.745-.05.257-.359.426-.359.426l-.173.13c-3.44 3.786-9.364 9.97-10.61 10.437-.763.285-1.27-.352-1.27-.352-.143-.122-14.25-11.935-15.726-13.595a3.478 3.478 0 0 0-.339-.325c-.437-.379-.7-.61-.183-1.51.729-1.274 4.552-4.992 6.392-6.774.389-.38.704-.684.9-.88.57-.57.644-1.125.607-1.49-.092-.881-.884-1.437-.905-1.437v.007s-2.702-2.743-3.624-3.665c-1.263-1.246-2.238-.86-3.99.014-1.29.643-5.794 5.575-11.112 11.461-1.66 1.843-2.97 3.292-3.502 3.827-1.632 1.62-8.609 9.64-8.877 11.529-.267 1.851 2.096 3.497 4.574 5.08-3.544-.318-7.914 2.877-9.227 4.464-.823 1.003-2.391 3.333-4.047 5.805-1.497 2.229-3.048 4.539-4.24 6.158-2.497 3.407-8.87 13.71-11.147 17.869-2.784 5.087-3.316 10.35-1.582 15.66 2.503 7.661 8.915 12.79 10.842 13.69 3.756 1.768 7.234 2.506 10.421 2.5 14.296 0 22.699-14.754 23.786-16.786.522-.982 1.7-2.797 3.065-4.89 3.495-5.385 8.288-12.762 8.623-15.993a14.548 14.548 0 0 0-2.584-9.917c1.287 1.12 3.375 2.898 4.782 3.502.207.088.41.129.61.129 1.172 0 2.174-1.32 2.276-1.463.054-.061 5.266-6.11 11.2-13.175 4.772-5.676 20.186-18.695 28.47-25.686 2.13-1.802 3.854-3.258 4.91-4.173 3.252-2.824 15.225-10.275 23.966-15.721 7.75-4.823 9.737-6.09 10.029-6.476.745-.996.216-2.052-.217-2.533-.474-.928-5.3-10.35-5.958-11.665-.646-1.28-1.595-1.93-2.828-1.93-.508 0-1.629.643-4.968 2.702-1.23.76-2.391 1.477-2.906 1.728-.931.467-1.216 1.07-1.294 1.49-.088.48.078.847.102.887.074.17 1.856 4.16 2.316 5.08.495.996.464 1.28.112 1.633-.796.786-12.402 8.67-13.612 9.07-.965.318-1.639-.244-1.652-.244-1.084-1.53-3.97-5.65-4.332-6.374-.275-.542-.312-.711.518-1.341.854-.637 7.434-4.864 8.488-5.487 1.317-.792 1.263-2.073 1.033-2.675-.044-.095-1.057-2.256-1.758-3.428-.905-1.484-2.405-1.212-2.46-1.185l-.175.06c-.35.204-8.545 4.925-9.93 5.765-.627.38-.922.332-1.02.305-.142-.054-.196-.203-.22-.264a19.877 19.877 0 0 0-1.904-3.34c-.541-.752-.511-1.151-.382-1.24 6.106-4.07 15.427-10.234 16.077-10.56.356-.162.82.637.823.637.125.298 1.25 2.913 2.225 3.888.98.982 2.649.352 3.424-.149.238-.122 5.795-3.014 6.95-3.698 1.152-.698 1.253-1.138 1.216-1.985-.003-.108-.01-.223-.01-.359 0-.67-.457-1.517-.99-2.493-.345-.636-.704-1.293-.886-1.835-.082-.244-.085-.434-.01-.562.108-.183.389-.278.474-.292l.142-.04c.17-.075 4.18-1.856 5.561-2.547.806-.4 1.077-.237 1.673.128.176.115.363.23.573.332.379.19.806.617 1.35 1.159.577.575 1.298 1.293 2.253 2.011.67.502 3.82 3.103 7.465 6.117 8.193 6.774 14.536 12.003 15.519 12.559 1.862 1.063 3.41.284 3.4.284.21-.075 16.731-4.958 17.053-5.06 1.057-.352 1.561-1.43 1.995-2.926.721-2.547 9.398-32.196 10.09-33.476.165-.278.294-.549.416-.792.362-.759.528-1.105 1.466-1.233 1.592-.224 16.125-1.944 16.27-1.961l.177-.051c0-.003.298-.112.589.034.366.193.654.762.81 1.605.284 1.578.68 5.514 1.06 9.314.4 3.976.775 7.729 1.019 8.704.227.915.16 1.795-.19 2.371-.108.183-.301.413-.575.48-1.816.434-3.408.502-4.573.55-.735.027-1.266.047-1.66.142a5.144 5.144 0 0 1-.612.101c-.84.102-2.11.258-2.361 1.755-.237 1.43.386 6.096.464 6.658.014.061.308 1.47 1.737 2.032.471.17 1.914.082 7.872-.467 8.585-.8 22.949-2.134 37.956-2.134 27.82 0 44.104 3.807 57.56 7.912 11.756 3.597 18.082 6.212 21.124 7.471.636.265 1.11.454 1.442.583 1.958.718 2.581.095 3.123-.759l.095-.155c.467-.684 2.066-5.026 2.018-5.568-.054-.556-.392-1.044-1.016-1.463-.623-.414-1.416-.793-2.174-1.166-.759-.365-1.795-.867-1.971-1.13-.115-.17-.088-.292.474-1.186.183-.291.393-.63.623-1.03.854-1.497 2.337-3.163 3.95-3.366.047-.007.107-.007.168-.007 1.795 0 8.04 2.56 10.31 3.82.833.461 1.788.847 2.716 1.213 1.403.562 2.852 1.145 3.624 1.917 1.159 1.158 1.206 2.045.759 4.301-.108.528-.176.99-.237 1.395-.23 1.592-.319 1.592-.8 1.592-.718 0-1.402-.305-2.18-.657-.536-.237-1.139-.508-1.816-.704-.46-.129-.914-.325-1.355-.522-1.022-.447-2.194-.962-2.967.048-.704.941-2.614 5.154-2.77 5.52-.345.46-.725 1.599.291 2.601.624.624 4.126 2.554 9.795 5.65 2.628 1.442 5.412 2.967 7.864 4.348 6.605 3.733 21.026 13.446 25.55 16.555 4.56 3.116 6.653 4.396 7.71 3.34 2.56-2.513 3.996-4.457 4.267-5.771.345-1.613-.325-2.114-2.818-3.97l-.4-.305c-.779-.582-1.558-1.077-2.242-1.51-2.012-1.28-2.547-1.741-2.201-2.337 1.192-2.086 11.4-16.867 12.958-17.896.162 0 .291-.007.406-.014 0 .014 0 .027.007.048l.068.406c.19 1.158 1.056 31.349 1.375 43.06-.095.36.135.719 1.327 1.91.244.245.684.698 1.247 1.281 6.868 7.085 8.4 8.332 9.083 8.332 1.131 0 2.35-1.186 2.452-1.294 5.428-4.71 23.177-20.14 23.648-20.857l.002-.001c.165-.047.81.26 1.345.977.691.908 10.195 13.067 10.649 13.636.027.027.582.596-.075 1.571-.867 1.308-15.234 12.437-16.453 12.958-1.03.407-1.267.508-2.127-.013-.867-.522-2.852-2.9-3.556-3.794-.597-.684-2.168-1.652-3.848-.379-.698.522-2.33 1.734-3.136 2.567-1.605 1.626-.67 3.523-.007 4.234.765 1.104 18.797 27.04 21.324 30.231.311.4.704.935 1.172 1.565 3.386 4.593 10.397 14.096 17.3 14.096.074 0 .155-.007.23-.007 7.735-.237 19.197-6.706 22.577-10.804 3.245-3.942 4.565-11.298 3.57-15.247zm-437.437-24.162a251.376 251.376 0 0 0-3.393 4.531c-.075.068-.647.624-.63 1.497.005.234.066.461.153.687a5.286 5.286 0 0 0-.57-.422c-3.336-2.019-4.633-1.044-4.904-.786-.16.196-3.905 4.748-5.067 6.597-1.196 1.904-1.5 3.259-1.51 3.32l-.075.352.278.223c.139.116 3.43 2.872 1.554 7.695-1.595 4.092-1.595 4.092-2.262 5.067-.197.285-.447.65-.803 1.213-.413.643-.765 1.32-1.141 2.038-1.128 2.161-2.405 4.613-5.964 7.655-4.728 4.05-11.489 4.7-16.43 1.571-2.388-1.503-5.663-9.239-2.466-14.99 2.723-4.89 7.648-12.369 11.97-18.187 2.546-3.421 2.94-3.462 4.545-3.177.833.142 1.13.467 1.395.759.308.338.769.826 1.765.365 1.246-.596 4.958-6.008 6.018-7.593.058-.068.562-.657.508-1.483-.024-.373-.18-.928-.786-1.464-.206-.176-.437-.392-.69-.63-1.117-1.027-2.755-2.537-5.092-3.826 1.037-.136 1.868-.97 2.582-1.687l.18-.176a167.403 167.403 0 0 0 3.918-4.065c.027-.007.057-.027.091-.04.711-.332.921-.305.959-.285 2.066 1.321 6.706 5.135 10.438 8.196 2.73 2.242 4.89 4.01 5.582 4.444.423.264.663.542.714.833.095.535-.44 1.226-.867 1.768zm295.934-85.37c-1.897-.778-3.916-1.794-4.979-2.343 0 0 9.396-5.925 9.728-6.332.203 3.042 1.13 8.14 1.13 10.924-1.287-.46-3.895-1.422-5.88-2.248zm128.524 117.091c-.034.04-3.888 3.848-9.016 5.853-2.269.873-5.696 1.192-9.293-2.405-.535-.542-5.812-8.522-9.307-13.805-2.967-4.484-4.654-7.031-4.905-7.322-.426-.495-.616-.983-.575-1.443.068-.691.643-1.172.643-1.172h-.006c4.375-3.068 15.87-11.116 16.527-11.502 1.145-.65 1.883.305 2.012.515l.02.02c4.336 6.185 15.682 22.814 16.047 25.53.414 3.117-2.12 5.704-2.147 5.731z"/></g><g fill="#FFF"><path d="M732.16 192.772c-.955-3.773-5.324-13.601-23.952-37.086-25.184-31.748-33.963-37.377-34.044-37.431-.251-.217-1.091-.901-2.324.223-1.341 1.22-3.956 3.854-3.983 3.881-.19.19-.44.583 0 1.017.183.182.535.507.982.92 4.207 3.889 5.365 5.25 5.169 6.077l-.081.359c-.143.677-.251.779-1.227 1.76-.867.861-7.613 6.991-12.612 11.53-.413.38-.772.332-.962.291-.664-.196-.996-1.145-1.11-1.551l-.021-.149-.434-35.135c.007-.082.217-3.238-2.133-4.349-1.403-.65-19.888-13.33-21.995-14.773l-.135-.13c-.061-.08-.19-.175-.25-.175-.021 0-.096.027-.204.176-.603.82-3.136 4.498-3.597 5.168-.02.183-.027.63.319.976.541.535 4.023 3.116 5.317 4.064.068.04.941.623 1.124 1.585.102.521-.027 1.057-.379 1.544-.616.84-13.547 16.847-14.096 17.524l-.196.156c-.17.081-1.68.806-2.825.23-.948-.467-9.165-5.792-9.517-6.022-.075-.047-2.113-1.334-2.113-3.244 0-1.592 1.26-32.386 1.354-34.587-.176-.725-.528-1.612-.779-1.775-2.838-1.781-16.188-7.857-17.36-7.857l.002.002c-.651-.157-1.777-.314-2.394.045-.935.603-16.08 14.91-26.028 24.372-.281.325-1.08.854-2.147.61-1.94-.454-4.969-1.592-5.097-1.64l-.143-.054-.098-.122c-.03-.034-.725-.88-.725-1.998 0-.935.427-5.744.447-5.947.03-.691-.159-1.775-.582-1.863-1.114-.224-6.533-.84-6.588-.84-.352-.095-.758-.115-1.002.59-.403 1.212-1.036 4.836-1.138 5.425.02.258.013.86-.427 1.328-.403.413-1.02.575-1.825.48-1.836-.23-12.048-2.14-12.481-2.221-.857-.15-2.273-.738-2.08-2.046.302-2.093 3.215-23.325 3.215-23.325l.078-.552 7.667.694c1.023.173 2.137.139 2.327-.06.363-1.268.437-5.291.434-6.893-.271-.57-.735-1.158-1.03-1.158-.352 0-.928-.136-1.978-.38-2.211-.515-6.323-1.47-13.161-2.286-9.697-1.162-15.82-.904-15.874-.904-.136.003-.715.05-.84.684-.183.908-.39 5.388-.454 7.041.017.16.312.508 1.287.546 4.433.169 8.552.69 8.592.694l.143.037c.558.227 1.54.945 1.266 2.063-.17.68-1.632 12.832-2.58 20.88.03.257.057.968-.37 1.476-.19.224-.541.488-1.138.488-1.158 0-12.778-.556-13.306-.583.033 0-1.074.176-1.88-.555-.58-.528-.833-1.348-.752-2.425.132-1.714.196-5.582.196-5.615.017-.156.027-.326-.054-.42-.074-.089-.264-.143-.515-.143-1.378 0-7.82-.223-8.094-.23-.248-.04-.945-.007-1.277.298-.081.075-.19.203-.19.501 0 .136.014.38.03.705.22 4.301.055 7.254-1.459 7.688-1.643.46-19.396.366-21.415.346h-.19l-.152-.109c-.315-.237-1.053-.847-1.053-1.51 0-.84-.058-1.917-.119-3.035-.22-4.2-.237-6.245.583-6.855.792-.583 2.62-.535 5.314-.413 1.276.067 2.248.074 3.258.101 1.571.075 3.19.136 3.749-.697.586-.874.535-3.468.362-4.898l-.01-.095.017-.088s.024-.183-.095-.338c-.128-.176-.403-.298-.792-.353-1.25-.182-7.587-.155-10.753-.115-.23.027-1.19.075-1.673-.365a.914.914 0 0 1-.302-.678v-4.941c-.01 0-.105-.617.281-1.179.288-.417.745-.68 1.362-.782 1.381-.23 18.854-.444 20.842-.468.078 0 .678.017 1.125.542.39.454.521 1.118.39 1.971-.092.573.27 2.784.541 4.146.312.339 1.006.941 1.646.941 1.118 0 7.275-.453 7.336-.46-.003 0 1.609-.21 1.775-1.348.183-1.27-.275-9.483-.468-12.542l-.003-.081.017-.078s.085-.467-.17-.775c-.24-.295-.734-.356-1.107-.356-3.13 0-38.66.979-48.838 2.063-12.877 1.381-39.545 8.66-39.816 8.734a6.486 6.486 0 0 1-.65.156c-.6.122-1.606.329-1.7.782-.197.955.399 4.46.822 6.446l.024.108-.017.108s-.027.258.129.434c.155.176.47.27.91.27.658 0 2.534-.426 4.353-.846 5.426-1.233 6.956-1.456 7.39-.61.091.183.17.285.23.366.417.535.35.745-.2 2.384-.575 1.726-7.096 22.384-9.05 29.085a1.065 1.065 0 0 1-1.67.549c-2.958-2.239-9.554-6.314-13.485-9.516-5.68-4.626-11.048-8.995-11.776-9.842-.017-.02-.454-.474-.353-1.097.075-.468.407-.847.98-1.131.94-.468 2.892-1.226 4.778-1.958 1.67-.65 3.245-1.26 3.878-1.578.318-.156.423-1.179-.88-5.148-.14-.427-.261-.8-.343-1.077-.382-1.342-.836-1.646-2.435-1.646-1.43 0-12.673 4.89-34.57 15.823-17.191 8.582-32.957 19.63-38.894 24.27l-1.338 1.037c-2.249 1.74-3.008 2.33-3.546 3.217-.393.657.146 1.287 1.788 2.926l.925.935c1.246 1.26 2.13 2.154 2.58 1.958.719-.36 1.477-.99 2.524-1.856a62.77 62.77 0 0 1 3.004-2.371c2.015-1.477 3.485-.285 3.543-.237.545.704 10.963 14.882 12.118 16.717 1.32 2.114.288 3.977.24 4.058l-.125.149c-.278.244-6.858 5.886-8.799 6.963-1.402.786-2.801-.386-3.407-1.185-.004 0-1.961-2.1-3.343-3.482-.227-.223-1.026.034-1.324.142-.667.332-6.005 5.446-7.143 6.632-.444.46.007 1.605.325 2.16.41.353 2.394 2.1 3.461 3.38.491.59.681 1.173.563 1.735-.14.65-.644 1.023-.874 1.165-1.186 1.307-9.118 9.97-11.004 10.682-.908.332-1.616.332-2.097.007-.27-.19-14.716-12.633-16.182-14.286a1.929 1.929 0 0 0-.227-.21c-.498-.433-1.422-1.24-.427-2.974.806-1.409 4.57-5.066 6.588-7.03.386-.373.697-.678.887-.868.197-.196.288-.38.274-.542-.03-.291-.369-.582-.484-.657-.095-.081-2.79-2.81-3.712-3.732-.62-.616-.792-.698-2.642.23-1.202.596-7.19 7.235-10.766 11.204-1.67 1.85-2.991 3.312-3.547 3.868-2.303 2.29-8.368 9.612-8.548 10.865-.176 1.253 2.476 2.933 4.61 4.288 1.097.69 1.723.155 2.93-1.057l.179-.176c2.174-2.181 3.956-4.105 3.976-4.118l.122-.136.172-.04c.353-.177.912-.44 1.457-.44.237 0 .47.047.68.182h.007c2.12 1.362 6.798 5.196 10.554 8.284 2.594 2.127 4.833 3.963 5.46 4.356.714.447 1.134.989 1.246 1.619.186 1.05-.535 1.97-1.06 2.642-1.07 1.368-3.489 4.64-3.489 4.64-.081.094-.335.338-.322.704.01.345.265.732.732 1.118.132.108.322.277.559.48 1.107.97 3.414 2.988 4.762 3.564.416.203 1.199-.556 1.514-.99.08-.094 5.29-6.143 11.217-13.195 4.836-5.757 19.718-18.323 28.612-25.835 2.124-1.795 3.844-3.244 4.898-4.159 3.322-2.885 15.342-10.37 24.114-15.83 4.796-2.987 9.32-5.805 9.737-6.218.356-.481-.18-1.03-.203-1.05l-.105-.149s-5.31-10.357-6.002-11.746c-.575-1.138-1.256-1.287-1.784-1.287-.414.095-2.788 1.558-4.36 2.527-1.307.806-2.435 1.504-2.997 1.782-.386.196-.623.426-.664.65a.451.451 0 0 0 .007.183c.03.067 1.856 4.165 2.307 5.066.379.76.955 1.91-.109 2.974-.71.704-12.606 8.867-14.069 9.355-1.693.569-2.858-.55-2.902-.603-.471-.644-4.024-5.67-4.491-6.605-.65-1.287-.153-2.025.86-2.797.979-.725 7.665-5.006 8.59-5.555.771-.46.599-1.104.555-1.232-.004 0-1.017-2.161-1.68-3.265-.386-.637-.905-.65-1.155-.657-.966.555-8.515 4.91-9.809 5.696-.792.474-1.48.596-2.055.386-.66-.264-.86-.88-.881-.955-.007 0-.677-1.537-1.758-3.055-.572-.799-.792-1.503-.647-2.093.143-.562.549-.792.63-.833 1.497-1.002 15.214-10.133 16.142-10.594.982-.508 1.94.271 2.398 1.192.332.78 1.3 2.859 1.991 3.55.492.501 1.718-.129 2.019-.325.102-.061 5.809-3.028 6.933-3.699.674-.406.674-.433.65-.928-.003-.122-.01-.257-.01-.413 0-.373-.47-1.24-.847-1.937-.369-.678-.751-1.382-.968-2.026-.244-.731-.081-1.24.098-1.537.342-.57.962-.759 1.196-.813.498-.224 4.186-1.863 5.456-2.5 1.388-.69 2.14-.223 2.804.183.153.095.308.19.484.278.546.27 1.037.759 1.653 1.375.58.583 1.24 1.24 2.127 1.903.695.522 3.702 3.008 7.509 6.158 6.07 5.012 14.38 11.888 15.353 12.436 1.307.745 2.32.25 2.36.23.115-.047 8.692-2.404 8.699-2.573 1.576-.463 7.63-2.25 8.452-2.527.356-.115.756-.46 1.24-2.14.088-.319 9.429-32.453 10.211-33.747.146-.25.258-.488.366-.705.393-.82.8-1.66 2.354-1.876 1.561-.223 14.973-1.812 16.223-1.958a1.915 1.915 0 0 1 1.514.099c.715.372 1.192 1.188 1.416 2.435.294 1.619.69 5.575 1.077 9.402.376 3.76.765 7.64.989 8.535.304 1.226.19 2.411-.322 3.258-.319.528-.782.887-1.3 1.016-1.928.46-3.59.521-4.8.576-.616.02-1.148.04-1.422.108a6.147 6.147 0 0 1-.756.129c-.904.108-1.256.203-1.351.785-.176 1.064.274 4.891.464 6.273 0 0 .19.82 1.02 1.145.433.115 3.637-.203 7.329-.549 8.606-.8 23.003-2.133 38.065-2.133 27.972 0 44.357 3.827 57.898 7.965 11.81 3.61 18.177 6.239 21.232 7.506.623.25 1.084.447 1.402.562 1.267.488 1.389.25 1.728-.285l.115-.176c.312-.46 1.85-4.64 1.822-4.823-.02-.176-.196-.386-.501-.589-.549-.372-1.308-.738-2.032-1.09-1.294-.624-2.1-1.03-2.439-1.531-.555-.833-.108-1.551.46-2.452.177-.278.38-.603.597-.99.48-.846 2.256-3.623 4.816-3.942a1.79 1.79 0 0 1 .278-.02c2.404 0 16.575 6.354 17.516 7.288 1.531 1.531 1.565 2.893 1.07 5.358a28.07 28.07 0 0 0-.216 1.335c-.21 1.388-.386 2.587-1.958 2.587-.968 0-1.795-.365-2.662-.758-.521-.237-1.056-.475-1.652-.644-.542-.156-1.05-.38-1.497-.576-.935-.406-1.396-.548-1.572-.325-.528.711-2.134 4.153-2.71 5.42-.142.223-.392.67.116 1.178.542.535 5.114 3.035 9.53 5.453a768.192 768.192 0 0 1 7.878 4.355c7.919 4.478 25.47 16.487 25.646 16.61 1.774 1.226 5.439 3.786 6.198 3.502 3.17-3.11 3.847-4.6 3.976-5.21.169-.826.128-.934-2.378-2.797l-.406-.305c-.739-.555-1.497-1.036-2.161-1.463-1.822-1.158-3.543-2.249-2.594-3.902.108-.183 12.11-18.478 13.872-18.478.224-.006.38-.017.53-.016.559.004 1.026.43 1.123.98l.074.424c.237 1.152 1.274 38.63 1.403 43.298.094.128.345.426.982 1.063.244.25.69.705 1.26 1.294 1.835 1.897 7.424 7.661 8.338 7.993.42-.013 1.246-.677 1.565-.996 9.11-7.911 22.854-19.914 23.47-20.653.21-.318.556-.508.963-.514h.04c.86 0 1.74.772 2.242 1.442.684.894 10.493 13.433 10.594 13.561.386.38.969 1.579.02 2.987-1.002 1.525-15.687 12.877-16.86 13.345-1.205.487-1.93.758-3.284-.041-1.213-.725-3.59-3.719-3.861-4.058-.102-.115-.55-.569-1.206-.569-.312 0-.664.102-1.043.387-.678.5-2.256 1.68-3.001 2.445-1.24 1.253.014 2.635.068 2.696.237.332 18.824 27.067 21.33 30.238.319.4.725.948 1.199 1.592 3.272 4.436 10.045 13.615 16.359 13.615h.19c7.315-.224 18.546-6.537 21.723-10.384 3.027-3.679 4.26-10.54 3.338-14.219zM598.047 86.581c-.033-.014-3.969-1.403-6.712-2.547-2.77-1.145-5.799-2.77-5.833-2.784l-.738-.4.63-.555s11.218-6.99 11.39-7.324c.279.185.45.304.442.31.187.708 1.58 8.192 1.6 12.751l.007.826-.786-.277zm123.086 114.293c-.163.162-4.058 4.016-9.423 6.11-.961.379-2.12.663-3.393.663-2.14 0-4.62-.8-7.146-3.326-.556-.562-4.268-6.15-9.457-13.987-2.357-3.563-4.585-6.93-4.816-7.214-.636-.739-.928-1.524-.846-2.317.122-1.206 1.063-1.95 1.104-1.985.67-.467 15.796-11.081 16.636-11.57 1.748-1.022 3.089.136 3.576.881 1.646 2.35 15.776 22.543 16.237 26.039.495 3.691-2.35 6.584-2.472 6.706zM253.32 175.628c-2.476 3.373-8.806 13.608-11.065 17.734-2.622 4.795-3.126 9.754-1.497 14.74 2.255 6.902 8.148 12.022 10.228 12.998 19.66 9.266 31.406-11.394 32.683-13.785.549-1.022 1.68-2.763 3.116-4.972 3.241-4.985 8.135-12.524 8.444-15.478.68-6.59-3.384-10.607-4.427-11.25-2.601-1.579-3.468-.983-3.472-.963.014 0-3.786 4.613-4.904 6.402-.758 1.205-1.124 2.167-1.273 2.635.9.907 3.458 4.03 1.615 8.751-1.608 4.139-1.639 4.22-2.384 5.304-.19.278-.437.637-.782 1.179-.386.61-.728 1.26-1.09 1.957-1.119 2.14-2.51 4.81-6.24 7.993-5.11 4.376-12.44 5.067-17.811 1.68-2.98-1.876-6.31-10.35-2.859-16.548 2.744-4.925 7.699-12.457 12.051-18.31 2.476-3.332 3.316-4.05 5.683-3.637 1.223.217 1.741.779 2.053 1.118.06.074.149.162.186.19.003-.008.074-.014.213-.082.664-.318 3.37-3.936 5.602-7.255.21-.257.532-.779-.122-1.354-.213-.19-.454-.407-.718-.65-1.178-1.091-2.96-2.744-5.544-4.031-.47-.237-1.006-.339-1.578-.339-2.845 0-6.608 2.54-7.861 4.065-.79.955-2.337 3.264-3.98 5.71-1.504 2.242-3.062 4.559-4.267 6.198zM688.964 508.84c-1.53-4.355-3.888-6.854-6.476-6.854-2.1 0-13.202 3.678-19.826 5.872-1.985.657-3.678 1.22-4.81 1.578-4.368 1.382-17.835 4.796-21.858 5.806l-.176.047h-.014l-.569.149-.176-.562c-.102-.42.19-.61.434-.698v-.007c.508-.264 4.633-3.915 8.277-7.133 10.012-8.853 12.477-10.885 13.202-10.885.27 0 .562-.068.9-.149.95-.217 2.114-.494 3.835.454 1.267.705 2.052 1.253 2.486 1.585l6.028-6.008-7.993-9.131-1.32-.393-1.098.48-6.34 6.138c1.436 2.764 1.09 3.116.867 3.353-.095.081-.406.339-.894.101-.78-.386-2.412-.955-2.865-1.104-.204.034-.84.21-1.626.996-1.179 1.172-24.792 19.806-25.801 20.599-.061.047-4.837 3.563-4.01 6.638.149.556.277 1.09.393 1.599.616 2.628 1.022 4.362 3.678 5.243 2.608.873 8.69-.82 17.903-3.374a661.577 661.577 0 0 1 8.21-2.242c12.917-3.44 22.59-5.317 23.985-5.588.163-.095.305-.075.454-.02l.4.135.006.915-.365.067c-.129.129-.44.488-1.145 1.43-1.003 1.327-19.563 17.063-20.836 17.063-.081.02-.352.243-.549.4-.663.541-1.66 1.381-3.116 1.164-.914-.108-1.388-.718-1.801-1.253-.644-.833-1.132-1.49-3.455-.59-3.4 1.322-7.661 4.573-9.009 5.637.25.338.59.806.854 1.205.074.109.243.386.494.786 4.396 7.12 5.737 8.725 6.144 9.01.867-.021 2.167-.238 3.034-.455.522-.149 3.4-2.269 6.063-4.362-1.192-1.361-2.743-3.366-2.513-4.322a.895.895 0 0 1 .413-.555c.46-.237.989-.061 1.748.17 1.083.345 2.574.819 4.043.216.97-.393 2.683-.644 3.252-.718 1.808-1.605 21.16-18.763 25.157-22.09l.928-.771c3.82-3.143 6.842-5.63 5.453-9.572zM611.913 534.452a10.668 10.668 0 0 0-.183-.833c-.264-1.07-.569-2.283.542-3.61.623-.746 1.83-1.559 3-2.344 1.064-.718 2.277-1.531 2.568-2.026l.183-.29c.46-.746.46-.746-.406-2.135-.413-.663-.691-1.368-.935-1.991-.542-1.382-.84-1.944-1.619-1.944-1.45.108-16.968 8.467-26.404 13.71-.203.115-.474.718.244 2.29.9 1.977 1.544 2.634 1.707 2.783 1.185.413 3.292.874 4.105.447.332-.162.786-.487 1.267-.833 1.517-1.077 3.583-2.574 5.14-1.456 1.687 1.199 7.486 14.225 8.63 16.826a.745.745 0 0 1-.088.752c-.338.454-1.063.406-1.72.298-.732-.122-7.526-2.717-18.614-6.97-7.316-2.805-15.607-5.989-16.257-6.124-.203.014-.562-.088-.99-.217-.785-.23-1.89-.555-3-.257-.217.054-.59.136-1.063.25-11.793 2.73-13.531 3.99-13.724 4.41-.291 2.364.396 4.092 2.1 5.29 1.7 1.159 6.777-.324 8.596-1.015l.562-.21.196.575 8.352 25.036-7.126 3.19c-.528.759-1.619 2.683-1.036 3.685.129.237.257.468.38.698.772 1.456 1.266 2.195 2.79 2.046 1.85-.176 19.319-6.503 26.14-9.01.318-.507.88-1.611.738-2.465-.17-.982-1.226-2.547-1.693-3.163-.305-.197-1.599-.935-2.723-.57-1.504.42-4.972 1.437-5.528 1.6a.885.885 0 0 1-.589.08c-.48-.087-1.273-.541-2.533-3.413-1.633-3.733-4.362-12.999-4.478-13.392l-.325-1.118 1.09.407c12.939 4.857 32.562 12.152 33.585 12.355h.02c.237 0 .556.108.888.217.636.223 1.28.447 2.045.068 1.355-.671 8.759-5.29 8.833-5.338l.15-.068c.23-.068.534-.244.575-.373.013-.047-.02-.162-.163-.338-.826-1.037-12.958-23.87-13.229-25.51z"/><path d="M556.524 555.017c-1.083-1.504-4.7-4.484-6.516-5.155-1.629-.61-3.64-1.131-7.255-.9-7.264.474-37.269 3.027-40.378 5.926 0 0-5.043 4.681-5.442 6.693-.474 2.384-.972 3.163-1.03 3.244l-1.185 1.748.122-2.107c.023-.386.426-9.463-10.429-11.136-7.15-1.09-44.767-4.856-48.493-4.856-2.015 0-2.59.325-2.733.44l.01.027-.037.176c-.007.04-.836 4.017-.836 5.561 0 .305.674.386 1.629.46 1.107.096 2.36.197 2.96 1.091.752 1.132.518 2.723.223 4.742-.132.921-.288 1.971-.362 3.102-.014.17-1.395 16.9-3.634 16.9h-.027c-7.031-.42-18.851-1.625-19.044-4.985-.119-2.113-5.328-32.88-5.809-35.724-.227-.176-.772-.583-1.856-1.192-1.599-.922-15.665-8.1-16.714-7.572-.576.285-4.955 2.64-9.534 5.187-17.188 9.565-26.082 14.449-26.986 14.598-1.538.257-2.656-.17-2.703-.19-1.524-.982-3.208-2.29-3.113-3.217.034-.34.248-.61.59-.745.267-.102.65-.204 1.104-.312 1.53-.373 3.847-.935 4.66-2.879 1.084-2.587 1.141-4.308.227-6.821-.87-2.384-2.632-3.95-2.649-3.963l.627-.968c.027.007 2.858 1.28 5.602 0 .349-.163.708-.319 1.07-.474 2.784-1.213 5.66-2.466 5.85-6.042.233-4.444-.746-6.314-2.64-8.203-1.171-1.172-4.585-3.292-7.887-5.345-2.462-1.538-5.006-3.116-6.794-4.403-2.608-1.883-7.495-6.225-11.424-9.72-2.334-2.08-4.352-3.875-4.958-4.308-1.663-1.172-9.572-9.07-9.91-9.402-1.105-1.307-2.385-2.188-2.68-2.113-.951.948-5.242 4.558-5.425 4.714-.054.04-.437.305-.491.698-.03.244.078.521.325.82.278.331.816.853 1.44 1.456 2.323 2.249 3.955 3.928 3.847 5.114-.03.345-.207.637-.495.833l-14.56 15.478a1.502 1.502 0 0 1-.633.718c-.576.325-1.389.325-2.405 0-2.039-.684-4.369-3.448-4.863-4.057-.468-.19-1.626-.55-1.955-.02-.738 1.239-3.281 3.406-3.39 3.501.014 0-.559.8.109 1.795.84 1.26 13.13 12.47 17.692 16.474 3.895 3.434 18.635 14.658 24.26 17.937 1.62.941 5.176 3.109 9.29 5.622 9.379 5.724 25.074 15.302 26.638 15.613 1.507.292 1.694.176 2.005-.067a3.91 3.91 0 0 1 .613-.387c.458-.277 1.673-2.845 2.52-5.066.04-.156-.132-.691-1.372-1.382-2.1-1.165-6.404-3.875-6.587-3.99l-.135-.088-.075-.149c-.027-.047-.637-1.32.81-2.777 1.185-1.179 3.25-2.784 3.336-2.852l.159-.122h.2c.07 0 1.747.007 3.227.502 1.524.508 23.83 10.607 25.388 11.495 1.667.955 2.55 1.503 2.852 2.702.247.983.122 5.616.108 6.137l-.02.725-4.735-1.145a2.5 2.5 0 0 0-.884.962c-.301.61-.572 2.615-.674 3.74l-.057.203s-.177.392 0 .751c.172.366.653.644 1.385.82.278.068.992.305 2.1.677 4.965 1.66 18.15 6.07 34.86 9.125 12.447 2.29 20.708 3.373 24.66 3.278l.176-.007c.251-.359.465-1.89.465-3.387.01-.128.152-1.618-.901-1.76-1.64-.238-5.944-1.139-6.127-1.18l-3.336-.826.064-.515c.305-2.431.57-5.209.481-5.642a.887.887 0 0 1 .213-.806c1.474-1.646 15.157-.19 19.312.305l.363.04.122.346c1.581 4.558 5.14 11.25 6.953 16.006l20.443.46c.227.007.596-.169.83-.988.396-1.369.254-3.895.22-4.376-.234-.644-.156-1.152.22-1.396.606-.413 1.382.068 3.116 1.789 3.241 3.23 4.779 3.813 8.05 4.03 3.506.305 26.641-2.147 31.701-3.028 7.468-1.294 12.46-2.587 14.06-3.65 2.045-1.362 5.48-4.323 6.607-6.341 1.06-1.917 2.029-5.792 2.029-8.129 0-2.336-.952-9.015-1.592-10.512-.66-1.552-2.96-5.704-4.153-7.384zm-234.81-46.502c.945-1.185 4.348-4.572 4.494-4.714l.18-.122c.08-.034 1.933-.82 3.339.034 1.169.69 19.305 15.214 21.371 16.866l.119.13c.223.331 2.147 3.312.82 5.14a6.169 6.169 0 0 0-.262.38c-.575.867-1.334 2.011-3.336 2.011-.325 0-.684-.027-1.083-.094-2.94-.481-4.901-1.24-6.358-2.46-1.385-1.144-18.082-14.109-18.251-14.238-.034-.006-1.176-.602-1.389-1.585-.071-.325-.068-.82.356-1.348zm21.635 29.195c-.484 3.157-2.835 4.505-5.006 4.505-.186 0-.369-.014-.549-.028-1.375-.155-3.85-1.727-6.943-3.772-1.29-.847-2.51-1.653-3.058-1.89-1.666-.711-13.75-10.642-15.122-11.773-.766-.359-2.107-1.45-1.579-2.764.464-1.151 2.612-3.928 3.066-4.51.352-.956 1.256-2.433 2.72-2.162.992.163 6.478 4.362 16.253 12.057 1.971 1.545 3.526 2.77 3.949 3.076.254.183.59.393.965.636 2.154 1.382 5.754 3.699 5.304 6.625zm54.921 16.5c-.19.184-.504.38-.972.38-.095 0-.193-.007-.301-.027-1.43-.237-13.924-5.304-15.343-5.88-.474-.264-1.835-1.077-2.042-1.937a.982.982 0 0 1 .136-.792c.48-.718 14.494-7.404 16.255-7.703.156-.033.461-.027.739.265 1.456 1.497 2.473 11.4 2.107 13.622.03.373.058 1.47-.579 2.073zm76.72 17.68a27.93 27.93 0 0 1-2.9-.176c-.59-.054-2.415-.156-4.813-.298-6.208-.352-15.593-.887-17.655-1.348-3.031-.677-3.672-1.97-3.736-2.12-.125-.637-.833-5.087.396-6.896 1.314-1.944 4.566-1.524 4.701-1.503l.088.013s26.184 1.104 28.335 1.985c.806.339 1.412 1.084 1.758 2.16.61 1.91.301 4.654-.701 6.253-.996 1.578-3.37 1.93-5.474 1.93zm21.343 15.255c-.105.067-2.672 1.571-4.724 1.3-.488-.054-1.504.007-2.591.075-1.104.067-2.256.135-3.333.135-2.259 0-4.183-.311-4.62-1.619-.687-2.045-3.234-7.505-3.261-7.566l-.352-.745.826-.081c.05 0 5.138-.481 8.779-1.613 3.458-1.077 5.246-4.795 5.263-4.836l1.067.474c-.79 1.904 1.48 9.273 3.197 13.764l.176.461-.427.25zm55.504-6.76c-2.303 2.336-6.841 2.208-7.031 2.228-2.659.359-24.28 3.17-31.41 3.17-.941 0-1.629-.047-1.991-.162-3.353-1.03-3.892-4.302-3.912-4.437-.081-.4-2.12-10.472-.43-14.57 1.73-4.214 7.437-5.44 7.678-5.487l.05-.007c.956-.115 23.509-2.811 29.33-2.811 6.25 0 7.577 5.771 7.59 5.832.018.102 1.193 7.37 1.427 12.714.06 1.41-.376 2.595-1.3 3.53z"/></g></svg>