<svg xmlns="http://www.w3.org/2000/svg" viewBox="0 0 960 640" xml:space="preserve"><path fill="#E4002B" d="M732.537 546.555v11.824h-2.957v-11.824h-3.423v-2.938h9.802v2.938h-3.422zm16.022 11.824v-8.712l-2.49 5.427h-2.611l-2.49-5.427v8.712h-2.957v-14.762h2.956l3.797 7.884 3.795-7.884h2.957v14.762h-2.957zM480 610.798l-15.64-9.555c-19.48-11.902-47.127-22.15-82.174-30.46-31.81-7.543-58.17-10.628-59.276-10.756l-.367-.045c-29.644-3.808-54.8-12.051-74.79-24.503-18.519-11.534-32.42-26.19-42.5-44.805-11.683-21.574-17.752-47.486-18.04-77.014-.226-23.174 3.34-48.27 10.04-70.668 3.679-12.294 8.262-25.494 13.114-39.47 10.643-30.656 23.866-68.743 22.91-88.505-.59-12.186-3.388-23.33-8.316-33.126a71.882 71.882 0 0 0-9.336-14.14l-14.453-17.068 79.354-121.481 25.272 17.183C332.911 64.82 370.88 78.75 415.602 86.67c35.81 6.342 63.287 6.606 64.44 6.614 1.083-.01 28.792-.316 64.356-6.614 44.721-7.92 82.691-21.85 109.804-40.286l25.272-17.183 79.354 121.48-14.453 17.069a71.902 71.902 0 0 0-9.336 14.14c-4.928 9.795-7.726 20.94-8.316 33.126-.956 19.762 12.268 57.85 22.893 88.456 4.857 13.988 9.442 27.193 13.13 39.519 6.7 22.397 10.267 47.494 10.041 70.668-.287 29.527-6.357 55.44-18.04 77.014-10.08 18.616-23.981 33.27-42.5 44.806-19.99 12.451-45.146 20.694-74.77 24.499l-.343.043c-1.15.133-27.5 3.215-59.32 10.76-35.047 8.31-62.694 18.56-82.173 30.46L480 610.799z"/><path fill="#FFF" d="m480 604.939-13.034-7.963c-19.93-12.178-48.067-22.627-83.626-31.059-32.11-7.614-58.74-10.728-59.858-10.857l-.322-.04c-28.906-3.713-53.387-11.715-72.764-23.785-17.761-11.063-31.09-25.108-40.746-42.941-11.291-20.851-17.158-45.978-17.438-74.683-.22-22.687 3.271-47.257 9.832-69.186 3.65-12.203 8.222-25.368 13.061-39.307 10.768-31.014 24.17-69.612 23.165-90.343-.623-12.888-3.598-24.707-8.843-35.13a76.895 76.895 0 0 0-9.987-15.124l-12.044-14.224L281.926 36.2l21.06 14.32c27.692 18.829 66.333 33.032 111.744 41.074 36.181 6.408 64.034 6.682 65.276 6.691 1.94-.016 29.543-.364 65.263-6.69 45.412-8.043 84.052-22.246 111.745-41.075l21.06-14.32 74.53 114.096-12.044 14.224a76.895 76.895 0 0 0-9.988 15.124c-5.244 10.423-8.22 22.243-8.844 35.131-1.002 20.73 12.399 59.33 23.166 90.345 4.84 13.938 9.41 27.103 13.062 39.305v.001c6.56 21.929 10.052 46.5 9.831 69.185-.28 28.705-6.146 53.832-17.437 74.683-9.656 17.832-22.985 31.878-40.748 42.942-19.376 12.07-43.857 20.071-72.762 23.784l-.323.04c-1.118.129-27.748 3.243-59.857 10.857-35.56 8.432-63.695 18.881-83.626 31.06L480 604.938z"/><path fill="#E4002B" d="M734.005 351.59c-12.66-42.314-38.956-102.708-37.247-138.024.787-16.248 4.582-31.445 11.482-45.158a101.856 101.856 0 0 1 13.24-20.043l-50.41-77.172c-74.46 50.63-185.746 52.055-190.906 52.092l-.164.001-.164-.001c-5.16-.037-116.446-1.463-190.907-52.092l-50.41 77.172a101.856 101.856 0 0 1 13.241 20.043c6.9 13.713 10.695 28.91 11.482 45.158 1.71 35.316-24.587 95.71-37.247 138.025-10.69 35.734-14.612 87.404 5.639 124.798 7.537 13.919 17.998 24.918 31.98 33.627 16.31 10.158 37.414 16.957 62.731 20.208 2.736.315 29.773 3.545 62.763 11.368 38.217 9.062 68.687 20.484 90.892 34.05 22.205-13.566 52.675-24.989 90.891-34.05 32.991-7.823 60.027-11.053 62.763-11.368 25.318-3.251 46.423-10.05 62.732-20.209 13.982-8.708 24.443-19.707 31.98-33.626 20.25-37.394 16.33-89.064 5.639-124.798z"/><path fill="#FFF" d="m600.574 183.117-49.871 133.846c-1.295 3.474-6.108 3.736-7.772.422l-55.344-110.204c-3.133-6.24-12.04-6.24-15.175 0L417.07 317.386c-1.664 3.313-6.477 3.05-7.772-.423l-49.871-133.846H285l110.393 296.24c2.599 6.973 12.272 7.468 15.568.797L480 340.444l69.039 139.71c3.296 6.67 12.97 6.176 15.568-.797L675 183.117h-74.426z"/></svg>