<svg xmlns="http://www.w3.org/2000/svg" viewBox="0 0 960 640" xml:space="preserve"><g fill="#010101"><path d="M775.908 558.555v11.824h-2.957v-11.824h-3.423v-2.938h9.803v2.938h-3.423zm16.023 11.824v-8.712l-2.49 5.427h-2.612l-2.49-5.427v8.712h-2.956v-14.762h2.956l3.796 7.884 3.796-7.884h2.956v14.762h-2.956zM748.234 472.265c1.397-10.742 7.34-19.815 11.178-24.269a3.394 3.394 0 0 0-.182-4.618l-7.729-7.729a3.427 3.427 0 0 0-5.187.39c-7.575 10.296-31.303 41.617-38.82 40.514-8.04-1.18-7.505-8.899-7.505-8.899.598-9.245 13.209-45.86 18.333-57.745.793-1.84-.16-3.928-2.054-4.58-6.404-2.209-11.517-7.333-14.384-10.761a3.414 3.414 0 0 0-5.196-.055c-7.484 8.463-20.5 18.142-20.5 18.142-37.738 26.589-61.325 10.293-61.325 10.293-26.588-14.152 8.577-12.437 8.577-12.437 44.815 0 40.74-42.027 40.74-42.027-2.144-13.401-18.01-18.011-18.01-18.011-34.737-11.15-53.178 35.165-53.178 35.165-4.717 10.721-19.727 11.15-19.727 11.15-13.615 2.68-9.756-13.752-9.756-13.752l4.181-19.698c35.595-5.575 26.16-31.306 26.16-31.306-5.29-19.155-38.167-9.005-38.167-9.005L664.12 217.053c1.998-1.952.95-5.345-1.8-5.832l-39.952-7.071a3.43 3.43 0 0 0-3.205 1.148L516.658 325.171c-9.149 12.15-34.308 15.01-34.308 15.01-19.438 1.429-8.148-19.298-8.148-19.298l26.848-44.88a3.43 3.43 0 0 0-1.386-4.818l-16.129-8.223a3.43 3.43 0 0 0-4.22.893l-2.12 2.61c-3.85 4.672-16.144-1.332-16.144-1.332-32.878-16.44-48.979 13.564-59.752 29.161-9.578 13.866-19.298 7.72-19.298 7.72-8.005-3.717-3.002-12.437-3.002-12.437l28.99-53.55a3.43 3.43 0 0 0-1.835-4.854l-14.585-5.358a3.43 3.43 0 0 0-4.152 1.501l-29.86 51.54c-7.72 14.152-20.585 8.577-20.585 8.577-10.292-4.083-1.286-19.915-1.286-19.915l28.191-49.36a3.43 3.43 0 0 0-1.494-4.795l-15.252-7.32a3.43 3.43 0 0 0-4.457 1.38l-27.573 47.846c-14.152 21.657-45.029 6.862-45.029 6.862 33.022-31.735 64.327-102.494 64.327-102.494 37.095-85.555-45.886-113.644-45.886-113.644-64.756-21.871-102.494 23.158-102.494 23.158-33.45 36.451-16.725 93.488-16.725 93.488 11.364 31.305 35.796 37.184 48.252 39.938 3.036.671 5.283-2.715 3.549-5.296-11.107-16.531-15.778-34.213-15.778-34.213-18.012-86.627 35.165-99.492 35.165-99.492 38.596-11.15 52.32 33.45 52.32 33.45 22.3 57.465-52.32 155.241-52.32 155.241-24.015-9.434-48.03-9.005-48.03-9.005-15.01 0-12.437 27.446-12.437 27.446 3.216 25.73 23.587 28.303 23.587 28.303 21.442 3.86 46.744-19.298 46.744-19.298 14.152 13.295 61.753 9.006 61.753 9.006 6.862 26.589 39.025 18.44 39.025 18.44 14.152 28.733 48.03 13.433 48.03 13.433 4.718 33.588 46.316 27.308 46.316 27.308 11.15 27.875 50.067 12.007 50.067 12.007l-12.382 13.508a3.43 3.43 0 0 0 .873 5.323l14.91 8.216a3.43 3.43 0 0 0 4.106-.602l20.047-20.44c17.01-16.01 14.293 1.675 14.293 1.675l-2.285 25.342c-2.574 26.588 45.886 21.013 45.886 21.013 0 5.146 20.156 37.31 54.034 36.023 21.612-.82 41.827-12.984 53.633-21.686 2.806-2.068 6.543.923 5.17 4.127l-4.768 11.126c-7.72 12.866-8.577 36.023-8.577 36.023.429 21.013 27.446 20.585 27.446 20.585 2.998 14.655 15.697 24.913 21.219 28.763 1.753 1.223 11.895 9.1 11.895 9.1 17.382 17.029-24.966 13.598-24.966 13.598l-136.373-15.867c-109.1-17.311-303.994-4.01-327.45-2.316a3.423 3.423 0 0 0-3.024 2.405l-18.526 59.738c-.79 2.547 1.49 4.966 4.082 4.34 184.04-44.533 421.112-28.867 469.712-25.142 43.105 3.304 56.5-20.906 53.82-31.95-1.525-6.281-19.084-20.262-15.653-30.554 2.707-8.122 5.575-39.99 5.575-39.99zM637.592 373.63c18.655 8.363-13.294 19.727-27.446 18.87-1.765-.108 13.61-25.072 27.446-18.87zm-437.85-94.774c-6.004-1.287-6.433-8.577-6.433-8.577s-.025-5.76 5.575-6.433c10.721-1.287 24.873 6.433 24.873 6.433s-18.011 9.863-24.015 8.577zm253.447 28.303c-14.438 27.018-27.446 13.433-27.446 13.433s-8.577-7.715 4.58-25.87c12.656-17.463 25.01-10.291 25.01-10.291 7.987 4.574-2.144 22.728-2.144 22.728zm90.486 36.881c2.145-.858 27.875-11.579 25.731 0-2.144 11.579-25.73 0-25.73 0zm183.326 154.384c-2.782 1.072-6.427-2.144-5.784-5.575.637-3.398 11.579-16.296 11.579-16.296s-1.57 20.242-5.795 21.871z"/></g></svg>