<svg xmlns="http://www.w3.org/2000/svg" viewBox="0 0 960 640" xml:space="preserve"><path fill="#C8102E" d="M734.93 553.95v11.825h-2.957v-11.824h-3.422v-2.938h9.802v2.938h-3.423zm16.023 11.825v-8.712l-2.49 5.427h-2.612l-2.49-5.427v8.712h-2.956v-14.762h2.956l3.797 7.883 3.795-7.883h2.956v14.762h-2.956zM726.04 379.361c-.453-8.037-2.895-14.177-7.756-20.509-2.066-2.692-3.494-4.215-4.698-7.304-1.375-3.527-3.593-6.612-5.846-9.62-4.177-5.572-40.175-19.356-44.373-19.356 11.97-7.625 21.172-18.113 23.547-32.514 1.109-6.73 5.756-44.367-47.51-56.62-13.794-2.296-31.22 2.143-45.064 1.378-1.446-.081-10.12-14.047-23.26-21.07-12.694-5.685-40.237-26.224-122.8-12.236-16.247 2.353-37.132 8.49-52.585 13.852-5.521 1.915-42.138 12.505-38.106 21.52-20.175 7.6-89.655 24.215-119.628 50.797-10.533 8.43-22.06 17.752-29.357 29.241-3.268 5.144-5.513 12.283 2.047 14.489 7.034 2.052 14.594 3.296 21.788 2.19-2.203 7.207.298 10.318 8.76 12.083 8.204.992 14.525-1.239 16.917-.604-3.625 4.682 9.494 4.889 12.414 4.455 6.673-.992 13.386-2.066 20.06-2.945 0 9.87 13.167 7.587 18.863 7.827-1.341 6.371 7.49 5.448 12.102 6.522-6.042 9.667 2.17 12.193 9.213 12.99 5.755.865 14.743-.83 15.71.151-2.72 2.87 7.127 5.791 9.213 6.193-.167 4.74 7.427 8.528 11.48 9.214-.992 4.89 2.962 9.05 7.098 10.422-3.474 13.896-24.713 22.994-34.004 31.351-8.8 7.915-17.617 15.798-26.356 23.787-17.795 16.268-33.592 35.363-43.384 57.591-.627 1.611-3.044-4.28-6.488-18.761-2.296-9.988-4.396-14.432-4.561-14.368-1.058-4.078-35.51-1.32-42.726-.228-9.687.681-8.14 12.258-6.515 19.26 6.292 27.112 23.93 62.626 47.122 78.528 11.987 8.22 28.496 13.759 43.354 14.515 7.383.375 15.671.118 23.11 0 6.029-.096 12.514.112 18.578 0 14.49-.27 16.336 1.082 30.813.302 2.76-.149 14.427.137 17.068.906 1.793.523 3.62.755 4.91 2.56 3.29 4.606 8.923 6.171 14.235 6.926 2.227.317 4.53.51 6.766.172 1.45-.219 3.44-1.44 4.83-1.351 2.612.167 5.467 3.551 8.052 4.446 2.515.869 5.443 1.406 8.077.973 2.986-.491 6.019-3.286 8.828-3.52 1.589-.133 3.556 1.18 5.083 1.566 3.293.833 6.223.418 9.447-.578 6.062-1.873 11.033-5.001 14.382-10.947.73-3.419 33.808-1.757 35.036 1.698 5.253 9.885 16.38 18.659 28.135 13.963 1.425-.57 3.913-2.875 5.268-2.963 1.978-.128 5.112 2.384 7.309 2.773 5.052.892 10.09-.732 14.203-3.633 4.704-3.32 5.841-8.596 7.296-14.048 8.458-3.021 9.364-5.74 10.27-7.553 3.258.063 11.298-.296 14.556-.318 5.621-.04 11.048-.746 16.631-1.285 10.933-1.056 21.902-1.184 32.812-2.58 12.523-1.602 25.195-2.928 37.648-4.996a362.127 362.127 0 0 0 18.567-3.597c4.634-1.022 10.502-2.205 14.337-5.24l.016.01c1.324.786 1.866-17.073 1.857-17.944-.026-2.787-.262-5.1-1.172-7.725-.374-1.077-2.226-6.884-3.846-7.067-27.336 4.22-91.969 10.142-103.419 11.831-13.564 2-27.586 3.08-41.293 3.448-6.395.172-13.504-2.065-19.716-3.48-7.066-1.607-11.83-10.147-8.968-17.094 3.42 1.339 8.006 5.438 12.235-1.057 2.464.153 2.719 10.27 15.407 5.437 1.359 2.72 3.814 17.167 19.333 12.688 5.46-2.57 2.894-9.782 2.417-15.557-.438-5.301-1.216-13.133-1.964-18.428-1.14-8.086-3.51-22.23-4.38-30.36-1.597-14.941-1.4-20.47-1.057-35.495 4.997-2.179 11.66-7.37 14.852-11.63 3.599-4.803 5.851-10.541 8.03-16.094 1.506.44 4.553-.415 6.163-.618 3.029-.382 6.071-.889 9.068-1.466 6.01-1.159 11.882-2.85 17.685-4.789-6.411 7.5 10.693 2.07 13.436 1.183 7.83-2.532 15.82-3.898 23.957-4.816-2.85 4.514 5.374 3.691 7.593 3.432 6.463-.755 10.962-4.174 15.608-8.361.156.849-.417 5.084.488 5.662.578.37 4.416-.75 5.088-.936 3.547-.977 7.348-2.223 10.325-4.402 6.686-4.894 11.843-13.728 11.332-22.276-.082-1.443.02.329 0 0l.008.007zm-507.652-71.358c-.016.017-.003.004 0 0-.002.003 0 0 0 0zm91.07 46.376c-.035-.011-.035-.012 0-.002v.001zm53.181 39.405a.07.07 0 0 1 .001-.024v.024zM294.54 537.1l.112.042-.113-.041.001-.002zM397.228 547.4c-13.82 1.057-27.28 1.564-29.028 1.61-4.514.122-9.029.234-13.542.38-9.202.3-18.449.89-27.655.632-14.85-.415-34.599-3.271-43.937-16.186 1.54-.551 4.957-2.256 6.475-2.14 1.106.086 3.608 2.362 4.64 2.863-3.6 4.498.549 5.353 4.587 6.017 6.564 1.08 13.747.462 19.77-1.797 1.043-.328 2.085-.661 3.136-.968.101 4.929 18.783-1 21.426-1.846 5.373-1.719 9.693-4.448 14.108-7.922.63 4.41 16.28 1.685 18.845.135 5.315-2.302 9.23-11.899 9.998-11.968 2.951 3.874 2.114 9.818 15.86 1.359.623 2.618 1.208 21.448 9.364 19.032-.184.08.604 4.833 2.417 5.437 14.418 4.806-16.464 5.362-16.464 5.362zm103.134-18.49v.004c-.001-.001-.002-.003-.001-.005zm-.018-.035c-.005-.005-.005-.005 0-.001zm.946 10.385c-4.133.317-8.536 1.777-11.913 4.198-1.164.835-2.23 2.26-3.575 2.777-1.639.63-4.542.253-6.229.277-3.69.054-7.371.179-11.058.285-2.654.076-9.896-1.161-11.853.47-.761-1.494-2.013-2.44-3.106-3.651 2.73-2.08 3.554-5.108 5.408-7.745 1.628 1.996 3.345 4.458 6.21 3.958 3.548-.618 6.043-4.95 8.083-7.48 5.36-6.648 9.267-13.362 11.974-21.54 2.497 8.967 7.525 13.49 15.111 18.223 0 3.214.323 7.179 1.539 10.184-.198.01-.394.025-.593.04-.567.044.199-.015 0 0l.002.004zm212.358-4.218-.003.004c0-.002.001-.004.003-.005zm-133.895 45.604-.002.002.001-.003h.001zm4.662-137.793v-.001c.064-.034.064-.033 0 0-.002 0 .015-.008 0 0zM595.2 235.498l.006-.06h.001l-.008.06c.002-.02.003-.02 0 0zm5.125 189.011c.003-.007.025-.05 0 0 .002-.004.003-.007 0 0zm37.493-17.03-.005.002c.102-.033.103-.033.005-.002zm-.03.009-.076.02c.478-.157.503-.163.075-.02zm1.598 3.903c.014-.016.374-.052 0 0 .001-.002.048-.007 0 0zm37.67-4.231.001-.001c.176.022.176.023 0 0 0 0 .043.006 0 0zm.505-.806.21-.336.018-.001-.228.336v.001zm22.744-2.147h.005-.006z"/><g fill="#FFF"><path d="M564.146 302.492c-.026-.75-.393-7.662-1.922-7.838-1.463-.168-1.377 2.616-1.431 3.569-.446 7.751-.39 13.682-4.386 20.605-8.017 13.89-18.115 25.842-17.767 42.782.156 7.577.74 16.847 4.904 23.418 1.018 1.607 4.38 6.28 4.193 1.978-.134-3.108-2.758-7.076-3.516-10.23-.885-3.681-1.527-7.488-1.562-11.281-.064-6.909.938-14.122 3.542-20.55 6.033-14.893 18.533-25.328 17.945-42.451-.034-.969.02.602 0 0v-.002zm-23.109 58.525c.016-.413.047-.824.09-1.235-.031.411-.061.823-.09 1.235z"/><path d="M717.827 379.14c-.532-7.633-3.454-14.164-8.342-19.963-8.71 1.127-15.342-2.082-23.013-5.458-4.21-1.852-8.202-2.58-12.704-3.125-2.26-.274-8.013-.7-6.316-4.526 2.484-5.602 14.904 1.933 17.841 3.536 6.874 3.753 14.586 8.46 22.687 7.666-3.028-4.596-4.116-9.92-8.571-13.577-3.553-2.917-8.273-4.825-12.531-6.49-12.319-4.81-25.405-6.736-38.416-8.603 9.23-12.84 26.884-18.857 31.75-35.073 4.79-15.964-1.212-32.492-13.482-42.597-21.742-16.593-51.526-9.583-76.71-9.273-2.536-3.643-4.138-7.585-7.229-10.897-3.676-3.94-8.13-7.256-12.762-9.983-6.713-3.951-13.914-6.301-21.338-8.482-14.41-4.232-29.4-5.857-44.35-6.854-16.23-1.082-32.257-.666-48.336 1.813-9.817 1.514-19.608 2.818-29.11 5.801-9.345 2.935-18.399 6.653-27.708 9.662-8.779 2.838-19.079 4.77-27.2 9.296-5.848 3.26-5.222 8.444 2.047 9.71-12.508 1.81-24.102 5.754-36.073 9.623-11.3 3.652-22.356 7.43-33.786 10.713-14.15 4.064-27.497 8.958-39.755 17.262-10.623 7.194-18.236 11.683-30.616 23.135-6.362 4.613-12.329 9.267-16.968 15.698-4.873 6.755-2.07 8.345 5.847 9.737 0 0 11.266 1.63 19.686-1.59-1.725 2.74-5.279 7.607-3.707 11.003 1.04 2.247 4.918 3.64 6.947 4.094 5.598 1.25 11.522-.336 16.706-2.467-2.604 4.62.226 5.492 4.58 5.699 3.743.177 7.442.054 11.13-.638 6.15-1.153 12.384-2.707 18.252-4.906-3.712 5.138.435 8.444 5.302 8.6 4.956.157 9.814-.392 14.528-1.968-1.04 2.993-2.776 7.578.882 9.328 2.869 1.372 10.333.9 13.346.007-3.097 4.49-8.751 10.23-.957 12.434 6.454 1.825 15.917 3.643 21.907-.254-3.733 8.693 6.59 8.827 12.88 8.52-3.588 4.172-2.714 6.842 2.523 8.596 3.49 1.17 6.868 2.05 10.561 1.47-2.783 2.511-8.855 6.813-2.67 9.158 2.977 1.13 6.693 2.004 9.87 2.287-.9 1.073-1.786 2.177-2.385 3.45l-.002-.001c-1.782 3.92 7.045 4.552 9.387 5.076-4.152 4.528-10.555 7.568-15.639 10.97-6.847 4.582-13.51 9.409-20.455 13.857-11.34 7.26-22.788 16.417-32.344 25.94a870.987 870.987 0 0 0-15.55 15.884c-5.307 5.565-11.113 10.684-15.314 17.223-3.489 5.429-6.64 11.094-9.965 16.625-1.37 2.281-2.852 4.662-3.91 7.105-.747 1.728-2.938 7.356-2.25 9.316 1.75 4.98 13.565-.04 16.503-1.327 6.38-2.793 10.696-6.685 16.156-10.85-2.006 4.347-8.784 20.056-3.893 22.197 2.884 1.263 8.585-.035 11.487-.965 3.92-1.257 8.084-3.491 11.29-6.036-.411 1.438-1.57 5.793-.83 7.152.957 1.759 2.733.347 4.664-.272 3.809-1.222 7.552-2.646 11.165-4.39 8.816-4.254 16.383-13.137 22.446-20.559-.278 3.887-.482 7.979.028 11.874.694 5.289 3.987 4.198 7.7 2.049 7.307-4.231 12.396-11.293 17.134-18.064-.392 3.764-2.872 11.633 2.902 10.403 5.463-1.162 10.716-4.805 13.957-9.295-.553 5.87-.634 12.118-.37 17.987.219 4.844 2.32 11.566 6.574 5.086-.234 3.245.737 12.905 5.694 12.433 4.168-.397 5.978-8.304 6.921-11.524 1.008 7.559.266 17.59-8.69 20.12-4.414 1.247-8.787.684-13.251 1.194-4.116.469-7.764 1.788-11.743 2.313-7.166.944-14.77 1.106-21.985 1.104-8.066-.001-16.12.18-24.185.338-19.467.38-39.963 2.272-57.094-8.796-16.004-10.341-25.221-29.708-30.116-47.413-.94-3.398-1.23-13.135-4.948-14.025-4.189-1.002-30.998.376-34.24.897-4.543.73-4.937 3.558-3.768 7.319 2.04 6.56 4.435 13.006 6.483 19.568 6.218 19.936 15.415 38.396 31.094 52.514 14.716 13.253 32.773 22.175 52.752 22.39 22.302.24 44.62.93 66.935 1.078 2.853.02 5.703.042 8.555.11 2.765.067 7.232-.644 9.89.156 4.014 1.208 8.295 4.71 12.134 6.573 7.435 3.607 14.353 4.855 20.345-2.179 3.876 8.399 15.962 10.363 22.557 3.843 9.52 4.02 21.828 2.496 23.86-9.34 9.868 0 19.675-.353 29.547-.01 9.342.324 19.54 1.25 28.833-.096-.135 3.57-3.786 4.905-6.508 6.176-2.09.976-2.588.496-1.927 3.113.392 1.55 1.457 3.338 2.49 4.475 5.603 6.166 18.01 1.214 21.875-5.134.666 5.993 7.662 8.875 12.806 7.403 6.758-1.935 11.016-7.716 10.2-14.787 4.89 0 9.662-3.568 11.463-8.071 21.516-1.813 43.095-3.904 64.625-6.001 11.35-1.106 22.694-2.133 34.037-3.32 10.97-1.146 21.533-4.127 31.953-7.516 4.165-.777 3.213-6.609 2.988-9.891-.151-2.216-.455-12.796-2.352-13.669-2.995-1.838-88.602 9.789-108.89 11.047-9.249.574-18.432 1.74-27.685 2.188-3.343.162-6.407.426-9.64-.186-3.36-.635-6.856-1.158-10.25-1.596-8.024-1.036-15.16-.344-18.036-9.166-.996-3.053-2.132-8.77-1.323-12.068.878-3.581 3.462-6.397 3.773-10.454 1.415 2.66 4.439 6.752 7.856 6.232 4.004-.608 5.34-6.251 5.963-9.506.869 4.055 2.23 7.851 5.247 10.8 4.335 4.238 9.478 3.886 10.743-2.44 1.388 5.19 4.611 11.302 9.171 14.42 5.324 3.639 8.902 1.201 8.999-4.776.103-6.343-1.824-12.756-2.61-19.03-.71-5.659-1.478-11.311-2.228-16.966v.006c-1.06-8.29-1.864-16.616-2.653-24.933-.857-9.027-3.364-19.634-1.203-28.627.747-3.105 3.02-4.06 5.315-6.371 2.986-3.007 5.81-6.384 8.148-9.925 2.01-3.043 3.674-6.259 5.29-9.522.966-1.952 1.748-4.767 3.118-6.436 1.13-1.379 2.751-1.534 4.679-2.163l-.02.003c2.753 0 6.66-1.769 9.511-2.33 3.023-.595 6.027-1.09 9.073-1.566 8.293-1.292 16.127-4.07 24.55-4.64-1.44 1.112-1.834 2.826-.022 3.313 3.351.9 9.173-2.477 12.482-3.305 7.03-1.76 15.483-2.487 22.765-1.953-.745 6.707 18.71-2.396 11.945-8.46 3.973.773 10.118 1.017 6.668-5.204-1.652-2.98-5.44-5.563-8.38-7.146 5.444 0 11.091 3.12 13.99 7.76 1.646 2.637 1.93 5.17 1.469 8.26-.104.698-1.042 2.767-.802 3.322.975 2.257 6.42-4.425 7.342-5.82 2.428-3.672 3.608-8.283 3.298-12.657-.038-.543.035.496 0 0l.01-.008zm-66.739-27.472c.295-1.286 1.662-12.678 2.961-12.823 1.6.178.142 10.98-.012 12.138-.12.907-.063 3.87-1.216 4.295-2.064.761-2.001-2.443-1.732-3.612.134-.581-.248 1.082 0 0v.002zM406.097 224.585a.403.403 0 0 1-.065.021l.065-.021c-.019.006-.022.006 0 0zm.025 275.24c-3.59 4.697-7.977 7.856-13.38 10.118-.713-9.434 4.076-17.81 7.473-26.361.094-.235 3.478-8.895 2.12-8.66-2.116.368-4.119 8.421-4.914 10.073-3.586 7.455-7.675 14.143-12.62 20.75-2.473 3.307-4.941 7.22-8.176 9.853-1.9 1.548-6.419 4.796-9.127 4.3-.96-3.908-.153-8.787.318-12.698.463-3.831 2.647-6.308 4.846-9.424 2.24-3.174 8.095-8.865 7.98-12.989-.122-4.434-4.836 4.634-5.693 5.826-3.51 4.877-7.763 9.307-11.612 13.93-3.662 4.397-7.066 8.95-11.053 13.073-6.021 6.226-14.461 9.568-22.646 11.932 1.642-4.923 3.521-9.068 6.77-13.094 3.803-4.715 7.287-9.453 10.19-14.782.193-.355 4.448-8.114 3.152-8.264-1.536-.178-6.558 9.198-7.803 10.866-4.902 6.565-9.736 13.76-15.993 19.107-2.664 2.277-5.311 4.345-8.722 5.35-2.425.713-9.024 2.487-11.5 1.087.427-7.607 4.054-18.108 8.71-24.313 3.495-4.658 8.224-8.487 11.968-12.973 5.692-6.82 11.884-13.904 18.45-19.886 5.62-5.121 11.737-9.667 17.393-14.686.917-.813 2.478-1.929 1.019-2.538-1.805-.752-10.066 6.387-11.669 7.557-5.493 4.01-10.153 8.253-14.885 13.085-8.673 8.859-16.232 18.723-24.961 27.545-4.382 4.43-9.148 8.977-14.679 11.938-2.274 1.218-16.26 8.23-18.402 6.295.08-4.339 2.916-9.579 4.93-13.27 3.11-5.693 7.023-10.948 10.666-16.303 7.278-10.696 17.267-20.12 26.223-29.43l-.008.008c9.656-10.045 20.989-19.209 32.429-27.118 12.105-8.368 24.985-15.6 36.738-24.48-1.465 7.321 13.423 5.528 17.71 4.267-1.105 1.959-5.146 9.114-4.458 11.384.582 1.92 10.157 3.133 12.047 3.657-1.852 2.912-7.923 13.389-2.29 14.779 4.317 1.066 10.627-1.312 14.59-2.81-2.474 6.93-3.347 14.392-5.584 21.416-4 12.56-7.244 25.287-15.54 35.891l-.007-.008zm-178.449 15.223-.829.158c-3.246-7.855-5.505-16.156-8.27-24.226-.62-1.807.717-3.674 2.627-3.694 9.362-.097 18.787-.513 28.169-.836 1.482-.051 3.136-.234 3.46 1.213.34 1.517 4.573 16.36 6.717 21.632-4.527.855-9.804 1.733-14.316 2.499-5.873.997-11.708 2.145-17.56 3.255l.002-.001zm20.173 38.61c-8.089-9.143-15.054-21.123-18.888-32.732 4.803-1.03 9.77-1.766 14.625-2.555 5.85-.95 13.25-2.047 18.34-2.97 3.562 9.038 9.278 18.587 16.39 25.252-9.269 2.919-29.37 12.456-30.467 13.005zM397.6 583.74c-19.196-.278-38.36-.478-57.556-.817-10.314-.182-20.618-.982-30.952-1.07-9.394-.078-18.576-1.22-27.338-4.865-10.33-4.298-20.25-10.028-28.448-17.726 9.974-4.987 20.736-8.734 30.891-13.405 15.075 10.892 32.306 11.668 50.342 11.986 18.127.319 36.27-1.067 54.385-1.287-2.253 2.253-3.63 6.79-.24 8.277 4.703 2.064 12.136-.745 16.44-2.873 1.145 2.826 3.213 4.82 3.702 8.09.387 2.595-.157 5.29-.815 7.808-1.512 5.793-4.836 5.986-10.414 5.883-.388-.006.68.012 0 0h.003zm69.535.957c-.31 2.303-1.195 4.252-2.743 5.973l.006-.005c-3.409 3.408-8.574 4.022-13.162 2.852 5.6-2.8 2.624-12.074 1.153-16.54-.75-2.28-3.544-12.591-6.413-12.932-2.32 0 .506 5.935.771 6.617 1.186 3.053 2.417 6.217 2.656 9.514h-.002c.958 14.065-14.402 22.221-23.488 10.233 8.959-1.948 8.358-11.872 5.535-18.355-.857-1.966-1.517-4.332-2.182-1.301-.82 3.735.21 7.548-1.333 11.302-5.042 12.265-19.197 12.343-28.814 6.036 6.669-.834 10.623-3.458 12.243-10.29 1.22-5.15.992-11.484-2.038-16.024l.004.001c-.779-1.174-6.421-6.129-5.031-2.014-3.234 1.558-7.213 2.852-10.832 2.998-2.923.117-4.436.136-3.015-2.57 3.063-5.835 10.934-6.777 16.625-6.812 4.583-.03 10.333-.227 14.24-2.96 5.22-3.652 6.159-10.685 6.377-16.47 4.642 6.07 11.52.733 13.668-4.52.108 3.797.64 7.538.95 11.32l-.004-.08c.416 9.186 3.678 16.755 11.192 22.064 7.954 5.621 14.101 11.63 13.63 21.957-.023.167.038-.86 0 0l.007.006zm-22.172-44.168c8.336 2.36 12.557-10.402 14.464-16.042.913 2.952 2.967 9.648 7.134 6.711 2.56-1.804 4.7-8.96 5.961-11.722 5.022-11.003 10.212-21.926 16.914-32.03.88 4.873 1.61 9.754 2.799 14.572.914 3.704 5.217 19.044 11.12 11.06.264 4.617 4.082 27.87 11.68 17.81-1.025 3.07-.463 7.786-.546 10.979-.078 2.98-.189 5.93-.521 8.894-5.41 0-10.805-.38-16.091 1.318-1.534.493-2.9 1.434-4.4 1.935-2.014.671-4.229.388-6.41.341-4.024-.086-8.04-.246-12.06-.33-4.334-.092-8.67.07-13.006.051-2.688-.01-5.374-.022-8.06-.121-1.177-.044-4.115-.825-5.123-.199-2.392-4.303-3.506-8.291-3.859-13.231.085.024.006.082 0 0l.004.004zm81.218 42.07c-8.622.765-17.445-.012-26.088.052-9.885.073-19.787-.067-29.671.31 0-12.144-8.752-17.564-17.18-24.406 11.36-.25 23.131 1.047 34.42-.16-2.044 2.724-.061 7.053 2.966 7.918 1.862.533 3.9-.314 5.725-.683 3.426-.694 6.039-.324 9.461.507 3.997.97 7.221.44 11.208.539-1.703 6.546 5.385 11.621 9.23 15.914l-.073.007c-.222.019.025-.003 0 0l.002.003zm46.219-26.113c9.942-.11 19.897-2.05 29.803-2.896 12.058-1.028 24.175-2.498 36.258-3.068 22.17-1.043 44.424-3.713 66.406-6.795a3.029 3.029 0 0 1 3.414 2.527c.513 3.275.922 6.478 1.076 9.795a3.85 3.85 0 0 1-2.54 3.784c-17.562 6.374-37.066 6.951-55.362 9.127-10.944 1.3-21.942 1.87-32.916 2.872-12.901 1.179-25.795 3.03-38.742 3.677.54-7.505-2.106-13.815-7.43-19.026h.03l.003.003zm-37.636-9.734c3.71 6.366 9.49 6.659 15.991 7.418 5.475.64 11.747 1.953 16.697 4.286 6.266 2.953 9.43 7.897 9.042 15.018-.3 5.516-3.45 9.941-9.257 10.443 0-3.507-.804-7.13-3.203-9.802-.718-.8-3.744-3.627-4.809-3.173-2.358 1.006 1.494 5.325 2.154 6.35 2.862 4.433 6.347 14.629 1.28 18.564-5.58 4.332-15.384 4.088-16.844-4.104 11.203.615 2.943-12.816-1.233-16.4-1.07-.918-5.916-5.25-7.182-4.654-1.978.93 3.135 7.635 3.875 9.026 3.794 7.133 4.016 12.606-3.404 17.213-4.857 3.014-11.953 3.917-15.222-1.645 3.853-.7 9.19-4.125 8.71-8.444-.571-5.119-5.44-8.285-8.484-11.877-1.405-1.659-2.155-3.428-2.525-5.561-.484-2.789 1.21-6.503.476-8.996-1.239-4.21-2.963 2.152-3.34 3.763-6.907-.427-13.876-2.03-20.824-1.81-2.663.083-9.34.359-6.2-3.955 2.338-3.212 9.626-4.81 13.407-5.277 3.988-.493 7.94-.028 11.809.988.367.096.735.187 1.104.28v-.001l.304.076c1.34-6.484.004-14.013.286-20.69.406-9.595 2.859-18.726 4.29-28.181.287 3.718 3.577 25.989 10.239 24.728-.489 5.497.023 11.582 2.855 16.413.297.509-.381-.651 0 0l.008.004zm42.36-61.602c1.722 13.23 3.113 26.448 5.336 39.595.44 2.597 1.81 6.711.996 9.235-1.32 4.092-5.199 1.264-7.164-.713-4.714-4.74-6.778-11.153-7.502-17.636h.004c-.16-1.4-.377-2.797-.57-4.193h.005l-.178-1.363.003-.002c-.702-5.763-.179-12.013-1.326-17.634-.095-.46.061-2.08-.637-2.15-1.093-.111-.386 10.1-.358 11.121.177 6.536 1.171 13.732.442 20.254-1.038 9.286-8.4 2.603-10.184-2.404-2.795-7.842-3.647-16.707-4.242-24.989-.233-3.242-.33-6.497-.564-9.741-.069-.96.05-5.615-1.522-3.502-1.659 2.23.065 11.034.16 13.723.14 4.073.404 8.135.337 12.213-.062 3.733-.52 18.7-6.972 14.087-4.932-3.526-6.02-12.47-6.855-18.117-.794-5.373-1.457-10.84-2.466-16.175-.91-4.817-1.209-1.852-1.03.534.27 3.512.683 7.25 1.003 10.625.024.255.018.536.064.785.259 2.97.912 7.464 1.114 10.161.36 4.772 2.35 11.328-.394 15.711-3.21 5.13-5.226.193-6.598-3.332-2.193-5.639-3.598-11.542-4.259-17.554-.148-1.344-.117-11.563-1.147-11.667-1.387.33-2.546 12.363-3.025 14.69-1.231 5.972-2.316 12.08-4.497 17.799-.643 1.686-1.71 5.26-3.97 5.224-2.814-.046-3.695-5.863-4.105-7.889-.602-2.983-1.124-6.168-1.237-9.214-.13-3.522 1.162-6.49 1.992-9.912.938-3.875 1.867-7.71 2.542-11.643.082-.479 1.643-7.218.127-6.2-.969.651-1.919 7.347-2.255 8.433-.49 1.59-1.018 3.17-1.512 4.759-1.149 3.697-2.42 8.246-4.451 11.574-4.579 7.505-7.26-8.377-7.73-11.275-.503-3.102-.999-6.193-1.54-9.29-.53-3.042-1.227-4.63.486-7.094 4.897-7.044 14.368-11.142 21.726-14.91l.001.002c7.363-3.583 15.049-6.647 22.626-9.726 6.433-2.615 12.981-4.998 19.558-7.223 5.787-1.96 11.87-3.453 17.24-6.45-1.885 13.663.807 27.898 2.518 41.465l.01.008zm-66.46.319c.001.002.003.004.002.006 0-.002-.003-.004-.003-.007v.001zm98.379-86.438c-5.184 2.268-10.715 5.174-15.49 8.201-2.517 1.594-6.363 4.038-7.906 6.738-3.744 6.553 8.068-.353 10.122-1.348-3.013 8.673-9.217 16.963-15.986 23.082-6.575 5.944-17.075 9.341-25.442 12.13l.003-.001c-9.324 2.98-18.619 6.888-27.533 10.96-9.857 4.5-19.715 8.349-28.644 14.647-9.78 6.899-16.14 19.461-21.315 29.965-3.792 7.696-6.234 16.053-10.073 23.67l.007-.01c-1.814 3.537-3.546-.297-4.46-2.249-1.9-4.059-.4-7.002.45-11.4.36-1.868 3.612-19.987.968-20.23-.041-.003-3.262 17.955-3.878 20.315-2.038 7.806-3.634 16.454-9.975 22.17-6.194 5.582-7.061-6.383-7.099-10.205-.096-10.027 4.099-19.82 3.97-29.736-.065-5.015-1.305-.71-1.685 1.551-.713 4.24-1.488 8.468-2.18 12.712-1.017 6.231-.889 21.672-8.58 23.944-9.529 2.814-6.035-15.81-5.625-20.142.436-4.61 2.007-11.74.661-16.156-1.352-4.438-1.59 4.532-1.687 5.812-1.156 10.397-2.038 21.707-6.732 31.073-.963 1.87-1.785 3.156-3.543 1.97-3.106-2.097-1.992-9.735-1.364-12.177 2.381-9.13 4.497-18.282 4.06-27.797-.104-2.292-.318-3.827-1.029-.84-.672 2.822-.659 6.288-.88 9.2-.134 1.817-.797 4.335-1.202 5.893-1.022 3.952-2.249 7.394-4 11.05-.582 1.214-2.168 6.249-3.591 6.336-2.229.136-.358-17.863-.102-20.388.214-2.113-.107-5.075.63-7.03.449-1.188 1.784-2.597 2.43-3.746 2.332-4.148 4.111-8.67 5.813-13.106 3.67-9.566 6.118-19.525 9.158-29.293 10.364-3.982 20.657-7.07 30.317-12.69 5.12-2.977 9.377-6.625 13.661-10.668.582-.549 3.511-2.872 1.359-2.913-2.073-.04-7.416 5.424-9.202 6.602-4.206 2.776-8.791 4.87-13.422 6.824-6.879 2.902-13.764 6.154-21.16 7.506 1.27-4.517 2.388-6.812 6.49-9.021 4.54-2.445 8.992-4.806 13.28-7.696.57-.384 6.318-4.273 4.58-4.709-1.5-.377-5.536 2.86-6.736 3.44-10.429 5.046-22.217 10.053-33.85 10.701 1.65-3.297 1.672-6.217 4.374-9.101a47.909 47.909 0 0 1 13.684-9.473c1.924-.881 14.08-4.075 13.038-5.382-1.391-1.745-12.007 2.023-14.11 2.753-2.622.91-4.98 2.066-7.233 3.688-1.925 1.386-3.285 3.011-5.666 3.12-1.634.073-9.05-1.269-9.779-3.09-1.099-2.75 4.044-8.838 5.918-10 3.56-2.206 8.022-3.976 11.752-5.047 1.472-.423 8.33-.445 9.087-1.373 1.184-1.452-.41-1.198-1.552-1.41-13.24-2.455-27.04 12.856-39.683 4.337 3.128-6.567 12.973-9.086 19.325-11.278 1.56-.538 7.994-1.514 8.919-2.778.91-1.245.212-.88-.598-1.26-1.965-.922-6.642 1.204-8.88 1.69-3.527.77-6.872 1.888-10.29 3.058-3.355 1.149-12.946 4.837-15.885.617 3.142-7.183 15.894-11.455 22.317-14.12 1.465-.608 14.29-3.867 13.336-5.203-1.192-1.67-12.231 2.199-13.823 2.73-9.407 3.288-21.915 12.6-31.993 7.035 3.854-7.71 15.562-9.633 22.759-11.996 1.782-.586 9.545-2.453 7.59-3.823-1.112-.777-7.92 1.525-9.388 1.813-4.33.849-8.66 1.85-12.936 2.887-5.178 1.255-13.58 3.727-18.25-.516 1.293-3.924 5.68-5.841 9.18-7.164 8.672-3.277 17.34-6.457 25.662-10.556 3.635-1.79 7.366-3.486 10.924-5.421 2.42-1.316 3.684-3.098.035-2.018-4.665 1.38-9.362 4.069-13.85 6.024-5.399 2.353-10.955 3.904-16.469 5.985-5.681 2.145-11.473 5.147-17.603 5.68-3.87.334-11.389 1.033-8.554-4.645 3.152-6.314 12.71-11.15 18.986-14.013 1.79-.817 10.625-2.999 10.681-4.808.06-1.936-8.93 1.762-9.805 2.068-7.772 2.72-14.499 6.78-21.402 11.216-7.751 4.982-15.744 4.454-24.295 1.48 1.351-2.929 3.557-5.798 5.491-8.386 1.822-2.437 4.482-3.21 7.18-4.535 6.175-3.03 12.4-5.822 18.896-8.103 12.927-4.54 26.41-8.262 39.808-11.085l-.012-.002c.003 0 .006 0 .01-.002a.144.144 0 0 1-.048-.004l.047-.01c-.015.001-.015 0-.001-.003-13.262 0-26.286 3.605-38.72 7.907-8.573 2.965-16.505 6.598-24.749 10.326-2.916 1.32-18.178 6.21-18.64.476-.58-7.225 14.11-11.652 19.304-14.112 4.736-2.243 9.675-4.291 14.662-5.9 2.298-.741 11.854-1.681 12.813-4.2.905-2.376-5 .049-5.305.122-6.55 1.587-13.143 3.065-19.52 5.303-7.992 2.804-14.807 7.178-22.308 10.957-5.261 2.652-13.106 3.634-18.712 1.66-.464-1.338 1.377-4.537 2.166-5.631 1.784-2.476 5.26-3.51 7.892-4.833 5.647-2.841 11.213-5.937 17.107-8.242 11.946-4.671 23.612-10.024 35.615-14.562 2.88-1.088 5.717-2.19 8.658-3.104 1.474-.458 6.549-1.232 7.314-2.636 1.273-2.338-4.824-.603-5.208-.519-3.588.796-7.204 1.481-10.754 2.438-13.141 3.541-25.03 9.903-37.307 15.603-10.54 4.894-20.522 10.575-31.581 14.201l.071-.019c-.112.03.016-.004.038-.011-5.267 1.843-10.318 4.063-15.922 4.67-3.26.354-9.217 1.288-12.097-.44 1.523-5.031 6.675-6.711 10.762-9.206 5.343-3.264 10.688-6.41 16.18-9.417 9.342-5.118 19.308-8.94 28.832-13.726 6.204-3.116 12.638-5.688 18.83-8.838 1.142-.58 9.21-3.987 6.595-5.05-1.22-.495-6.51 2.49-7.81 3.014-3.758 1.517-7.554 2.925-11.302 4.468-5.58 2.3-11.08 4.849-16.587 7.324-9.66 4.342-19.275 8.758-28.475 14.023-4.561 2.611-9.002 5.432-13.593 7.984-4.19 2.327-8.57 5.465-13.327 6.42-3.063.616-7.307.6-10.257-.386-4.345-1.454-3.198-4.213-1.088-7.533 3.972-6.25 13.074-10.647 19.226-14.387 18.8-11.43 38.967-20.928 59.424-28.98 3.128-1.231 22.894-8.42 21.737-11.246-.674-1.646-13.347 4.298-15.947 5.365-18.441 7.563-36.946 15.067-54.482 24.58-9.946 5.395-19.367 11.724-29.41 16.905-3.71 1.914-7.271 3.192-11.467 3.366-3.338.137-11.242 1.117-13.863-1.624-5.249-5.49 34.985-32.725 39.475-36.045 7.592-5.616 14.831-10.736 23.457-14.692 9.825-4.507 20.28-6.327 30.607-9.235 2.76-.776 5.552-1.42 8.329-2.13l.001.003c13.221-3.255 25.787-8.684 38.846-12.46 7.605-2.198 17.303-2.544 23.991-7.174 2.89-2 4.515-5.475-.167-5.997-2.345-.261-7.313 1.39-9.213-.36 1.644-2.753 8.271-4.03 11.177-4.943 7.07-2.22 14.226-4.098 21.267-6.445l-.044.013c3.938-1.268 7.812-2.712 11.745-3.988l-.037.013c21.929-7.148 46.928-10.885 69.963-10.445 19.727.376 41.72 1.157 60.655 7.26a.223.223 0 0 1-.026-.01c.026.007-.022-.009-.026-.01 8.322 3.121 16.86 5.414 24.346 10.54 4.45 3.046 8.897 6.769 11.966 11.22 1.004 1.455 1.96 5.238 3.445 6.127 2.262 1.353 8.616-.195 11.05-.392 6.796-.55 13.56-1.024 20.388-.971 11.358.089 22.66.125 33.606 3.573l-.075-.025c.06.018.056.016-.01-.005 16.754 4.468 27.6 26.308 24.698 42.566-1.494 8.37-8.16 14.96-14.486 20.058-3.589 2.892-7.14 5.837-10.713 8.745-2.647 2.154-7.412 5.605-7.84 9.147-6.184-.618-11.374-2.832-16.675-5.95-6.291-3.7-13.006-6.788-19.59-9.939-3.589-1.717-13.288-8.513-10.205.277 1.332 3.8 3.808 6.874 6.527 9.75-2.6.185-5.277-.254-7.83-.686-1.135-.191-5.444-1.916-6.653-.918-4.088 3.378 8.847 12.143 10.806 13.497-5.528 2.566-11.235 4.74-16.635 7.584-2.062 1.088-10.938 5.187-4.545 5.73 9.93.844 19.43-2.514 29.369-.417a126.985 126.985 0 0 0-16.826 7.163c-2.588 1.33-5.137 2.735-7.723 4.063-.887.455-5.431 1.79-5.61 3.309-.603 5.17 25.39 2.616 28.973 1.898-6.763 3.817-14.017 7.434-21.31 10.004-2.037.638-12.682 2.025-11.8 4.549.668 1.913 6.519 2.884 8.26 3.337 7.27 1.891 14.465 1.664 21.865.808-6.73 5.602-14.693 9.864-22.618 13.503-1.881.863-13.336 5.387-11.2 7.219 1.123.963 6.12.338 7.425.233 3.013-.243 6.137-.778 9.093-1.41 6.894-1.476 14.199-4.205 21.342-2.614-.033.014-.067.027-.1.042-.539.235.033-.015 0 0l.008.003zm-185.884 10.883c.008-.003.002-.001 0 0 .001-.001 0 0 0 0zm225.118-66.998c-.006.637.076 9.775-2.173 7.865-.973-.826.322-8.987 1.543-9.124.476.283.686.703.629 1.258-.007.863.003-.256 0 0zm-38.86 25.784c2.379-1.634 7.446-2.214 10.142-3.008 1.19-.351 6.997-2.533 4.662.711-.769 1.067-4.646 1.83-5.883 2.363-2.775 1.193-5.529 3.056-8.447 3.862-4.821 1.33-3.6-2.913-.476-3.928.047-.033.028-.01 0 0h.001zm3.472-32.265c4.027 0 8.392 2.476 12.559 2.883 1.195.116 14.812 1.121 10.832 3.902-1.11.775-5.273-.263-6.604-.33-3.159-.159-6.327.025-9.484-.106-2.362-.098-6.02-.164-7.718-2.18-.813-.965-1.761-4.17.414-4.17h.001zm.028-14.477c1.338-5.352 14.35 4.31 16.176 5.73.327.256 10.127 6.262 7.927 7.573-.994.645-10.294-5.262-11.632-5.92-2.498-1.232-4.96-2.416-7.58-3.374-1.779-.65-5.601-1.171-4.892-4.01l.001.001zm10.524 30.837c-2.893-.952-.935-3.08 1.015-3.52 1.965-.443 8.975-.976 10.731.145 1.402.894 1.19 1.565.002 2.457-2.274 1.707-9.181 1.765-11.748.917-.202-.066.496.164 0 0zm3.094 4.744c1.518-2.241 7.805-1.74 9.996-1.192 1.439.361 3.204.129 1.626 2.05-.465.566-6.97 1.432-7.996 1.635-1.22.242-5.799.717-3.627-2.494.279-.413-.294.434 0 0l.001.001zm-48.042-11.288-.037-.005.036-.022v.026c-.012-.002 0-.01 0 0zm8.3 27.107c-.11.035-.006.002 0 0-.014.004-.012.003 0 0zm-11.134 3.952-.001.015-.014-.009.015-.005c-.001.004-.005.002 0 0zm56.864 14.408c-1.123 1.905-7.25 1.938-8.84 2.115-3.719.414-7.663.906-11.404.947-6.78.074-2.618-6.752.329-9.357 1.13-1 8.898-8.52 10.21-7.185 1.931 1.965-6.267 10.146-7.135 11.26 1.45-.165 20.248-3.554 16.84 2.22-.14.238.184-.311 0 0zm19.044-11.52c-2.765.975-6.018.772-8.902 1.109-2.649.309-8.923 2.483-11.38 1.526-3.718-1.447 2.288-6.263 3.808-7.647 1.781-1.62 11.804-11.71 13.248-10.495 3.369 2.835-8.043 11.384-9.718 13.215 3.529-.075 7.298-1.285 10.816-.963 1.066.097 5.162 2.195 2.126 3.255-.195.068.27-.095 0 0h.002zm18.337 6.827c-.237 1.702-4.163 1.893-5.498 2.26-3.335.913-6.785 2.67-10.14 3.334-2.109.417-2.762.696-1.865-1.919.797-2.325 3.82-5.325 5.213-7.275 2.307-3.231 4.28-6.468 6.324-9.87.988-1.645 2.532-4.075 2.96-.314.473 4.136-5.864 11.503-8.035 14.295 1.667-.48 11.65-4.223 11.041-.51-.03.22.044-.266 0 0zm22.836-5.424c1.724.959 9.983 6.398 4.159 6.926-3.213.292-8.645-3.055-11.44-4.328-3.047-1.389-6.09-2.736-9.244-3.874 2.663-.98 6.522-1.668 9.317-1.64 2.785.03 4.718 1.536 7.207 2.916.225.125-.23-.128 0 0z"/></g><path fill="#010101" d="M687.346 354.1c-.49-.229-.985-.443-1.484-.65-3.658 4.228-7.85 2.854-8.819-2.576-1.422-.165-2.848-.207-4.266-.426 1.965 8.595 10.822 12.824 16.394 5.136.096-.133.174-.28.261-.42a36.839 36.839 0 0 0-2.086-1.064z"/><g fill="#C8102E"><path d="m738.983 223.03-37.66-25.107-17.342-23.048v-26.097l32.254 18.203v5.669l24.826 15.597v-9.171l-42.4-25.252-14.68-26.948v-32.99l37.635-8.444 33.1 17.524 18.404 23.058v31.426l-32.645-20.284v-5.215l-23.067-12.42v10.474l42.806 23.739 12.905 18.436V216l-34.137 7.028v.002zm-55.197-33.997-8.99-4.368a468.249 468.249 0 0 0-27.005-12.082l-3.882-1.592V54.702l8.23 2.739c17.759 5.908 27.608 10.433 28.018 10.623l3.629 1.68v119.289zM614.87 160.52l-3.546-1.113a457.728 457.728 0 0 0-35.046-9.49l-2.635-.6-16.721-28.509V35.409l7.208 1.11a583.68 583.68 0 0 1 27.862 4.99l5.003 1.024v73.824l6.125 1.575V43.841l7.718 1.856a526.529 526.529 0 0 1 27.83 7.49l4.46 1.335v78.719l-28.258 27.279zm-84.484-18.669-2.783-.328a470.152 470.152 0 0 0-33.276-2.72l-2.803-.13-21.59-26.612V48.495L495.675 30l2.155.088c11.189.46 22.49 1.241 33.593 2.325l2.187.214 22.137 21.582v65.169l-25.363 22.473zm-21.878-39.656c2.642.197 5.302.418 7.95.659V65.319c-2.64-.195-5.3-.373-7.95-.532v37.408zm-123.216 43.912V36.07l5.39-.752a599.862 599.862 0 0 1 26.736-3.112l6.84-.642v71.25c10.314-.733 22.667-1.328 37.653-1.816l6.459-.212v37.491l-6.123.13a490.691 490.691 0 0 0-69.676 6.495l-7.28 1.207zm-45.156 10.468v-36.983l3.934-1.573c3.897-1.557 12.108-4.415 23.313-6.046l7.158-1.043v37.283l-4.936 1.066a468.647 468.647 0 0 0-21.603 5.2l-7.866 2.097v-.001z"/><path d="m294.663 173.231.938-74.545c-6.18 2.294-9.612 3.78-9.777 3.853l-8.762 3.837V62.6l4.26-1.434a611.216 611.216 0 0 1 65.704-18.101l7.574-1.635v39.381l-4.889 1.095c-2.27.508-9.52 2.162-14.855 3.722v72.544l-4.388 1.372c-17.028 5.328-26.78 9.653-26.877 9.695l-8.931 3.99.003.001zm-77.974 43.057-29.809-8.48V191.33l32.45-21.633v8.253l23.652-14.703v-9.25L208.8 173.345l-21.919-4.774v-51.128l26.435-26.869 32.53-15.202 29.587 3.374v27.546l-32.45 14.316v-8.15l-23.653 11.635v11.243l25.522-13.326 30.58 2.85v42.575l-18.803 25.144-39.94 23.708z"/></g><path fill="#FFF" d="m739.47 220.534-36.513-24.342-16.63-22.103v-21.294l27.563 15.555v5.595l29.517 18.545v-14.748l-42.994-25.605-14.086-25.86V95.764l34.957-7.843 31.904 16.89 17.586 22.036v26.385l-27.954-17.369v-5.312l-27.758-14.947v15.783l43.54 24.147 12.17 17.387v41.168l-31.303 6.446zm-58.03-35.249-5.618-2.73a471.24 471.24 0 0 0-27.141-12.143l-2.427-.995V57.955l5.144 1.712c17.686 5.883 27.371 10.34 27.775 10.527l2.268 1.05v114.041zm-67.198-27.42-2.216-.696a459.964 459.964 0 0 0-35.227-9.538l-1.646-.376-15.886-27.084V38.144l4.505.693a580.727 580.727 0 0 1 27.75 4.971l3.126.64v73.728l10.816 2.782v-74.14l4.824 1.16a524.44 524.44 0 0 1 27.705 7.456l2.788.835v75.976l-26.54 25.619zm-84.626-18.467-1.74-.204a472.703 472.703 0 0 0-33.442-2.735l-1.75-.08-20.404-25.15V49.698l24.108-17.32 1.348.055a598.678 598.678 0 0 1 33.462 2.316l1.365.133 20.84 20.318v63.124l-23.787 21.076zm-23.455-35.02c4.195.292 8.423.644 12.641 1.052V63.143a591.958 591.958 0 0 0-12.64-.842v42.076zM387.637 143.34V38.11l3.369-.471a597.09 597.09 0 0 1 26.63-3.1l4.275-.401v71.199c10.755-.815 23.925-1.471 40.075-1.997l4.038-.132v32.77l-3.827.08a493.032 493.032 0 0 0-70.01 6.526l-4.55.754v.002zm-45.156 10.18V121.18l2.459-.983c3.8-1.519 11.813-4.306 22.78-5.903l4.474-.651v32.676l-3.085.666a469.865 469.865 0 0 0-21.712 5.226l-4.916 1.31zm-45.426 16.073.935-74.279c-8.427 3.034-13.05 5.05-13.105 5.073l-5.478 2.4V64.286l2.662-.896a608.79 608.79 0 0 1 65.45-18.031l4.735-1.022v34.597l-3.056.685c-2.808.628-11.292 2.57-16.688 4.27v72.56l-2.742.857c-17.207 5.384-27.038 9.75-27.135 9.793l-5.58 2.494h.002zm-80.695 44.16-27.134-7.718v-13.45l27.758-18.506v8.09l28.344-17.62v-14.578l-36.904 20.89-19.198-4.18v-48.278l25.465-25.882 31.547-14.743 26.848 3.062v23.924L245.33 117.01v-8.32l-28.345 13.943v16.575l28.34-14.798 27.762 2.587v39.658l-18.056 24.145-38.67 22.954z"/><path fill="#C8102E" d="M690.237 98.893v26.39l13.097 24.044 43.983 26.194v24.043l-37.337-23.457v-5.473l-19.743-11.142v13.293l15.443 20.525 34.6 23.066 26.584-5.473v-36.75l-10.946-15.637-44.765-24.826v-24.632l35.577 19.157v5.474l20.134 12.51v-17.983l-16.225-20.33-29.908-15.835m-70.567-28.674v103.418c9.073 3.719 18.2 7.79 27.367 12.245V73.742s-9.686-4.484-27.367-10.366zM577.67 143.82a462.006 462.006 0 0 1 35.527 9.619l23.673-22.854V59.18a519.418 519.418 0 0 0-27.497-7.4v74.22l-18.636-4.792V47.64a574.396 574.396 0 0 0-27.563-4.938v76.408l14.494 24.71h.002zM530.817 38.639a592.034 592.034 0 0 0-33.244-2.3l-21.385 15.363v58.14l18.426 22.711a475.139 475.139 0 0 1 33.72 2.757l21.159-18.747V56.847L530.817 38.64zm-8.105 71.115c-6.92-.73-13.744-1.3-20.46-1.717V58.18c6.982.342 13.807.798 20.46 1.355v50.218zm-104.711-.18V38.433a590.62 590.62 0 0 0-26.455 3.08v97.217a496.172 496.172 0 0 1 70.568-6.578v-24.904c-15.692.512-31.134 1.224-44.113 2.326zm-71.61 14.254v24.606a471.697 471.697 0 0 1 21.893-5.271v-25c-10.718 1.56-18.502 4.309-21.893 5.665zm1.954-74.648a602.35 602.35 0 0 0-65.029 17.915v29.713s6.588-2.889 18.654-7.037l-.93 73.76s9.885-4.423 27.562-9.954V81.105c4.951-1.917 15.901-4.442 19.744-5.302V49.18zm-79.168 35.15-22.285-2.541-29.908 13.976-23.848 24.24v43.526l14.66 3.193 41.442-23.457v23.457l-36.163 22.48v-7.819l-19.94 13.293v8.405l22.676 6.451 36.555-21.698 16.81-22.48V130.56l-23.066-2.15-33.036 17.25V120.2l36.164-17.789v8.601l19.939-8.796"/></svg>