<svg xmlns="http://www.w3.org/2000/svg" viewBox="0 0 960 640" xml:space="preserve"><path fill="#C8102E" d="M778.66 588.176V600h-2.956v-11.824h-3.423v-2.938h9.802v2.938h-3.422zM794.685 600v-8.713l-2.49 5.428h-2.612l-2.49-5.427V600h-2.956v-14.762h2.956l3.796 7.883 3.795-7.883h2.957V600h-2.957z"/><path fill="#FFD100" d="M720.65 317.114V40H459.03L260.98 317.114h-98.62V600h318.402s-51.573-43.474-51.573-86.8c0-46.968 54.92-59.153 69.458-114.97 0 0 9.215 19.516 9.215 43.632 0 50.434-27.355 62.959-27.355 98.502 0 54.153 54.892 59.577 54.892 59.577L764.89 600V317.114H720.65zm-300.924-53.701c42.884 82.487-73.879 105.841-73.879 187.84 0 31.483 20.743 57.164 20.743 57.164H253.942v-99.72h54.153l198.048-277.115h122.922v277.115h44.242v99.72h-70.856s-52.573-8.695-52.573-82.148c0-86.463 71.83-89 71.83-169.222 0-68.546-68.091-113.229-68.091-113.229 19.683 103.074-60.035 93.936-72.833 162.078-18.787-23.609-61.058-42.483-61.058-42.483z"/><path fill="#C8102E" d="M708.463 52.187H465.3L267.249 329.299h-92.704v258.519h277.16s-34.653-35.269-34.653-74.618c0-62.538 64.267-56.163 76.661-148.37 0 0 26.383 32.858 26.383 77.032 0 54.074-27.394 66.259-27.394 98.502 0 43.156 43.884 47.454 43.884 47.454h216.12V329.299h-44.243V52.187zm-22.969 468.418h-83.767s-63.992-5.989-63.992-94.337c0-86.97 71.813-98.14 71.813-169.221 0-50.265-41.475-84.622-41.475-84.622.315 97.143-88.03 75.143-78.005 176.18 0 0-5.064-34.458-50.103-60.544 8.43 70.532-81.921 100.488-81.921 163.192 0 40.62 36.68 69.352 36.68 69.352H241.757V396.509h60.068L499.88 119.397h141.373v277.112h44.242v124.096z"/></svg>