<svg xmlns="http://www.w3.org/2000/svg" viewBox="0 0 960 640" xml:space="preserve"><path fill="#041E42" d="M595.431 577.623c-8.282 0-15.005 6.714-15.005 15.001 0 8.278 6.723 15.001 15.005 15.001s14.995-6.723 14.995-15c0-8.288-6.713-15.002-14.995-15.002zm0 26.784a11.772 11.772 0 0 1-11.782-11.783c0-6.51 5.264-11.774 11.782-11.774 6.51 0 11.78 5.264 11.78 11.774 0 6.512-5.27 11.783-11.78 11.783zm6.164-15.26a5.085 5.085 0 0 0-5.09-5.082h-7.228v17.123h3.213v-6.954h2.306l3.246 6.954h3.553l-3.389-7.251a5.096 5.096 0 0 0 3.39-4.79zm-5.09 1.872h-4.015v-3.747h4.015c1.032 0 1.877.839 1.877 1.875a1.878 1.878 0 0 1-1.877 1.872z"/><path fill="#FFA300" d="M479.989 129.631c-106.373 0-190.614 33.603-249.112 68.138l-1.597-1.87c-2.937-3.449-4.773-10.787-1.254-21.288L263.09 69.96c1.76-5.275-1.454-12.174-7.388-15.973l-35.959-23.421-11.712 3.207c-4.973 1.343-7.531 5.774-8.38 11.173L179.079 177.17c-1.065 6.932 1.354 23.331 10.451 33.39l7.977 8.765c-40.3 28.398-61.559 52.554-61.559 52.554 23.625 140.461 148.259 278.528 344.041 337.555 195.8-59.027 320.42-197.094 344.065-337.555 0 0-125.16-142.247-344.064-142.247z"/><path fill="#041E42" d="M479.989 144.041c-99.93 0-181.543 33.304-238.172 66.602l12.335 14.496 4.687 5.512 16.386 19.283 26.531 31.198c4.082-7.151 7.242-16.206 8.123-27.752l11.852 15.814 11.44 15.245 7.42 9.892c-4.473 7.036-9.493 11.896-14.688 15.202l47.554 55.937a413.045 413.045 0 0 1-23.967-4.96l-40.422-45.218c-4.205.412-8.323.17-12.172-.466-13.558-2.259-23.94-9.3-23.94-9.3s4.69-1.341 10.728-5.227a55.39 55.39 0 0 0 7.098-5.452l-82.521-92.31c-7.215-8.087-11.3-19.54-8.938-34.529l10.627-67.496 4.817-30.51 2.764-17.603 2.103-13.293L212.618 41c-2.903.818-4.045 3.612-4.484 6.38l-19.759 127.089c-1.713 10.475 1.62 22.822 7.379 29.143l20.823 22.895c-40.636 27.217-63.016 50.678-63.016 50.678 28.77 157.416 192.18 276.498 326.428 315.44 134.26-38.942 297.667-158.024 326.444-315.44 0 0-126.6-133.143-326.444-133.143z"/><g fill="none"><path d="M627.159 312.41c-10.9 0-21.113.54-30.646 1.474 13.272.187 49.404 2.359 49.404 20.085 0 46.483-129.411 66.748-218.05 61.29 155.573 39.817 220.654-16.127 220.654-16.127s-46.207 74.166-201.6 81.8c103.128 15.275 154.914-4.5 215.218-46.583-33.077 61.365-125.322 87.308-178.265 105.367 0 0 171.652-10.209 218.512-120.696 4.088-11.087 6.217-22.267 6.217-33.437 0-48.13-47.94-53.172-81.444-53.172z"/><path d="M627.159 312.41c-10.9 0-21.113.54-30.646 1.474 13.272.187 49.404 2.359 49.404 20.085 0 46.483-129.411 66.748-218.05 61.29 155.573 39.817 220.654-16.127 220.654-16.127s-46.207 74.166-201.6 81.8c103.128 15.275 154.914-4.5 215.218-46.583-33.077 61.365-125.322 87.308-178.265 105.367 0 0 171.652-10.209 218.512-120.696 4.088-11.087 6.217-22.267 6.217-33.437 0-48.13-47.94-53.172-81.444-53.172z"/></g><g fill="#5C88DA"><path d="M184.034 275.365s17.574-13.858 48.662-31.126l-3.273-3.609c-29.086 19.43-45.389 34.735-45.389 34.735zM479.989 160.49c-94.238 0-173.213 33.737-225.837 64.65l4.687 5.51c52.816-25.679 130.212-52.902 221.15-52.902 194.748 0 300.421 126.443 300.421 126.443 5.349-12.135 6.52-20.015 6.52-20.015S677.102 160.49 479.989 160.49z"/></g><g fill="#862633"><path d="m657.266 243.305 8.03-5.03c-172.388-89.8-344.69-11.147-344.69-11.147C436.7 210.872 477.515 222.9 477.515 222.9c-65.002 4.634-107.959 46.434-107.959 46.434 82.425-31.342 132.341-17.188 132.341-17.188-99.642 25.095-122.95 77.719-122.95 77.719 71.141-45.576 124.796-34.698 135.364-31.871-18.441 12.55-36.796 33.347-36.796 33.347 166.11-72.465 262.933-5.049 262.933-5.049-27.866-57.141-83.18-82.987-83.18-82.987zm-121.89-19.214s58.712 7.8 90.1 26.954c0 0-15.917-2.73-34.113-4.251-5.984-.5-12.214-.865-18.218-.972-8.785-.14-17.062.3-23.319 1.76 0 0 10.12-6.417 16.722-9.496 0 0-12.188-6.99-31.172-13.995zm21.276 47.225 18.878-8.702s8.379 1.294 20.344 3.999c14.776 3.346 35 8.808 51.616 16.602-25.49-5.781-47.288-8.729-63.169-10.256-17.373-1.673-27.669-1.643-27.669-1.643z"/><path d="M627.159 312.41c-10.9 0-21.113.54-30.646 1.474-61.682 6.061-94.637 28.634-94.637 28.634 23.674-3.047 66.562-9.92 66.562 4.175 0 12.936-30.001 21.026-69.373 24.33-13.691 1.143-28.51 1.725-43.602 1.725a450.66 450.66 0 0 1-31.435-1.117c-16.961-1.168-34.092-3.243-50.571-6.16a413.045 413.045 0 0 1-23.967-4.96l-40.422-45.22c5.571-.538 11.312-2.252 16.834-5.758 5.196-3.306 10.216-8.166 14.69-15.201l-7.421-9.893c-10.911 15.278-27.057 15.172-27.057 15.172 12.723-11.942 15.201-26.861 15.617-30.417l-11.852-15.814s-6.004-5.132-18.698-5.132c-5.036 0-10.425.572-15.957 1.686l26.532 31.199c-3.27 5.748-7.125 10.248-10.974 13.714l-82.522-92.31c-7.214-8.087-11.3-19.54-8.938-34.529l10.628-67.496 4.817-30.51 2.764-17.603 2.103-13.293L212.618 41c-2.904.818-4.045 3.612-4.484 6.38l-19.759 127.089c-1.713 10.475 1.62 22.822 7.378 29.143l20.823 22.895 12.847 14.124 3.273 3.61 14.31 15.73c-22.666 11.729-41.673 31.58-41.673 56.619 0 28.018 27.965 80.18 79.146 130.24 47.54 46.515 115.103 91.226 198.926 113.11 115.064-41.71 196.59-100.071 218.98-160.918 4.089-11.087 6.218-22.267 6.218-33.437 0-48.13-47.94-53.173-81.444-53.173zm-366.794-10.142c0-8.698 6.35-14.729 9.49-17.177l13.828 15.208c-6.037 3.885-10.727 5.226-10.727 5.226s10.381 7.042 23.94 9.3l38.11 41.904c-42.933-12.225-74.64-30.943-74.64-54.46z"/></g><g fill="#B86125"><path d="M309.068 315.291c5.571-.538 11.312-2.252 16.834-5.758 5.196-3.306 10.216-8.166 14.69-15.202l-7.421-9.892c-10.911 15.278-27.057 15.172-27.057 15.172 12.723-11.942 15.201-26.861 15.617-30.417l-11.852-15.814c-.881 11.546-4.041 20.6-8.123 27.752-3.27 5.748-7.125 10.249-10.974 13.715a55.397 55.397 0 0 1-7.098 5.452c-6.038 3.885-10.728 5.226-10.728 5.226s10.382 7.042 23.94 9.3c3.849.636 7.967.879 12.172.466z"/><path d="M627.159 312.41c-10.9 0-21.113.54-30.646 1.474-61.682 6.061-94.637 28.634-94.637 28.634s48.44-15.298 76.069-15.298c14.037 0 29.266 2.465 29.266 13.808 0 18.299-62.896 28.753-108.146 29.994-13.691 1.144-28.51 1.726-43.602 1.726a450.66 450.66 0 0 1-31.435-1.117c-213.725-12.245-194.15-74.824-194.15-74.824-37.797 48.555 106.749 131.882 258.919 132.494-108.352 26.345-181.436-3.11-181.436-3.11 63.331 60.79 164.308 66.175 164.308 66.175-99.15 15.029-165.898-28.823-187.19-45.538 47.54 46.516 115.103 91.227 198.926 113.111 115.064-41.71 196.59-100.072 218.98-160.919 4.089-11.087 6.218-22.267 6.218-33.437 0-48.13-47.94-53.172-81.444-53.172z"/><path d="M511.46 228.309c-50.808 2.86-64.027 11.06-64.027 11.06 57.25-3.316 80.133 13.306 80.133 13.306s-64.096 12.753-97.377 41.294c0 0 54.23-19.433 100.078-7.847l-15.957 11.872c-18.441 12.55-36.796 33.347-36.796 33.347 166.11-72.466 262.933-5.05 262.933-5.05s-27.866-50.478-105.687-81.426l9.094-5.426c-82.86-40.423-172.567-40.037-236.411-31.531 19.267-1.833 72.516-4.261 104.017 20.4zm193.404 73.597s-67.047-26.359-142.297-17.021l21.754-11.926c-17.373-1.673-27.669-1.643-27.669-1.643l18.878-8.702s8.379 1.294 20.344 3.999l15.188-8.316s44.052 6.74 93.802 43.609zm-79.388-50.861s-15.917-2.73-34.113-4.251c-5.984-.5-12.214-.865-18.218-.972-8.785-.14-17.062.3-23.318 1.76 0 0 10.118-6.416 16.721-9.496 0 0-12.188-6.99-31.171-13.995 0 0 58.71 7.8 90.099 26.954z"/></g><g fill="#FFA300"><path d="M627.159 312.41c-10.9 0-21.113.54-30.646 1.474 13.272.187 49.404 2.359 49.404 20.085 0 46.483-129.411 66.748-218.05 61.29 155.573 39.817 220.654-16.127 220.654-16.127s-46.207 74.166-201.6 81.8c103.128 15.275 154.914-4.501 215.218-46.583-33.077 61.365-125.322 87.308-178.265 105.367 0 0 171.652-10.209 218.512-120.696 4.088-11.087 6.217-22.267 6.217-33.437 0-48.13-47.94-53.172-81.444-53.172zM657.266 243.305l8.03-5.03c-172.388-89.8-344.69-11.147-344.69-11.147s34.848-12.29 86.837-19.22c63.844-8.505 153.55-8.891 236.411 31.531l-9.094 5.426c77.821 30.948 105.687 81.427 105.687 81.427-27.866-57.141-83.18-82.987-83.18-82.987z"/><path d="M582.741 238.382c-4.677-.31-8.748 2.953-9.596 7.44 6.004.107 12.234.473 18.218.972-.548-4.271-4.18-8.116-8.622-8.412z"/></g><g fill="#FFF"><path d="m239.951 119.39 8.48-25.322-30.9-41.67zM209.95 100.512l26.419 36.95-21.602-67.46zM611.062 258.296l-15.188 8.317c14.776 3.346 35 8.808 51.616 16.602-25.49-5.781-47.288-8.729-63.169-10.256l-21.754 11.926c75.25-9.338 142.297 17.02 142.297 17.02-49.75-36.869-93.802-43.608-93.802-43.608z"/></g></svg>