<svg xmlns="http://www.w3.org/2000/svg" viewBox="0 0 960 640" xml:space="preserve"><path fill="#009CA6" d="M891.07 456.887v11.824h-2.958v-11.824h-3.422v-2.938h9.802v2.938h-3.423zm16.022 11.824V460l-2.49 5.427h-2.612L899.5 460v8.712h-2.956V453.95h2.956l3.796 7.883 3.796-7.883h2.956v14.762h-2.956z"/><g fill="#FFD100"><path d="M936 235.679s-95.572 6.225-110.64 72.51l-13.3 55.956s-6.224 37.564-39.048 33.39l-9.621 69.61s46.265 12.45 97.34-46.124c0 0 16.554-17.544 25.467-72.156 0 0 6.225-40.747 40.181-40.181L936 235.678zM689.82 469.974l69.043-2.83 45.84-292.02-71.006 2.73zM680.868 470.42a3.396 3.396 0 0 0 3.151-2.86l19.1-121.242s21.788-104.414-102.717-104.414c0 0-106.961 0-128.184 104.414 0 0-32.532 171.356 136.375 129.327a3.415 3.415 0 0 0 2.557-2.9l8.9-74.31c.365-3.05-3.202-5.001-5.543-3.012-10.933 9.286-33.885 23.901-58.114 9.548a3.876 3.876 0 0 1-.263-.168c-1.724-1.214-19.939-14.728-13.736-39.809 0 0 7.004-43.661 46.27-47.52.094-.01.176-.022.27-.028 2.652-.185 44.858-3.669 43.164 32.632-.006.132-.012.268-.027.399l-14.212 119.71a3.396 3.396 0 0 0 3.574 3.79l59.435-3.556zM359.315 258.882s-84.041 0-123.94 89.983c0 0-44.142 94.228 42.446 141.766 0 0 72.156 39.05 148.557-40.747l-35.566-44.843 57.564-3.925a9.734 9.734 0 0 0 8.786-7.322c7.316-28.861 27.084-138.847-97.847-134.912zm28.014 87.436h-66.215c46.69-40.747 66.215 0 66.215 0zm-81.495 64.517 74.714-5.095c-15.683 11.012-54.665 33.831-74.714 5.094z"/><path d="M344.035 213.89c4.898.71 15.28-94.228 15.28-94.228S237.073 99.29 182.744 218.134l-64.516 156.198s-16.763 49.305-75.552 50.934L24 519.494s114.601 20.373 154.5-63.668l81.494-184.21s25.467-66.215 84.04-57.726z"/></g><g fill="#009CA6"><path d="m786.379 412.425-5.568 40.286c45.681-4.242 69.446-42.846 69.446-42.846 1.772-2.068 12.455-19.121 20.811-63.139l.025-.17c2.469-16.158 14.26-44.667 41.684-51.605l5.426-41.183c-25.62 5.278-69.294 19.759-77.942 57.808l-13.24 55.708c-.54 2.845-2.843 13.23-9.294 23.341-7.73 12.112-18.567 19.563-31.348 21.8zM746.928 192.638l-39.25 261.311 38.033-1.558 41.016-261.284-39.799 1.53zM487.22 349.231c-.436 2.434-11.925 69.27 21.755 100.752 18.277 17.086 47.848 21.34 87.993 12.679l4.974-41.535c-18.359 7.703-37.127 6.664-53.512-3.113l-.646-.408c-10.872-7.247-27.35-27.22-20.255-56.157.478-2.044 3.456-13.856 11.291-26.478 11.663-18.79 28.261-30.086 48-32.666l.713-.077c2.954-.252 29.418-1.946 46.5 14.145 6.31 5.942 13.747 16.71 13.337 34.26l-.101 1.448-12.561 105.793 35.705-2.136 17.747-112.542c.058-.289 6.765-35.264-13.302-59.741-14.292-17.433-39.341-26.271-74.456-26.271-3.818.023-94.712 1.603-113.183 92.047zM433.81 299.934c-13.703-18.222-38.598-26.88-74.014-25.78l-.435.008c-3.369.036-74.939 1.786-110.017 80.897l-.131.289c-.08.174-9.852 21.65-9.808 47.613.056 32.601 15.417 57.569 45.654 74.212 3.142 1.625 58.199 28.733 120.8-28.57l-21.436-27.03c-28.164 18.42-48.448 19.437-60.871 17.715-40.921-5.675-39.365-46.705-39.365-46.705.99-33.673 26.88-57.778 26.88-57.778 20.13-17.566 39.238-24.016 57.139-20.95 26.176 4.482 36.575 26.181 40.286 37.598 1.146 3.528-1.443 7.156-5.15 7.27l-92.187 3.303c-3.193 2.746-12.26 20.9-10.633 33.421l60.267-3.675-.002-.001 77.344-3.232a6.93 6.93 0 0 0 6.363-5c6.405-21.996 7.766-59.072-10.684-83.605zM42.245 506.032c10.763.619 26.045.642 42.415-2.074 38.87-6.448 66.109-24.929 79.95-54.507l81.265-183.69c12.138-26.687 39.399-67.47 87.394-67.888 2.57-13.424 6.104-39.071 9.072-64.198-11.575-.257-29.003.576-48.176 5.732-44.274 11.907-77.045 40.447-97.408 84.829L132.59 379.584c-10.118 24.742-38.131 59.547-77.431 61.292l-12.913 65.156z"/></g></svg>