<svg xmlns="http://www.w3.org/2000/svg" viewBox="0 0 960 640" xml:space="preserve"><path fill="#00205B" d="M810.598 622.837v11.824h-2.957v-11.824h-3.423v-2.938h9.803v2.938h-3.423zm16.023 11.824v-8.712l-2.49 5.427h-2.612l-2.49-5.427v8.712h-2.956V619.9h2.956l3.796 7.884 3.796-7.884h2.956v14.762h-2.956zM585.574 229.9 476.207 0l-56.516 118.842-15.276-20.982-29.184 61.337-9.71-13.338L130.422 640h665.24L594.672 217.392l-9.098 12.509z"/><path fill="#FFF" d="m592.372 242.178-9.098 12.505L476.207 29.615l-54.213 114-15.278-20.982-29.184 61.337-9.711-13.338L150.559 627.28h624.968L592.372 242.178zm-227.445-35.174 7.703 10.596 28.088-59.03 17.329 23.799 57.437-120.75 106.413 223.689 7.462-10.24 47.616 100.116h-72.801c-17.784-39.294-57.31-66.65-103.25-66.65-45.938 0-85.461 27.356-103.248 66.65h-72.764l80.015-168.18zm-124.5 261.687h117.336c17.83 39.196 57.3 66.459 103.16 66.459 45.866 0 85.337-27.264 103.164-66.46H681.45l69.552 146.24H170.848l69.579-146.24z"/><path fill="#C8102E" d="M460.924 471.77c-27.576 0-49.926-22.35-49.926-49.926 0-27.575 22.35-49.932 49.926-49.932 19.175 0 35.819 10.816 44.181 26.674l46.713-26.171c-17.537-32.179-51.667-54.017-90.894-54.017-57.128 0-103.442 46.314-103.442 103.446 0 57.125 46.314 103.439 103.442 103.439 39.227 0 73.357-21.835 90.894-54.011l-46.713-26.17c-8.365 15.857-25.006 26.667-44.181 26.667z"/><path fill="#FFC72C" d="M460.924 379.342c-23.476 0-42.5 19.024-42.5 42.502 0 23.472 19.024 42.5 42.5 42.5 23.466 0 42.503-19.028 42.503-42.5 0-23.478-19.037-42.502-42.503-42.502z"/></svg>