<svg xmlns="http://www.w3.org/2000/svg" viewBox="0 0 960 640" xml:space="preserve"><g fill="#E4002B"><path d="M679.236 563.221v11.825h-2.957V563.22h-3.423v-2.937h9.802v2.938h-3.422zm16.023 11.825v-8.713l-2.49 5.428h-2.612l-2.49-5.428v8.713h-2.956v-14.762h2.956l3.796 7.883 3.796-7.883h2.956v14.762h-2.956zM251.757 536.45c8.954-8.668 19.07-12.665 29.318-16.23 22.579-7.853 46.002-11.714 69.67-14.54 38.824-4.637 77.8-5.187 116.818-5.03 4.268.016 8.61.299 12.787-.367 6.9-1.1 11.01-5.554 12.174-12.45.451-2.674.535-5.434.537-8.155.075-109.078.122-218.155.17-327.233.005-9.332.001-18.665.001-28.638-9.655.158-17.034 4.525-23.598 10.367-11.267 10.026-15.993 23.356-17.6 37.843-.856 7.723-.764 15.57-.78 23.363-.06 30.635-.067 61.27.041 91.906.189 53.261.601 106.522.564 159.782-.004 6.48-1.593 13.148-3.541 19.388-2.125 6.806-7.195 11.928-14.094 13.871-23.394 6.59-47.14 11.009-71.588 7.825-5.669-.738-11.157-2.864-17.785-4.633 11.902-14.618 16.541-30.875 18.77-47.72 1.784-13.488 2.754-27.185 2.766-40.791.065-71.606-.396-143.212-.393-214.818 0-11.839.279-23.896 2.546-35.436 1.42-7.223 5.67-14.74 10.773-20.11 3.794-3.994 11.016-6.717 16.672-6.652 58.932.68 110.282-19.458 155.886-55.651 8.835-7.012 16.724-15.207 25.195-22.691 1.627-1.437 3.92-2.97 5.928-3 38.937-.571 73.716 9.713 100.255 40.02 17.02 19.436 25.588 42.864 28.325 68.103 1.842 16.977 1.677 34.216 1.708 51.34.151 84.101.007 168.203.126 252.305.02 14.89 1.285 29.725 8.805 43.094 2.24 3.984 5.438 7.43 8.516 11.547-12.268 7.679-24.61 15.419-36.966 23.134-34.385 21.468-68.946 42.661-103.036 64.588-7.826 5.034-14.038 12.578-21.266 19.22-96.505-58.877-203.98-76.438-317.704-73.552zm401.79-30.463c-5.538-8.235-11.777-15.619-15.92-24.034-11.087-22.517-14.01-46.98-13.992-71.696.02-25.539.947-51.081 1.73-76.615.961-31.377 2.2-62.745 3.288-94.119.89-25.668-.643-51.049-8.519-75.757-12.931-40.57-47.804-60.103-87.118-48.925-4.643 1.32-6.08 3.29-6.063 8.054.133 36.87-.048 73.742-.076 110.614-.061 81.94-.082 163.879-.145 245.819-.005 7.02-.468 14.053-.142 21.054.091 1.952 1.817 4.833 3.525 5.554 24.403 10.298 48.921 20.324 73.457 30.303 1.408.572 3.658.854 4.76.126 15.426-10.196 30.72-20.591 45.216-30.378z"/><path d="M561.745 36.12c-11.282 13.507-24.104 23.857-37.949 33.04-29.5 19.57-62.172 30.17-97.084 34.684-21.927 2.835-43.926 4.487-65.78.737-19.693-3.38-37.685.564-54.448 10.34-19.887 11.6-29.921 30.035-33.642 52.282-.514 3.072-.899 6.166-1.452 10.004-1.227-1.157-2.288-1.834-2.913-2.795-15.804-24.29-29.698-49.523-36.408-78.014-3.063-13.007-4.504-26.327.42-39.203 5.916-15.471 17.96-24.307 34.061-25.575 41.29-3.25 82.553-1.054 123.832 1.722 34.213 2.301 68.515 3.748 102.8 4.363 21.959.395 43.958-1.41 65.94-2.207.518-.018 1.047.238 2.623.622z"/></g></svg>