<svg xmlns="http://www.w3.org/2000/svg" viewBox="0 0 960 640" xml:space="preserve"><path fill="#010101" d="M913.7 518.938v11.825h-2.957v-11.825h-3.423v-2.937h9.803v2.937H913.7zm16.023 11.825v-8.713l-2.49 5.428h-2.612l-2.49-5.428v8.713h-2.956V516h2.956l3.796 7.883 3.796-7.883h2.956v14.762h-2.956z"/><g fill="#010101"><path d="M201.696 218.982c-6.38-12.135-14.224-21.226-23.327-27.028-9.145-5.81-20.255-8.776-33.022-8.823h-.134c-4.549 0-9.943 1.041-16.044 3.095-6.026 2.028-12.944 5.084-20.565 9.087l-54.103 28.481 13.99 26.58 10.925-5.747 31.867 60.545-10.925 5.747 13.99 26.576 54.098-28.465c7.625-4.011 14.064-7.983 19.14-11.805 5.287-3.988 9.121-7.775 11.726-11.59 7.142-10.543 10.952-21.401 11.322-32.26.393-10.838-2.617-22.411-8.938-34.393zM145.25 287.29l-31.864-60.545 6.046-3.178c10.56-5.56 19.94-7.217 27.86-4.962 7.893 2.275 14.571 8.517 19.847 18.55 5.268 9.994 6.611 19.014 3.983 26.804-2.636 7.833-9.31 14.614-19.827 20.149l-6.045 3.182zM323.353 197.497l-24.058 6.459-.66 25.051L268 237.226l-5.449-20.31 23.528-6.325-8.458-31.585-23.536 6.313-3.799-14.178 30.749-8.242 11.973 17.168 23.944-6.415-12.873-48.05-109.942 29.488 7.79 29.02 12.245-3.293 17.721 66.088-12.24 3.285 7.762 29.011 109.938-29.471zM408.89 211.6l-7.636-68.331 5.213-.585 8.407 18.534 24.356-2.718-5.453-48.764-108.794 12.162 5.453 48.76 24.058-2.69 4.191-19.946 5.421-.612 7.626 68.339-12.603 1.406 3.34 29.849 62.026-6.922-3.34-29.86zM554.625 209.683l.404-18.695c.114-5.61-1.065-9.99-3.508-13.03-1.54-1.902-3.862-3.603-7.028-5.14 4.62-2.329 8.277-5.177 10.913-8.5 3.768-4.746 5.76-10.91 5.924-18.323.208-10.163-2.895-18.632-9.232-25.17-6.324-6.56-14.735-10.001-25-10.221l-78.483-1.666-.644 30.03 12.347.259-1.461 68.402-12.34-.26-.656 30.026 59.744 1.284.632-30.044-10.01-.205.48-22.36 7.346.165c5.363.113 9.087 1.28 10.78 3.378 1.03 1.269 2.714 5.272 2.447 17.847l-.672 31.459 48.383 1.033.648-30.04-11.014-.229zm-56.928-69.655 10.014.22c5.185.11 8.945 1.072 11.184 2.86 2.05 1.63 3.01 4.176 2.93 7.782-.074 3.607-1.142 6.113-3.264 7.665-2.302 1.685-6.08 2.514-11.274 2.372l-10.038-.212.448-20.687zM706.168 171.267c-2.333-9.07-6.639-17.62-12.818-25.425-5.158-6.368-11.322-11.616-18.322-15.596-6.958-3.944-14.909-6.741-23.638-8.309-8.682-1.543-17.1-1.665-25.009-.36-7.896 1.311-15.478 4.108-22.553 8.331-8.532 5.139-15.54 11.636-20.836 19.316-5.308 7.708-8.875 16.543-10.6 26.262-1.728 9.652-1.41 19.143.944 28.214 2.333 9.055 6.646 17.588 12.834 25.37 5.134 6.38 11.294 11.64 18.299 15.635 6.984 3.996 14.912 6.804 23.55 8.34 4.683.833 9.288 1.25 13.774 1.25 3.857 0 7.629-.307 11.294-.923 7.975-1.344 15.572-4.153 22.6-8.36 8.482-5.166 15.475-11.683 20.79-19.367 5.338-7.708 8.913-16.5 10.63-26.136 1.717-9.64 1.399-19.14-.939-28.242zm-37.524 21.516c-1.623 9.118-5.61 15.926-12.19 20.81-6.518 4.835-13.746 6.457-22.074 4.984-8.344-1.493-14.555-5.527-18.986-12.339-4.475-6.879-5.866-14.634-4.255-23.712 1.603-9 5.724-16.04 12.249-20.93 6.568-4.912 13.797-6.585 22.054-5.12 8.285 1.481 14.48 5.535 18.94 12.387 4.51 6.926 5.904 14.747 4.262 23.92zM734.001 142.746l-9.526 28.497 12.025 4.007-21.67 64.894-12.04-4.014-9.51 28.489 59.833 19.988 9.515-28.49-12.34-4.12 21.67-64.902 12.351 4.129 9.515-28.486zM810.437 167.41l-22.848 43.42 21.43 11.283 14.665-14.17 4.824 2.542-32.017 60.847-11.223-5.9-13.99 26.576 55.226 29.059 14.001-26.572-10.928-5.764 32.016-60.835 4.636 2.443-3.453 20.043 21.7 11.424 22.845-43.413z"/></g><g fill="#010101"><path d="M27.32 400.225v30.04h12.682v68.418H27.32v30.041h66.422v-30.04H77.389v-21.026h22.694v-32.712H77.39v-14.68h30.52l7.342 19.689h25.885v-49.73zM262.171 498.683l-21.052-68.417h10.987v-30.041h-91.953v30.04h11.15l-21.207 68.418h-11.133v30.041h59.159v-30.04h-9.912l3.088-11.012H221l3.315 11.011h-10.01v30.041h59.163v-30.04h-11.298zm-47.727-38.38h-16.566l8.199-27.15 8.367 27.15z"/><path d="m356.654 474.653-7.354 24.03h-26.937v-68.417h12.35v-30.041H272.3v30.04h12.68v68.418H272.3v30.041h109.808v-54.07zM479.913 478.326l-.766 1.38c-3.06 5.526-6.87 9.675-11.33 12.33-4.403 2.64-9.758 3.976-15.914 3.976-8.454 0-15.262-2.88-20.817-8.811-5.613-5.991-8.344-13.385-8.344-22.6 0-9.343 2.856-17.042 8.498-22.892 5.68-5.904 12.838-8.772 21.873-8.772 6.553 0 12.222 1.599 16.846 4.741 4.596 3.159 8.116 7.838 10.465 13.907l.66 1.71h35.78v-53.07H482.82v7.7c-3.363-2.664-7.118-4.825-11.223-6.451-6.062-2.377-12.717-3.587-19.784-3.587-8.76 0-17.061 1.371-24.682 4.078-7.598 2.726-14.587 6.792-20.802 12.115-7.495 6.632-13.254 14.288-17.116 22.75-3.885 8.505-5.857 17.804-5.857 27.644 0 9.806 1.98 19.093 5.877 27.606 3.881 8.493 9.628 16.134 17.092 22.722 6.196 5.382 13.184 9.48 20.766 12.182 7.566 2.706 15.86 4.078 24.647 4.078 15.997 0 30.1-4.428 41.92-13.153 11.841-8.753 20.173-20.911 24.762-36.142l1.037-3.44h-39.544z"/><path d="M649.834 436.834c-3.904-8.552-9.648-16.209-17.08-22.77-6.188-5.373-13.177-9.459-20.774-12.142-7.574-2.675-15.895-4.035-24.734-4.035-8.839 0-17.143 1.36-24.682 4.035-7.57 2.687-14.547 6.769-20.738 12.15-7.488 6.557-13.251 14.186-17.132 22.68-3.866 8.5-5.83 17.83-5.83 27.723 0 9.805 1.98 19.092 5.877 27.605 3.881 8.493 9.628 16.134 17.092 22.722 6.196 5.382 13.18 9.48 20.762 12.182 7.563 2.707 15.855 4.078 24.651 4.078 8.847 0 17.172-1.371 24.738-4.078 7.586-2.703 14.574-6.8 20.785-12.194 7.437-6.564 13.18-14.205 17.065-22.71 3.897-8.513 5.877-17.8 5.877-27.606 0-9.79-1.976-19.092-5.877-27.64zM616.66 464.6c0 9.28-2.73 16.68-8.344 22.636-5.575 5.904-12.395 8.776-20.86 8.776-8.466 0-15.29-2.883-20.853-8.811-5.621-5.987-8.352-13.38-8.352-22.6 0-9.142 2.825-16.795 8.4-22.75 5.594-6 12.398-8.914 20.805-8.914 8.406 0 15.214 2.903 20.812 8.878 5.646 6.003 8.392 13.46 8.392 22.785zM729.22 400.225v30.04h13.412l.711 30.588-36.81-60.628h-48.072v30.04h12.685v68.418h-12.685v30.041h62.082v-30.04h-13.05l-.504-37.14 41.115 67.18h30.847v-98.458h12.35v-30.041zM893.1 460.495c-7.146-6.631-18.177-11.424-32.838-14.256l-11.283-1.96c-5.716-1.136-9.778-2.546-12.072-4.192-1.913-1.363-2.801-3.021-2.801-5.213 0-2.22.864-3.968 2.722-5.504 1.992-1.646 4.49-2.444 7.645-2.444 3.681 0 7.048 1.226 10.285 3.748 3.39 2.656 6.78 6.899 10.08 12.607l.77 1.335h30.913v-44.391h-32.123l.2 6.725a33.856 33.856 0 0 0-8.39-5.488c-5.155-2.372-11.13-3.574-17.765-3.574-12.536 0-23.17 3.975-31.604 11.812-8.486 7.889-12.787 17.871-12.787 29.66 0 11.302 3.845 20.518 11.435 27.397 7.382 6.682 18.61 11.294 33.36 13.703l13.11 2.14c4.431.708 7.735 1.902 9.833 3.568 1.834 1.43 2.687 3.15 2.687 5.413 0 2.42-.868 4.239-2.722 5.72-2.028 1.606-4.726 2.384-8.25 2.384-4.502 0-8.505-1.218-12.237-3.728-3.862-2.6-8.14-7.146-12.713-13.514l-.797-1.115h-32.705v47.396h32.536l-.515-8.925c3.544 3.021 7.397 5.445 11.507 7.24 6.144 2.667 13.109 4.023 20.702 4.023 13.518 0 24.494-4.007 32.63-11.903 8.152-7.92 12.284-18.543 12.284-31.573 0-11.157-3.736-20.271-11.097-27.09z"/></g><g fill="#E4002B"><path d="M194.896 282.635c6.565-9.692 10.069-19.603 10.403-29.448.357-9.9-2.443-20.566-8.328-31.718-5.944-11.303-13.165-19.713-21.47-25.009-8.277-5.26-18.428-7.947-30.174-7.986h-.114c-3.967 0-8.791.946-14.338 2.812-5.76 1.937-12.418 4.883-19.784 8.753l-49.377 25.995 9.016 17.128 10.925-5.748 36.841 69.997-10.925 5.748 9.016 17.124 49.377-25.979c7.365-3.877 13.56-7.692 18.408-11.345 4.75-3.58 8.29-7.052 10.524-10.324zm-18.715-16.971c-3.087 9.177-10.626 16.97-22.4 23.17l-10.772 5.668-36.837-69.997 10.772-5.665c11.813-6.222 22.522-8.017 31.82-5.37 9.35 2.7 17.12 9.83 23.1 21.198 5.975 11.334 7.429 21.764 4.317 30.996zM330.817 245.95l-11.236-41.908-15.053 4.038-.66 25.052-39.638 10.638-8.215-30.626 23.528-6.325-5.7-21.268-23.528 6.305-6.572-24.494 39.532-10.591 11.974 17.167 15.167-4.066-10.115-37.725-99.618 26.714 5.017 18.703 12.245-3.292 20.494 76.405-12.249 3.288 5.005 18.691zM418.594 235.368l-2.153-19.246-12.264 1.379-8.824-78.946 14.375-1.607 8.406 18.534 15.196-1.697-4.267-38.149-98.18 10.976 4.267 38.145 14.912-1.67 4.192-19.944 14.567-1.634 8.811 78.954-12.602 1.406 2.153 19.234zM518.986 186.254c2.714 3.347 3.87 10.124 3.637 21.32l-.562 26.12 37.706.805.42-19.363-11.015-.228.514-24.034c.09-4.318-.691-7.535-2.322-9.562-1.178-1.454-4.003-3.661-10.728-5.885l-7.425-2.451 7.374-2.6c6.631-2.342 11.557-5.497 14.641-9.378 3.025-3.81 4.628-8.898 4.761-15.117.185-8.803-2.345-15.784-7.727-21.343-5.39-5.594-12.347-8.403-21.272-8.592l-73.148-1.555-.416 19.351 12.347.26-1.69 79.08-12.339-.26-.428 19.348 49.066 1.056.405-19.359-10.01-.204.707-33.046 12.685.275c7.186.153 12.033 1.909 14.819 5.362zm-26.513-51.679 15.356.33c6.47.142 11.18 1.458 14.394 4.027 3.394 2.703 5.056 6.765 4.946 12.068-.114 5.312-1.949 9.303-5.453 11.864-3.131 2.294-7.55 3.418-13.479 3.418-.35 0-.707-.004-1.068-.012l-15.372-.33.675-31.365zM587.392 152.253c-4.876 7.075-8.152 15.207-9.743 24.172v.004c-1.59 8.886-1.304 17.611.856 25.932 2.145 8.332 6.125 16.197 11.833 23.374 4.706 5.842 10.355 10.67 16.778 14.335 6.459 3.693 13.805 6.29 21.839 7.72 8.1 1.441 15.921 1.547 23.248.318 7.315-1.234 14.288-3.815 20.723-7.665 7.821-4.765 14.272-10.772 19.159-17.839 4.899-7.071 8.187-15.156 9.766-24.03 1.58-8.882 1.292-17.623-.853-25.98-2.148-8.343-6.124-16.22-11.816-23.413-4.718-5.826-10.371-10.642-16.79-14.291-6.431-3.646-13.813-6.235-21.941-7.696-4.396-.782-8.71-1.175-12.909-1.175-3.52 0-6.953.275-10.288.83-7.233 1.197-14.19 3.767-20.68 7.64-7.864 4.738-14.323 10.717-19.182 17.764zm32.794 5.068c7.712-5.767 16.52-7.825 26.195-6.1 9.684 1.732 17.242 6.685 22.479 14.727 5.209 8.006 6.906 17.352 5.04 27.774-1.846 10.375-6.643 18.503-14.264 24.16-5.877 4.36-12.438 6.553-19.572 6.553-2.156 0-4.364-.2-6.623-.601-9.739-1.74-17.317-6.679-22.526-14.681-5.174-7.96-6.867-17.23-5.032-27.562 1.846-10.375 6.659-18.542 14.303-24.27zM787.067 166.109l-49.695-16.606-6.14 18.362 12.025 4.007-25.056 75.03-12.037-4.015-6.128 18.361 49.707 16.602 6.128-18.362-12.34-4.12 25.056-75.03 12.351 4.129zM812.676 174.622l-17.874 33.97 13.282 6.992 14.665-14.162 12.972 6.823-36.99 70.3-11.224-5.9-9.016 17.124 45.774 24.085 9.028-17.128-10.929-5.755 36.99-70.288 12.8 6.741-3.454 20.043 13.537 7.126 17.87-33.961z"/></g><g fill="#E4002B"><path d="m111.617 424.923 7.343 19.69h16.833v-39.046H32.663v19.356h12.681v79.103h-12.68v19.356H88.4v-19.356H72.046v-31.71H94.74v-22.027H72.046v-25.366zM144.306 523.382h48.473v-19.356h-11.617l6.09-21.697h37.717l6.529 21.697h-11.849v19.356h48.478v-19.356h-9.9l-24.337-79.103h12.874v-19.355h-81.268v19.355h13.05l-24.513 79.103h-9.727v19.356zm61.716-108.528 15.659 50.791h-30.992l15.333-50.79zM329.371 424.923v-19.356h-51.73v19.356h12.681v79.103h-12.68v19.356h99.122v-43.386h-16.158l-7.354 24.03H317.02v-79.103zM469.636 406.443c-5.429-2.133-11.427-3.213-17.823-3.213-8.152 0-15.851 1.265-22.891 3.763a60.88 60.88 0 0 0-19.088 11.114c-6.899 6.105-12.214 13.16-15.765 20.943-3.563 7.802-5.37 16.354-5.37 25.425 0 9.031 1.81 17.572 5.39 25.381 3.57 7.81 8.87 14.854 15.756 20.927 5.673 4.93 12.084 8.694 19.042 11.173 6.992 2.498 14.676 3.763 22.851 3.763 14.83 0 27.869-4.074 38.747-12.107 9.994-7.382 17.28-17.447 21.697-29.943h-29.153c-3.395 5.684-7.586 10.037-12.473 12.952-5.24 3.139-11.518 4.734-18.653 4.734-9.872 0-18.188-3.536-24.713-10.5-6.494-6.93-9.79-15.766-9.79-26.255 0-10.771 3.363-19.72 9.994-26.595 6.647-6.906 15.301-10.41 25.72-10.41 7.64 0 14.323 1.909 19.858 5.676 5.06 3.477 9 8.407 11.73 14.68h26.82v-42.383h-23.36v15.124l-4.611-4.875c-3.873-4.098-8.556-7.252-13.915-9.374zM629.234 418.084c-5.661-4.919-12.073-8.667-19.034-11.126-7-2.475-14.724-3.728-22.954-3.728-8.226 0-15.93 1.253-22.899 3.724-6.937 2.464-13.333 6.211-19.01 11.142-6.906 6.05-12.22 13.073-15.784 20.871-3.547 7.798-5.347 16.382-5.347 25.508 0 9.031 1.811 17.572 5.39 25.381 3.571 7.81 8.87 14.854 15.757 20.927 5.673 4.93 12.084 8.694 19.038 11.173 6.988 2.498 14.676 3.763 22.855 3.763 8.234 0 15.95-1.265 22.942-3.763 6.962-2.48 13.373-6.243 19.061-11.185 6.86-6.05 12.155-13.093 15.73-20.91 3.579-7.814 5.39-16.355 5.39-25.386 0-9.02-1.815-17.576-5.39-25.425-3.595-7.865-8.89-14.92-15.745-20.966zm-17.038 72.813c-6.541 6.938-14.865 10.458-24.741 10.458-9.884 0-18.209-3.536-24.75-10.5-6.501-6.927-9.797-15.762-9.797-26.255 0-10.54 3.312-19.422 9.84-26.395 6.561-7.04 14.874-10.61 24.707-10.61 9.825 0 18.137 3.555 24.706 10.563 6.529 6.942 9.84 15.84 9.84 26.442 0 10.556-3.3 19.407-9.805 26.297zM785.959 405.567h-51.396v19.356h13.286l1.292 55.776-45.609-75.132h-39.728v19.356h12.685v79.103h-12.685v19.356H715.2v-19.356h-12.98l-.833-61.865 49.711 81.22h22.51v-98.458h12.351zM840.714 522.144c5.464 2.373 11.71 3.575 18.57 3.575 12.08 0 21.806-3.496 28.905-10.395 7.177-6.969 10.666-16.043 10.666-27.738 0-9.743-3.068-17.325-9.385-23.174-6.404-5.944-16.555-10.289-30.17-12.921l-11.3-1.96c-6.622-1.32-11.246-2.986-14.2-5.103-3.293-2.346-5.037-5.653-5.037-9.554 0-3.827 1.572-7.064 4.663-9.621 2.947-2.436 6.663-3.67 11.047-3.67 4.848 0 9.413 1.643 13.573 4.884 3.653 2.864 7.22 7.165 10.626 12.806h22.506v-33.706h-21.28l.503 16.704-5.048-6.655c-3.147-4.152-6.977-7.283-11.377-9.302-4.447-2.047-9.676-3.084-15.533-3.084-11.145 0-20.554 3.492-27.967 10.383-7.46 6.934-11.082 15.356-11.082 25.747 0 9.868 3.166 17.533 9.68 23.437 6.604 5.983 16.912 10.151 30.638 12.39l13.097 2.141c5.41.865 9.432 2.38 12.284 4.64 3.088 2.412 4.726 5.74 4.726 9.613 0 4.054-1.595 7.385-4.741 9.9-2.978 2.357-6.867 3.547-11.573 3.547-5.52 0-10.639-1.564-15.215-4.64-4.215-2.836-8.564-7.33-13.263-13.718h-24.631v36.712h21.536l-1.03-17.773 5.096 5.685c4.321 4.824 9.27 8.474 14.716 10.85z"/></g></svg>