<svg xmlns="http://www.w3.org/2000/svg" viewBox="0 0 960 640" xml:space="preserve"><path fill="#010101" d="M794.73 603.176V615h-2.957v-11.824h-3.423v-2.938h9.803v2.938h-3.423zM810.753 615v-8.713l-2.49 5.428h-2.612l-2.49-5.427V615h-2.956v-14.762h2.956l3.796 7.883 3.796-7.883h2.956V615h-2.956z"/><path fill="none" d="M776.29 615h-260v-90h57.5V400h-225v125h57.5v90h-260v-90h57.5V400h-16.598l-32-160h48.599V115h-57.5V25h260v90h-57.5v125h225V115h-57.5V25h260v90h-57.5v125h16.598l32 160h-48.598v125h57.5v90z"/><path fill="#010101" d="M771.29 110V30h-250v80h57.5v135h-235V110h57.5V30h-250v80h57.5v135h-47.5l30 150h17.5v135h-57.5v80h250v-80h-57.5V395h235v135h-57.5v80h250v-80h-57.5V395h47.5l-30-150h-17.5V110z"/><g fill="#FFC72C"><path d="M253.135 376.165V282.77h-27.4v-19.015h73.377v19.015h-27.335v93.395h-18.642zM310.575 376.165V263.75h18.642v112.414h-18.642zM389.932 334.836v-18.939h40.182v44.783c-3.904 4.6-9.565 8.65-16.973 12.153-7.411 3.5-14.916 5.253-22.516 5.253-9.659 0-18.076-2.463-25.255-7.4-7.179-4.931-12.574-11.989-16.185-21.163-3.611-9.175-5.415-19.157-5.415-29.944 0-11.709 2.016-22.108 6.044-31.209 4.032-9.097 9.929-16.077 17.7-20.934 5.92-3.732 13.287-5.6 22.105-5.6 11.463 0 20.416 2.928 26.86 8.78 6.446 5.854 10.592 13.944 12.44 24.27l-18.517 4.217c-1.303-5.523-3.746-9.878-7.337-13.075-3.588-3.194-8.071-4.793-13.446-4.793-8.145 0-14.623 3.143-19.43 9.43-4.806 6.287-7.212 15.62-7.212 27.989 0 13.34 2.437 23.347 7.307 30.017 4.87 6.67 11.25 10.01 19.147 10.01 3.904 0 7.818-.93 11.745-2.797 3.928-1.868 7.297-4.13 10.11-6.792v-14.26h-21.354v.004zM447.308 376.165V263.75h68.463v19.016h-49.82v24.922h46.353v18.941H465.95v30.597h51.584v18.938h-70.226zM533.403 376.165V263.75h39.24c9.867 0 17.036 1.01 21.509 3.03 4.47 2.018 8.05 5.61 10.736 10.772 2.686 5.163 4.029 11.07 4.029 17.713 0 8.434-2.033 15.401-6.105 20.894-4.076 5.496-10.164 8.96-18.269 10.393 4.032 2.86 7.36 6.007 9.986 9.43 2.622 3.43 6.159 9.508 10.612 18.252l11.274 21.93H594.12l-13.48-24.461c-4.785-8.744-8.06-14.25-9.824-16.525-1.763-2.275-3.631-3.834-5.604-4.678-1.975-.845-5.105-1.266-9.386-1.266h-3.776v46.927h-18.646v.003zm18.645-64.872h13.793c8.942 0 14.525-.46 16.753-1.38 2.228-.918 3.972-2.504 5.23-4.755 1.26-2.248 1.892-5.059 1.892-8.434 0-3.783-.831-6.836-2.487-9.165-1.66-2.325-3.999-3.793-7.024-4.409-1.511-.256-6.045-.383-13.604-.383h-14.546v28.526h-.006zM621.77 339.591l18.14-2.15c1.09 7.414 3.305 12.856 6.647 16.336 3.336 3.477 7.839 5.213 13.51 5.213 6.004 0 10.527-1.545 13.57-4.638 3.045-3.093 4.567-6.707 4.567-10.85 0-2.659-.64-4.924-1.922-6.789-1.282-1.867-3.517-3.49-6.708-4.866-2.18-.919-7.158-2.558-14.926-4.91-9.996-3.016-17.006-6.722-21.035-11.12-5.67-6.183-8.501-13.725-8.501-22.62 0-5.725 1.332-11.08 3.998-16.064 2.669-4.985 6.512-8.778 11.527-11.386 5.018-2.605 11.076-3.91 18.17-3.91 11.589 0 20.312 3.092 26.168 9.278 5.856 6.186 8.933 14.445 9.225 24.767l-18.642.997c-.797-5.776-2.51-9.932-5.132-12.463-2.622-2.531-6.56-3.793-11.81-3.793-5.415 0-9.656 1.353-12.722 4.065-1.972 1.737-2.958 4.066-2.958 6.977 0 2.659.922 4.934 2.77 6.826 2.349 2.403 8.064 4.907 17.13 7.515 9.07 2.605 15.778 5.304 20.123 8.088 4.345 2.786 7.748 6.593 10.201 11.426 2.454 4.83 3.686 10.796 3.686 17.905 0 6.441-1.471 12.476-4.41 18.096-2.94 5.627-7.097 9.804-12.472 12.54s-12.072 4.103-20.093 4.103c-11.671 0-20.637-3.285-26.89-9.854-6.26-6.573-9.996-16.145-11.211-28.719z"/></g></svg>