<svg xmlns="http://www.w3.org/2000/svg" viewBox="0 0 960 640" xml:space="preserve"><path fill="#00205B" d="M750.191 577.6v11.824h-2.957V577.6h-3.423v-2.938h9.803v2.938h-3.423zm16.023 11.824v-8.713l-2.49 5.428h-2.612l-2.49-5.428v8.713h-2.956v-14.762h2.956l3.796 7.883 3.796-7.883h2.956v14.762h-2.956zM682.41 30s19.985 35.769-4.048 35.769H541.518c-38.615 0-61.51 19.255-61.515 19.266-.01-.01-22.905-19.266-61.515-19.266H281.64c-24.036 0-4.05-35.769-4.05-35.769s-104.978 5.202-104.978 83.504v312.754C172.613 545.608 273.989 610 369.37 610c67.896 0 110.633-31.445 110.633-31.445S522.735 610 590.633 610c95.384 0 196.754-64.391 196.754-183.742V113.504C787.387 35.202 682.41 30 682.41 30z"/><path fill="#8D9093" d="M691.147 36.233s15.827 34.947-12.785 34.947H541.518c-38.403 0-61.515 20.705-61.515 20.705S456.889 71.18 418.488 71.18H281.64c-28.615 0-12.793-34.947-12.793-34.947s-90.821 8.33-90.821 77.271v312.754c0 115.828 98.586 178.331 191.342 178.331 67.968 0 110.633-32.66 110.633-32.66s42.664 32.66 110.626 32.66c92.757 0 191.345-62.503 191.345-178.33V113.503c0-68.94-90.826-77.27-90.826-77.27z"/><g fill="#FFF"><path d="M641.426 274.157v180.515h-95.403V323.234H413.978v131.438h-95.404V274.157c0-61.125-61.004-33.14-120.753-87.42v239.521c0 102.975 88.389 158.535 171.549 158.535 58.056 0 95.77-25.187 110.633-37.377 14.86 12.19 52.574 37.377 110.625 37.377 83.163 0 171.552-55.56 171.552-158.535v-239.52c-59.75 54.278-120.754 26.294-120.754 87.419z"/><path d="M717.352 61.92s7.344 29.056-17.254 29.056h-158.58c-31.754 0-51.265 16.009-61.515 28.21-10.256-12.201-29.761-28.21-61.515-28.21H259.903c-24.598 0-17.255-29.056-17.255-29.056s-44.827 12.17-44.827 51.584c0 104.878 216.157 83.851 216.157 153.475v21.42h132.045v-21.42c0-69.624 216.157-48.597 216.157-153.475 0-39.414-44.828-51.584-44.828-51.584z"/></g><path fill="#046A38" d="M651.373 274.157v190.47h-115.3V333.177H423.928v131.448H308.623v-190.47c0-47.193-48.534-27.8-100.853-67.413v219.515c0 96.818 84.607 148.58 161.6 148.58 71.49 0 110.633-40.725 110.633-40.725s39.143 40.726 110.625 40.726c76.998 0 161.605-51.763 161.605-148.58V206.742c-52.321 39.613-100.86 20.22-100.86 67.414z"/><path fill="#00205B" d="M726.972 76.734s.09 24.192-26.874 24.192h-158.58c-44.463 0-61.5 35.774-61.515 35.81-.018-.036-17.058-35.81-61.518-35.81H259.903c-26.964 0-26.875-24.192-26.875-24.192s-25.258 10.812-25.258 36.77c0 96.66 216.157 71.732 216.157 153.475v11.476h112.147v-11.476c0-81.743 216.159-56.816 216.159-153.475 0-25.958-25.261-36.77-25.261-36.77z"/></svg>