<svg xmlns="http://www.w3.org/2000/svg" viewBox="0 0 960 640" xml:space="preserve"><path fill="#041E42" d="M705.236 575.14v11.824h-2.957V575.14h-3.423v-2.938h9.802v2.938h-3.422zm16.023 11.824v-8.712l-2.49 5.428h-2.612l-2.49-5.428v8.712h-2.956v-14.762h2.956l3.796 7.884 3.796-7.884h2.956v14.762h-2.956z"/><path fill="#C8102E" d="M479.997 0c-176.45 0-320.003 143.55-320.003 319.997C159.994 496.447 303.547 640 479.997 640c176.453 0 320.009-143.553 320.009-320.003C800.006 143.55 656.45 0 479.997 0z"/><path fill="#FFF" d="M479.997 32.662c-158.44 0-287.344 128.898-287.344 287.335 0 158.438 128.904 287.338 287.344 287.338 158.443 0 287.344-128.9 287.344-287.338 0-158.437-128.9-287.335-287.344-287.335z"/><g fill="#041E42"><path d="M418.183 118.883c0-8.83 5.903-7.844 5.903-7.844 0-5.9-1.742-13.629-1.742-13.629-12.474 7.868-9.06 17.553-9.06 17.553 3.507-4.028 4.899 3.92 4.899 3.92zM419.85 134.387v-4.44l-12.917 1.335-.226 1.322s9.806-1.102 13.143 1.783zM543.875 111.644c.159-.212.315-.414.474-.59 0 0-.168.205-.475.59zM407.147 244.45s13.391 18.643 18.154.472c0 0-5.73 7.164-18.154-.472zM423.42 135.284c.136-.012.255 0 .385-.006-.231-.012-.385.006-.385.006zM424.363 236.308s-11.964 4.783-20.086-5.258c0 0 10.995 17.691 20.086 5.258z"/><path d="M549.606 570.984s-15.289-.973-12.413-4.786c0 0 0-4.783 4.294-3.82 0 0-7.17-14.826-11.95-15.787 0 0 1.904-2.853 5.726-1.9l-4.77-6.222s-1.442-2.393.476-11.467c0 0-2.39-11.478 5.741-47.81 0 0 5.738-28.211 3.82-46.383 0 0 12.314-30.807 9.569-45.9 0 0-.01-12.902-5.258-32.028 0 0-4.311-14.354 7.164-7.175 0 0 5.258 3.828 13.386 3.356 0 0 21.041 1.438 33.478-28.209 0 0 16.25-28.215 20.075-133.4 0 0 8.119.964 10.515-.472 0 0 7.653-11.475 14.34-12.905V168.9h-1.91s3.343 5.255-8.124 1.447c0 0-3.837-.492-7.648-2.873-3.831-2.39-2.387-.495-2.387-.495s9.028 12.535-7.228 16.837c0 0-1.736 106.96-19.679 137.608 0 0-15.174 43.498-49.595 17.196 0 0 6.684-19.127 4.306-34.413 0 0 7.647-16.733 6.687-28.695 0 0 1.435-15.295 8.127-22.474 0 0 4.309-11.947 3.351-32.025l6.696-13.872s15.29.955 20.555-7.636c0 0 6.224-11.962 12.428-14.838l-3.342-8.116v-14.343s4.783 0-.96-6.21c0 0-8.606 11.936-26.775 9.086 0 0 2.544 11.417 12.41 13.972.626.151 1.254.29 1.945.368 0 0 9.086 6.696-7.184 8.12 0 0-15.304 5.737-18.637-17.197l1.904-7.656s-13.858-3.348-12.909-23.9c0 0-1.432-16.734 13.87-16.734 0 0 4.79-.978 7.652 2.853 0 0-1.443-13.377 17.697-15.295 0 0-.492-3.348-10.046-3.348 0 0-1.435-5.243-13.872-5.243 0 0-16.25-2.876-20.083 17.685 0 0 .957 11.47-8.126 17.68 0 0-6.212 9.085-6.212-3.348 0 0 3.099-15.944 7.164-21.398-2.152 2.697-11.099 14.17-15.295 23.79-4.78 10.996-19.001 53.63-23.423 61.679 0 0-18.168 46.855-23.9 50.202 0 0-15.301 33.455-17.694 19.115 0 0 .48 11.959-6.218 11.959 0 0-6.213 3.82-7.65-17.216 0 0-1.439-15.767-12.915-26.774 0 0 2.396-4.303-5.257-11.95 0 0 3.36-24.381.495-28.692 0 0 1.426-9.089 3.81-19.118l-2.87-1.907s0 19.595-7.656 19.595c0 0-10.515-5.266-3.336-10.992 0 0-1.427-8.603.474-9.572l2.4-.952.462-2.393-2.37-.943v-6.693l5.726 4.303h3.36l.94 1.895 2.396.494v-6.692l-5.263-.955-1.433-1.921h-4.783s-2.861-2.393.49-4.783c0 0 .937-2.865 5.726-2.865 0 0 2.815-15.162-6.285-14.98.874.047 2.951.542 2.951 4.24 0 0-22.28.228-24.505 3.564h-12.242s-5.35-3.565-10.92.232c0 0-4.46-.692-10.912 1.987 0 0-27.613 8.915-31.846 11.363 0 0-6.69 2.448-9.358-2.014 0 0-8.689-12.245-8.689-.885 0 0-.666 6.247 2.002 15.379 0 0 7.356 30.292 26.06 51.455 0 0 .682 60.354 7.8 77.94 0 0 8.015 20.94.443 44.783 0 0-8.012 18.264 2.011 29.399 0 0 8.024 10.914-4.468 14.247 0 0-16.698 7.59-29.846 8.695 0 0-28.58 11.534-37.94 35.535 0 0-15.732 23.936-16.623 72.263 0 0-1.337 6.23 2.673 10.478 0 0 27.44 32.375 62.205 50.523 0 0 1.516-10.787 11.522-2.416 0 0 8.46 6.236 12.254 13.585 0 0 1.068 2.873 8.675 6.01 0 0 21.548 10.02 29.187 10.26 0 0 2.448 1.994 2.228-20.271 0 0-.06-1.144 1.117-4.685 0 0 1.782-4.016-1.117-4.23 0 0-5.819-.588-8.246 2.899 0 0-8.235 1.565-17.816-4.236 0 0-9.942-5.336 2.888-22.046 0 0-.735-8.342.552-11.143 1.303-2.824 12.819-14.03 11.928 0 0 0-2.226 10.246-.666 13.142 0 0 2.225 1.786 2.665-1.333l12.697.217s-13.805-42.31-13.805-70.614c0-28.281 1.776-40.298 1.776-63.252 0-22.934-.668-60.576-5.344-67.72 0 0-4.632-11.007-9.421-14.82 0 0-2.87-1.925 2.873-1.442 0 0-3.35-4.77-14.83 3.348 0 0-4.296-1.426 0-6.22 0 0 3.355-8.108 20.562-9.558 0 0 18.649-.472 26.3 15.307 0 0 .48 2.378-7.651-.955 0 0 6.699 6.198 10.032 7.647 0 0-11.945 19.127-14.81 19.127 0 0-6.212-6.222-6.212-8.131 0 0 3.34 51.154 3.34 63.576 0 0-2.388 71.244-1.433 74.598 0 0 .483 20.55 13.857 59.274 0 0 .967 5.263 4.792.48 0 0-1.435-15.304 18.649-12.914 0 0 .946 27.257-.955 33.947 0 0-3.35 2.879-.492 15.784 0 0 3.353 10.993 1.927 16.736 0 0-1.435 7.645 11.473 7.159 0 0 2.387 2.393 2.387-5.727 0 0 1.435-14.823-4.309-16.741 0 0-2.395-.475-2.395-9.558 0 0-.952-3.82 3.828-12.905 0 0 4.311-10.998-1.901-24.878l.469-38.724 6.69-49.717s2.873-15.295 6.22.486c0 0 5.738 11.948 3.826 28.68 0 0-7.173 34.434-5.726 43.036 0 0 11.464-7.178 18.15-19.609 0 0 4.309-11.007 13.392 8.13 0 0 4.3 9.56 2.867 34.894 0 0 5.738-26.288 11.95-32.5 0 0 8.611-15.779 9.572 3.82l.472 30.6h1.906v-5.737h2.394l.483 17.205s-2.876 17.685-4.783 23.438l2.864-1.919-.957-1.426 1.432-2.874s2.393-1.907 6.212 1.919c0 0 28.7 1.441 33.466-.48zm-1.432-171.63c-3.825 33.455-17.205 34.407-17.205 34.407 6.224-28.692-17.202-39.675-17.202-39.675 1.901-7.657 12.911-13.374 12.911-13.374 5.09-2.092 9.083-.978 9.083-.978 15.911 1.759 12.413 19.62 12.413 19.62zm22.957-196.999c10.99-9.554-13.38 50.226-13.38 50.226-1.92 3.808-25.827 92.743-25.827 92.743-11.464 20.553 5.27-42.555 5.27-42.555 5.254-39.676 33.937-100.414 33.937-100.414zm-149.166.498c5.266-2.876 3.83 11.464 3.83 11.464-.957 5.266-4.782 1.438-4.782 1.438-4.78-9.074.952-12.902.952-12.902zm-82.709 199.835c-16.736 5.74-21.03 22.462-21.03 22.462-4.786 25.83-4.311 44.945-4.311 44.945-4.772-2.864-8.606-18.643-8.606-18.643-2.861 2.865 0 11.479 0 11.479 5.727 9.557 14.815 37.77 14.815 37.77-11.947-3.82-23.42-41.118-23.42-41.118-12.908 7.648-15.772 43.993-15.772 43.993-.955 12.9-5.27 5.255-5.27 5.255-2.864-5.255-4.3-26.29-4.3-26.29-.47-23.912 8.522-37.425 8.522-37.425 2.61-9.67 10.61-22.344 10.61-22.344 13.864-20.561 33.462-25.347 33.462-25.347 6.215-.486 28.211-7.168 28.211-7.168 1.907 5.267-12.91 12.431-12.91 12.431zm33.47-57.364c6.22 9.557.949 29.638.949 29.638-1.427-3.347-6.218-3.347-6.218-3.347-10.518-3.348 5.269-26.29 5.269-26.29zm-12.44 43.024s8.12 1.91 12.912-9.097c0 0 .957.483.957 4.314 0 0 1.441 74.111 2.868 76.504 0 0 2.861 43.507-1.427 48.276 0 0-1.44 10.046-19.129-63.11 0 0-1.435-56.416 3.82-56.887zm-4.294-201.771c.475-8.108-13.397-19.598-13.397-19.598 25.345-20.55 43.994-17.685 43.994-17.685-3.829 4.311-3.345 21.053-3.345 21.053 1.91 5.246 1.91 23.89 1.91 23.89.694 1.961.543 3.984-.09 5.818 2.38-.246 5.338 4.693 5.338 4.693 20.567 28.695 26.777 23.426 26.777 23.426 4.786 0 5.26-1.412 5.26-1.412h5.258l-.466 6.681 2.859 2.39-1.901 3.831 3.333 1.91v-5.74c9.575 5.74 13.872 22.473 13.872 22.473 2.393 4.786-9.086 24.384-9.086 24.384 5.943-6.684 7.274 5.104 7.567 8.44.173-.969.086-1.273.086.171 0 1.05 0 .796-.086-.17-.4 2.462-2.232 9.533-9.96 10.202-11.039.98-20.081-9.572-20.081-9.572l13.863-6.198L422.439 265l7.185-.48v-10.524c-20.07 28.738-44.482-43.432-46.699-50.17-2.777 3.335-6.785 4.577-7.329.462-.946-7.199-19.604-17.711-19.604-17.711zm32.506 113.319c-14.343 0-20.092 3.828-20.092 3.828 3.356-13.386 21.996-10.984 21.996-10.984 18.658-1.438 37.787 8.594 37.787 8.594 10.986 15.307-5.258 9.083-5.258 9.083-11.97-11.007-34.433-10.521-34.433-10.521zm102.79 23.912c-.478 33.466-27.726 36.34-27.726 36.34l4.774 8.593v18.169h-3.348c-.946-16.733-7.644-21.517-7.644-21.517-6.696-8.119-1.432-9.557-1.432-9.557l9.076-6.695c-19.123-9.546-10.037-13.869-10.037-13.869-7.654 2.402-4.766 8.13-4.766 8.13 5.727 5.27 3.334 10.513 3.334 10.513-22.469-2.381-21.03 15.79-21.03 15.79-16.742-2.39-16.256 18.16-16.256 18.16-1.447 7.176-5.272 4.782-5.272 4.782-4.291-3.344 0-7.173 0-7.173 10.52-33.457 17.696-43.51 17.696-43.51 5.258-21.032 21.991-25.806 21.991-25.806 8.609.483 18.643-6.221 18.643-6.221 11.965-8.134 7.176 10.037 7.176 10.037l4.303-6.681c11.004-17.217 10.518 10.515 10.518 10.515zm11.007-65.5s-18.652 32.03-22.963 32.514c0 0 9.58-36.346 11-44.476 0 0 1.442-28.198 21.989-41.598 0 0 5.26 32.04-10.026 53.56zm14.806 26.29c2.398-63.105 18.162-61.195 18.162-61.195 10.052 1.438-18.162 115.217-18.162 115.217-11.945 21.527 0-54.022 0-54.022zm-2.382 237.138s-5.26 3.36-1.444-5.26c0 0 19.61-48.287 17.694-62.159V439.03l4.792-.482s1.901 31.076-4.792 44.947c-6.687 13.86-16.25 38.241-16.25 38.241zM556.31 98.148s.481-1.91 4.304-1.438c0 0-.478-16.25 4.777-21.508 0 0 .957-3.345-2.873-3.345 0 0-.467-13.88-3.814-8.613 0 0-9.097 12.43-8.131 32.995 0 0 .96 6.2 5.738 1.91zM592.167 101.493c1.435-1.447 15.301 5.726 15.301 5.726 1.91-3.345 2.39-10.98 2.39-10.98-5.254-.967-4.29-4.787-4.29-4.787-3.36-14.835-6.7 5.258-6.7 5.258-2.398 6.212-4.791 1.921-4.791 1.921-2.867-2.393-13.385-7.179-13.385-7.179 0 7.18 11.475 10.041 11.475 10.041z"/><path d="M621.337 137.827s-6.218-7.648-5.266 1.435c0 0 9.09 6.212 5.266-1.435zM642.367 166.51s6.212-15.78 1.916-29.638c0 0-4.78-4.303-6.222-1.438 0 0-.949 3.333-9.01-1.397.825.474 8.952 5.81-1.502 26.261 0 0 10.995.943 14.818 6.213zM404.277 550.428c-4.3-4.786-16.25-1.447-16.25-1.447-8.611 2.39-.486 5.738-.486 5.738 5.257 1.922 12.436 1.435 12.436 1.435 10.518 0 4.3-5.726 4.3-5.726zM490.81 573.845s-10.04 7.176-8.119-21.024c0 0-7.648 35.38-2.396 51.143 0 0 7.65 4.786 14.824-8.12 0 0-16.25-6.229-4.309-21.999zM449.224 594.4s6.21-5.26 3.823-14.816c0 0-4.792 11.475-3.823 14.817zM501.328 597.271s-3.356 2.868-1.435 5.741c0 0 4.297-5.266 1.435-5.74zM522.853 576.239s35.85 21.987 37.283.47c0 0-6.702-2.852-37.283-.47zM673.66 414.6l-23.084 21.042-9.38-22.303 33.972-30.946 9.065 21.56h42.194l-20.154-53.672h-56.47l-28.883 28.148 12.4-28.148h-39.665l-46.25 117.824H587.1l14.349-36.514 15.336 36.514h51.8L727.26 414.6h-53.6z"/></g><path fill="#FFC72C" d="m648.947 443.044-12.978-30.86 40.828-37.187 10.341 24.586h32.978l-16.87-44.933h-51.669l-43.733 42.624 18.776-42.624h-29.985L553.81 463.738h30.31l17.196-43.758 18.376 43.758h47.2l49.088-44.762h-40.628z"/></svg>