<svg xmlns="http://www.w3.org/2000/svg" viewBox="0 0 960 640" xml:space="preserve"><path fill="#007A33" d="M773.902 270.975V282.8h-2.957v-11.824h-3.422v-2.937h9.802v2.937h-3.423zm16.023 11.825v-8.713l-2.49 5.428h-2.611l-2.49-5.428v8.713h-2.957v-14.762h2.956l3.797 7.883 3.795-7.883h2.957V282.8h-2.957z"/><g fill="#C69214"><path d="m199.621 268.038 118.075 101.478-114.882 189.475L421.386 440.38l134.263 115.633-22.376-175.294 218.257-112.68H199.62M814.07 165.679c-.676-5.21-3.642-8.735-5.74-10.083-11.427-7.17-42.226-8.21-50.688 2.701-1.842 2.35-2.675 6.17-1.088 9.52.775 1.625 1.998 3.093 3.772 3.758 4.006 1.472 9.235 1.194 13.79 1.785 30.533 4.015 68.128 1.133 64.67 39.975-2.132 23.952-20.818 39.504-44.254 41.249-41.592 3.093-85.483 6.346-98.871-26.891-2.457-6.113-3.585-10.326-3.585-17.57 8.864 0 35.892-.058 44.433-.058.42 2.781 1.154 6.245 2.507 8.303 3.936 6.072 18.088 8.285 26.323 8.421 12.77.199 25.139-1.74 26.333-13.26.247-2.428-.244-3.975-1.791-5.033-3.643-2.468-11.399-1.939-16.846-2.331-29.455-2.212-54.194-1.979-62.155-27.244-4.614-14.63 3.967-28.93 10.566-36.216 12.31-13.612 29.665-19.43 54.097-21.153 23.984-1.7 55.283.274 68.972 10.753 6.25 4.8 11.91 12.3 13.613 21.528.589 3.208 1.51 8.479 1.322 11.828-10.44 0-37.115.018-45.38.018zM624.7 255.368c-2.163-.881-2.868-4.446-3.22-7.227-1.94-15.24 12.072-27.834 9.479-37.666-1.078-4.151-16.934-2.86-23.425-2.86-9.285 0-18.305-.018-29.947-.018l-15.581 47.749-43.179.057 44.55-132.674h81.32c11.674 0 21.37.233 33.21 2.957 20.242 4.6 20.242 39.35 9.48 53.958-5.28 7.152-12.38 10.286-19.694 13.79 2.282 4.701 4.475 7.425 5.552 12.576 3.33 15.98-9.087 29.65-2.868 42.13 1.31 2.623 3.701 4.443 5.376 7.167l-51.052.061zm-4.485-79.324c15.629 0 38.203-1.393 31.348-17.377-1.538-3.622-14.22-3.248-20.732-3.248h-35.932l-6.923 20.642 32.239-.017zM416.155 252.539l61.807-102.024 12.988 104.853h25.557l-21.673-174.36-108.88 174.395h28.511zM441.344 125.96h-159.45l-12.124 32.456h60.06l-36.185 96.89h40.797l36.187-96.89h58.592zM222.517 165.679c-.676-5.21-3.633-8.735-5.737-10.083-11.43-7.17-42.219-8.21-50.7 2.701-1.831 2.35-2.653 6.17-1.066 9.52.762 1.625 1.996 3.093 3.759 3.758 4.006 1.472 9.245 1.194 13.789 1.785 30.535 4.015 68.13 1.133 64.674 39.975-2.144 23.952-20.83 39.504-44.257 41.249-41.579 3.093-85.483 6.346-98.869-26.891-2.468-6.113-3.585-10.326-3.585-17.57 8.874 0 35.892-.058 44.422-.058.43 2.781 1.174 6.245 2.507 8.303 3.947 6.072 18.097 8.285 26.334 8.421 12.769.199 25.148-1.74 26.333-13.26.245-2.428-.244-3.975-1.791-5.033-3.644-2.468-11.41-1.939-16.835-2.331-29.469-2.212-54.195-1.979-62.168-27.244-4.612-14.63 3.977-28.93 10.568-36.216 12.309-13.612 29.672-19.43 54.106-21.153 23.973-1.7 55.282.274 68.964 10.753 6.257 4.8 11.907 12.3 13.612 21.528.587 3.208 1.135 7.756.754 11.828-10.429 0-36.538.018-44.814.018z"/></g><path fill="#010101" d="m521.365 492.27-96.996-83.162-145.08 77.12 72.924-121.546-83.75-73.904h124.414l15.885-25.706 7.393-12.533 61.807-102.024 17.374 140.263h155.978L505.07 366.02l16.296 126.25z"/><path fill="#007A33" d="M604.729 302.06H485.442l-5.885-46.03-8.823-71.811-52.314 86.683-19.254 31.157H298.298l68.418 60.375-56.856 94.77 116.008-61.67 80.55 69.061-13.552-104.981z"/></svg>