<svg xmlns="http://www.w3.org/2000/svg" viewBox="0 0 960 640" xml:space="preserve"><path fill="#0033A0" d="M804.998 505.862v11.824h-2.957v-11.824h-3.422v-2.938h9.802v2.938h-3.423zm16.023 11.824v-8.712l-2.49 5.427h-2.611l-2.49-5.427v8.712h-2.957v-14.762h2.956l3.797 7.884 3.795-7.884h2.956v14.762h-2.956z"/><path fill="#FFF" d="M597.04 560H372.01v-64.043H137.039v-187.84H372.01v-71.67h76.35l31.727 37.832 32.68-37.833h84.273v71.672h225.921v187.84H597.041V560z"/><path fill="#C8102E" d="M591.696 554.655h-214.34v-64.042H142.383v-177.15h234.973V241.79h68.237l34.442 41.677 35.463-41.677h76.198v71.672h225.922v177.15H591.696v64.042z"/><path fill="#0033A0" d="M389.827 542.184h189.397V478.14h225.922V325.934H579.224v-71.671h-57.356l-41.956 50.646-40.778-50.646h-49.307v71.671H154.854v152.207h234.973v64.043z"/><g fill="#0033A0"><path d="m91.616 347.692-4.453-30.641-14.408 27.407-30.518-5.234 21.613 22.172-14.408 27.406L77.207 375.1 98.82 397.27l-4.452-30.641 27.765-13.704zM174.148 240.043l3.946-30.711-21.243 22.526-27.989-13.243 14.86 27.165-21.244 22.526 30.427-5.737 14.859 27.165 3.945-30.711 30.427-5.737zM278.46 163.978l12.988-28.108-27.028 15.106-22.719-21.038 6.014 30.374-27.029 15.105 30.746 3.666 6.014 30.374 12.987-28.107 30.746 3.666zM406.74 121.345l19.925-21.367-28.679 5.575L383.822 80l-3.56 28.998-28.679 5.575 26.478 12.347-3.56 28.997 19.925-21.367 26.478 12.347zM868.384 347.692l4.453-30.641 14.408 27.407 30.518-5.234-21.613 22.172 14.408 27.406-27.765-13.703-21.613 22.172 4.452-30.641-27.765-13.704zM785.852 240.043l-3.946-30.711 21.244 22.526 27.988-13.243-14.86 27.165 21.244 22.526-30.427-5.737-14.859 27.165-3.946-30.711-30.426-5.737zM681.54 163.978l-12.988-28.108 27.029 15.106 22.718-21.038-6.014 30.374 27.029 15.105-30.746 3.666-6.014 30.374-12.987-28.107-30.746 3.666zM553.26 121.345l-19.925-21.367 28.679 5.575L576.178 80l3.56 28.998 28.679 5.575-26.478 12.347 3.56 28.997-19.925-21.367-26.478 12.347z"/></g><g fill="#C8102E"><path d="m78.252 369.01 13.411 13.758-2.763-19.013 17.23-8.503-18.938-3.249-2.762-19.013-8.941 17.006-18.938-3.247 13.412 13.759-8.94 17.006 17.229-8.504zM155.547 256.985l9.22 16.857 2.449-19.057 18.88-3.56-17.368-8.218 2.45-19.057-13.183 13.978-17.367-8.217 9.22 16.856-13.182 13.978 18.88-3.56zM236.55 172.276l19.079 2.275 3.732 18.848 8.06-17.442 19.077 2.275-14.097-13.054 8.06-17.442-16.773 9.374-14.098-13.055 3.732 18.847-16.772 9.374zM367.634 116.543l15.83 7.382-2.128 17.336 11.912-12.774 15.829 7.381-8.468-15.276 11.912-12.774-17.145 3.333-8.468-15.276-2.128 17.335-17.146 3.333zM853.87 355.252l17.23 8.503-2.763 19.014 13.411-13.759 17.23 8.504-8.94-17.006 13.411-13.759-18.937 3.247-8.94-17.006-2.764 19.013-18.938 3.249zM773.903 251.225l18.88 3.56 2.45 19.057 9.22-16.857 18.882 3.56-13.183-13.978 9.22-16.856-17.367 8.217-13.182-13.978 2.448 19.057-17.368 8.218zM692.58 175.957l8.06 17.442 3.731-18.848 19.079-2.275-16.772-9.374 3.731-18.847-14.098 13.054-16.771-9.373 8.059 17.442-14.097 13.054 19.078-2.275zM566.753 128.487l11.912 12.774-2.129-17.336 15.83-7.382-17.145-3.333-2.13-17.335-8.466 15.276-17.146-3.333 11.911 12.774-8.467 15.277 15.83-7.382z"/></g><g fill="#FFF"><path d="M222.77 455.834c-2.718 0-4.695-.75-6.13-1.796-1.168 1.022-2.952 1.796-5.678 1.796-4.168 0-7.382-1.45-9.551-4.31-.81-1.126-1.185-2.137-1.185-3.145 0-2.81 2.929-4.234 3.89-4.702.87-.423.964-2.45.964-3.302 0-1.027-.197-3.302-1.136-8.31l-1.073-6.146h-11.538l-1.171 6.152c-.574 3.694-.873 6.43-.873 8.041 0 2.3.498 3.365.924 3.578.94.47 3.8 1.9 3.8 4.689 0 1.002-.374 2.011-1.142 3.086l-.085.112c-2.26 2.824-5.459 4.257-9.509 4.257-2.694 0-4.47-.792-5.64-1.825-1.44 1.061-3.428 1.825-6.168 1.825-1.823 0-3.689-.5-5.547-1.484-3.145-1.66-3.615-4.126-3.615-5.447 0-3.165 3.632-4.703 4.999-5.282 1.357-.581 2.236-2.583 2.732-4.159.42-1.15 1.049-3.411 1.884-8.315l4.067-24.137c.036-.26.177-1.246-1.717-2.812l-.182-.166c-1.513-1.514-1.563-2.894-1.338-3.785l.052-.181a4.54 4.54 0 0 1 2.146-2.58c2.74-1.972 3.194-3.228 3.262-3.681l4.475-24.357c.49-3.11.745-5.621.745-7.403 0-1.354-.144-2.11-.26-2.5-1.685.28-3.051-.012-4.103-.86-.763-.614-1.673-1.805-1.673-3.987 0-2.11.887-5.067 5.111-7.182a16.295 16.295 0 0 1 7.593-1.849c3.351 0 5.571.852 7.037 2.035 1.512-1.184 3.769-2.035 7.133-2.035 2.582 0 5.136.623 7.591 1.85 4.226 2.115 5.113 5.073 5.113 7.181 0 2.213-.915 3.408-1.683 4.02-1.084.867-2.488 1.134-4.179.79-.123.335-.305 1.075-.305 2.537 0 1.852.296 4.433.877 7.674l4.33 24.01c.088.439.626 1.786 3.537 3.85 1.327.885 1.806 2.01 1.964 2.788l.05.515c0 .758-.258 1.536-.866 2.601l-.246.432-.388.31c-.763.61-2.017 1.775-1.83 2.706l4.21 24.208c.764 4.241 1.356 7.048 1.757 8.326.758 2.21 1.75 3.665 2.85 4.151 1.25.5 4.879 1.985 4.879 5.287 0 .61-.142 1.248-.448 2.014-.898 2.243-3.138 4.917-8.713 4.917zm3.973-7.111zm-32.257-41.258h5.255l-2.658-15.46-2.597 15.46zM304.808 455.834c-2.43 0-4.458-.652-5.975-1.888-1.306 1.077-3.224 1.888-6.04 1.888-1.88 0-3.811-.49-5.736-1.458-3.457-1.818-4.174-4.191-4.174-5.866 0-2.086 1.432-3.771 4.258-5.007 1.148-.503 1.688-2.304 1.94-3.754.107-.988.23-3.274.23-8.558v-22.623l-10.65 35.643-10.651-35.644v22.624c0 5.353.189 7.564.347 8.477.214 1.521.692 3.34 1.824 3.835 2.826 1.236 4.258 2.92 4.258 5.007 0 1.681-.686 4.04-3.956 5.723-2.06 1.062-4.064 1.6-5.955 1.6-2.431 0-4.458-.652-5.976-1.887-1.306 1.076-3.224 1.888-6.038 1.888-1.923 0-3.888-.553-5.838-1.642-3.357-1.764-4.073-4.067-4.073-5.682 0-3.116 3.319-4.627 4.41-5.123.105-.046 2.281-1.075 2.281-12.196v-24.404c0-.92-.969-2.13-2.73-3.404l-.263-.19-.208-.25c-.587-.703-1.26-1.662-1.26-2.848 0-.79.247-1.98 1.42-3.152l.311-.265c1.245-.903 2.73-2.25 2.73-3.537v-30.764c-1.247-4.617-3.848-5.582-5.712-5.903-1.23-.268-2.1-.974-2.505-1.957-.661-1.603.177-3.178.624-3.899.949-2.239 3.23-4.807 8.683-4.95 2.989-.08 5.772.817 8.299 2.688 2.56-1.665 5.253-2.3 8.032-1.892 1.064.072 3.098.654 3.962 3.889l7.984 30.039 7.983-30.036c.861-3.248 2.988-3.824 4.095-3.893 2.713-.406 5.369.232 7.923 1.906 2.578-1.881 5.37-2.792 8.286-2.7 5.482.142 7.82 2.754 8.815 4.983.555 1.002 1.158 2.454.528 3.926-.396.925-1.21 1.602-2.231 1.856l-.183.04c-1.87.325-4.491 1.32-5.659 6.18l-.059.234v30.253c0 1.115.87 2.301 2.585 3.525l.156.121c1.42 1.187 1.72 2.455 1.72 3.308 0 1.302-.827 2.296-1.546 3.018l-.381.316c-1.682 1.14-2.534 2.27-2.534 3.358v24.404c0 10.967 2.076 12.163 2.097 12.171 1.145.522 4.462 2.034 4.462 5.148 0 1.605-.678 3.885-3.908 5.632-2.072 1.123-4.091 1.692-6.002 1.692zm2.85-56.691zM378.384 455.902a2.862 2.862 0 0 1-1.785-.637 88.299 88.299 0 0 0-2.905-2.326c-.517-.393-.992-.622-1.371-.66-.08-.009-.164-.018-.337.095-1.185 1.068-1.96 1.607-2.693 1.857-2.462 1.064-4.974 1.602-7.47 1.602-3.584 0-7.418-1.219-11.43-3.628-1.681 1.989-4.732 3.629-10.218 3.629-1.887 0-3.696-.322-5.38-.957-3.876-1.658-4.438-4.212-4.438-5.59 0-3.151 3.448-4.653 4.58-5.147.034-.014 2.111-1.215 2.111-12.215v-24.336c0-.942-.936-2.165-2.635-3.443l-.24-.18-.192-.231c-.588-.702-1.262-1.662-1.262-2.852 0-1.063.424-2.111 1.26-3.113l.193-.233.24-.18c1.7-1.28 2.636-2.503 2.636-3.445v-24.334c0-4.144-.122-7.017-.362-8.54-.35-1.985-1.002-3.32-1.828-3.713-1.935-.926-4.501-2.46-4.501-5.11 0-1.682.75-4.009 4.33-5.547 1.804-.68 3.612-1 5.488-1 5.487 0 8.537 1.64 10.218 3.63 4.012-2.411 7.847-3.63 11.43-3.63 2.49 0 5.002.54 7.47 1.603.732.252 1.506.788 2.693 1.856.093.06.16.086.21.096.327-.143 1.449-.731 4.369-2.96.699-.598 1.604-.832 2.475-.627.964.228 1.71.936 2.045 1.941.215.653.254 1.377.123 2.274-.024.298-.09.731-.254 1.564-.012 1.656-.143 4.087-.399 7.418l-.031.253c-.104.587-.136 1.983.814 4.733 1.07 3.212 1.586 5.584 1.586 7.28 0 2.317-.893 5.572-5.15 7.918-2.552 1.431-5.584 2.16-8.996 2.16-1.231 0-2.375-.105-3.403-.313l-4.546-.92 3.156-3.398c1.828-1.97 2.716-4.266 2.716-7.022 0-2.279-.625-4.138-1.912-5.685-1.161-1.391-2.695-2.005-4.801-1.949-1.769.108-3.233.494-4.33 1.152-.103 1.575-.156 3.79-.156 6.613v19.914c5.33-.536 6.047-1.794 6.054-1.808.51-1.16 2.07-4.7 5.22-4.7 1.62 0 3.922.738 5.716 4.238 1.09 1.864 1.641 3.785 1.641 5.71 0 2.83-.815 4.757-1.895 6.067 1.24 1.524 1.895 3.562 1.895 6.005 0 1.906-.543 3.854-1.614 5.792-1.676 3.432-4.045 4.156-5.743 4.156-3.122 0-4.641-3.315-5.14-4.405-.142-.315-1.02-1.645-6.134-2.13v23.352c0 2.868.052 5.082.153 6.613 1.1.659 2.578 1.046 4.41 1.157 2.042.052 3.563-.562 4.726-1.956 1.285-1.543 1.91-3.4 1.91-5.682 0-2.754-.889-5.052-2.717-7.022l-3.16-3.404 4.554-.915a17.35 17.35 0 0 1 3.4-.313c3.407 0 6.438.729 9.01 2.167 4.242 2.343 5.136 5.597 5.136 7.912 0 1.695-.516 4.067-1.576 7.25-.96 2.782-.929 4.176-.825 4.762l.04.453c0 1.74.126 4.153.376 7.173.335 2.185.651 4.426-1.202 5.498-.42.243-.886.363-1.353.363zM367.42 352.115c.001 0 .001 0 0 0zm4.672-2.85zm.203-.038h-.004.004zM450.462 455.834c-2.477 0-4.77-.856-6.843-2.548-2.653 1.895-5.164 2.598-7.486 2.094-.619-.099-2.705-.444-3.486-2.15-.665-1.267-.023-2.711.35-3.548.801-1.896 1.218-4.47 1.218-7.601 0-8.089-1.967-15.791-5.848-22.895-1.38-2.416-2.82-4.329-4.3-5.718v17.854c0 11.057 2.132 12.155 2.223 12.196 1.092.487 4.468 1.993 4.468 4.992 0 1.685-.692 4.046-3.99 5.727-2.074 1.06-4.047 1.597-5.863 1.597-2.782 0-4.7-.8-6.02-1.85-1.296 1.053-3.195 1.85-5.978 1.85-1.897 0-3.84-.49-5.776-1.456-3.487-1.82-4.21-4.197-4.21-5.875 0-2.118 1.515-3.811 4.503-5.034.011-.006 2.188-1.111 2.188-12.174v-24.173c0-.94-.935-2.162-2.634-3.438l-.275-.237c-.887-.886-1.683-1.784-1.683-3.024 0-1.288.807-2.275 1.678-3.15l.28-.244c1.699-1.276 2.634-2.498 2.634-3.437V369.42c0-4.14-.122-7.01-.362-8.528-.356-2.022-1.047-3.298-2.046-3.75-1.06-.482-4.283-1.945-4.283-4.933 0-2.443 1.241-6.542 9.555-6.542 5.253 0 8.254 1.588 9.96 3.528 3.644-2.343 7.74-3.528 12.214-3.528 6.438.1 12.202 2.446 17.17 6.978 5.047 4.609 7.605 10.331 7.605 17.01v3.805c0 .86.89 2.086 2.447 3.382 1.745 1.097 2.013 2.533 2.013 3.31 0 .909-.348 2.241-2.006 3.427-1.1.815-2.454 2.07-2.454 3.264v4.068c0 9.437-4.512 16.158-13.098 19.598 1.407 2.426 3.227 4.67 5.433 6.696l.841.772v1.143c0 9.071 1.27 16.13 3.778 20.98 2.03 3.868 3.557 4.704 4.12 4.882a3.13 3.13 0 0 1 1.89 1.669c.624 1.347.21 2.804-.237 3.938-1.158 3.383-3.886 5.245-7.69 5.245zm-26.396-64.978c.192 1.19.79 2.088 1.871 2.818 1.353.913 2.925 1.39 4.808 1.46 1.763-.002 3.307-.478 4.626-1.457 1.106-.822 1.6-1.918 1.6-3.554v-3.28c0-.856-.932-2.067-2.555-3.323-1.484-1.264-1.775-2.523-1.775-3.369 0-.736.233-2.12 1.768-3.236 2.376-2.032 2.562-3.157 2.562-3.455v-3.28c0-1.563-.504-2.646-1.633-3.514-1.284-.983-2.8-1.442-4.595-1.365-2.035.002-3.667.46-5.08 1.401-1.119.747-1.597 1.591-1.597 2.822v21.332zM494.404 455.834c-2.786 0-4.683-.803-5.975-1.865-1.364 1.087-3.313 1.865-6.094 1.865-1.801 0-3.694-.49-5.625-1.456-3.474-1.818-4.194-4.12-4.194-5.738 0-3.15 3.45-4.648 4.584-5.14.031-.013 2.108-1.208 2.108-12.047v-23.879c0-1.31-1.432-2.66-2.633-3.562-.843-.696-1.827-1.682-1.827-3.13 0-.853.298-2.12 1.72-3.308l.107-.085c1.202-.901 2.633-2.25 2.633-3.56v-23.88c0-10.939-2.147-12.064-2.168-12.074-1.956-.933-4.524-2.465-4.524-5.114 0-1.613.72-3.914 4.148-5.714 1.85-.98 3.76-1.48 5.67-1.48 2.455 0 4.52.65 6.079 1.88 1.291-1.07 3.194-1.88 5.992-1.88 1.907 0 3.817.5 5.678 1.484 3.42 1.794 4.138 4.095 4.138 5.71 0 2.648-2.566 4.18-4.497 5.103-.012.006-2.062 1.12-2.062 12.085v23.88c0 1.333 1.38 2.687 2.537 3.587 1.494 1.246 1.792 2.513 1.792 3.367 0 1.447-.985 2.433-1.725 3.049-1.223.954-2.604 2.307-2.604 3.642v23.878c0 10.944 1.979 12.047 1.999 12.058 1.112.484 4.56 1.983 4.56 5.13 0 1.625-.69 3.913-3.972 5.596-2.066 1.06-4.034 1.598-5.845 1.598zM548.45 455.834c-5.506 0-10.748-2.06-15.58-6.12-6.53-5.374-9.85-11.435-9.85-17.999v-24.273c0-.298-.184-1.421-2.533-3.448-1.56-1.11-1.798-2.5-1.798-3.244 0-.741.238-2.128 1.797-3.242 2.35-2.024 2.534-3.15 2.534-3.45v-24.271c0-6.562 3.32-12.624 9.869-18.016 4.816-4.045 10.057-6.104 15.56-6.104 4.023 0 7.747 1.173 11.065 3.484a24.258 24.258 0 0 1 2.455 1.882c.113.1.21.155.383.161.285-.118 1.56-.725 5.127-3.425l.135-.095c1.364-.902 2.539-.45 2.98-.212a2.74 2.74 0 0 1 1.401 1.958c.163.637.127 1.297.045 1.935-.02.584-.12 1.248-.309 2.021-.264 1.674-.698 4.312-1.298 7.915-.108.651-.127 2.244.96 5.594 1.143 3.53 1.7 6.153 1.7 8.019 0 3.485-1.317 6.368-3.809 8.337-2.342 1.853-5.202 2.792-8.501 2.792-1.171 0-2.4-.16-3.649-.471l-4.455-1.116 3.24-3.24c-.037.029.17-.343.312-1.606.067-.853.066-2.154-.014-3.783-.069-1.778-.11-2.76-.123-2.967l2.592-.178h-2.604c0-5.396-2.264-7.757-7.57-7.896-2.214-.071-3.927.416-5.277 1.48-.758.594-1.763 1.673-1.763 4.186v23.617c0 .3.184 1.425 2.534 3.45 1.558 1.113 1.796 2.5 1.796 3.241 0 .745-.238 2.135-1.797 3.244-2.349 2.027-2.533 3.15-2.533 3.448v23.617c0 1.827.582 3.138 1.833 4.126 1.397 1.105 3.095 1.602 5.19 1.54 5.324-.137 7.587-2.499 7.587-7.897h2.119l-2.107-.177c.014-.207.054-1.188.123-2.942.08-1.654.081-2.954.006-3.886-.138-1.221-.367-1.599-.377-1.614l-3.242-3.251 4.532-1.019a15.1 15.1 0 0 1 3.646-.47c3.299 0 6.159.939 8.502 2.79 2.491 1.973 3.808 4.856 3.808 8.34 0 1.862-.534 4.42-1.635 7.82-1.142 3.527-1.132 5.142-1.024 5.791.348 1.915.787 4.547 1.298 7.785.19.782.29 1.483.31 2.135.099.712.09 1.316-.03 1.858-.133.889-.643 1.638-1.423 2.055-.442.236-1.62.688-2.982-.22l-.14-.102a204.504 204.504 0 0 1-3.39-2.66c-.99-.788-1.494-.873-1.584-.882-.257-.025-.379.032-.523.16a53.737 53.737 0 0 1-2.347 1.93l-.107.08c-3.316 2.312-7.038 3.485-11.065 3.485zM646.006 455.834c-2.716 0-4.694-.75-6.13-1.796-1.167 1.022-2.952 1.796-5.678 1.796-4.168 0-7.381-1.45-9.55-4.31-.81-1.125-1.185-2.137-1.185-3.145 0-2.81 2.928-4.233 3.89-4.702.87-.423.965-2.45.965-3.302 0-1.027-.197-3.302-1.137-8.31l-1.073-6.146H614.57l-1.171 6.152c-.574 3.692-.873 6.426-.873 8.041 0 2.3.498 3.366.924 3.578.94.47 3.8 1.9 3.8 4.689 0 1.002-.374 2.011-1.142 3.086l-.085.112c-2.258 2.824-5.459 4.257-9.51 4.257-2.693 0-4.469-.792-5.64-1.825-1.439 1.061-3.426 1.825-6.168 1.825-1.822 0-3.69-.5-5.547-1.484-3.144-1.66-3.614-4.126-3.614-5.447 0-3.165 3.631-4.703 4.998-5.282 1.357-.581 2.236-2.583 2.732-4.159.593-1.618 1.212-4.375 1.884-8.315l4.067-24.137c.037-.26.178-1.246-1.716-2.81l-.184-.17c-1.509-1.512-1.561-2.888-1.339-3.779l.056-.191a4.553 4.553 0 0 1 2.144-2.573c2.74-1.973 3.194-3.228 3.262-3.68l4.476-24.36c.49-3.112.744-5.624.744-7.402 0-1.354-.143-2.11-.259-2.5-1.681.28-3.05-.01-4.102-.859-.763-.615-1.674-1.806-1.674-3.988 0-2.11.887-5.068 5.11-7.181a16.296 16.296 0 0 1 7.594-1.85c3.351 0 5.57.853 7.037 2.035 1.511-1.184 3.768-2.035 7.132-2.035 2.583 0 5.137.623 7.592 1.85 4.225 2.115 5.112 5.073 5.112 7.181 0 2.214-.916 3.408-1.683 4.021-.75.6-2.079 1.212-4.178.789-.123.334-.305 1.076-.305 2.537 0 1.856.295 4.438.878 7.675l4.329 24.01c.088.437.626 1.786 3.537 3.85 1.33.887 1.807 2.011 1.963 2.79l.051.513c0 .76-.259 1.539-.867 2.602l-.247.43-.386.31c-.763.611-2.016 1.774-1.83 2.707l4.212 24.207c.947 5.274 1.478 7.44 1.755 8.327.757 2.207 1.75 3.664 2.85 4.15 1.25.5 4.879 1.985 4.879 5.287 0 .605-.147 1.266-.451 2.02-.894 2.237-3.134 4.91-8.711 4.91zm3.974-7.11zm-21.354-.627zm11.034-47.67zm-33.798-45.41zm11.861 52.448h5.254l-2.658-15.46-2.596 15.46zM691.204 455.834c-2.443 0-4.48-.655-6.004-1.895-1.31 1.08-3.236 1.895-6.066 1.895-1.8 0-3.693-.49-5.625-1.456-3.573-1.784-4.324-4.177-4.324-5.868 0-3.116 3.32-4.627 4.41-5.124.142-.062 2.412-1.17 2.412-12.195v-24.273c0-1.311-1.431-2.66-2.632-3.561l-.277-.24c-.887-.884-1.683-1.782-1.683-3.022 0-1.295.81-2.28 1.683-3.153l.275-.239c1.202-.902 2.634-2.252 2.634-3.562l-.388-30.69c-1.486-4.699-3.842-5.669-5.502-5.985-.853-.14-1.638-.686-2.09-1.486-.773-1.37-.319-2.929.162-4.134.976-2.307 3.27-5.03 8.776-5.177h.004c3.163 0 5.961.916 8.38 2.73 2.656-1.613 5.356-2.263 8.034-1.938 1.176.066 3.052.73 3.888 4.061l11.931 41.675v-21.884c0-11.136-2.12-12.16-2.142-12.17-2.958-1.368-4.417-3.09-4.417-5.15 0-1.629.746-3.945 4.302-5.736 1.86-1.037 3.823-1.59 5.74-1.59 2.75 0 4.632.807 5.919 1.877 1.516-1.228 3.54-1.877 5.964-1.877 1.908 0 3.928.57 6.002 1.692 3.23 1.747 3.909 4.028 3.909 5.634 0 3.119-3.321 4.627-4.412 5.123-.073.03-2.148 1.228-2.148 12.195v24.274c0 .981.917 2.268 2.583 3.624.902.774 1.877 1.79 1.877 3.198 0 .91-.348 2.241-2.006 3.428-1.1.815-2.454 2.093-2.454 3.394v30.878c1.32 4.635 3.885 5.601 5.719 5.923.951.115 1.843.72 2.319 1.64.858 1.655-.047 3.446-.44 4.183-1.045 2.212-3.42 4.84-8.812 4.98h-.004c-3.064 0-5.826-.904-8.272-2.69-2.547 1.67-5.196 2.307-7.905 1.894-1.189-.078-3.07-.746-4.059-3.93l-.018-.06-11.986-42.202v22.13c0 11.1 2.037 12.314 2.06 12.324 1.132.51 4.501 2.032 4.501 5.164 0 1.612-.68 3.905-3.918 5.665-2.085 1.132-4.069 1.706-5.9 1.706zm41.488-5.694zm-36.73-1.143zm11.75-96.515zm-36.684-1.138.138.028a1.67 1.67 0 0 0-.138-.028zM772.629 455.834c-4.007 0-7.715-1.12-11.021-3.324l-.265-.203a42.365 42.365 0 0 0-2.04-1.668c-.152-.117-.386-.23-.895-.194-.337.036-.823.258-1.366.641a447.793 447.793 0 0 1-3.218 2.703c-.955.766-2.181.875-3.167.308-1.886-1.084-1.537-3.434-1.2-5.707.528-4.228.876-6.837 1.056-7.918.193-.93.188-2.545-.82-5.573-1.25-3.553-1.839-6.08-1.839-7.907 0-3.486 1.374-6.415 3.975-8.47 2.127-1.83 4.925-2.791 8.235-2.791 1.164 0 2.383.159 3.624.474l4.154 1.05-2.848 3.2c.011 0-.385.724-.391 3.452l.257 4.915c.143 5.516 2.407 7.897 7.575 8.034 4.217.076 6.33-1.759 7.078-6.107.322-1.944.487-3.743.487-5.332 0-5.277-1.768-9.611-5.405-13.25-1.67-1.602-2.96-2.803-3.834-3.567h-.258l-.76-.76c-.655-.652-2.12-.816-4.14-.46l-.453.039c-.559 0-2.258 0-3.414-1.156-.525-.527-1.3-1.663-.875-3.544.145-2.942-.445-3.678-.515-3.753l-.107-.125c-2.192-2.716-3.844-4.815-4.911-6.24-5.392-6.783-8.054-14.543-7.868-23.003.2-6.63 3.516-12.661 9.86-17.948 4.741-3.969 9.894-5.983 15.309-5.983 4.022 0 7.746 1.172 11.064 3.484a66.868 66.868 0 0 1 2.332 1.832c.133.11.204.149.437.106l.236-.032c.48-.043 1.016-.277 1.589-.693l.22-.15c.216-.163.89-.687 2.934-2.376 1.019-.775 2.16-.9 3.14-.413.749.373 1.642 1.209 1.642 3.075 0 .368-.03 1.054-.294 2.757-.522 3.398-.967 6.113-1.323 8.072-.1.608-.12 2.174.959 5.402 1.152 3.556 1.708 6.179 1.708 8.04 0 3.4-1.318 6.239-3.81 8.208-2.342 1.852-5.202 2.79-8.501 2.79-1.127 0-2.256-.102-3.355-.304l-4.867-.893 3.405-3.411c.058-.135.212-.573.306-1.606-.026-.377-.037-.763-.048-1.148-.039-1.29-.086-3.227-.141-5.81-.069-5.35-2.294-7.683-7.44-7.822-2.103-.062-3.796.418-5.147 1.48-1.259.99-1.904 2.333-2.028 4.229-.29 3.04 1.026 6.387 3.905 10.021l.018.023c1.958 2.53 5.345 5.92 10.07 10.075.52.249 1.619.528 3.803.239 2.14-.474 3.38.479 3.928 1.101.836.958 1.125 2.2.827 3.466-.126 2.226.233 3.173.419 3.505 6.366 7.216 9.41 18.273 9.047 32.866-.098 6.497-3.314 12.532-9.56 17.913-4.758 4.076-9.962 6.14-15.475 6.14zm7.493-74.626z"/></g><g fill="#C8102E"><path d="M226.05 446.017c-1.837-.787-3.28-2.71-4.33-5.773-.439-1.399-1.05-4.285-1.837-8.66l-4.198-24.141c-.35-1.75.568-3.498 2.755-5.249.348-.61.525-1.05.525-1.311-.088-.437-.394-.831-.919-1.182-2.712-1.922-4.244-3.76-4.591-5.51l-4.33-24.011c-.613-3.411-.919-6.121-.919-8.134 0-3.848 1.092-5.554 3.28-5.118 1.923.44 2.887-.305 2.887-2.23 0-2.01-1.227-3.629-3.674-4.854-2.1-1.05-4.244-1.575-6.43-1.575-3.935 0-6.342 1.312-7.216 3.936v-.131c-.787-2.536-3.106-3.805-6.954-3.805-2.275 0-4.417.525-6.428 1.575-2.45 1.225-3.674 2.843-3.674 4.854 0 1.925 1.004 2.669 3.018 2.23 2.01-.436 3.017 1.27 3.017 5.118 0 1.924-.262 4.549-.787 7.872l-4.461 24.273c-.262 1.75-1.75 3.588-4.46 5.51-.526.263-.877.656-1.05 1.182-.089.35.13.786.655 1.311 2.011 1.663 2.887 3.412 2.624 5.249l-4.067 24.141c-.7 4.113-1.357 7-1.968 8.66-.964 3.063-2.362 4.986-4.198 5.773-2.276.963-3.412 1.925-3.412 2.886 0 1.313.742 2.362 2.23 3.149 1.487.787 2.93 1.181 4.33 1.181 3.15 0 5.335-1.223 6.56-3.673.438 2.45 2.186 3.673 5.249 3.673 3.235 0 5.728-1.093 7.478-3.28.437-.611.657-1.136.657-1.574 0-.788-.788-1.575-2.362-2.362-1.574-.787-2.362-2.755-2.362-5.904 0-1.749.306-4.592.918-8.529l1.575-8.265h15.876l1.443 8.265c.787 4.199 1.181 7.13 1.181 8.791 0 2.974-.81 4.855-2.427 5.642-1.62.787-2.427 1.574-2.427 2.362 0 .438.217.963.655 1.574 1.661 2.187 4.154 3.28 7.48 3.28 3.148 0 4.897-1.223 5.248-3.673 1.223 2.45 3.41 3.673 6.56 3.673 3.323 0 5.422-1.093 6.298-3.28.174-.436.262-.787.262-1.05 0-1.05-1.095-2.01-3.28-2.886zm-28.997-35.95h-5.641l5.641-33.59 5.774 33.59h-5.774zM278.661 435.127 265.41 390.78v40.41c0 4.461.128 7.436.386 8.923.428 3.063 1.544 4.985 3.343 5.773 1.8.787 2.7 1.662 2.7 2.624 0 1.4-.849 2.537-2.546 3.411-1.697.875-3.286 1.312-4.764 1.312-3.134 0-5.137-1.267-6.007-3.805-.783 2.538-2.786 3.805-6.007 3.805-1.48 0-3.003-.437-4.569-1.312-1.829-.961-2.741-2.1-2.741-3.411 0-.962.961-1.88 2.886-2.756 2.537-1.05 3.805-5.904 3.805-14.564v-24.404c0-1.837-1.268-3.674-3.805-5.51-.438-.525-.655-.919-.655-1.181 0-.437.217-.873.655-1.312 2.537-1.837 3.805-3.717 3.805-5.642v-31.096c-1.176-4.723-3.8-7.434-7.872-8.135-.787-.174-.787-.873 0-2.099.873-2.273 3.018-3.454 6.429-3.542 2.973-.087 5.685 1.05 8.135 3.41 2.536-2.184 5.16-3.06 7.872-2.623.787 0 1.356.656 1.706 1.968l10.497 39.493 10.496-39.493c.348-1.312.961-1.968 1.836-1.968 2.624-.437 5.204.439 7.742 2.624 2.535-2.362 5.248-3.498 8.134-3.411 3.412.088 5.597 1.269 6.561 3.542.699 1.226.699 1.925 0 2.1-4.024.7-6.606 3.41-7.742 8.134l-.13.525v30.571c0 2.013 1.224 3.893 3.674 5.642.524.439.786.875.786 1.312 0 .262-.262.656-.786 1.18-2.45 1.663-3.674 3.5-3.674 5.511v24.404c0 8.66 1.224 13.514 3.674 14.564 1.922.876 2.885 1.794 2.885 2.756 0 1.312-.848 2.427-2.545 3.345-1.698.919-3.287 1.378-4.765 1.378-3.134 0-5.137-1.267-6.007-3.805-.782 2.538-2.786 3.805-6.007 3.805-1.48 0-3.002-.394-4.57-1.181-1.828-.961-2.74-2.142-2.74-3.542 0-.962.9-1.837 2.7-2.624 1.8-.788 2.957-2.71 3.473-5.773.17-1.487.256-4.462.256-8.922V390.78l-13.252 44.347zM339.65 407.59c0-1.841-1.227-3.682-3.674-5.523-.44-.525-.656-.92-.656-1.185 0-.438.217-.92.656-1.447 2.448-1.841 3.673-3.682 3.673-5.523v-24.335c0-4.297-.13-7.278-.394-8.944-.524-2.981-1.619-4.865-3.279-5.656-2.014-.964-3.018-1.884-3.018-2.762 0-1.316.92-2.368 2.755-3.157a12.605 12.605 0 0 1 4.462-.79c5.248 0 8.351 1.575 9.315 4.724 4.46-3.149 8.571-4.723 12.333-4.723 2.186 0 4.373.482 6.56 1.443.349.088 1.005.57 1.968 1.443.7.525 1.444.745 2.231.656.788-.086 2.667-1.267 5.642-3.542.174-.174.306-.132.393.131.087.262.087.656 0 1.18 0 .177-.087.702-.262 1.575 0 1.574-.131 4.067-.393 7.479-.263 1.488.042 3.5.918 6.035.962 2.887 1.443 5.031 1.443 6.43 0 2.361-1.269 4.243-3.805 5.641-2.187 1.226-4.769 1.837-7.74 1.837-1.05 0-2.015-.086-2.887-.262 2.273-2.448 3.411-5.38 3.411-8.791 0-2.886-.838-5.334-2.513-7.348-1.678-2.01-3.969-2.972-6.878-2.886-2.911.176-5.158.964-6.745 2.362-.177 1.662-.265 4.33-.265 8.003v22.699c6.43-.263 10.107-1.444 11.034-3.543.925-2.1 1.872-3.149 2.841-3.149 1.32 0 2.464.964 3.434 2.887.881 1.488 1.322 2.974 1.322 4.46 0 3.238-1.269 5.249-3.805 6.036 2.536.875 3.805 2.887 3.805 6.036 0 1.488-.44 3.017-1.322 4.592-.881 1.837-2.026 2.755-3.434 2.755-.969 0-1.894-.962-2.776-2.886-1.057-2.362-4.756-3.63-11.099-3.805v26.11c0 3.761.088 6.429.265 8.003 1.587 1.4 3.834 2.187 6.745 2.362 2.91.088 5.2-.874 6.878-2.887 1.675-2.01 2.513-4.46 2.513-7.347 0-3.411-1.138-6.341-3.411-8.791a14.753 14.753 0 0 1 2.887-.262c2.971 0 5.553.613 7.74 1.836 2.536 1.4 3.805 3.28 3.805 5.642 0 1.4-.481 3.543-1.443 6.43-.876 2.537-1.18 4.548-.918 6.035 0 1.836.131 4.33.393 7.478.349 2.276.306 3.236-.131 2.887a90.29 90.29 0 0 0-2.952-2.362c-.92-.699-1.817-1.092-2.69-1.18-.787-.086-1.531.13-2.23.655-.963.876-1.62 1.358-1.968 1.444-2.188.964-4.375 1.443-6.56 1.443-3.762 0-7.873-1.574-12.334-4.723-.964 3.149-4.067 4.723-9.315 4.723-1.575 0-3.063-.262-4.461-.79-1.837-.787-2.756-1.84-2.756-3.157 0-.963 1.004-1.884 3.018-2.761 2.448-1.052 3.673-5.918 3.673-14.6V407.59zM456.366 378.97c-2.362-1.922-3.542-3.76-3.542-5.51v-3.805c0-5.947-2.254-10.976-6.757-15.088-4.506-4.11-9.645-6.21-15.417-6.298-4.9 0-9.23 1.575-12.99 4.723-1.05-3.148-4.111-4.723-9.184-4.723-4.638 0-6.954 1.314-6.954 3.94 0 .877.92 1.73 2.756 2.563 1.836.832 3.017 2.736 3.542 5.713.263 1.665.393 4.643.393 8.935v24.172c0 1.839-1.225 3.678-3.672 5.517-.614.615-.92 1.051-.92 1.314 0 .176.306.57.92 1.183 2.447 1.839 3.672 3.677 3.672 5.516v24.173c0 8.582-1.268 13.442-3.804 14.582-1.926.788-2.887 1.663-2.887 2.627 0 1.402.923 2.583 2.77 3.546 1.58.79 3.119 1.183 4.615 1.183 3.163 0 5.14-1.224 5.933-3.673.876 2.45 2.9 3.673 6.066 3.673 1.407 0 2.966-.437 4.68-1.312 1.714-.874 2.571-2.011 2.571-3.411 0-.874-.981-1.749-2.943-2.625-2.5-1.136-3.748-5.99-3.748-14.563v-22.568c3.323 1.226 6.384 4.287 9.184 9.185 4.11 7.524 6.166 15.57 6.166 24.142 0 3.499-.481 6.386-1.443 8.659-.35.787-.48 1.226-.393 1.312.086.35.656.613 1.705.787 2.012.437 4.373-.567 7.086-3.017 2.011 2.275 4.241 3.41 6.691 3.41 2.71 0 4.462-1.18 5.248-3.542.526-1.312.526-2.054 0-2.23-1.924-.611-3.805-2.667-5.642-6.167-2.712-5.248-4.067-12.639-4.067-22.173-3.238-2.973-5.687-6.341-7.347-10.104 9.446-2.71 14.17-8.745 14.17-18.106v-4.067c0-1.837 1.18-3.629 3.542-5.38.611-.436.918-.873.918-1.311 0-.437-.307-.83-.918-1.181zm-16.794-5.51c0 1.663-1.189 3.5-3.565 5.51-.51.351-.764.745-.764 1.182 0 .439.254.875.764 1.312 2.376 1.837 3.565 3.63 3.565 5.38v3.28c0 2.449-.884 4.33-2.65 5.641-1.768 1.313-3.859 1.969-6.272 1.969-2.362-.087-4.418-.722-6.167-1.903-1.751-1.181-2.756-2.776-3.017-4.789v-21.518c0-2.1.918-3.76 2.754-4.985 1.838-1.225 3.98-1.837 6.43-1.837 2.413-.087 4.503.547 6.271 1.902 1.767 1.357 2.65 3.214 2.65 5.576v3.28zM488.5 449.56c-.962 2.45-3.017 3.673-6.165 3.673-1.401 0-2.887-.394-4.462-1.181-1.836-.961-2.756-2.1-2.756-3.411 0-.962 1.005-1.88 3.019-2.755 2.447-1.05 3.673-5.86 3.673-14.433v-23.879c0-1.923-1.226-3.805-3.673-5.642-.526-.437-.787-.787-.787-1.05 0-.436.261-.873.787-1.312 2.447-1.836 3.673-3.717 3.673-5.641v-23.88c0-8.483-1.226-13.295-3.673-14.433-2.014-.961-3.019-1.88-3.019-2.755 0-1.312.92-2.448 2.756-3.411 1.486-.787 2.973-1.181 4.462-1.181 3.148 0 5.203 1.226 6.165 3.674.788-2.448 2.756-3.674 5.905-3.674 1.487 0 2.973.394 4.461 1.181 1.836.963 2.755 2.1 2.755 3.411 0 .876-1.006 1.794-3.018 2.755-2.36 1.138-3.542 5.95-3.542 14.433v23.88c0 1.924 1.181 3.805 3.542 5.641.526.439.787.876.787 1.313 0 .262-.261.612-.787 1.05-2.36 1.835-3.542 3.718-3.542 5.641v23.879c0 8.574 1.181 13.383 3.542 14.433 2.012.875 3.018 1.793 3.018 2.755 0 1.312-.853 2.406-2.558 3.28-1.706.875-3.26 1.312-4.658 1.312-3.149 0-5.117-1.224-5.905-3.673zM543.2 400.751c0 .439-.261.833-.786 1.181-2.362 2.013-3.543 3.85-3.543 5.51v23.617c0 2.625.94 4.68 2.82 6.167 1.882 1.489 4.178 2.188 6.89 2.1 6.734-.175 10.102-3.674 10.102-10.497 0 .263.043-.742.132-3.018.085-1.748.085-3.149 0-4.198-.177-1.575-.526-2.624-1.05-3.15a12.447 12.447 0 0 1 3.017-.392c2.71 0 5.006.743 6.889 2.23 1.88 1.488 2.82 3.587 2.82 6.298 0 1.575-.504 3.916-1.509 7.02-1.005 3.105-1.376 5.445-1.115 7.019.35 1.925.788 4.549 1.312 7.872.176.701.263 1.312.263 1.837.087.525.087.919 0 1.18 0 .263-.13.308-.394.132a202.756 202.756 0 0 1-3.345-2.624c-1.094-.873-2.079-1.355-2.952-1.444-.964-.085-1.794.177-2.493.788a49.267 49.267 0 0 1-2.23 1.837c-2.887 2.013-6.081 3.017-9.579 3.017-4.9 0-9.535-1.837-13.907-5.51-5.95-4.898-8.922-10.234-8.922-16.007v-24.273c0-1.66-1.181-3.498-3.543-5.51-.525-.35-.788-.743-.788-1.182 0-.437.263-.83.788-1.181 2.362-2.011 3.543-3.848 3.543-5.51v-24.273c0-5.773 2.972-11.108 8.922-16.008 4.372-3.673 9.008-5.51 13.907-5.51 3.498 0 6.692 1.006 9.578 3.017.788.526 1.53 1.095 2.23 1.707.7.612 1.53.875 2.494.786.96-.174 3.06-1.486 6.297-3.935.263-.175.394-.132.394.13.087.177.087.57 0 1.182 0 .438-.087 1.006-.263 1.705-.261 1.663-.7 4.33-1.312 8.004-.261 1.574.087 3.85 1.05 6.823 1.05 3.236 1.574 5.64 1.574 7.216 0 2.712-.94 4.81-2.82 6.297-1.883 1.489-4.179 2.231-6.889 2.231-.963 0-1.967-.131-3.017-.394.524-.525.873-1.574 1.05-3.148.085-1.05.085-2.448 0-4.2-.089-2.273-.132-3.28-.132-3.017 0-6.823-3.368-10.32-10.103-10.497-2.8-.085-5.117.59-6.953 2.034-1.838 1.444-2.756 3.523-2.756 6.233v23.617c0 1.662 1.181 3.499 3.543 5.51.525.35.786.744.786 1.181zM649.286 446.017c-1.836-.787-3.28-2.71-4.329-5.773-.438-1.399-1.05-4.285-1.836-8.66l-4.199-24.141c-.35-1.75.568-3.498 2.755-5.249.349-.61.524-1.05.524-1.311-.087-.437-.393-.831-.918-1.182-2.711-1.922-4.243-3.76-4.592-5.51l-4.33-24.011c-.613-3.411-.918-6.121-.918-8.134 0-3.848 1.092-5.554 3.28-5.118 1.923.44 2.886-.305 2.886-2.23 0-2.01-1.226-3.629-3.673-4.854-2.1-1.05-4.244-1.575-6.43-1.575-3.936 0-6.342 1.312-7.216 3.936v-.131c-.787-2.536-3.105-3.805-6.953-3.805-2.276 0-4.418.525-6.43 1.575-2.45 1.225-3.673 2.843-3.673 4.854 0 1.925 1.005 2.669 3.018 2.23 2.01-.436 3.017 1.27 3.017 5.118 0 1.924-.263 4.549-.787 7.872l-4.462 24.273c-.261 1.75-1.75 3.588-4.46 5.51-.524.263-.875.656-1.05 1.182-.088.35.132.786.657 1.311 2.011 1.663 2.886 3.412 2.623 5.249l-4.067 24.141c-.701 4.113-1.357 7-1.968 8.66-.964 3.063-2.362 4.986-4.198 5.773-2.276.963-3.412 1.925-3.412 2.886 0 1.313.742 2.362 2.23 3.149 1.486.787 2.93 1.181 4.33 1.181 3.15 0 5.335-1.223 6.56-3.673.438 2.45 2.186 3.673 5.248 3.673 3.236 0 5.73-1.093 7.48-3.28.436-.611.656-1.136.656-1.574 0-.788-.788-1.575-2.362-2.362-1.575-.787-2.361-2.755-2.361-5.904 0-1.749.304-4.592.918-8.529l1.573-8.265H628.293l1.444 8.265c.788 4.199 1.182 7.13 1.182 8.791 0 2.974-.81 4.855-2.429 5.642-1.619.787-2.427 1.574-2.427 2.362 0 .438.218.963.657 1.574 1.66 2.187 4.153 3.28 7.478 3.28 3.15 0 4.898-1.223 5.249-3.673 1.224 2.45 3.41 3.673 6.56 3.673 3.323 0 5.422-1.093 6.297-3.28.175-.436.263-.787.263-1.05 0-1.05-1.095-2.01-3.28-2.886zm-28.996-35.95h-5.641l5.641-33.59 5.773 33.59h-5.773zM708.95 450.336l-17.09-60.168v40.807c0 8.746 1.203 13.648 3.615 14.706 1.963.885 2.946 1.812 2.946 2.782 0 1.326-.853 2.454-2.559 3.38-1.705.927-3.26 1.39-4.658 1.39-3.148 0-5.161-1.267-6.035-3.805-.787 2.538-2.8 3.805-6.035 3.805-1.4 0-2.887-.393-4.461-1.18-1.926-.962-2.887-2.143-2.887-3.543 0-.962.961-1.88 2.887-2.756 2.623-1.135 3.935-5.99 3.935-14.563v-24.274c0-1.922-1.225-3.804-3.673-5.64-.613-.612-.92-1.005-.92-1.182 0-.262.307-.7.92-1.312 2.448-1.837 3.673-3.717 3.673-5.642l-.393-31.095c-1.4-4.724-3.936-7.434-7.61-8.135-.525-.087-.525-.788 0-2.1.961-2.273 3.104-3.454 6.43-3.542 3.148 0 5.858 1.138 8.134 3.411 2.71-2.1 5.38-2.972 8.004-2.624.7 0 1.224.701 1.574 2.1l17.056 59.575v-40.418c0-8.66-1.243-13.514-3.731-14.565-1.886-.874-2.828-1.792-2.828-2.755 0-1.313.957-2.448 2.871-3.412 1.567-.873 3.09-1.312 4.57-1.312 3.133 0 5.092 1.27 5.876 3.805.869-2.536 2.873-3.805 6.007-3.805 1.478 0 3.067.459 4.764 1.378 1.698.918 2.546 2.033 2.546 3.346 0 .963-.963 1.881-2.887 2.755-2.45 1.05-3.673 5.904-3.673 14.563v24.274c0 1.836 1.18 3.718 3.542 5.641.611.525.919.919.919 1.18 0 .44-.308.877-.919 1.313-2.362 1.751-3.542 3.587-3.542 5.51v31.227c1.244 4.724 3.869 7.436 7.872 8.135.7.089.7.788 0 2.1-1.05 2.275-3.233 3.456-6.552 3.542-3.058 0-5.765-1.136-8.123-3.411-2.534 2.188-5.11 3.063-7.73 2.624-.788 0-1.399-.703-1.836-2.11zM767.512 382.12c2.1 2.712 5.641 6.255 10.627 10.628 1.312.787 3.235 1.006 5.774.656.698-.174 1.201-.087 1.508.262.306.35.371.787.197 1.312-.176 2.538.13 4.375.918 5.51 6.037 6.737 8.878 17.145 8.528 31.228-.087 5.772-2.974 11.109-8.658 16.007-4.288 3.673-8.879 5.51-13.777 5.51-3.5 0-6.692-.961-9.579-2.886a45.217 45.217 0 0 0-2.164-1.771c-.744-.568-1.64-.808-2.69-.723-.876.089-1.794.482-2.755 1.182-1.138.963-2.23 1.882-3.28 2.755-.439.35-.482-.656-.131-3.018.524-4.198.873-6.823 1.049-7.872.349-1.66.043-3.936-.919-6.823-1.138-3.235-1.705-5.597-1.705-7.085 0-2.71.994-4.855 2.987-6.43 1.73-1.485 3.938-2.23 6.621-2.23.952 0 1.949.131 2.987.394-.7.787-1.049 2.538-1.049 5.248l.262 4.986c.175 6.823 3.543 10.322 10.103 10.496 5.512.089 8.746-2.667 9.71-8.265.348-2.1.525-4.022.525-5.773 0-5.948-2.057-10.977-6.168-15.089-2.275-2.185-3.849-3.629-4.723-4.33h-.13c-1.314-1.312-3.457-1.705-6.43-1.181-.788 0-1.312-.13-1.575-.393-.262-.263-.307-.7-.13-1.313.173-2.886-.22-4.854-1.182-5.904-2.187-2.71-3.805-4.766-4.854-6.166-5.073-6.384-7.522-13.515-7.348-21.387.175-5.859 3.15-11.195 8.923-16.007 4.284-3.585 8.833-5.38 13.645-5.38 3.497 0 6.691 1.007 9.578 3.018a63.974 63.974 0 0 1 2.165 1.706c.742.613 1.594.832 2.558.656.961-.086 1.923-.48 2.887-1.18.174-.087 1.267-.962 3.28-2.625.348-.263.524-.043.524.656 0 .44-.087 1.226-.262 2.362-.525 3.411-.963 6.08-1.312 8.003-.262 1.575.086 3.805 1.05 6.692 1.049 3.237 1.575 5.642 1.575 7.216 0 2.624-.942 4.68-2.822 6.167-1.883 1.488-4.179 2.23-6.889 2.23-.962 0-1.924-.086-2.885-.262.698-.7 1.049-2.448 1.049-5.248 0 4.723-.088 3.017-.263-5.117-.088-6.735-3.411-10.19-9.97-10.366-2.713-.086-4.987.59-6.824 2.034-1.837 1.443-2.844 3.477-3.018 6.101-.35 3.674 1.137 7.61 4.462 11.809z"/></g><g fill="#FFF"><path d="M442.164 535.055c-1.906 0-3.43-.344-4.56-1.028-1.13.684-2.653 1.028-4.56 1.028-1.286 0-2.722-.255-4.268-.76-2.815-.919-3.406-2.477-3.406-3.622 0-2.167 2.535-2.896 3.753-3.246.736-.2 1.49-1.706 1.49-5.363v-10.979h-11.026v10.98c0 3.939.806 5.225 1.283 5.364 1.117.32 3.758 1.075 3.758 3.31 0 1.108-.577 2.625-3.327 3.55-1.51.508-2.93.766-4.218.766-1.93 0-3.468-.356-4.599-1.062-1.18.706-2.744 1.062-4.677 1.062-1.283 0-2.646-.234-4.052-.695-2.328-.8-3.494-2.015-3.494-3.622 0-2.235 2.642-2.99 3.77-3.312.637-.18 1.373-1.69 1.373-5.362v-11.937c-.095-.132-.473-.56-1.708-1.168-.48-.26-1.72-.935-1.72-2.323 0-.691.285-1.672 1.644-2.415 1.299-.642 1.687-1.076 1.784-1.207v-11.939c0-3.648-.759-5.173-1.408-5.372-1.222-.382-3.735-1.17-3.735-3.302 0-1.604 1.166-2.82 3.466-3.612a12.411 12.411 0 0 1 4.08-.704c1.933 0 3.497.356 4.677 1.063 1.131-.707 2.668-1.063 4.6-1.063 1.36 0 2.734.237 4.084.706 2.295.79 3.46 2.006 3.46 3.61 0 2.131-2.512 2.92-3.72 3.298-.607.192-1.321 1.717-1.321 5.376v9.324h11.026v-9.324c0-3.038-.575-5.094-1.501-5.365-1.207-.346-3.742-1.073-3.742-3.242 0-1.58 1.153-2.811 3.429-3.661 1.488-.489 2.89-.722 4.245-.722 1.907 0 3.43.344 4.56 1.028 1.13-.684 2.653-1.028 4.56-1.028 1.354 0 2.756.233 4.168.694 2.353.878 3.507 2.11 3.507 3.689 0 2.152-2.556 2.914-3.647 3.24-.637.194-1.396 1.72-1.396 5.367v12.042c.007-.007.262.41 1.598 1.06 1.444.787 1.73 1.768 1.73 2.46 0 1.387-1.241 2.062-1.648 2.284-1.487.726-1.693 1.178-1.695 1.183l.015 11.96c0 3.673.736 5.183 1.366 5.36 1.122.336 3.676 1.1 3.676 3.249 0 1.14-.58 2.692-3.34 3.617-1.515.508-2.973.765-4.334.765zm-21.314-52.02zm.217-1.698zM550.939 535.055c-4.089 0-8.01-1.019-11.654-3.029-5.23-2.828-7.89-6.137-7.89-9.829v-12.054c-.125-.157-.522-.565-1.63-1.193-1.53-.716-1.699-1.897-1.699-2.38 0-.482.168-1.661 1.697-2.38 1.101-.623 1.505-1.037 1.631-1.195v-12.052c0-3.69 2.66-7 7.906-9.837 3.63-2.002 7.55-3.021 11.64-3.021 2.963 0 5.72.573 8.192 1.703.63.276 1.272.599 1.877.946.18.103.42.148.725.139.225-.044 1.159-.3 4.147-1.785l.092-.043c1.028-.448 1.79-.114 2.154.126.414.271.712.678.854 1.146.207.578.142 1.145.082 1.472-.029.366-.12.76-.276 1.195-.205.85-.535 2.165-.987 3.947 0 .001-.093.536.662 2.068.967 1.957 1.417 3.395 1.417 4.526 0 1.49-.564 3.56-3.246 4.953-2.334 1.211-5.363 1.698-8.859 1.125l-5.052-.83 4.127-2.713c.023-.066.056-.178.086-.355.02-.181.046-.702-.022-1.635a86.15 86.15 0 0 0-.094-1.473l1.988-.18v-.017h-2.002c0-.957 0-3.2-5.8-3.3-1.818-.029-3.289.235-4.393.805-.955.493-1.035.966-1.035 1.37v11.72c.127.158.53.572 1.63 1.195 1.53.718 1.697 1.898 1.697 2.38 0 .483-.168 1.664-1.697 2.38-1.11.628-1.505 1.036-1.63 1.193v11.723c0 .27 0 .772 1.089 1.337 1.138.592 2.608.87 4.33.836 5.81-.099 5.81-2.341 5.81-3.299h1.813l-1.8-.198c.012-.13.042-.611.092-1.444.07-.961.044-1.482.01-1.755a1.4 1.4 0 0 0-.07-.262l-4.129-2.714 5.052-.83c3.481-.573 6.521-.087 8.858 1.124 2.683 1.395 3.246 3.463 3.246 4.953 0 1.13-.434 2.537-1.365 4.427-.795 1.612-.712 2.172-.71 2.177.259.936.595 2.255.984 3.874.158.443.25.858.276 1.257.094.5.075.963-.057 1.383a2.09 2.09 0 0 1-.882 1.24c-.365.239-1.132.571-2.158.12l-.095-.045a160.64 160.64 0 0 1-2.602-1.341c-.731-.383-1.204-.485-1.47-.502-.33-.016-.595.025-.79.136-.565.325-1.164.65-1.8.974-2.546 1.168-5.304 1.741-8.27 1.741zm-19.494-32.13zM538.348 322.832c-1.92 0-3.462-.36-4.615-1.073-1.145.713-2.703 1.073-4.661 1.073-1.283 0-2.646-.235-4.052-.696-2.385-.781-3.595-2.022-3.595-3.687 0-2.217 2.648-3.008 3.646-3.306 1.01-.287 1.598-2.316 1.598-5.434v-12.137c-.095-.132-.474-.56-1.707-1.167l-.211-.12c-.642-.42-1.612-1.055-1.612-2.27 0-1.277 1.087-1.99 1.61-2.333l.212-.122c1.225-.603 1.607-1.029 1.706-1.164l-.292-15.105c-.806-1.522-2.12-2.351-4.107-2.6a2.265 2.265 0 0 1-1.817-1.253c-.61-1.238.118-2.436.358-2.83 1.162-1.805 3.317-2.69 6.615-2.746h.001c2.398 0 4.535.492 6.39 1.465 2.056-.874 4.119-1.233 6.154-1.066.711.026 2.203.334 2.97 2.343l9.242 21.194v-10.813c0-3.716-.756-5.244-1.403-5.424-1.03-.313-3.638-1.107-3.638-3.317 0-1.617 1.204-2.835 3.578-3.62 1.363-.5 2.776-.763 4.14-.763 1.904 0 3.423.357 4.547 1.064 1.147-.707 2.68-1.064 4.585-1.064 1.36 0 2.818.273 4.33.811 2.717.964 3.287 2.475 3.287 3.572 0 2.218-2.649 3.009-3.646 3.306-.66.186-1.395 1.713-1.395 5.434v12.126c.096.137.47.57 1.666 1.21.554.311 1.762.992 1.762 2.358 0 .73-.322 1.753-1.856 2.472-1.134.552-1.484.951-1.572 1.074v15.24c.486 1.01 1.509 2.218 4.278 2.536 1.303.106 1.831 1.01 1.994 1.392.38.893.17 1.855-.627 2.86-1.215 1.681-3.373 2.525-6.596 2.58h-.002c-2.327 0-4.442-.487-6.325-1.45-1.96.906-3.982 1.259-6.018 1.05-1.325-.048-2.447-.846-3.09-2.206l-.028-.061-9.3-21.502V309.6c0 4.04.837 5.358 1.332 5.5 1.12.332 3.71 1.1 3.71 3.325 0 1.102-.572 2.618-3.294 3.59-1.52.542-2.951.817-4.252.817zm32.04-2.861.064.007-.064-.007zm-16.53-1.34zm12.679-27.567zm-15.799-21.805zm-28.007-.539.054.007a.975.975 0 0 0-.054-.007zM441.859 322.832c-1.906 0-3.49-.344-4.735-1.024-.915.606-2.29 1.024-4.34 1.024-3.04 0-5.412-.721-7.056-2.143-.806-.736-1.195-1.5-1.195-2.306 0-2.057 2.366-2.812 3.256-3.096.265-.085.475-.152.475-.943 0-.294-.08-1.262-.83-3.888l-.725-2.721h-9.163l-.791 2.729c-.543 2.294-.627 3.338-.627 3.747 0 .937.254 1.02.439 1.08.873.287 3.191 1.048 3.191 3.092 0 1.209-.867 2.005-1.151 2.266l-.084.074c-1.705 1.4-4.066 2.109-7.017 2.109-2.029 0-3.396-.427-4.312-1.04-1.25.691-2.843 1.04-4.763 1.04-1.295 0-2.636-.238-3.984-.707-2.66-.923-3.056-2.575-3.056-3.478 0-2.246 2.759-3.013 4.085-3.382.528-.148 1.314-.504 1.96-1.851l.059-.113c.263-.47.705-1.527 1.32-3.896l3.054-11.901c-.12-.126-.391-.362-.962-.672l-.145-.086c-1.807-1.188-1.433-2.631-1.274-3.045l.086-.194c.252-.497.774-1.158 1.834-1.543 1.762-.833 2.186-1.356 2.258-1.46l3.429-12.257c.435-1.819.53-2.878.53-3.434 0-.28-.021-.474-.045-.602-1.567.224-2.731-.02-3.562-.741-.665-.576-1.03-1.417-1.03-2.365 0-1.355.727-3.209 4.197-4.349 1.725-.591 3.605-.895 5.566-.895 1.017 0 3.534 0 5.401 1.15 1.924-1.15 4.462-1.15 5.489-1.15 1.885 0 3.757.301 5.565.894 3.47 1.142 4.198 2.996 4.198 4.35 0 .96-.369 1.808-1.038 2.385-.823.71-1.96.942-3.474.718a1.443 1.443 0 0 0-.17-.013c-.027.115-.056.31-.056.618 0 .575.11 1.662.634 3.577l3.303 12.03c.075.112.528.68 2.47 1.585.918.402 1.528 1.022 1.773 1.824l.088.286v.298c0 .84-.478 1.496-.894 1.974l-.246.283-.332.175c-.575.302-.881.535-1.035.675l3.146 11.875c.744 2.716 1.124 3.686 1.284 4.022.688 1.315 1.498 1.688 2.05 1.846 1.21.318 3.993 1.062 3.993 3.384 0 .514-.162 1.029-.496 1.574-1.07 1.756-3.211 2.61-6.545 2.61zm-3.571-25.164zm-32.334-.061zm32.372-.467.014.05a.932.932 0 0 0-.014-.05zm-17.992-.091h3.608l-1.825-6.973-1.783 6.973zm-12.677-6.513a.616.616 0 0 0-.016.056l.016-.056zm25.11-16.48zm-22.42-3.775z"/></g><g fill="#C8102E"><path d="M412.546 531.202c-.74 1.237-2.32 1.854-4.739 1.854-1.077 0-2.219-.198-3.429-.596-1.411-.485-2.118-1.06-2.118-1.721 0-.485.772-.949 2.32-1.39 1.881-.53 2.823-2.958 2.823-7.285v-12.05c0-.971-.942-1.921-2.823-2.848-.404-.22-.605-.397-.605-.53 0-.22.201-.44.605-.662 1.881-.927 2.823-1.876 2.823-2.847v-12.051c0-4.282-.942-6.71-2.823-7.284-1.548-.485-2.32-.949-2.32-1.39 0-.663.707-1.236 2.118-1.722a10.375 10.375 0 0 1 3.43-.596c2.419 0 3.998.619 4.738 1.854.605-1.235 2.118-1.854 4.537-1.854 1.143 0 2.285.198 3.43.596 1.41.486 2.116 1.06 2.116 1.721 0 .442-.773.906-2.319 1.39-1.814.575-2.722 3.003-2.722 7.285v11.323h15.025v-11.323c0-4.282-.98-6.71-2.937-7.284-1.538-.44-2.307-.883-2.307-1.324 0-.663.71-1.259 2.129-1.788 1.215-.398 2.396-.596 3.547-.596 2.431 0 3.951.618 4.56 1.854.607-1.236 2.127-1.854 4.56-1.854 1.148 0 2.33.198 3.546.596 1.419.53 2.13 1.125 2.13 1.788 0 .441-.742.883-2.22 1.324-1.882.574-2.823 3.002-2.823 7.284v12.051c0 1.016.908 1.964 2.722 2.847.404.221.605.442.605.662 0 .133-.2.31-.605.53-1.814.884-2.722 1.832-2.722 2.847v12.051c0 4.327.94 6.755 2.824 7.284 1.477.442 2.218.884 2.218 1.325 0 .706-.659 1.28-1.976 1.721-1.317.442-2.55.662-3.7.662-2.432 0-3.952-.617-4.56-1.854-.608 1.237-2.127 1.854-4.559 1.854-1.081 0-2.297-.22-3.65-.662-1.351-.44-2.026-1.015-2.026-1.721 0-.441.77-.883 2.307-1.325 1.957-.53 2.937-2.957 2.937-7.283v-12.979h-15.025v12.978c0 4.327.908 6.755 2.723 7.284 1.546.442 2.319.906 2.319 1.39 0 .663-.655 1.215-1.966 1.656-1.311.442-2.506.662-3.58.662-2.42 0-3.933-.617-4.538-1.854zM546.905 506.57c0 .221-.201.42-.604.596-1.816 1.016-2.723 1.943-2.723 2.781v11.919c0 1.324.722 2.362 2.167 3.112 1.446.751 3.21 1.104 5.295 1.06 5.176-.089 7.764-1.855 7.764-5.298 0 .133.033-.374.102-1.523.065-.882.065-1.589 0-2.119-.136-.794-.405-1.324-.808-1.589.808-.132 1.58-.198 2.32-.198 2.082 0 3.847.375 5.294 1.125 1.445.751 2.167 1.81 2.167 3.178 0 .795-.387 1.977-1.16 3.543-.772 1.568-1.057 2.748-.856 3.543.268.971.605 2.295 1.008 3.973.135.353.202.662.202.926.066.265.066.464 0 .596 0 .133-.1.156-.302.067-.875-.441-1.732-.883-2.571-1.325-.842-.44-1.598-.684-2.27-.728-.74-.043-1.378.089-1.916.397-.539.31-1.109.619-1.714.927-2.218 1.016-4.673 1.523-7.361 1.523-3.766 0-7.328-.927-10.689-2.78-4.573-2.473-6.857-5.166-6.857-8.08v-12.25c0-.837-.907-1.764-2.723-2.78-.403-.176-.605-.375-.605-.596 0-.22.202-.42.605-.596 1.816-1.015 2.723-1.942 2.723-2.781v-12.25c0-2.914 2.284-5.606 6.857-8.079 3.36-1.854 6.923-2.78 10.689-2.78 2.688 0 5.143.507 7.361 1.522a17.83 17.83 0 0 1 1.714.861c.538.31 1.175.442 1.916.397.74-.088 2.353-.75 4.84-1.986.203-.088.303-.066.303.066.066.09.066.288 0 .596 0 .222-.067.508-.202.86-.2.84-.539 2.186-1.008 4.04-.201.795.066 1.943.807 3.443.806 1.634 1.21 2.847 1.21 3.642 0 1.369-.723 2.428-2.168 3.179-1.447.75-3.212 1.125-5.294 1.125-.74 0-1.512-.066-2.32-.198.404-.265.672-.795.808-1.59.065-.53.065-1.235 0-2.118-.069-1.148-.102-1.656-.102-1.524 0-3.443-2.588-5.208-7.764-5.297-2.153-.043-3.933.298-5.344 1.027-1.413.728-2.118 1.777-2.118 3.145v11.919c0 .839.907 1.766 2.723 2.78.403.178.604.376.604.597zM551.987 319.371l-13.134-30.365V309.6c0 4.414.924 6.887 2.778 7.421 1.509.447 2.264.915 2.264 1.404 0 .67-.656 1.239-1.966 1.706s-2.506.702-3.58.702c-2.42 0-3.967-.64-4.639-1.92-.605 1.28-2.152 1.92-4.638 1.92-1.077 0-2.219-.199-3.429-.596-1.48-.485-2.219-1.081-2.219-1.788 0-.485.74-.949 2.22-1.39 2.016-.574 3.024-3.023 3.024-7.35v-12.25c0-.97-.942-1.92-2.823-2.847-.471-.31-.707-.507-.707-.597 0-.132.236-.352.707-.662 1.881-.927 2.823-1.876 2.823-2.847l-.303-15.693c-1.075-2.384-3.024-3.752-5.848-4.106-.403-.043-.403-.397 0-1.06.739-1.146 2.385-1.742 4.942-1.787 2.42 0 4.502.574 6.251 1.722 2.083-1.06 4.135-1.5 6.151-1.325.538 0 .941.354 1.21 1.06l13.109 30.066v-20.398c0-4.37-.956-6.82-2.868-7.35-1.45-.441-2.173-.905-2.173-1.39 0-.663.736-1.236 2.206-1.723 1.205-.44 2.375-.662 3.513-.662 2.407 0 3.913.64 4.516 1.92.667-1.28 2.207-1.92 4.616-1.92 1.136 0 2.358.232 3.662.696 1.305.463 1.957 1.026 1.957 1.688 0 .486-.74.95-2.219 1.39-1.883.53-2.823 2.98-2.823 7.35v12.25c0 .927.907 1.877 2.722 2.848.47.265.706.463.706.596 0 .221-.236.441-.706.662-1.815.884-2.722 1.81-2.722 2.781v15.76c.956 2.383 2.973 3.752 6.05 4.105.538.044.538.397 0 1.06-.806 1.148-2.484 1.743-5.036 1.787-2.35 0-4.43-.573-6.243-1.722-1.947 1.104-3.927 1.546-5.94 1.325-.606 0-1.075-.355-1.411-1.065zM444.38 317.191c-1.411-.397-2.521-1.367-3.327-2.913-.337-.706-.808-2.163-1.412-4.37l-3.227-12.184c-.27-.883.437-1.766 2.117-2.65.269-.307.403-.529.403-.661-.067-.22-.302-.42-.705-.596-2.084-.97-3.261-1.898-3.53-2.781l-3.327-12.118c-.471-1.721-.706-3.09-.706-4.105 0-1.942.84-2.803 2.521-2.583 1.478.222 2.218-.154 2.218-1.125 0-1.015-.942-1.832-2.823-2.45a15.752 15.752 0 0 0-4.942-.795c-3.024 0-4.874.662-5.546 1.987v-.067c-.605-1.28-2.386-1.92-5.343-1.92-1.75 0-3.396.265-4.942.795-1.883.618-2.823 1.435-2.823 2.45 0 .971.772 1.347 2.319 1.125 1.545-.22 2.32.641 2.32 2.583 0 .971-.203 2.296-.606 3.973l-3.429 12.25c-.201.883-1.345 1.81-3.428 2.78-.403.133-.672.332-.807.597-.068.177.101.397.504.662 1.547.839 2.22 1.722 2.017 2.649l-3.126 12.183c-.54 2.076-1.043 3.533-1.512 4.37-.741 1.546-1.816 2.517-3.227 2.914-1.75.486-2.622.972-2.622 1.457 0 .662.57 1.192 1.714 1.589 1.142.397 2.252.596 3.328.596 2.42 0 4.1-.617 5.042-1.854.336 1.237 1.68 1.854 4.033 1.854 2.487 0 4.403-.551 5.748-1.655.336-.309.505-.573.505-.795 0-.397-.606-.795-1.816-1.192-1.21-.397-1.814-1.39-1.814-2.98 0-.882.234-2.317.705-4.304l1.21-4.171h12.201l1.11 4.171c.605 2.12.908 3.599.908 4.437 0 1.501-.623 2.45-1.866 2.847-1.245.397-1.865.795-1.865 1.192 0 .221.166.486.504.794 1.276 1.104 3.192 1.656 5.747 1.656 2.42 0 3.765-.618 4.034-1.854.941 1.236 2.622 1.854 5.042 1.854 2.554 0 4.167-.552 4.84-1.656.135-.22.202-.397.202-.53 0-.529-.841-1.014-2.521-1.456zm-22.285-18.143h-4.336l4.336-16.952 4.437 16.952h-4.437z"/></g></svg>