<svg xmlns="http://www.w3.org/2000/svg" viewBox="0 0 960 640" xml:space="preserve"><path fill="#010101" d="M712.802 514.167v11.824h-2.957v-11.824h-3.423v-2.938h9.803v2.938h-3.423zm16.023 11.824v-8.712l-2.49 5.427h-2.612l-2.49-5.427v8.712h-2.956V511.23h2.956l3.796 7.883 3.796-7.883h2.956v14.762h-2.956zM768.469 195.802c-4.525-14.908-16.479-26.006-36.545-33.927-3.52-1.39-7.397-2.718-11.574-3.967-10.68-15.534-23.138-30.64-35.468-42.969C630.11 60.166 557.283 30 479.822 30c-77.463 0-150.288 30.166-205.062 84.94-54.773 54.773-84.939 127.598-84.939 205.06s30.165 150.287 84.939 205.06C329.533 579.834 402.358 610 479.82 610s150.289-30.165 205.06-84.939c19.682-19.681 36.299-41.82 49.509-65.917l-.004.023h15.707v-33.68c13.092-33.555 19.728-69.03 19.728-105.487 0-28.266-4.023-56.088-11.969-82.86 9.213-9.65 15.525-25.169 10.617-41.338zM479.82 128.64c32.46 0 64.3 8.306 92.428 23.805a263.214 263.214 0 0 0-21.966 6.137c-9.4-3.741-17.948-6.868-25.043-9.463l-4.614-1.69c-53.609-19.751-112.372 23.225-118.96 28.24l-.204.156c-24.454 19.055-38.272 43.968-46.007 64.453l-14.75-13.332-29.087 32.712 40.996 37.523-63.985 14.748c4.246-101.786 88.38-183.29 191.192-183.29zm0 382.72c-30.952 0-61.69-7.556-88.89-21.854-20.03-10.529-38.19-24.699-53.377-41.55l136.886-39.272 43.423 39.744c10.446 9.561 24.01 14.607 38.151 14.211l52.535-1.475c-35.365 31.86-81.521 50.197-128.728 50.197zM654.98 397.163l-114.178 4.543a15.775 15.775 0 0 1-11.257-4.079l-4.281-3.869 130.198-38.492.136-.041c4.955-1.502 9.473-3.739 13.482-6.625-2.496 16.742-7.208 32.981-14.1 48.563z"/><path fill="#FFF" d="M765.59 205.939c-.16-1.092-1.944-1.289-1.944-1.289s-5.935-.437-8.477-.638a25.463 25.463 0 0 0-.859-3.913c-.11-.365-.246-.72-.371-1.079l3.182-3.182s2.014-2.138.617-3.7c-.736-.821-2.332 0-2.332 0s-1.775.997-3.694 2.072c-4.427-7.53-12.738-13.645-25.221-18.573-4.54-1.792-9.669-3.442-15.378-4.964-10.286-15.556-23.339-31.918-36.693-45.272-51.979-51.979-121.088-80.605-194.599-80.605-73.51 0-142.62 28.626-194.598 80.605-51.98 51.98-80.606 121.089-80.606 194.599 0 73.51 28.626 142.62 80.605 194.598 51.979 51.98 121.089 80.606 194.6 80.606 73.51 0 142.62-28.627 194.596-80.605 21.268-21.267 38.62-45.405 51.708-71.536l9.172-.257v-20.14c12.937-32.207 19.727-66.912 19.727-102.666 0-30.45-4.926-60.14-14.375-88.176l3.446-2.126.796-.661c3.951-3.278 9.321-10.12 10.338-18.774l7.802-1.582s2.86-.669 2.558-2.742zm-382.218 99.336L273.93 330.502c-.175-3.479-.264-6.98-.264-10.502 0-113.857 92.3-206.156 206.156-206.156 49.994 0 95.828 17.8 131.52 47.402-20.909 1.719-41.471 6.085-61.51 13.11-11.178-4.577-21.309-8.282-29.674-11.341-1.625-.594-3.176-1.161-4.645-1.702-47.005-17.316-102.483 24.3-104.821 26.08l-.134.103c-32 24.935-43.74 61.869-47.686 79.428l-21.02-18.998-9.484 10.665 51.005 46.684zm-54.683 54.18-39.48 39.185a204.597 204.597 0 0 1-11.757-39.184h51.237zm149.631 32.723 49.533 45.336a39.456 39.456 0 0 0 27.746 10.335l87.823-2.465c-37.752 48.313-97.573 80.772-163.6 80.772-69.148 0-130.338-34.046-167.737-86.286l166.236-47.692zm41.302 16.426-23.849-21.556 155.437-45.954.096-.029c12.193-3.695 20.292-13.741 22.804-28.287 1.465-8.484.574-16.074.398-17.394a100.733 100.733 0 0 0-4.644-19.881l9.854-6.08a206.551 206.551 0 0 1 6.26 50.577c0 32.902-7.721 63.996-21.43 91.59l-123.157 4.9a30.647 30.647 0 0 1-21.769-7.886zm205.812 26.475-165.004 4.658c-8.959.245-23.777-5.552-26.686-14.028l191.69-7.34v16.71z"/><g fill="#00205B"><path d="M740.23 320c0-27.639-4.292-54.615-12.533-80.183l-34.775 21.458c5.175 18.895 7.852 38.604 7.852 58.725 0 31.877-6.717 62.718-19.46 90.923l43.294-1.722c10.26-28.208 15.621-58.291 15.621-89.201z"/><path d="M662.168 444.858a223.384 223.384 0 0 1-26.11 31.379c-41.732 41.733-97.218 64.715-156.237 64.715-59.018 0-114.504-22.982-156.237-64.715a223.325 223.325 0 0 1-26.567-32.044l-27.298 7.831c-4.439-4.286-9.617-12.917-12.517-21.616l20.659-20.504c-12.444-27.928-18.992-58.412-18.992-89.904 0-59.019 22.983-114.505 64.715-156.237s97.219-64.715 156.237-64.715c57.422 0 111.494 21.761 152.813 61.373 8.383.033 16.81.466 25.275 1.341 11.824 1.223 22.422 2.658 31.898 4.313-7.597-10.172-16.847-21.21-25.85-30.211-49.183-49.185-114.578-76.272-184.136-76.272S344.87 86.679 295.685 135.864C246.5 185.048 219.413 250.442 219.413 320s27.087 134.952 76.271 184.136c49.185 49.185 114.58 76.272 184.137 76.272 69.559 0 134.953-27.087 184.136-76.272 18.185-18.184 33.34-38.59 45.231-60.597l-47.02 1.32z"/></g><path fill="#00965E" d="M656.318 284.183 540.483 358.4l106.532-31.496c16.276-4.932 12.823-29.592 12.823-29.592-.609-4.775-1.89-9.04-3.52-13.13zM393.833 294.91s69.412-85.63 133.702-113.394c-6.43-2.42-12.238-4.515-17.135-6.32-39.93-14.704-90.749 23.97-90.749 23.97-37.976 29.592-43.894 79.405-43.894 79.405l18.076 16.339z"/><path fill="#FFC72C" d="m343.622 344.66 20.172-19.987-86.184 19.987zM553.808 190.434a5.466 5.466 0 0 0-4.317-.213l-.022.008s-40.561 3.613-144.87 114.412l1.327 1.199 76.985 69.583 166.974-104.85c-13.72-23.795-73.712-69.278-96.077-80.139zM394.514 315.473l-3.391 2.863-64.858 64.374v-.002l-52.6 52.207 191.83-54.476z"/><path fill="#010101" d="M717.296 211.086s-4.686 0-5.426-4.521c-.74-4.521 4.932-4.686 4.932-4.686s14.542-1.017 20.95-1.45c-6.308-8.586-26.668-18.342-81.767-24.042-32.075-3.318-60.69.114-85.278 6.765 45.592 22.476 76.737 60.428 90.595 79.909l26.696-16.474c-8.275-11.526-14.4-8.529-17.113-9.773-1.973-.904-4.193-3.02-3.453-6.576.822-3.945 5.754-3.617 5.754-3.617 10.934.238 19.975 9.236 24.147 14.206l37.712-23.27s3.083-2.56 4.482-6.471h-22.231zm-26.88 2.383c-11.508 0-10.603-4.356-10.603-4.356 0-5.056 10.603-5.508 10.603-5.508s10.358.042 10.358 5.097c0 0 1.15 4.767-10.358 4.767z"/></svg>