<svg xmlns="http://www.w3.org/2000/svg" viewBox="0 0 960 640" xml:space="preserve"><path fill="#010101" d="M637.902 612.749v11.824h-2.957v-11.824h-3.422v-2.938h9.802v2.938h-3.423zm16.023 11.824v-8.713l-2.49 5.428h-2.611l-2.49-5.427v8.712h-2.957v-14.762h2.956l3.797 7.883 3.795-7.883h2.957v14.762h-2.957z"/><path fill="#C8102E" d="M668.306 87.084C622.959 30.113 557.844 0 480 0c-77.844 0-142.958 30.113-188.305 87.084-44.796 56.28-68.474 136.82-68.474 232.914 0 96.098 23.678 176.64 68.474 232.92C337.041 609.889 402.155 640 480 640c77.845 0 142.96-30.113 188.305-87.081 44.797-56.28 68.474-136.823 68.474-232.92 0-96.095-23.677-176.636-68.473-232.915zM353.849 319.998c0-41.01 3.98-99.797 22.946-146.973 9.807-24.397 22.712-43.346 38.356-56.322C432.827 102.043 454.645 94.61 480 94.61c25.355 0 47.174 7.434 64.851 22.095 15.644 12.975 28.55 31.924 38.357 56.321 18.964 47.175 22.945 105.963 22.945 146.973 0 41.01-3.98 99.799-22.945 146.975-9.807 24.399-22.713 43.35-38.356 56.325-17.678 14.661-39.496 22.096-64.852 22.096-25.354 0-47.173-7.434-64.849-22.096-15.644-12.976-28.55-31.926-38.356-56.325-18.965-47.178-22.946-105.966-22.946-146.975z"/><path fill="#FFF" d="M480 10.156c-152.125 0-246.623 118.726-246.623 309.842 0 191.127 94.498 309.846 246.623 309.846 152.126 0 246.623-118.72 246.623-309.846 0-191.116-94.497-309.842-246.623-309.842zm0 545.394c-118.6 0-136.307-147.586-136.307-235.552 0-87.969 17.706-235.545 136.307-235.545 118.606 0 136.309 147.576 136.309 235.545 0 87.966-17.703 235.552-136.31 235.552z"/><path fill="#010101" d="M706.585 319.998c0-160.105-70.24-289.804-226.585-289.804-156.343 0-226.588 129.7-226.588 289.804 0 160.107 70.245 289.813 226.588 289.813 156.346 0 226.585-129.706 226.585-289.813zm-382.928 0c0-141.144 43.323-255.58 156.343-255.58 113.021 0 156.346 114.436 156.346 255.58 0 141.153-43.325 255.588-156.346 255.588-113.02 0-156.343-114.435-156.343-255.588z"/></svg>