<svg xmlns="http://www.w3.org/2000/svg" viewBox="0 0 960 640" xml:space="preserve"><path d="M743.822 571.743v11.825h-2.957v-11.825h-3.423v-2.937h9.802v2.937h-3.422zm16.022 11.825v-8.713l-2.49 5.428h-2.611l-2.49-5.428v8.713h-2.956v-14.762h2.955l3.797 7.883 3.795-7.883h2.957v14.762h-2.957zM680.038 439.806C715.05 406.964 736 365.32 736 320c0-31.44-10.077-61.113-27.938-87.305l82.981-101.626c-15.538-17.846-33.318-34.305-53.224-49.234C667.456 29.063 575.894 0 480 0S292.544 29.063 222.18 81.835c-19.905 14.93-37.685 31.388-53.223 49.234l82.98 101.626C234.078 258.887 224 288.561 224 320c0 45.319 20.948 86.963 55.96 119.804l-81.51 99.823 17.088 13.431a367.54 367.54 0 0 0 6.642 5.106C292.546 610.937 384.107 640 480 640s187.455-29.063 257.82-81.836c2.16-1.62 4.333-3.29 6.643-5.107l17.085-13.431-81.508-99.822-.002.002z"/><g fill="#F2A900"><path d="M234.98 541.097c66.696 50.021 153.712 77.57 245.02 77.57 91.308 0 178.324-27.549 245.02-77.57a347.163 347.163 0 0 0 6.259-4.811l-67.488-82.65C617.262 489.623 552.12 512 480.002 512c-72.12 0-137.263-22.376-183.793-58.365l-67.487 82.651a346.425 346.425 0 0 0 6.26 4.812zM480 128c89.921 0 169.001 34.778 214.666 87.37l68.135-83.442c-11.504-11.743-24.158-22.808-37.782-33.026C658.324 48.882 571.31 21.333 480 21.333s-178.325 27.548-245.02 77.57c-13.624 10.217-26.278 21.282-37.781 33.024l68.135 83.444C310.999 162.778 390.079 128 480 128zM574.82 414.529l-12.897 1.687c5.363 4.532 9.226 4.043 12.897-1.687zM416.675 402.908c-3.822-2.906-7.907-5.466-12.094-8.287-3.834 5.592-6.35 12.983-4.352 20.247 1.408 5.116 6.962 6.947 10.698 3.166 3.07-3.107 5.644-7.101 7.143-11.304.917-2.57-.447-3.1-1.395-3.822z"/><path d="M648.22 201.302C603.535 167.79 543.793 149.333 480 149.333c-63.795 0-123.536 18.457-168.22 51.97-42.849 32.136-66.447 74.29-66.447 118.697s23.598 86.56 66.448 118.698c44.683 33.513 104.425 51.969 168.22 51.969 63.793 0 123.535-18.456 168.218-51.97 42.85-32.136 66.448-74.29 66.448-118.697s-23.599-86.56-66.448-118.698zm17.276 185.82a102.402 102.402 0 0 1-2.969 4.166c-10.65 14.183-11.88 14.664-29.304 16.396-14.266 1.417-28.486 3.317-42.706 5.157-1.06.138-2.532 1.338-2.846 2.345-2.711 8.712-7.726 15.105-17.29 16.01-9.512.902-16.612-3.755-21.992-11.326-.404-.57-.818-1.131-1.348-1.863-2.895 2.565-2.665 4.603-.552 7.204 6.673 8.21 10.846 10.817 22.004 12.984-6.278 6.759-20.124 6.891-33.246 0-1.491 2.603-3.361 5.107-4.46 7.913-5.075 12.961-15.532 18.16-28.339 20.138-12.409 1.917-24.654 1.177-36.645-2.568-8.147-2.544-14.841-6.921-18.585-15.09-1.822-3.974-4.27-7.662-6.676-11.905-6.871 5.136-14.17 9.137-22.806 7.306-4.8-1.017-9.307-3.404-13.947-5.173l.43-1.191c3.167-.322 6.487-.147 9.472-1.062 8.025-2.46 12.645-8.989 16.554-15.777.808-1.403-1.215-4.436-2.039-7.054-2.592 3.628-4.406 6.875-6.884 9.492-5.742 6.063-12.734 9.43-21.094 6.336-8.295-3.07-10.796-10.43-11.578-18.394-.791-8.069 1.83-15.367 6.49-22.25-8.924-3.535-17.522-6.754-25.975-10.319-33.046-13.937-63.797-31.737-91.682-54.418-3.594-2.923-4.988-6.123-4.995-10.543-.024-15.323 4.457-29.402 11.67-42.692 18.347-33.807 46.274-57.028 80.848-72.883 28.943-13.273 59.329-20.935 90.986-23.903 41.938-3.932 82.834.42 122.238 15.69 36.55 14.165 67.11 36.44 89.294 69.117 26.333 38.788 25.348 87.63-2.028 128.158z"/></g><g fill="#FFF"><path d="M399.445 322.074c3.437 11.822 6.554 23.384 14.304 32.496 5.788 6.807 9.581 14.657 14.4 21.95 5.313 8.039 7.9 16.468 6.714 26.047-.15 1.213.094 2.475.236 5.36 4.166-3.107 8.057-5.065 10.62-8.132 4.441-5.312 7.966-11.38 12.058-16.998 2.616-3.591 5.562-6.942 8.36-10.4l.918.668c-.586 1.05-1.174 2.097-1.756 3.147-2.363 4.262-2.184 5.741 2.426 6.674 4.43.896 6.43 3.506 7.997 7.098 1.961 4.496 5.917 4.913 10.01 4.698 3.788-.2 7.362-1.007 8.714-5.367.869-2.798 2.522-4.693 5.389-6.016 4.64-2.141 4.868-3.448 2.44-7.918-1.118-2.06-2.521-3.965-4.184-6.541 8.925 3.32 15.566 8.71 21.081 15.443 4.765 5.818 8.99 12.076 13.64 17.992 3.02 3.844 6.377 7.424 9.583 11.122.021-4.972-.982-9.388-1.247-13.848-.526-8.842-.23-17.27 7.119-24.214 6.31-5.962 9.277-14.147 11.088-22.639.438-2.055 1.04-4.13 1.929-6.026 4.46-9.526 6.51-19.54 6.74-30.344-56.762-12.397-112.741-11.407-168.579 5.748zm64.28 21.077c-1.554 5.128-3.764 10.079-5.959 14.985-3.404 7.61-9.594 10.145-17.48 7.428-14.925-5.143-26.075-25.428-22.342-40.677.13-.527.456-1.005.833-1.81l47.283 6.862c-.767 4.563-1.07 9.034-2.336 13.212zm90.925-15.265c-8.561-7.013-17.99-9.03-29.343-5.96 8.328 1.488 16.156 1.62 22.679 6.209-7.204 11.067-25.452 10.17-39.427 4.504l1.256-7.048-9.734 7.102c6.284 16.23 26.232 19.773 50.896 8.871-2.81 5.074-5.12 9.484-7.71 13.725-.543.89-2.086 1.575-3.208 1.638-7.775.433-15.56.828-23.343.864-1.767.008-3.82-1.104-5.262-2.284-5.345-4.372-10.49-8.989-15.2-13.072-.363 4.372-.855 10.32-1.347 16.27l-.955.068c-1.254-7.69-2.525-15.379-3.757-23.073-.946-5.913-3.08-7.511-9.159-6.91-3.72.37-5.787 1.986-6.153 6.048-.699 7.752-1.822 15.465-2.77 23.195l-1.438-.004c0-8.08.034-16.16-.01-24.24-.037-6.695-.08-6.688-6.67-8.658-2.54-.76-5.07-1.556-7.605-2.336l.277-.746c3.244.294 6.504.463 9.726.913 4.385.613 8.161.476 8.33-6.65 1.029 1.976 1.484 2.703 1.796 3.487.364.917.603 1.883.875 2.758 11.091 1.901 11.666 1.614 19.934-10.42l-.891 6.78c5.687-2.089 11.51-5.049 17.68-6.311 11.244-2.301 22.373-.32 33.028 3.65 6.056 2.255 7.9 5.454 7.505 11.63zm-12.697 9.579c-4.32 5.134-12.287 6.257-19.067 2.778l19.067-2.778z"/><path d="M529.503 431.553c-4.216-4.605-8.428-9.24-12.974-13.508-4.09-3.84-8.483-7.394-13.016-10.698-1.377-1.003-3.692-1.146-5.529-1.013-6.298.457-12.549 3.166-18.892.74-6.78-2.591-11.88.279-16.427 4.75-4.755 4.678-9.321 9.555-13.793 14.505-.747.827-1.076 2.597-.778 3.713 3.832 14.371 13.23 23.362 27.94 28.164.998-6.947 3.549-12.151 11.154-13.227 1.592 6.725 4.738 12.048 12.06 13.346 5.795 1.027 11.298.36 16.26-3.17 7.203-5.121 11.768-12.225 15.106-20.19.358-.856-.354-2.584-1.11-3.411zm-33.787-9.085c-6.583-2.116-13.067-1.864-19.65-.32-3.48.815-6.702.814-8.674-3.73h38.134c-3.131 4.542-6.466 5.125-9.81 4.05zM401.73 316.04c47.696-13.89 96.117-16.439 145.124-8.579 7.524 1.207 15.033 2.51 21.738 3.633l10.195-15.513c.007.008-.217-.374-.544-.62a70.273 70.273 0 0 0-3.126-2.223c-15.64-10.506-32.94-17.195-51.058-21.862-41.12-10.592-82.61-11.2-124.29-3.944-9.468 1.649-18.797 4.1-28.707 6.297 1.12 2.072 1.818 3.428 2.573 4.75 6.553 11.472 13.299 22.838 19.574 34.46 2.127 3.937 4.04 4.905 8.52 3.6zM412.47 364.158c-2.695-4.403-4.71-9.222-7.056-13.898-1.218-1.104-1.9 1.28-2.738 1.844 1.093-7.254.95-12.995-.676-12.995-12.484 2.35-16.466 9.366-12.43 19.812.557 1.441 1.385 2.794 2.205 4.115 7.036 11.347 16.272 20.748 26.086 29.667 1.355 1.232 2.658 3.124 2.91 4.865 1.063 7.347-.702 14.131-5.351 19.987-3.339 4.205-7.918 5.71-12.039 4.268-3.843-1.344-6.315-5.255-6.425-10.61-.207-10.107 3.579-18.217 12.185-23.5l-3.324-4.314c-12.297 6.363-18.397 24.162-12.79 36.074 3.116 6.616 10.3 9.897 17.446 7.984 5.6-1.498 9.686-5.162 11.994-10.151 2.456-5.306 3.863-11.097 5.855-17.056 5.028-.9 5.607-2.802 2.29-7.785-6.21-9.33-12.294-18.75-18.142-28.307zM573.806 322.797c2.305 5.93 7.988 7.662 13.082 3.84 5.04-3.78 6.931-9.144 7.19-15.32-.21-4.175-.989-8.185-5.083-10.524-3.106-1.774-6.074-.885-8.793.979-6.033 4.134-9.055 14.186-6.396 21.025zM567.274 375.774l-3.573 6.967c.896.414 1.506.698 2.117.979 10.201 4.684 16.125 17.933 12.822 28.678-3.054 9.936-11.985 12.253-19.38 4.924-5.57-5.52-7.99-12.422-7.367-20.129.193-2.396 1.846-4.79 3.207-6.949 1.806-2.864 4.163-5.381 5.96-8.25a1155.288 1155.288 0 0 0 14.57-23.91c1.511-2.545 2.986-5.215 3.849-8.02 2.464-8.012-.318-14.164-7.975-17.755-.264.78-.496 1.296-.613 1.836-4.162 19.125-10.534 37.126-25.238 51.083-1.1 1.043-1.368 3.296-1.438 5.01-.107 2.64.472 5.303.443 7.953-.114 10.356 2.993 19.367 11.187 26.038 10.833 8.818 25.403 4.396 29.109-9.03 3.437-12.452.43-23.675-8.556-32.975-2.444-2.53-5.819-4.16-9.124-6.45z"/><path d="M597.43 332.556c-1.24-2.562-3.918-4.528-7.432-3.44-3.568 1.105-7.14 2.194-10.83 3.327 3.04 4.314 5.395 9.316 4.339 15.335-1.13 6.432-.116 8.961 5.815 11.88 4.088 2.011 8.628 3.104 12.27 4.367-.427-7.253-.58-13.952-1.306-20.589-.405-3.707-1.247-7.56-2.856-10.88zM515.425 201.562c-.64-9.626-8.787-14.978-20.106-14.323-10.12.585-19.43 7.375-21.701 15.788-.76 2.812-.81 4.99 2.42 6.662 4.336 2.247 7.05 5.8 5.717 10.49-.367 6.631.793 8.17 5.83 8.84 3.333.443 5.374-1.31 7.039-3.804 3.652-5.474 8.418-9.137 15.213-9.757.847-.077 2.134-.772 2.35-1.455 1.297-4.108 3.509-8.373 3.238-12.441zm-32.732 4.075c-2.418-1.983-1.697-4.483.16-7.073l8.09 5.596c-2.99 2.433-5.613 3.64-8.25 1.477zm10.192 7.888c-.664-.647-1.174-1.13-1.416-1.357a.355.355 0 0 0-.362-.074c-1.535.513-3.075.65-3.075.65-.894-.293 3.06-3.55 4.118-4.404a.363.363 0 0 1 .542.094c.757 1.279 1.032 5.91.192 5.091zm10.424-4.138c-2.823.646-4.945-.483-5.82-4.133l10.696-2.731c-.178 3.825-1.673 6.13-4.876 6.864z"/><path d="M519.893 212.541c.228 2.369.356 3.708-.142 7.05.243-.123 1.665 1.126 1.908 1.003 2.074 1.913 2.192 3.437 1.422 5.217-1.616 3.735-5.492 3.817-9.22 2.404-.834-.316-1.952-.445-2.766-.162-4.812 1.67-6.91 2.488-14.84 5.436-.041 2.102 5.892 7.912 8.976 11.509 1.507 1.758 2.5.9 3.804.933 3.626.091 5.57 1.952 5.898 5.418.321 3.399-1.99 5.54-5.703 6.057-2.492-.481-2.848-1.264-3.68 1.912-2.356 2.26-4.904 2.985-7.7 1.255-2.608-1.614-2.434-4.014-1.715-6.778.408-1.567.118-3.837-.794-5.128-2.775-3.929-5.364-9.37-9.248-10.732-3.586-1.257-8.756 1.987-13.222 3.266-1.91.547-3.792 1.2-5.715 1.696-2.305.594-3.8 1.47-4.537 4.217-.407 1.513-3.47 3.528-4.918 3.237-1.764-.355-5.099-2.407-4.555-4.527.472-1.842 1.68-3.264-1.782-3.666-2.029-1.942-2.83-3.955-1.294-6.408 1.77-2.826 4.756-3.987 7.295-2.069 3.014 2.278 5.5 1.281 8.288.357 2.156-.716 4.303-1.461 6.447-2.213 3.986-1.4 7.634-2.59 12.087-.312 4.915 2.514 9.313 1.008 12.893-4.007 3.424-4.798 7.571-7.908 13.625-8.385 1.304-.102 2.762-1.227 3.701-2.28 1.375-1.541 2.345-3.442 3.488-5.19.72-.711 1.644-.38 2 .89z"/><path d="M477.469 226.517c-2.778-3.003-5.157-5.592-7.555-8.163-2.751-2.95-5.071-6.197-9.84-6.622-1.649-.147-4.563-1.67-4.563-4.755.951-4.454 5.888-2.006 7.565-3.03 1.51-.923 1.56-3.883 3.128-4.686 1.503-.77 2.632-1.074 3.596 0 .813 1.343.591 2.759.358 4.042-.743 4.081-1.066 7.396 3.844 9.66 4.904 2.26 4.415 7.14 3.467 13.554z"/></g><path d="m325.71 546.288 23.403-42.163-41.185-22.876-38.576 68.923 18.387 9.948 15.172-26.761 22.798 12.929zm-16.176-24.517 9.381-17.864 7.115 3.736-9.382 17.864-7.114-3.736zM355.336 589.69l-19.659-6.884 25.972-74.167 19.658 6.884zM615.46 569.956l-6.741-18.674 12.266-4.428-4.948-13.705-12.266 4.428-5.272-14.6 12.267-4.43-4.852-13.437-12.266 4.43-19.592 7.072 26.686 73.913 19.592-7.073 12.266-4.429-4.873-13.496zM441.606 527.707l-17.333-3.247-.002-.02-22.166-4.104-6.906-1.278-14.303 77.27 19.818 3.669 5.56-30.037 1.403.26 3.647 32.644 19.815 3.353-2.7-32.154 4.434.821 8.733-47.177zm-24.73 29.937-8.046-1.49 3.702-19.998 8.046 1.49-3.702 19.998zM563.397 600.121l-12.38-64.245 12.747-2.457-2.542-13.19-46.904 9.037 2.541 13.192 13.705-2.641 12.38 64.245zM691.562 549.96l-23.876-43.512-16.187 8.882-7.525-13.714 14.691-8.06-6.775-12.349-23.575 12.937-9.917 5.441 21.51 39.197 16.185-8.882 9.894 18.03-14.692 8.06 6.776 12.349 14.691-8.062zM490.808 608.22l21.303-.604-19.39-78.717-1.813.039-20.56.31-16.057 79.465 21.31-.295 1.24-6.442 12.626.42 1.34 5.824zm-11.31-20.03 3.052-15.845 3.699 16.07-6.752-.225zM284.729 141.155l-30.436-37.404-36.55 29.724 49.635 61.44 16.07-13.368-19.2-24.036 20.48-16.356zm-28.774 5.9-13.094-15.353 6.114-5.214 13.094 15.352-6.114 5.214zM322.818 152.668l-17.832 10.764-40.611-67.275 17.831-10.764zM726.17 119.973l-14.192 17.535L706 132.67l14.192-17.535L704 102.03l-49.436 61.084 16.191 13.104 26.234-32.415 5.978 4.838-26.234 32.415 16.191 13.104 49.437-61.085zM568.024 42.517l-20.619-2.956-9.04 63.048-7.86-1.127 9.04-63.048-20.618-2.957-11.154 77.787 14.227 2.04 15.834 2.27 19.036 2.73zM627.813 59.85l-16.82-5.297v-.02l-21.516-6.727-6.703-2.095-23.447 75.003 19.237 6.014 9.114-29.156 1.362.426-.285 32.846 19.271 5.7 1.167-32.246 4.304 1.346 14.316-45.793zm-28.135 26.763-7.81-2.442 6.068-19.411 7.81 2.442-6.068 19.411zM504.673 64.739l.228-31.246-17.633-.172-.006-.02-22.542-.17-7.023-.054-1.448 79.99 48.652.075V75.697l-5.06-5.207 4.832-5.751zm-18.816 33.503h-8.107V77.89h8.107v20.35zm0-34.803-8.183-.062.076-16.258 8.183.061-.076 16.26zM356.062 136.557l-26.496-59.823 11.87-5.257-5.44-12.283L292.32 78.54l5.44 12.282 12.761-5.652 26.496 59.823zM399.623 122.09l-17.64-63.005 12.5-3.5-3.622-12.937-45.999 12.88 3.622 12.936 13.44-3.763 17.64 63.004zM452.617 113.538l-6.103-49.256-18.322 2.27-1.924-15.524 16.63-2.06-1.732-13.978-26.686 3.306-11.226 1.391 5.498 44.371 18.323-2.27 2.528 20.41-16.63 2.06 1.732 13.978 16.63-2.061zM655.504 107.841l-15.649 29.8-3.803-1.998 23.417-44.592 3.803 1.997-.003.006 18.44 9.684 6.512-12.399-28.863-15.156-11.823-6.209L611 138.547l18.442 9.684 3.803 1.998 18.44 9.683 22.26-42.387z"/></svg>