<svg xmlns="http://www.w3.org/2000/svg" viewBox="0 0 960 640" xml:space="preserve"><g fill="#0033A0"><path d="M675.236 622.769v11.824h-2.957v-11.824h-3.423v-2.938h9.802v2.938h-3.422zm16.023 11.824v-8.713l-2.49 5.428h-2.612l-2.49-5.428v8.713h-2.956V619.83h2.956l3.796 7.883 3.796-7.883h2.956v14.762h-2.956z"/><path d="M766.418 300.458C766.418 134.52 638.184 0 480 0S193.582 134.52 193.582 300.458 321.815 600.917 480 600.917c4.921 0 9.813-.131 14.673-.389L530.683 640h131.041l-61.1-66.973c97.906-47.761 165.794-151.84 165.794-272.569zm-229.62 202.608-51.98-56.976h-131.04l41.397 45.376c-66.568-34.052-112.673-106.868-112.673-191.008C282.502 183.816 371.1 88.921 480 88.921c108.9 0 197.498 94.895 197.498 211.537 0 95.502-59.399 176.412-140.7 202.608z"/></g></svg>