<svg xmlns="http://www.w3.org/2000/svg" viewBox="0 0 960 640" xml:space="preserve"><path fill="#C8102E" d="M860.33 559.176V571h-2.958v-11.824h-3.422v-2.938h9.802v2.938h-3.423zM876.351 571v-8.713l-2.49 5.428h-2.612l-2.49-5.427V571h-2.956v-14.762h2.956l3.796 7.883 3.796-7.883h2.956V571h-2.956z"/><path fill="#FFF" d="M774.833 435.91c16.884-11.925 27.941-31.575 27.941-53.772 0-36.28-29.519-65.797-65.803-65.797-36.286 0-65.807 29.516-65.807 65.797 0 22.197 11.058 41.847 27.943 53.772h-28.938L518.309 69H367.816C229.731 69 80.692 186.777 80.692 377.054V571h310.09V440.703c0-18.306 14.891-33.2 33.195-33.2 18.309 0 33.204 14.895 33.204 33.2V571h384.63V435.91h-66.978z"/><g fill="#0072CE"><path d="M668.188 560 469.536 80H367.817C235.021 80 91.692 193.566 91.692 377.054V560h288.09V440.703c0-24.372 19.825-44.2 44.194-44.2 24.372 0 44.205 19.828 44.205 44.2V560h200.007zM423.977 368.282c-39.932 0-72.42 32.485-72.42 72.42v91.076H119.913V377.054c0-166.052 128.686-268.83 247.903-268.83h80.792l175.298 423.554H496.401v-91.075c0-39.936-32.487-72.421-72.424-72.421z"/><ellipse cx="736.97" cy="382.14" rx="54.805" ry="54.802"/></g><g fill="#C8102E"><path d="M367.817 118.536c-118.674 0-237.595 103.182-237.595 258.518v144.412h211.022v-80.763c0-45.695 37.046-82.735 82.733-82.735 45.693 0 82.736 37.04 82.736 82.735v80.763h91.096l-166.766-402.93h-63.226zM662.816 446.91 510.956 80h-29.362l198.663 480h150.554V446.91z"/></g></svg>