<svg xmlns="http://www.w3.org/2000/svg" viewBox="0 0 960 640" xml:space="preserve"><g fill="#003087"><path d="M667.902 627.849v11.824h-2.957v-11.824h-3.422v-2.938h9.802v2.938h-3.423zm16.023 11.824v-8.713l-2.49 5.428h-2.611l-2.49-5.427v8.712h-2.957v-14.762h2.956l3.797 7.883 3.795-7.883h2.957v14.762h-2.957zM191.422 0l-5 170.275h88.073l4.207-59.28a12.03 12.03 0 0 1 12-11.179H404.22c11.046 0 20 8.955 20 20v410.367c0 5.523-4.477 10-10 10H309.725V640h340.55v-99.817H545.78c-5.523 0-10-4.477-10-10V119.817c0-11.046 8.954-20 20-20h113.518a12.03 12.03 0 0 1 12 11.178l4.207 59.28h88.073L768.578 0H191.422z"/></g></svg>