<svg xmlns="http://www.w3.org/2000/svg" viewBox="0 0 960 640" xml:space="preserve"><path fill="#046A38" d="M907.764 524.377v11.825h-2.957v-11.825h-3.423v-2.937h9.802v2.937h-3.422zm16.023 11.825v-8.713l-2.49 5.428h-2.612l-2.49-5.428v8.713h-2.956V521.44h2.956l3.796 7.883 3.795-7.883h2.957V536.2h-2.956z"/><g fill="#FFF"><path d="M560.458 353.952v50.739h13.36v-17.8s11.385 8.162 17.6 8.162c3.016 0 5.043-1.744 5.043-4.344 0-7.868-25.876-9.705-25.876-34.149 0-.905.163-1.735.233-2.608h-10.36z"/><path d="m675.856 234.206-10.272 32.453-14.19-4.488-21.912 69.258-35.374-11.19 21.912-69.263-14.191-4.49 8.597-27.172h-12.281l-14.254 97.27-33.85-4.96-5.002-24.007-3.34 22.783-36.707-5.377 12.56-85.71H499.56c4.824 9.486 7.164 20.926 7.16 32.35.005 27.373-13.207 54.995-42.726 54.998-29.521-.003-42.736-27.625-42.73-54.997 0-11.425 2.336-22.865 7.163-32.35h-18.312c2.822 4.61 4.725 10.233 5.632 16.939 1.78 13.133-3.298 22.355-9.806 27.724l26.79 39.749-40.566 5.492-7.562-14.301 2.04 15.049-36.769 4.977-12.949-95.63H33.257v185.378h280.892v-17.8s11.386 8.162 17.599 8.162c3.018 0 5.041-1.744 5.041-4.343 0-7.87-25.871-9.706-25.871-34.15 0-16.045 11.23-27.252 27.305-27.252 11.136 0 19.802 5.575 19.802 5.575v26.83s-9.933-9.498-17.02-9.498c-3.765 0-3.765 1.69-3.765 2.921 0 8.235 25.876 11.664 25.876 34.24 0 5.846-1.423 11.017-3.962 15.315H418.3V330.54h25c26.108 0 31.588 14.845 31.588 27.296 0 12.232-5.337 26.74-30.267 27.25v19.605h22.345l19.44-74.151h25.875l19.44 74.15h2.414v-50.738h-13.571V330.54h53.469v12.196c4.472-8.249 13.009-13.428 23.859-13.428 11.138 0 19.804 5.575 19.804 5.575v26.83s-9.935-9.498-17.019-9.498c-3.767 0-3.767 1.69-3.767 2.921 0 8.235 25.875 11.664 25.875 34.241 0 5.846-1.422 11.016-3.96 15.314h272.974V219.313H628.79l47.067 14.893zM33.257 184.525h858.542v9.226H33.257zM33.257 430.252h858.542v9.226H33.257z"/></g><g fill="#046A38"><path d="M33.257 219.313h303.668l12.95 95.63 36.768-4.978-2.04-15.048 7.562 14.301 40.567-5.492-26.79-39.75c6.507-5.368 11.585-14.59 9.805-27.723-.907-6.706-2.81-12.33-5.632-16.94h18.313c-4.828 9.486-7.164 20.926-7.164 32.35-.005 27.373 13.209 54.995 42.73 54.998 29.52-.003 42.732-27.625 42.727-54.997.003-11.425-2.336-22.865-7.16-32.35h17.992l-12.56 85.709L541.7 310.4l3.34-22.783 5.001 24.008 33.85 4.958 14.254-97.27h12.281l-8.597 27.173 14.192 4.49-21.912 69.263 35.374 11.19 21.912-69.258 14.19 4.488 10.272-32.453-47.067-14.893H891.8V193.75H33.256v25.563z"/><path d="M736.805 332.355c15.109-22.828 19.336-53.153-5.283-69.446-24.62-16.29-50.88-.546-65.985 22.282-15.11 22.826-19.336 53.154 5.28 69.445 24.62 16.29 50.881.548 65.988-22.281zM312.493 328.046c28.106-9.028 32.24-39.367 23.865-65.43-8.367-26.06-29.394-48.32-57.501-39.295-28.106 9.03-32.239 39.368-23.865 65.43 8.367 26.064 29.394 48.32 57.501 39.295zM33.257 439.478h858.542v96.724H33.257zM33.257 103.799h858.542v80.726H33.257zM399.436 397.856v-43.904h13.573V330.54h-53.468v23.412h13.57v43.904h26.325zM221.49 246.265l-55.665 37.056 18.86 28.335 12.389-8.247 40.25 60.47 30.888-20.554-40.251-60.474 12.39-8.248-18.861-28.338z"/><path d="M622.785 389.377c0-22.576-25.875-26.006-25.875-34.24 0-1.233 0-2.922 3.767-2.922 7.084 0 17.019 9.498 17.019 9.498v-26.83s-8.666-5.575-19.804-5.575c-10.85 0-19.387 5.18-23.86 13.428V330.54h-53.468v23.412h13.571v50.739h-2.414l-19.44-74.151h-25.875l-19.44 74.15h-22.345v-19.603c24.93-.511 30.267-15.019 30.267-27.25 0-12.452-5.48-27.297-31.589-27.297H418.3v74.15h-59.146c2.539-4.297 3.961-9.467 3.961-15.313 0-22.576-25.875-26.006-25.875-34.24 0-1.233 0-2.922 3.765-2.922 7.086 0 17.02 9.498 17.02 9.498v-26.83s-8.667-5.575-19.803-5.575c-16.075 0-27.305 11.207-27.305 27.252 0 24.444 25.872 26.28 25.872 34.15 0 2.599-2.023 4.343-5.042 4.343-6.213 0-17.598-8.162-17.598-8.162v17.8H33.257v25.56h858.542v-25.56H618.825c2.537-4.298 3.96-9.469 3.96-15.314zm-62.327-35.425h10.36c-.07.873-.233 1.704-.233 2.608 0 24.444 25.875 26.28 25.875 34.15 0 2.599-2.026 4.343-5.043 4.343-6.215 0-17.598-8.162-17.598-8.162v17.8h-13.361v-50.739z"/></g><g fill="#FFF"><path d="M290.619 255.917c-.69-.355-1.988.064-2.344.751-1.677 3.267-.839 11.794 2.045 20.742 2.863 8.942 7.148 16.362 10.413 18.04.686.355 1.987-.061 2.342-.75 1.677-3.268.84-11.794-2.04-20.734-2.87-8.952-7.149-16.37-10.416-18.049zM600.747 316.788l25.286 8.002 21.914-69.26 14.191 4.487 7.076-22.363-53.669-16.982-7.075 22.367 14.193 4.492zM557.411 219.313l1.898 9.119 1.338-9.119z"/><path d="m524.928 205.466-13.935 95.088 26.243 3.845 6.898-47.079 10.333 49.604 24.959 3.66 13.931-95.09-26.241-3.845-6.897 47.081-10.334-49.604zM465.22 272.028c2.598-2.596 4.407-10.972 4.402-20.364.005-9.398-1.804-17.772-4.402-20.37-.546-.546-1.91-.546-2.458 0-2.598 2.598-4.405 10.972-4.397 20.37-.008 9.392 1.8 17.768 4.397 20.364.546.55 1.912.55 2.458 0z"/><path d="M463.994 301.37c26.904-.003 37.443-26.257 37.437-49.706.006-23.455-10.533-49.707-37.437-49.709-26.908.002-37.443 26.254-37.442 49.709-.001 23.45 10.534 49.703 37.442 49.706zm0-75.96c10.007-.004 10.922 20.26 10.917 26.254.005 5.989-.91 26.257-10.917 26.248-10.013.009-10.926-20.26-10.921-26.248-.005-5.994.908-26.258 10.92-26.254zM377.197 237.216c-.11-.078-.302-.086-.427-.148l1.187 8.766c.106-.094.287-.152.371-.256.884-1.053.841-2.944.654-4.344-.189-1.403-.654-3.237-1.785-4.018z"/><path d="M410.507 236.962c-3.573-26.358-22.868-29.45-42.716-26.762l-26.28 3.558 12.898 95.234 26.282-3.557-5.326-39.318 19.751 37.363 28.472-3.854-24.98-37.061c3.12-1.548 14.235-8.344 11.9-25.603zm-36.983 15.559-2.806-20.718c6.656-1.551 12.376.379 13.507 8.718 1.131 8.338-3.871 11.722-10.701 12zM280.474 228.357c-25.614 8.232-27.616 36.449-20.446 58.778 7.173 22.327 25.23 44.101 50.848 35.875 25.617-8.231 27.619-36.446 20.448-58.775-7.17-22.33-25.23-44.102-50.85-35.878zm23.23 72.319c-9.53 3.07-16.596-15.946-18.424-21.654-1.835-5.704-7.163-25.278 2.367-28.332 9.53-3.066 16.596 15.95 18.423 21.656 1.838 5.702 7.168 25.276-2.366 28.33zM233.015 273.13l-12.995-19.526-46.862 31.19 12.999 19.528 12.389-8.251 40.254 60.475 22.077-14.697-40.251-60.47zM331.748 399.61c-5.079 0-9-2.149-13.043-4.612v14.513c3.923 2.571 9.928 3.895 14.789 3.895 16.165 0 25.062-10.325 25.062-24.03 0-20.849-25.872-21.565-25.872-34.24 0-4.704 3.003-7.477 8.322-7.477 4.721 0 9 2.169 12.463 4.821v-14.822c-4.74-2.452-9.698-3.794-15.247-3.794-14.788 0-22.75 10.535-22.75 22.696 0 22.678 25.873 21.502 25.873 34.15 0 5.098-4.052 8.9-9.597 8.9zM377.668 374.553h17.213v-25.157h13.573v-14.3h-44.358v14.3h13.572zM377.668 379.706h17.213V393.3h-17.213zM448.562 357.836c0-4.103-1.327-5.306-3.94-5.56V363.4c2.613-.254 3.94-1.456 3.94-5.563z"/><path d="M443.3 380.577c9.819 0 27.029-1.871 27.029-22.74 0-20.87-17.21-22.742-27.03-22.742h-20.445v77.08h17.213v-31.598h3.233zm-3.233-32.917h3.232c4.616 0 9.82 1.726 9.82 10.176s-5.204 10.177-9.82 10.177h-3.232V347.66zM498.187 382.058h2.313l-1.157-6.72zM493.282 404.69h12.126l-.23-.957h-11.666z"/><path d="M511.89 412.174h17.085l-20.208-77.079H489.92l-20.209 77.08h17.086l3.123-12.998h18.846l3.122 12.997zm-19.11-25.56 6.563-38.149 6.565 38.148H492.78zM555.902 412.174v-62.778h13.575v-14.3H525.12v14.3h13.572v62.778zM600.677 347.66c4.72 0 9.002 2.168 12.463 4.82v-14.822c-4.739-2.451-9.7-3.794-15.248-3.794-14.785 0-22.75 10.535-22.75 22.696 0 22.678 25.874 21.502 25.874 34.15 0 5.098-4.05 8.9-9.599 8.9-5.078 0-9.001-2.148-13.043-4.612v14.513c3.923 2.571 9.93 3.895 14.79 3.895 16.165 0 25.066-10.325 25.066-24.029 0-20.85-25.876-21.566-25.876-34.24 0-4.705 3.004-7.477 8.323-7.477zM690.956 326.437c3.596-.735 9.728-6.719 14.904-14.554 5.193-7.835 8.308-15.816 7.572-19.417-.152-.756-1.29-1.51-2.048-1.355-3.598.731-9.728 6.714-14.911 14.56-5.188 7.829-8.302 15.809-7.57 19.407.155.761 1.295 1.514 2.053 1.359z"/><path d="M673.738 350.227c22.438 14.844 45.714-1.235 58.653-20.792 12.946-19.556 18.646-47.266-3.79-62.115-22.44-14.847-45.713 1.234-58.654 20.792-12.946 19.555-18.646 47.262 3.79 62.115zm18.324-47.478c3.305-5.001 15.25-21.398 23.595-15.867 8.353 5.52-2.073 22.923-5.381 27.917-3.305 5-15.247 21.397-23.593 15.863-8.353-5.517 2.07-22.92 5.38-27.913z"/></g></svg>