<svg xmlns="http://www.w3.org/2000/svg" viewBox="0 0 960 640" xml:space="preserve"><path fill="#012169" d="M743.039 568.556v11.825h-2.957v-11.825h-3.423v-2.937h9.803v2.937h-3.423zm16.023 11.825v-8.713l-2.49 5.428h-2.612l-2.49-5.428v8.713h-2.956v-14.762h2.956l3.796 7.883 3.796-7.883h2.956v14.762h-2.956z"/><path fill="#C8102E" d="m825.726 334.77 28.339-50.711h-20.017l-14.31 25.607C809.08 189.02 726.856 88.593 616.217 49.835l.069-.135.365-.653 19.012-34.028h-15.135l-17.121 30.64c-27.998-8.438-57.639-12.993-88.275-12.993-167.71 0-305.805 135.956-305.805 303.666 0 56.93 15.928 110.192 43.51 155.728v-.001H148.197l-16.977 30.016H273.57C329.72 593.807 417.388 640 515.132 640c167.71 0 305.803-135.957 305.803-303.667 0-.548-.018-1.092-.021-1.639l.003.077h4.81zm-565.68 168.612c.078.117.155.235.234.352l-.235-.352zm-4.909-7.588.373.59c-.124-.198-.25-.393-.373-.59z"/><path fill="#FFF" d="M239.89 336.332c0 150.588 124.654 272.663 275.242 272.663S790.374 486.92 790.374 336.332 665.719 63.67 515.132 63.67 239.889 185.745 239.889 336.332z"/><g fill="#012169"><path d="m453.305 435.491 20.431-36.561h51.617l31.602-56.568H505.34l8.978-16.064H454.86l-92.615 165.76H473.32l31.602-56.567zM582.97 326.298l-92.614 165.76h59.455l92.617-165.76zM810.779 258.66H753.772c-17.87 0-37.789 8.015-51.573 19.635l10.972-19.635H492.65l-33.18 59.385h355.584l18.993-33.986 14.19-25.399h-37.46zM738.251 326.298h-65.797c-16.603 65.913 52.273 51.579 26.313 98.042-6.233 11.151-24.676 11.151-24.676 11.151h-75.64l-31.603 56.568h123.916c27.065 0 52.591-8.704 68.042-36.354 41.388-74.073-23.298-83.714-20.555-129.407z"/><path d="m451.22 318.045 48.853-87.434 2.72 20.283h23.223l31.214-55.867h-23.234l-11.864 21.232-2.717-20.271L587.918 73.38l32.61-58.361L628.918 0h-32.42l-21.53 38.53-15.99 28.622-140.18 250.892zM446.607 326.298h-32.421l-51.32 91.85c-10.46 18.72-25.025 16.742-25.025 16.742l-83.49-11.366-33.522-4.56-34.784-4.74c-13.142-1.73-21.7 8.432-21.7 8.432l-58.41 69.402H336.112s17.881 0 32.101-25.45l78.394-140.31zM413.292 250.894l11.869-21.244 2.847 21.244h23.223l31.215-55.867H459.21l-11.863 21.232-2.844-21.232h-23.226l-31.215 55.867zM532.335 250.894h23.226l31.211-55.867H563.55zM561.88 250.894h23.226l7.326-13.113h30.133l22.664-40.56c.677-1.21.194-2.194-1.08-2.194h-51.054l-31.215 55.867zm48.52-45.271h6.91L605.26 227.19h-6.907l12.048-21.568zM663.84 250.894l5.917-10.59h-20.274l6.83-12.228h20.273l5.92-10.59h-20.272l6.626-11.863h20.272l5.92-10.596h-43.5l-31.212 55.867zM718.13 250.894l18.663-33.408h-19.028l-12.748 22.818h-6.907l19.378-34.681h25.93l5.92-10.596h-49.16l-31.211 55.867zM306.861 250.894l18.258-22.818 1.226 22.818h21.934l37.132-43.402-24.25 43.402h23.225l31.215-55.867h-43.658l-21.636 25.295-1.515-25.295h-21.675l-21.12 17.922-.407-17.922h-20.165l1.27 55.867z"/><path d="m328.07 342.362 39.83 37.673 62.29-111.49-6.216 3.049-57.503 102.915-39.828-37.668h-59.31l-14.006-10.902-3.177 1.938 18.612 14.485z"/></g><path fill="#C8102E" d="m248.722 322.351 4.605 3.588 14.005 10.902h59.31l39.83 37.668 57.502-102.915 4.79-8.57-85.853 42.088h-65.925z"/></svg>