<svg xmlns="http://www.w3.org/2000/svg" fill="none" viewBox="0 0 960 640">
  <path fill="#000" d="M772.722 615.449c-6.218 0-11.267 5.04-11.267 11.264 0 6.215 5.048 11.264 11.267 11.264 6.22 0 11.26-5.049 11.26-11.264 0-6.223-5.04-11.264-11.26-11.264Zm0 20.11a8.837 8.837 0 0 1-8.847-8.846 8.833 8.833 0 0 1 8.847-8.841 8.832 8.832 0 0 1 6.255 2.587 8.824 8.824 0 0 1 2.591 6.253 8.84 8.84 0 0 1-8.846 8.847Zm4.629-11.457a3.816 3.816 0 0 0-3.822-3.816h-5.428v12.857h2.413v-5.222h1.731l2.438 5.222h2.668l-2.545-5.445a3.822 3.822 0 0 0 2.545-3.596Zm-3.822 1.405h-3.015v-2.813h3.015c.775 0 1.41.63 1.41 1.408a1.406 1.406 0 0 1-1.41 1.405Z"/>
  <path fill="#DDCBA4" d="m738.213 604.517-.037-30.312-68.71-36.63-11.6-32.066-42.627-53.809 10.011-8.802 9.03 5.295 23.952-21.529 8.337 74.91 29.93-73.231 49.384 86.674-13.746-125.065-56.35-62.115-27.298 22.135-.555-.468-2.869-47.432-127.384-54.775-8.573-7.068 54.38 5.175-61.874-46.046 2.386-2.365-6.943-114.036-66.262 78.655-3.311-.016 2.559-57.804L371.2 0l8.801 96.575-6.455 11.17-76.608-43.068 57.371 75.054-24.105 40.532-13.839 117.154-62.19 41.853 41.087 68.748-102.065 73.36 44.268 63.178-49.17 29.398-.028 31.097-12.251 34.07h222.476l61.471-52.55 20.89 1.997 38.272-31.605-3.615-18.083 15.262-13.54 51.583 56.118.093 33.842 9.812 24.7h162.933l-16.981-35.483h.001Zm-338.465-43.555h-43.61l-25.318-48.047 22.082-13.443 50.596 32.325-5.985 10.749 8.474 13.154-6.239 5.262Zm167.536-141.718-5.671-1.57 16.935-23.586 1.583 14.327-12.847 10.83v-.001Z"/>
  <path fill="#010101" d="m416.45 557.27-13.8 11.636h-51.306l-31.033-58.894 32.692-19.904 61.075 39.023-7.306 13.119 9.678 15.02Zm113.67-202.022-9.066 21.357-14.99-25.518 24.056 4.161Zm45.316 7.839-30.18 13.041-2.575-18.738 32.755 5.697Zm13.058 48.669L569.2 428.019l-20.682-5.73 35.65-49.655 4.325 39.122m141.743 167.22-67.202-35.826-12.201-33.721-46.508-58.711 19.989-17.577 8.974 5.26 31.13-27.978 6.597 59.27 24.306-59.465 38.473 67.525-9.273-84.373-49.57-54.638-26.562 21.54-8.181-6.9-2.78-45.945-123.927-53.29-29.457-24.283 51.89 4.937-46.473-34.582 6.39-6.334-5.518-90.617-55.86 66.31-15.292-.08 2.822-63.775-39.548-69.76 5.688 62.4-11.647 20.154-49.805-28 37.193 48.657-25.989 43.699L323.83 301.97l-58.97 39.685 40.969 68.553-101.62 73.038 44.666 63.745-52.637 31.471-.026 27.978-8.894 24.736h208.244l61.804-52.834 20.969 2.003 32.07-26.484-3.577-17.9 24.511-21.742 58.955 64.132.097 35.417 7.265 18.287h144.929l-12.315-25.73-.032-27.35"/>
  <path fill="#154734" d="m537.077 509.24 20.09 21.896 85.432-19.796-44.235-55.795-61.287 53.695Zm-31.207-91.794v63.598l56.387-47.06-56.387-16.538ZM214.307 485.07l18.96 26.795 78.978-5.596 37.446-22.947-39.848-66.962-95.536 68.71Zm461.458-47.24 8.618-21.064-11.024-1.798 2.406 22.862Zm43.903-24.167-10.999 4.218 14.536 26.527-3.537-30.745ZM367.844 132.386l4.152-6.97-21.215-13.472 17.063 20.442Zm27.942-34.337 11.72-1.973-14.42-26.437 2.7 28.41Z"/>
  <path fill="#A9431E" d="m656.832 548.326-10.806-30.038-83.55 18.997 35.038 37.94v30.909h125.197v-22.77l-65.879-35.038Zm-24.587-119.183 31.256-27.916-1.908-19.51-28.373-24.606-2.947-39.8-39.834 41.563 5.014 50.097 36.792 20.172Zm-93.154-42.006-3.398-25.883-13.881 32.214-15.942-29.047v45.067l35.003 10.531 35.594-49.022-37.376 16.14Zm-68.848 123.567-59.04-53.146-50.07 28.977 62.996 40.1-8.708 15.284 26.06 39.895 9.012-8.04-15.117-34.03 34.867-29.04Z"/>
  <path fill="#A9431E" d="m486.031 525.171-35.792 28.667 7.298 16.812 17.986 1.867 26.607-21.876-3.498-15.936-12.601-9.534Zm-247.905-6.133 21.583 30.11-55.607 33.161.006 24.144 66.221-.06 12.704-37.487h59.857l-29.212-55.337-75.552 5.469Zm221.809-299.192 49.771 4.807-31.634-23.663 10.043-10.239-4.054-68.185-46.043 54.669-21.024-.74-22.611 21.65 4.91 17.189-40.117 92.395 4.262 24.672 19.49-21.54 18.054-19.954.002-.003 13.81-15.263 11.629-12.853 38.277 8.71-20.638-29.21 47.546 3.638-31.673-26.08Zm-36.327 23.393c-9.319 0-16.88-7.554-16.88-16.879 0-9.324 7.561-16.88 16.88-16.88 9.326 0 16.883 7.556 16.883 16.88 0 9.325-7.557 16.879-16.883 16.879Z"/>
  <path fill="#5F259F" d="m261.289 517.362-8.68.628 18.675 26.682 8.875-.865-18.855-26.421-.015-.024Zm17.57-1.271-8.735.632.012.016 18.64 26.633 8.872-.853-18.785-26.42-.004-.008Zm17.755-1.284-.03.002-8.702.628v.002l18.641 26.633 8.872-.854-18.781-26.411Zm181.525-365.873-24.592 28.777 26.192.456-1.6-29.233Zm111.145 382.257-8.428 1.914-.045.012 22.244 23.905 8.668-2.07L589.3 531.21l-.016-.019Zm16.865-3.835-8.475 1.928.01.012 22.218 23.875 8.67-2.069-22.398-23.717-.025-.029Zm17.016-3.869-.006.002-8.472 1.926.001.002 22.225 23.885 8.67-2.07-22.418-23.745Z"/>
  <path fill="#DDCBA4" d="M466.984 416.314H405.52l12.744 37.504 57.884 52.116 21.564-17.913v-71.707h-30.728ZM334.088 600.045l.004-.014-16.13-15.167 23.977-8.522-53.532.006-15.733 47.316h53.59l-15.961-15.125 23.785-8.494Zm86.424-36.512-15.058 12.801-26.581.003-15.296 47.327h29.31l43.094-36.783-15.469-23.348Z"/>
  <path fill="#6F263D" d="m717.624 395.891-22.762-23.69-23.858 20.415 2.353 22.352 11.024 1.798 5.63-13.765.323-22.375 12.21 26.082 6.123 11.173 10.999-4.218-2.042-17.772ZM423.581 235.593c5.068 0 9.177-4.105 9.177-9.171 0-5.067-4.11-9.174-9.177-9.174a9.173 9.173 0 0 0-9.173 9.174c0 5.066 4.108 9.171 9.173 9.171Zm-8.942-127.668-7.135-11.849-11.72 1.973 16.277 61.243 2.577-51.367h.001Zm46.86 351.426v6.95h36.22l.004-6.95h-36.224Zm0 13.742v6.947h36.213l.003-6.947h-36.216Zm-58.276-64.196 94.49.003V253.81l-38.49-2.822 22.903 32.39-53.01-12.23-64.682 71.094-42.955-20.845.982-9.507-47.432 31.909 7.626 12.366 4.623 8.018 23.606 39.594 3.92 6.578 41.793 70.1 52.687-30.459-13.842-39.641-2.297-6.578-10.828-31.008-2.685-7.688 8.554.785 15.037 43.031Zm34.723-97.633c22.872 0 41.413 18.541 41.413 41.412s-18.54 41.414-41.413 41.414c-22.871 0-41.412-18.543-41.412-41.414 0-22.871 18.54-41.412 41.412-41.412Zm147.507-18.119-7.388-3.176-33.268-14.309-7.394-3.179-31.535-13.565v84.526l16.545 2.863 7.205 1.246 28.074 4.857 7.217 1.248 17.51 3.031 43.722-46.04-40.688-17.502ZM334.102 600.001l-.01.03-.005.015-7.824 23.619h30.618l15.285-47.325-30.227.003-7.837 23.658Z"/>
  <path fill="#5F259F" d="m420.884 437.184 15.365-20.87h-30.728l15.363 20.87Z"/>
  <path fill="#5F259F" d="m451.614 437.184 15.365-20.87h-30.73l15.365 20.87Zm30.733 0 15.366-20.87h-30.73l15.364 20.87Zm-89.201-33.408-10.827-31.008-2.686-7.689-96.977-8.915 4.623 8.017 23.606 39.595 3.92 6.578h80.638l-2.297-6.578Zm184.92-113.808-33.268-14.309-7.394-3.179-14.99 73.824 7.205 1.246 28.074 4.857 7.217 1.248 20.544-60.51-7.388-3.177Zm-214.629 42.431 19.49-21.54-23.753-3.131 4.263 24.671Zm19.49-21.54 18.054-19.953-21.837-1.883 3.783 21.836Zm43.495-48.072-16.076-2.342 4.446 15.195 11.63-12.853Zm-29.774 10.392 4.334 17.724 13.81-15.263-18.144-2.461Zm76.068 74.575c-1.787-16.384-14.892-29.418-31.317-31.078-15.33.36-23.774 9.192-23.774 25.001 0 17.23 14.02 31.248 31.252 31.248 16.424 0 23.779-7.771 23.839-25.171ZM334.092 600.031l.01-.031 7.838-23.658-23.977 8.522 16.129 15.167Zm-7.828 23.633 7.824-23.62-23.785 8.495 15.961 15.125Zm30.618 0h6.695l15.296-47.327-6.706.002-15.285 47.325Z"/>
  <path fill="#DDCBA4" d="m393.146 403.778-10.827-31.008-95.04-8.587 23.606 39.595h82.261Zm184.92-113.808-33.268-14.309-15.179 71.891 28.074 4.857 20.373-62.439Zm111.842 76.299-15.769-17.332-20.094 16.316 18.81 15.81 17.053-14.794Zm36.299 247.381-128.168.024 4.535 10.744h128.77l-5.137-10.768ZM594.04 416.73 482.455 510.5l-37.818 31.224 2.314 5.165 38.978-31.304 17.27 13.328 113.811-99.542-22.97-12.641ZM198.455 623.666h66.404l2.878-9.614h-65.81l-3.472 9.614Zm210.049-449.367-17.567-65.947-45.784 76.85-15.609 131.417 21.537-11.852 39.426-89.904-5.687-18.94 23.684-21.624Zm-69.76 129.754a3.348 3.348 0 0 1-3.09-2.064 3.348 3.348 0 0 1-.254-1.28 3.344 3.344 0 0 1 3.346-3.289 3.347 3.347 0 0 1 3.345 3.289c0 1.848-1.5 3.344-3.346 3.344h-.001Zm1.576-11.036a3.347 3.347 0 1 1 0-6.694 3.347 3.347 0 0 1 0 6.694Zm1.578-11.044a3.373 3.373 0 0 1-1.298-.238 3.364 3.364 0 0 1-1.105-.721 3.355 3.355 0 0 1-.74-3.679c.172-.41.424-.781.74-1.093a3.353 3.353 0 0 1 2.403-.958 3.345 3.345 0 1 1 0 6.69v-.001Zm6.23 17.218a3.35 3.35 0 0 1-3.349-3.348c0-1.846 1.5-3.343 3.349-3.343a3.345 3.345 0 1 1 0 6.69v.001Zm1.576-11.039a3.348 3.348 0 0 1-3.347-3.348 3.337 3.337 0 0 1 .959-2.404 3.351 3.351 0 0 1 3.68-.74 3.351 3.351 0 0 1 1.814 1.845c.165.413.246.854.238 1.299a3.348 3.348 0 0 1-3.344 3.348Zm1.577-11.04a3.347 3.347 0 1 1 0-6.694 3.347 3.347 0 0 1 0 6.694Zm24.578-61.387-23.076-7.521 3.299-8.715 23.42 7.833-3.643 8.403Zm-1.879-41.72-13.616-.004 24.007-40.507-10.39 40.512-.001-.001Zm37.045 167.674c0-6.158 1.135-11.542 3.285-16.042-7.075 6.423-11.551 15.66-11.551 25.946 0 19.346 15.739 35.086 35.085 35.086 8.948 0 17.098-3.394 23.303-8.926-3.587 1.167-7.666 1.785-12.27 1.785-20.871 0-37.852-16.978-37.852-37.849Z"/>
</svg>
