<svg xmlns="http://www.w3.org/2000/svg" fill="none" viewBox="0 0 960 640">
  <path fill="#fff" d="M751.996 319.984c0-150.234-121.776-272.01-272.01-272.01-150.235 0-271.98 121.805-271.98 272.01 0 150.205 121.775 272.01 272.009 272.01 150.235 0 272.01-121.775 272.01-272.01"/>
  <path fill="#000" d="M479.985 0C303.275 0 160 143.275 160 319.985S303.275 639.97 479.985 639.97 799.97 496.695 799.97 319.985 656.725 0 479.985 0Zm0 591.995c-150.205 0-272.009-121.775-272.009-272.01 0-150.234 121.804-271.98 272.009-271.98s272.01 121.775 272.01 272.01c0 150.234-121.775 272.009-272.01 272.009"/>
  <path fill="#FDB717" d="M750.989 343.203a273.492 273.492 0 0 0 1.007-23.188c0-7.788-.356-15.547-1.007-23.188H632.531v-96.514l55.497-55.498a272.562 272.562 0 0 0-32.813-32.812L599.718 167.5l-31.688-31.687h-64.826v-86.77a272.738 272.738 0 0 0-23.188-1.008c-7.818 0-15.548.356-23.188 1.007v86.83l-128.113.059-23.899-23.899a272.498 272.498 0 0 0-32.813 32.813l78.153 78.153v73.859H208.983a272.97 272.97 0 0 0-1.006 23.188c0 7.818.355 15.547 1.006 23.188h141.114v73.859l-15.814 15.814-62.339 62.338a272.498 272.498 0 0 0 32.813 32.813l23.899-23.899h128.112v86.889c7.641.652 15.37 1.007 23.189 1.007 7.818 0 15.547-.355 23.188-1.007v-86.889h64.944l31.599-31.598 55.498 55.497a272.498 272.498 0 0 0 32.813-32.813l-55.498-55.497v-96.514h118.458l.03-.03ZM348.734 484.08v-37.255l21.441-21.441V214.647l-21.441-21.441v-37.285l210.975-.089 52.743 52.744v79.9l-31.51 31.51 31.51 31.509v79.9l-52.655 52.655H348.734v.03Z"/>
  <path fill="#000" d="m612.481 351.495-31.51-31.51 31.51-31.509v-79.9l-52.743-52.744-210.974.089v37.285l21.441 21.441v210.737l-21.441 21.441v37.255h211.092l52.655-52.655v-79.9l-.03-.03ZM550.261 408l-19.812 19.812H429.078v-79.663l101.401-.059 19.752 19.753V408h.03Zm0-135.99-19.812 19.812H429.078v-79.663l101.401-.059 19.752 19.753v40.157h.03Z"/>
  <path fill="#FDB717" d="M429.078 212.159v79.663h101.371l19.812-19.812v-40.157L530.508 212.1l-101.4.059h-.03Zm20.049 59.614v-39.565l73.059-.059 8.026 7.996v23.543l-8.055 8.055h-73l-.03.03Zm-20.049 76.405v79.664h101.371l19.812-19.813v-40.157l-19.753-19.753-101.4.089-.03-.03Zm20.049 59.614v-39.565l73.059-.059 8.026 8.026v23.543l-8.055 8.055h-73.03Z"/>
  <path fill="#000" d="M682.164 588.352c0 6.456 5.242 11.728 11.727 11.728a11.717 11.717 0 0 0 11.728-11.728 11.717 11.717 0 0 0-11.728-11.727 11.716 11.716 0 0 0-11.727 11.727Zm20.938 0a9.201 9.201 0 0 1-9.211 9.21 9.201 9.201 0 0 1-9.21-9.21 9.202 9.202 0 0 1 9.21-9.21 9.202 9.202 0 0 1 9.211 9.21Z"/>
  <path fill="#000" d="M689.064 595.076h2.518v-5.45h1.806l2.547 5.45h2.784l-2.636-5.686c1.54-.563 2.636-2.014 2.636-3.732 0-2.221-1.777-3.998-3.969-3.998h-5.656v13.386l-.03.03Zm2.518-10.899h3.139a1.46 1.46 0 0 1 1.451 1.481c0 .829-.652 1.451-1.451 1.451h-3.139v-2.932Z"/>
</svg>
