<svg xmlns="http://www.w3.org/2000/svg" fill="none" viewBox="0 0 960 640">
  <path fill="#000" d="M211.346.017v445.806l269.012 194.16 268.296-194.16V.018H211.346Z"/>
  <path fill="#A2AAAD" d="M224.645 13.316v425.71l255.709 184.548 255-184.548V13.316H224.645Z"/>
  <path fill="#fff" d="m480.357 608.191 242.53-175.539V25.783H237.111v406.871l213.582 154.131 29.664 21.406ZM252.625 40.04h455.503v268.81H252.625V40.04Zm0 282.865h455.503V423.2L480.376 587.816l-.002.002-91.96-66.47-135.79-98.149V322.903l.001.002Z"/>
  <path fill="#A2AAAD" d="M266.969 54.434h.002v-.004h426.797v233.258h-.003v.003H266.97V54.434h-.001Z"/>
  <path fill="#000" d="M266.978 347.878h-.004v67.96l213.397 154.225.002-.002L693.781 415.84v-67.96l-426.803-.002Zm426.791-60.19V54.43H266.971v233.258h426.798Z"/>
  <path fill="#fff" d="m480.357 608.191 242.53-175.539V25.783H237.111v406.871l213.582 154.131 29.664 21.406ZM252.625 40.04h455.503v268.81H252.625V40.04Zm0 282.865h455.503V423.2L480.376 587.816l-.002.002-91.96-66.47-135.79-98.149V322.903l.001.002Z"/>
  <path fill="#000" d="M661.826 547.436a5.421 5.421 0 0 0-3.354-5.032 5.421 5.421 0 0 0-2.085-.408h-7.727v18.334h3.447v-7.455h2.468l3.424 7.455h3.829l-3.604-7.773a5.448 5.448 0 0 0 3.602-5.121Zm-5.438 1.995h-4.281v-3.989h4.28c1.112 0 2.017.894 2.017 1.994a2.002 2.002 0 0 1-2.016 1.995Z"/>
  <path fill="#000" d="M655.233 535.121c-8.836 0-16.02 7.182-16.02 16.043 0 8.825 7.184 16.02 16.02 16.02 8.861 0 16.043-7.195 16.043-16.02 0-8.861-7.182-16.043-16.043-16.043Zm0 28.618c-6.933 0-12.576-5.63-12.576-12.575 0-6.956 5.643-12.576 12.576-12.576 6.98 0 12.6 5.62 12.6 12.576 0 6.945-5.62 12.575-12.6 12.575Zm38.536-276.051V54.43H266.971v233.258h426.798Zm-426.791 60.19h-.004v67.96l213.397 154.225.002-.002L693.781 415.84v-67.96l-426.803-.002Z"/>
  <path fill="#A2AAAD" d="M645.201 116.712h-126.32V166h126.32v-49.288Zm-3.701 45.596H522.581v-41.915h118.917v41.915h.002Z"/>
  <path fill="#A2AAAD" d="M401.581 221.727h-82.314v-50.669c0-53.245 11.212-75.481 13.307-79.171.213-.376.33-.557.335-.564h-53.12c.053.08 13.65 21.112 13.65 79.732 0 58.732-13.652 79.726-13.652 79.726h173.598l.01-.015c.118-.16 14.456-19.813 14.456-49.684-.175.182-19.995 20.645-66.271 20.645h.001Zm265.717-50.672c0-6.595.18-12.689.486-18.357 2.42-44.8 13.187-61.375 13.187-61.375h-197.89c.052.08 13.69 21.112 13.69 79.732 0 44.054-7.703 66.876-11.554 75.53-1.275 2.868-2.126 4.18-2.136 4.195h39.49v-59.392h118.928v59.392h39.47c-.04-.062-12.383-19.135-13.57-71.552-.06-2.647-.101-5.353-.101-8.173Zm-25.8-8.747H522.579v-41.915h118.917v41.915h.002Z"/>
  <path fill="#fff" d="M437.457 220.812c-9.607 2.688-21.495 4.596-35.904 4.596h-85.984v-54.353c0-19.768 1.533-35.291 3.588-47.295 1.634-9.549 3.593-16.864 5.391-22.224a89.112 89.112 0 0 1 2.444-6.501h-41.293a88.106 88.106 0 0 1 2.447 6.501c1.8 5.36 3.759 12.675 5.392 22.224 2.053 12.004 3.584 27.526 3.584 47.295v.003c0 19.544-1.496 34.944-3.514 46.891-1.767 10.466-3.929 18.25-5.858 23.774a86.207 86.207 0 0 1-2.051 5.356h165.698c1.229-1.934 3.5-5.883 5.783-11.449a92.64 92.64 0 0 0 5.057-16.693 92.062 92.062 0 0 0 1.47-9.954 74.578 74.578 0 0 1-6.025 3.687c-5.086 2.806-11.762 5.776-20.225 8.142Zm227.124-23.848c-.609-7.705-.986-16.279-.986-25.902 0-8.09.256-15.475.7-22.2 1.431-21.774 4.823-36.599 7.866-46.03 1.027-3.19 2.015-5.795 2.868-7.801H489.03c1.69 3.953 3.884 10.145 5.9 18.92 2.966 12.9 5.544 31.438 5.544 57.111 0 25.898-2.624 44.539-5.625 57.45-1.993 8.591-4.15 14.67-5.819 18.567h29.849v-59.406h.002v-.007h126.321v59.413h29.825c-.868-2.04-1.874-4.703-2.92-7.969-2.85-8.88-5.978-22.534-7.526-42.146ZM645.201 166H518.878v-49.288H645.2l.001 49.288Zm-88.116 237.942c-.022.03-12.93 17.26-15.331 20.475l-.003-.003-.006.008c-2.152-2.638-5.137-5.53-8.797-8.344a69.102 69.102 0 0 0-20.271-10.716l.001-.005c.75-1.816 3.364-8.186 4.897-11.923l1.142-2.79-3.11 1.262a5274.333 5274.333 0 0 0-7.776 3.177l.005-.011-.015.006c.326-.683.67-1.32.678-1.335l-6.168.317c-3.125.165-6.449.343-7.357.4-.131-.238-.38-.681-.697-1.246-1.031-1.832-2.873-5.092-4.487-7.953-1.414-2.502-2.65-4.688-2.993-5.3.279-.492.788-1.383 1.332-2.329.917-1.609 1.932-3.383 2.1-3.636.184-.183.942-.837 1.696-1.48.848-.733 1.687-1.453 1.687-1.453l-3.877-7.362-3.868.266-4.38.306-.037 1.017c-.04 1.192-.105 3.066-.119 3.55l-.581.944-.367.619-.007-.012-.004.006-.518-.85-.44-.712c-.02-.72-.164-4.538-.165-4.563l-3.591-.251-4.662-.32-1.726 3.273-2.147 4.088s2.98 2.548 3.403 2.929c.258.413 2.67 4.64 3.444 5.97-.867 1.526-7.25 12.817-8.177 14.498-1.008-.061-4.836-.264-8.171-.44-2.872-.149-5.379-.277-5.379-.277a43.18 43.18 0 0 0 .681 1.34c-.775-.318-1.8-.738-2.908-1.19-3.513-1.43-7.865-3.198-7.976-3.244.023.06 1.298 3.183 2.692 6.591 1.35 3.291 2.807 6.837 3.336 8.118l-.002.001.001.004c-11.92 3.94-21.089 10.544-26.769 16.467-.03.03-.067.063-.096.094-.073.076-.128.148-.2.225a42.923 42.923 0 0 0-2.011 2.274l-.554-.742c-3.38-4.514-14.77-19.74-14.77-19.74l-3.278 1.422 15.817 90.769s22.54 5.763 64.166 5.763c41.616 0 64.156-5.763 64.156-5.763l15.827-90.769-1.975-.86-1.295-.56Z"/>
  <path fill="#000" d="M452.887 436.757c-2.764 0-5.032 2.248-5.032 5.012v.002c.001 2.762 2.269 5.04 5.032 5.04 2.794 0 5.03-2.278 5.031-5.04v-.002a5.009 5.009 0 0 0-5.031-5.012Zm53.934 0c-2.763 0-5.032 2.248-5.032 5.012v.002c.002 2.762 2.27 5.04 5.032 5.04 2.783 0 5.041-2.278 5.042-5.04v-.002c0-2.764-2.258-5.012-5.042-5.012Z"/>
  <path fill="#000" d="M541.658 430.326v.001l-.03-.043a37.501 37.501 0 0 0-2.588-3.68 42.531 42.531 0 0 0-3.051-3.425l-.083-.083a48.397 48.397 0 0 0-3.479-3.16l-.17-.14a55.1 55.1 0 0 0-3.829-2.853c-.1-.069-.201-.136-.303-.205a62.094 62.094 0 0 0-4.557-2.778 69.103 69.103 0 0 0-4.936-2.475 76.203 76.203 0 0 0-5.285-2.159 83.214 83.214 0 0 0-5.083-1.677c-.085-.025-.167-.053-.252-.078l.002-.004 2.664-6.49 1.59-3.873.002-.006-21.829 9.795v-5.372l-10.063-17.353-.004.007-10.09 17.346v5.372l-.007-.003-21.812-9.792 2.02 4.907 2.249 5.466c-11.576 3.371-21.238 8.801-27.96 15.568-2.241 2.256-4.156 4.66-5.705 7.187l-14.092-18.882-.004-.007 4.85 28.209 9.07 52.744s17.986 4.49 48.315 5.34l.044.001s-20.616-1.926-32.867-6.604l-.015-.006c1.406.199 2.813.389 4.222.572 4.072.531 8.858 1.077 13.93 1.505 5.25.443 10.772.757 16.09.758l.042.001s-8.523-.894-17.443-2.936c-3.576-.819-7.215-1.817-10.397-3.024l.037.005c2.82.38 6.057.776 9.504 1.136 6.805.712 14.481 1.28 21.755 1.282h.03s-16.31-1.69-27.435-5.762l-.003-.001a175.97 175.97 0 0 1 9.34-1.713c7.903-1.24 16.782-2.092 26.336-2.092 7.737 0 15.04.567 21.746 1.44 4.993.649 9.665 1.463 13.89 2.365l-.009.003c-11.095 4.07-27.388 5.76-27.388 5.76h.027c7.358-.001 15.13-.585 21.996-1.309 3.102-.326 6.199-.697 9.291-1.113-3.26 1.234-6.997 2.25-10.654 3.08-8.834 2.002-17.196 2.88-17.196 2.88l.028-.001c5.349-.001 10.906-.32 16.189-.767 5.269-.446 10.25-1.02 14.417-1.57 1.296-.17 2.527-.339 3.65-.498l-.013.005c-12.241 4.678-32.869 6.605-32.869 6.605l.057-.002c30.331-.85 48.292-5.34 48.292-5.34l13.939-80.941.002-.011-14.115 18.888Zm-51.206 15.183v-36.546l6.314-2.835 12.102-5.434-.003.007-12.28 29.893-6.133 14.932v-.017Zm16.084-34.366.002-.004c10.302 3.013 19.08 7.752 25.38 13.546 3.01 2.77 5.462 5.777 7.23 8.957l.002.004-3.533 4.721-.312.415a37.343 37.343 0 0 0-9.455-11.825 38.502 38.502 0 0 0-1.66-1.304c-.384-.284-.767-.544-1.15-.807-.172-.118-.345-.248-.516-.362-.367-.243-.73-.463-1.095-.688-.187-.115-.376-.242-.563-.352-.358-.213-.71-.405-1.064-.6-.187-.104-.377-.217-.563-.316-.354-.189-.7-.358-1.048-.53-.178-.089-.36-.186-.537-.27-.347-.166-.684-.314-1.022-.464-.168-.074-.34-.156-.504-.227-.358-.153-.703-.29-1.047-.426-.132-.052-.27-.111-.4-.161-.37-.142-.725-.27-1.076-.392-.093-.033-.192-.071-.284-.103a37.634 37.634 0 0 0-1.119-.364c-.042-.014-.089-.03-.131-.042-2.814-.864-4.692-1.093-4.8-1.106l-.032-.004c4.564 1.687 8.347 3.664 11.507 5.83 5.705 3.91 9.316 8.455 11.472 13.14a29.856 29.856 0 0 1 1.932 5.59l-3.588 4.827c0 .005.463 12.89-2.114 18.322a80.484 80.484 0 0 0-1.644-.592c-.373-.13-.747-.261-1.16-.397v-.003c2.87-11.835 1.551-20.343-1.416-26.415a27.308 27.308 0 0 0-1.121-2.059c-.28-.463-.579-.89-.876-1.321-.122-.177-.235-.37-.359-.541-.31-.427-.634-.82-.958-1.214-.123-.15-.24-.316-.366-.462-.327-.381-.664-.73-1-1.08-.13-.136-.255-.285-.386-.416-.35-.35-.705-.669-1.06-.987-.12-.11-.24-.232-.362-.338a27.971 27.971 0 0 0-1.138-.924c-.098-.076-.196-.163-.294-.237a29.104 29.104 0 0 0-1.189-.847c-.076-.052-.153-.112-.229-.163a29.09 29.09 0 0 0-1.206-.758c-.057-.034-.116-.075-.173-.108a28.39 28.39 0 0 0-1.265-.705l-.043-.024c-2.975-1.56-5.221-2.097-5.293-2.115l-.012-.002c19.144 9.866 17.365 27.482 13.469 39.092l-.002.007c-.916-.243-1.9-.5-2.924-.76-.777-.199-1.555-.389-2.335-.57l-2.031-10.038-.63-3.108a6.24 6.24 0 0 0 4.589-6.022c0-2.227-1.186-4.165-2.939-5.29a6.805 6.805 0 0 0-.881-.907 6.625 6.625 0 0 0-4.388-1.691c-3.66 0-6.64 2.97-6.64 6.62 0 1.971.893 3.713 2.27 4.916.317.276.633.554.999.765l-6.682 12.178c-1.054-.11-2.141-.192-3.222-.28a143.78 143.78 0 0 0-3.54-.25c-1.034-.06-2.064-.13-3.106-.171l19.63-47.788h.001Zm.29 36.311c-3.114 0-5.671-2.557-5.671-5.68 0-3.115 2.557-5.662 5.671-5.662 2.27 0 4.232 1.37 5.127 3.32.329.717.524 1.505.524 2.341 0 .808-.177 1.575-.483 2.272-.878 2-2.867 3.409-5.168 3.409Zm-26.46-50.003.012-.016 8.239 10.755-8.239 9.764-.012-.014-8.226-9.75 8.226-10.739Zm-28.496 3.248-.002-.005 16.574 7.442 1.842.827v36.563l-1.34-3.263L451.87 400.7v-.001Zm-30.285 32.948c1.928-3.472 4.674-6.736 8.072-9.71 6.229-5.452 14.68-9.916 24.541-12.798l.003.008 19.63 47.784c-1.288.051-2.562.131-3.833.212-2.046.13-4.074.285-6.045.489l-.116-.212-5.976-10.89-.002-.003a6.235 6.235 0 0 0 3.227-5.486c0-1.114-.29-2.156-.8-3.06-.01-.018-.027-.032-.037-.05a6.342 6.342 0 0 0-2.091-2.18 6.608 6.608 0 0 0-5.27-2.598c-1.7 0-3.238.663-4.412 1.722-1.345 1.212-2.207 2.95-2.207 4.898 0 1.054.249 2.052.69 2.938a6.693 6.693 0 0 0 3.548 3.249l-2.898 14.25c-.126.03-.237.06-.361.089-1.76.416-3.385.846-4.887 1.24l-.001-.003a55.507 55.507 0 0 1-.545-1.738c-2.108-7.01-3.213-15.786.302-23.712 2.287-5.155 6.526-9.946 13.71-13.646l-.014.004c-.069.016-1.379.332-3.303 1.167l-.024.011c-.374.163-.77.345-1.187.548-.058.029-.122.065-.182.094a30.36 30.36 0 0 0-1.153.602c-.091.05-.188.112-.28.164-.376.214-.756.433-1.147.68-.112.07-.227.154-.34.226a31 31 0 0 0-1.15.775c-.118.085-.238.186-.357.274-.385.286-.772.575-1.16.895-.122.101-.243.218-.364.323-.385.329-.77.66-1.15 1.024-.12.115-.237.248-.356.366-.379.377-.758.755-1.127 1.17-.116.13-.226.28-.34.413-.365.427-.73.854-1.08 1.32-.107.144-.204.308-.31.455-.346.481-.69.965-1.014 1.488-.11.177-.205.377-.311.558-.305.521-.612 1.042-.891 1.605-.387.78-.737 1.577-1.047 2.39-2.248 5.876-2.99 13.72-.459 24.166a85.72 85.72 0 0 0-2.794.99c-.83-1.757-1.341-4.296-1.657-6.926-.66-5.498-.456-11.396-.456-11.396L430 444.903 428.585 443c.01-.038.022-.076.03-.114 1.897-7.909 7.155-15.984 18.87-21.85a59.204 59.204 0 0 1 6.002-2.596l-.02.002c-.077.009-2.626.307-6.286 1.58-.05.017-.107.042-.158.06a40.207 40.207 0 0 0-3.825 1.565c-.081.038-.156.067-.238.106-.026.012-.054.029-.081.042-5.83 2.807-12.8 7.884-17.449 16.988l-3.463-4.623-.383-.512.001-.001Zm34.969 12.425c-.99.849-2.26 1.382-3.665 1.382-3.104 0-5.64-2.557-5.64-5.68 0-3.115 2.536-5.662 5.64-5.662a5.62 5.62 0 0 1 2.354.526c1.954.897 3.317 2.858 3.317 5.135 0 1.723-.788 3.255-2.006 4.299Zm-41.63 12.57-.825-4.826c.068-.029.153-.018.227-.032.134-.025.263-.059.414-.06h.008c.688 0 1.284.327 1.705.827.367.436.605 1.002.605 1.636 0 1.307-.925 2.336-2.128 2.453l-.007.002h.001Zm.793 4.567-.154-.907c1.464-.235 2.739-1.073 3.626-2.263a6.43 6.43 0 0 0 1.271-3.852c0-1.497-.51-2.85-1.324-3.919-1.048-1.374-2.613-2.267-4.388-2.267h-.005a4.736 4.736 0 0 0-1.273.165l-.176-.907c.475-.109.96-.168 1.448-.175h.006c3.66 0 6.63 3.165 6.63 7.103 0 3.558-2.464 6.517-5.66 7.023l-.001-.001Zm130.32-5.946-.235 1.379h-.003c-1.194-.116-2.131-1.146-2.131-2.455 0-.93.506-1.712 1.22-2.13.33-.194.689-.333 1.09-.333l.01.001c.233 0 .446.01.64.091l-.59 3.447h-.001Zm1.383-8-.153.898v.005a4.807 4.807 0 0 0-1.29-.165c-.785 0-1.533.172-2.214.482-2.055.935-3.498 3.133-3.498 5.704 0 3.114 2.145 5.672 4.898 6.115l-.06.438-.064.47-.02-.005a6.343 6.343 0 0 1-2.23-.805c-2.051-1.212-3.431-3.544-3.431-6.212v-.002c0-3.937 2.96-7.102 6.62-7.102.197 0 .367.048.553.067.298.03.604.045.89.108l-.001.004Zm5.267-30.682-5.1 29.775-.001.006c-.161-.036-.327-.062-.492-.091a6.311 6.311 0 0 0-1.096-.116c-4.166 0-7.558 3.599-7.558 8.033a8.176 8.176 0 0 0 2.071 5.449c.836.94 1.868 1.685 3.04 2.119.42.156.857.273 1.306.349l.007.002-3.002 17.408-1.441 8.353-.001.006c-1.838-.705-4.843-1.788-8.77-3a178.765 178.765 0 0 0-17.875-4.487c-9.56-1.892-20.955-3.36-33.397-3.36-22.281 0-41.235 4.68-52.18 8.12a139.27 139.27 0 0 0-7.902 2.728l-3.268-18.992-1.166-6.776c2.324-.391 4.3-1.904 5.426-3.991a8.263 8.263 0 0 0 .997-3.928c0-2.2-.837-4.19-2.184-5.64-1.369-1.475-3.264-2.392-5.353-2.392a6.25 6.25 0 0 0-1.137.123c-.148.027-.3.05-.44.083l-.002-.006-5.153-29.79-.001-.003 22.334 29.82c-.168 4.943.146 8.849.622 11.871.9 5.702 2.388 8.204 2.388 8.204s3.269-1.316 7.875-2.7a91.948 91.948 0 0 1 7.922-2.022l2.085-10.251.967-4.752c.246.106.51.172.767.25.596.184 1.214.317 1.883.317.43.003.859-.042 1.279-.134l.003.006 2.222 4.044 4.576 8.327.004.007s2.576-.247 5.684-.48c2.787-.209 6-.407 8.184-.407l-4.145-12.837 2.815-7.237 4.886-12.56.012-.031 7.053 18.23.618 1.598-4.145 12.837h.006c2.4 0 6.014.236 8.957.464 2.764.215 4.937.423 4.937.423l.003-.005 7.318-13.39c.005 0 .003.007.008.009.04.012.064.064.064.064a6.877 6.877 0 0 0 1.63.772 6.31 6.31 0 0 0 1.814.3l2.938 14.436a90.824 90.824 0 0 1 7.3 1.84l.03.008.038.012c4.887 1.441 8.408 2.862 8.408 2.862l.003-.005c.03-.05 2.714-4.564 3.045-15.323.045-1.468.05-3.043-.006-4.747l10.663-14.263 11.63-15.557-.003.018Z"/>
  <path fill="#000" d="m469.507 400.991.434-.747 10.413-17.967.01.017 3.974 6.823 6.915 11.874h8.62l1.063-2.041h-8.59l-10.826-18.694 5.34-9.084 1.259-1.299-.004-.005-.094-.14-.789-1.165h-.009l-1.253.093-.707.052-.001.004-.076.381-.243 1.213-4.581 7.947-.008.013-2.231-3.898-2.326-4.062-.33-1.598-.79-.059-1.167-.086h-.002l-.245.358-.65.95-.002.002.184.184 1.115 1.115 2.26 3.874 3.04 5.21-10.833 18.688-.004.006h-8.568l1.03 2.041h8.672Zm-1.982 66.929c-.08-.05-.149-.118-.234-.16l.002.003c.096.127.15.275.228.411.287.491.492 1.023.492 1.627a3.325 3.325 0 0 1-2.054 3.079 3.325 3.325 0 0 1-1.276.251h-.052l.008.003c.117.058.242.097.364.144a3 3 0 0 0 .536.143c.146.026.288.061.443.061 1.65 0 2.98-1.361 2.98-3.042 0-1.055-.584-1.986-1.437-2.52Zm-25.915 4.412-.01-.007c.221.267.395.578.518.917.021.057.021.122.04.18.091.306.163.624.163.965 0 .74-.256 1.422-.672 1.98-.605.81-1.56 1.35-2.648 1.35h-.052a3 3 0 0 0 .712.252c.199.046.401.079.608.079a3.023 3.023 0 0 0 3.021-3.022c0-1.171-.687-2.177-1.68-2.694Zm55.168-4.572c.125.164.202.353.299.532.248.46.43.949.432 1.502l.001.007a3.315 3.315 0 0 1-1.475 2.767 3.337 3.337 0 0 1-1.865.563h-.052l.008.003c.124.063.26.107.392.156.16.06.325.1.495.13.144.027.286.062.435.062.383 0 .744-.088 1.081-.219a3.031 3.031 0 0 0 1.95-2.823c0-1.155-.711-2.185-1.701-2.68Zm25.758 4.581c-.009-.004-.015-.012-.024-.016.139.163.221.369.323.56.239.45.41.945.41 1.502 0 1.815-1.485 3.33-3.32 3.33h-.052c.17.092.362.162.56.217.243.07.498.113.76.113 1.076 0 1.982-.603 2.518-1.458.29-.463.503-.98.503-1.563a2.93 2.93 0 0 0-.474-1.6 3.16 3.16 0 0 0-1.204-1.085Zm-39.73-27.576.004.006c.042.051.062.121.101.176.369.511.617 1.13.617 1.809 0 1.864-1.461 3.35-3.267 3.385.374.18.783.285 1.205.285.409 0 .813-.082 1.189-.242.065-.028.11-.084.173-.116.983-.498 1.68-1.482 1.68-2.642a2.944 2.944 0 0 0-1.702-2.661Zm-2.608 5.383c.021 0 .042-.006.063-.007-.037-.018-.078-.025-.115-.044l.052.05v.001Z"/>
  <path fill="#000" d="M467.362 469.796c0-1.453-1.206-2.67-2.68-2.67a2.684 2.684 0 0 0-2.681 2.67 2.66 2.66 0 0 0 .777 1.907 2.67 2.67 0 0 0 1.903.784 2.678 2.678 0 0 0 1.902-.785 2.667 2.667 0 0 0 .779-1.905v-.001Zm-28.36 7.295c.444 0 .846-.138 1.215-.335.864-.458 1.474-1.35 1.474-2.376 0-1.392-1.046-2.45-2.374-2.608-.105-.013-.197-.06-.306-.06l-.011-.002c-1.475 0-2.691 1.164-2.691 2.67 0 1.464 1.216 2.712 2.691 2.712h.002v-.001Zm56.213-4.813a2.676 2.676 0 0 0 1.645-2.482c0-.953-.55-1.766-1.326-2.24-.408-.248-.858-.43-1.365-.43-.744 0-1.411.305-1.894.792a2.666 2.666 0 0 0-.777 1.878c0 .379.074.736.208 1.059a2.645 2.645 0 0 0 2.463 1.632c.37 0 .723-.074 1.046-.21v.001Zm24.71 4.813c1.453 0 2.669-1.247 2.669-2.71a2.669 2.669 0 0 0-.776-1.886 2.664 2.664 0 0 0-1.884-.784l-.01-.002c-1.485 0-2.702 1.165-2.702 2.671 0 1.464 1.216 2.712 2.701 2.712h.002v-.001Zm-38.683-27.822a2.72 2.72 0 0 0 1.198-1.007c.293-.446.449-.967.448-1.5 0-1.454-1.217-2.65-2.691-2.65-1.475 0-2.681 1.196-2.681 2.65 0 1.127.677 2.092 1.637 2.506a2.626 2.626 0 0 0 2.089 0v.001Zm-65.903-6.117-.006-.018-.81 1.813-.982 2.194-.002.004 1.491.057 1.74.067h.006l-.356-1.021-1.081-3.096Zm2.965 4.672.008.005 1.15.742 1.554 1.005.001-.005.907-4.284-.106.074-3.514 2.463Zm5.201 5.914 2.988-3.257.002-.002-4.403.352 1.412 2.907h.001Zm.285 1.604-.19 2.153-.099 1.106 4.238-1.29-.009-.004-3.94-1.965Zm-.694 4.364-.002.004-1.761 2.74 4.31.845-1.242-1.75-1.305-1.839Zm-3.344 4.037-1.5.651-1.464.636.511.51 2.607 2.598.026.026-.175-4.423-.005.002Zm127.437-16.603-1.504-3.36-.29-.65v.002l-.18.516-1.264 3.627 3.238-.135Zm-8.373-1.847-.004-.002.897 4.29.013-.009 1.089-.707 1.6-1.038-2.003-1.412-1.592-1.122Zm-1.584 8.445.008-.017 1.208-2.47.207-.422-4.424-.35 3.001 3.259Zm-.273 1.603-3.965 1.967-.004.003 4.237 1.289-.268-3.259Zm-1.887 7.956 4.33-.845-1.763-2.743-2.567 3.588Zm8.862 1.732-.669-.292-2.29-.998v.004l-.155 4.416v.004l1.229-1.237 1.885-1.897Zm-60.125-57.149a3.456 3.456 0 0 0-3.453-3.465h-.002c-1.886.001-3.443 1.548-3.443 3.465 0 1.856 1.557 3.392 3.443 3.393h.002c1.907 0 3.454-1.536 3.454-3.393h-.001Zm-3.453 2.95c-.79 0-1.51-.333-2.04-.854a2.947 2.947 0 0 1-.899-2.096c0-1.64 1.33-2.98 2.939-2.98 1.65 0 2.97 1.34 2.97 2.98 0 .865-.406 1.634-1.022 2.179-.522.462-1.191.771-1.948.771Zm16.95 6.605c.4-.005.796-.084 1.167-.234.051-.02.097-.043.147-.066a3.265 3.265 0 0 0 1.902-2.884c0-.024.012-.043.012-.066a3.244 3.244 0 0 0-1.535-2.755 3.547 3.547 0 0 0-1.12-.932 3.37 3.37 0 0 0-1.602-.408c-.478 0-.931.095-1.343.267a3.408 3.408 0 0 0-2.101 3.156c0 1.207.615 2.28 1.558 2.89.314.202.665.353 1.04.44.121.09.263.135.394.205.44.236.917.394 1.442.394.014 0 .026-.008.04-.008l-.001.001Zm-3.979-3.919v-.002a2.949 2.949 0 0 1 2.95-2.949c1.607 0 2.917 1.33 2.917 2.95-.001 1.618-1.31 2.948-2.918 2.948a2.951 2.951 0 0 1-2.724-1.819 2.952 2.952 0 0 1-.225-1.128Zm-27.635-2.085c-.049-.063-.113-.111-.165-.17a3.413 3.413 0 0 0-2.567-1.17c-.558 0-1.078.144-1.546.379-1.125.563-1.909 1.704-1.909 3.044 0 1.287.734 2.395 1.788 2.977.263.146.533.284.832.354l.007.004c.534.388 1.16.594 1.828.594.014 0 .026-.008.041-.008.415-.005.81-.09 1.175-.235.043-.018.082-.037.125-.056a3.26 3.26 0 0 0 1.912-2.883c0-.027.016-.049.016-.076a3.245 3.245 0 0 0-1.537-2.754Zm.216 2.085a2.958 2.958 0 0 1-2.948 2.947 2.963 2.963 0 0 1-2.95-2.947v-.002a2.962 2.962 0 0 1 2.95-2.949 2.959 2.959 0 0 1 2.949 2.95l-.001.001Z"/>
  <path fill="#000" d="M480.351 405.251c-1.433 0-2.598 1.175-2.598 2.629a2.595 2.595 0 0 0 .763 1.829 2.586 2.586 0 0 0 1.835.749c1.454 0 2.62-1.144 2.62-2.578a2.629 2.629 0 0 0-.764-1.859 2.62 2.62 0 0 0-1.856-.77Zm15.926 5.669c-1.444 0-2.64 1.144-2.64 2.598s1.196 2.619 2.64 2.619a2.622 2.622 0 0 0 1.847-.77 2.613 2.613 0 0 0-.003-3.692 2.603 2.603 0 0 0-1.844-.756v.001Zm-33.316 0a2.59 2.59 0 0 0-2.609 2.598 2.588 2.588 0 0 0 .76 1.852 2.607 2.607 0 0 0 1.849.767 2.616 2.616 0 0 0 1.85-4.464 2.598 2.598 0 0 0-1.85-.754v.001Z"/>
  <path fill="#A2AAAD" d="M470.283 445.524v-36.56l-1.842-.828-16.572-7.437 17.073 41.564 1.34 3.261h.001Zm-3.07-31.263a3.242 3.242 0 0 1-1.912 2.883 3.238 3.238 0 0 1-1.3.29c-.015 0-.027.009-.041.009a3.08 3.08 0 0 1-1.828-.594c-.301-.071-.574-.21-.84-.358-1.053-.581-1.787-1.69-1.787-2.976 0-1.34.784-2.482 1.909-3.045.468-.237.99-.383 1.549-.383a3.38 3.38 0 0 1 2.563 1.173c.053.06.117.108.166.171a3.25 3.25 0 0 1 1.536 2.754c0 .027-.014.05-.015.076Zm41.651-13.56-12.099 5.427-6.314 2.835v36.546l6.134-14.915 12.279-29.893Zm-13.43 16.15a3.269 3.269 0 0 1-1.044-.448 3.44 3.44 0 0 1-1.558-2.889c0-1.424.86-2.639 2.1-3.156.413-.174.868-.27 1.348-.27a3.345 3.345 0 0 1 1.599.41c.43.23.812.544 1.12.933a3.255 3.255 0 0 1 1.535 2.754c0 .023-.013.043-.013.066a3.224 3.224 0 0 1-.87 2.134c-.291.315-.642.57-1.032.75-.05.023-.095.046-.146.066-.371.15-.767.229-1.167.234-.014 0-.026.008-.04.008-.525 0-1.003-.158-1.442-.394-.13-.068-.273-.112-.39-.198Zm-6.832-8.661-8.237-10.74-8.226 10.74 8.226 9.75 8.237-9.75Zm-8.247 3.083h-.002c-1.897 0-3.443-1.536-3.443-3.393a3.454 3.454 0 0 1 3.443-3.465h.002a3.453 3.453 0 0 1 3.455 3.465c0 1.857-1.547 3.393-3.454 3.393h-.001Z"/>
  <path fill="#A2AAAD" d="m541.06 434.12-10.663 14.262c.056 1.705.051 3.28.006 4.747-.32 10.823-3.043 15.324-3.043 15.324l-.004.005s-3.522-1.421-8.409-2.863l-.038-.011-.03-.009a90.554 90.554 0 0 0-7.326-1.834l-2.918-14.436a6.158 6.158 0 0 1-1.807-.305 6.877 6.877 0 0 1-1.63-.772s-.025-.052-.065-.065l-.003-.002-7.322 13.384h-.001l-.003.004s-2.173-.207-4.937-.422c-2.947-.226-6.564-.459-8.958-.459l.002-.005h-.006l4.145-12.838-.619-1.598-7.065-18.198-4.886 12.56-2.8 7.242 4.135 12.837c-2.181 0-5.396.196-8.188.402-3.108.233-5.685.48-5.685.48l-.004-.007-.022.002-4.553-8.329-2.222-4.044c-.424.09-.856.135-1.289.133-.667 0-1.282-.137-1.877-.322-.257-.079-.52-.144-.767-.25l-.966 4.752-2.071 10.256c-2.833.576-5.56 1.305-7.937 2.017-4.606 1.384-7.874 2.7-7.874 2.7s-1.49-2.502-2.388-8.204c-.482-3.022-.804-6.929-.65-11.876l-22.306-29.811 5.154 29.789c.145-.03.293-.052.44-.077a6.292 6.292 0 0 1 1.138-.124c2.09 0 3.984.918 5.353 2.392a8.257 8.257 0 0 1 2.189 5.636 8.261 8.261 0 0 1-1.002 3.933c-1.125 2.087-3.101 3.6-5.426 3.99l1.166 6.776 3.282 18.987a137.997 137.997 0 0 1 7.888-2.723c10.935-3.438 29.886-8.124 52.154-8.124 12.455 0 23.858 1.471 33.423 3.365a179.063 179.063 0 0 1 17.876 4.488c3.925 1.21 6.93 2.29 8.77 2.993l1.44-8.353 2.996-17.41a7.266 7.266 0 0 1-1.305-.35c-1.176-.431-2.208-1.175-3.04-2.118a8.176 8.176 0 0 1-2.072-5.45c0-4.433 3.392-8.032 7.558-8.032a6.3 6.3 0 0 1 1.096.115c.165.028.331.054.493.086l5.1-29.775-11.627 15.538v.001Zm-121.152 34.044-2.608-2.624-.511-.51 1.463-.635 1.501-.654v.002l.005-.002.175 4.423-.026-.026.001.026Zm-3.135-20.89-1.742-.072-1.491-.057.002-.004-.017-.001.998-2.193.81-1.813.007.018.01-.023 1.07 3.119.357 1.02h-.006l.002.006Zm4.248 2.3-.003-.003v.005l-1.556-1.005-1.153-.74.004-.002-.008-.005 3.514-2.463.11-.077-.908 4.29Zm1.072 1.257 4.403-.352-.002.002h.002l-2.99 3.259v-.002l-1.413-2.907Zm-.763 11.621 1.764-2.743.003-.003 1.305 1.838 1.249 1.753-4.32-.845h-.001Zm2.172-3.851.099-1.106.184-2.158 3.949 1.97h-.003l.01.005-4.239 1.288v.001Zm12.808 15.78c0-1.507 1.216-2.671 2.691-2.671l.011.002h.002c.108 0 .2.048.304.06 1.328.158 2.374 1.216 2.374 2.608 0 1.025-.61 1.918-1.474 2.376-.367.198-.765.338-1.204.338-.004 0-.007-.003-.011-.003H439c-1.475 0-2.691-1.247-2.691-2.71h.001Zm3.972 3.672c-.212 0-.419-.035-.621-.084a3.048 3.048 0 0 1-.712-.252h.006l-.013-.005h.072c1.075 0 2.029-.535 2.635-1.345.416-.558.672-1.24.672-1.98 0-.34-.072-.659-.164-.965-.018-.058-.018-.123-.039-.18a3.118 3.118 0 0 0-.519-.917l.01.007-.007-.013c1 .516 1.691 1.527 1.691 2.712 0 1.65-1.341 3.022-3.011 3.022Zm21.72-8.257a2.684 2.684 0 0 1 2.68-2.67c1.475 0 2.681 1.217 2.681 2.67a2.68 2.68 0 0 1-1.651 2.489 2.688 2.688 0 0 1-1.029.202 2.66 2.66 0 0 1-1.904-.784 2.649 2.649 0 0 1-.777-1.906v-.001Zm3.986 3.689c-.159 0-.301-.037-.449-.064a2.905 2.905 0 0 1-.536-.144c-.123-.046-.25-.086-.366-.143h.002l-.008-.003h.052a3.32 3.32 0 0 0 3.33-3.33c0-.604-.205-1.136-.492-1.627-.084-.14-.141-.292-.244-.422.006.002.01.007.016.01 0 0 0-.002-.002-.003.085.043.153.11.234.16.87.542 1.443 1.463 1.443 2.524 0 1.67-1.34 3.042-2.98 3.042Zm11.518-26.726c0-1.455 1.206-2.65 2.69-2.65 1.496 0 2.702 1.195 2.702 2.65a2.719 2.719 0 0 1-2.7 2.725c-.359 0-.715-.074-1.044-.216a2.725 2.725 0 0 1-1.648-2.51v.001Zm5.322 3.31c-.063.031-.108.087-.173.115-.376.16-.781.242-1.189.242-.422 0-.83-.105-1.205-.285-.021 0-.042.007-.063.007l-.052-.051c.036.02.078.026.115.044 1.806-.035 3.267-1.521 3.267-3.385 0-.678-.248-1.298-.617-1.81-.041-.055-.06-.126-.106-.178.002 0 .003.002.005.003l-.004-.006a2.948 2.948 0 0 1 1.702 2.66c0 1.16-.697 2.145-1.68 2.643v.001Zm8.88 20.786a2.748 2.748 0 0 1-.21-1.062c0-.727.296-1.392.779-1.875a2.653 2.653 0 0 1 1.893-.792c.507 0 .957.182 1.365.43.782.47 1.335 1.281 1.335 2.237a2.685 2.685 0 0 1-.448 1.495 2.683 2.683 0 0 1-1.206.99c-.323.135-.676.21-1.046.21a2.643 2.643 0 0 1-2.463-1.633h.001Zm4.821 2.408a2.939 2.939 0 0 1-1.082.222c-.146 0-.29-.037-.434-.064a2.886 2.886 0 0 1-.495-.131c-.136-.05-.276-.095-.401-.156h.009c-.003 0-.006-.002-.008-.003h.051c.439.003.874-.082 1.28-.249a3.308 3.308 0 0 0 1.81-1.808c.167-.406.252-.841.25-1.28-.002-.553-.185-1.043-.433-1.502-.1-.182-.178-.373-.31-.54.005.002.008.006.012.008.99.494 1.701 1.525 1.701 2.68a3.032 3.032 0 0 1-1.95 2.823Zm20.694 1.117c0-1.506 1.217-2.67 2.702-2.67l.01.002a2.637 2.637 0 0 1 1.888.779 2.64 2.64 0 0 1 .773 1.891c0 1.453-1.196 2.712-2.66 2.712-.004 0-.007-.003-.01-.003h-.001c-1.486 0-2.702-1.247-2.702-2.71v-.001Zm6.488 2.21c-.527.855-1.424 1.463-2.507 1.463-.273 0-.529-.047-.771-.119a2.799 2.799 0 0 1-.56-.217h.014l-.013-.005h.062c1.825 0 3.3-1.505 3.3-3.33 0-.556-.17-1.047-.401-1.497-.102-.191-.184-.397-.323-.56.009.004.015.012.024.016-.005-.006-.007-.015-.012-.022.5.259.92.64 1.216 1.107.3.464.474 1.011.474 1.6 0 .584-.213 1.1-.503 1.564Zm17.26-12.85.005.003v-.004l2.29.998.674.293-1.89 1.896-1.23 1.237.001-.004-.005.005.154-4.423.001-.001Zm-7.982-6.433 3.97-1.97v.005h.001l.268 3.258-4.237-1.289.005-.003-.007-.001Zm6.414 5.145-4.33.845 2.567-3.588 1.763 2.743Zm-.954-11.2-1.19 2.487-.018-.018-.008.016-3-3.258 4.423.35-.207.423Zm2.363-2.387-1.09.708-.012.007-.897-4.29.004.003-.002-.009 1.594 1.131 2.003 1.412-1.6 1.038Zm6.378-1.724-3.238.134 1.263-3.627.179-.52.001.004.001-.002.29.65 1.512 3.36-.008.001Z"/>
</svg>
